<svg width="18" height="22" viewBox="0 0 18 22" fill="none" xmlns="http://www.w3.org/2000/svg">
<path d="M8.55015 8.55261H4.27295V12.8298H8.55015V8.55261Z" fill="#99F1FF"/>
<path d="M8.55015 17.1096H4.27295V21.3868H8.55015V17.1096Z" fill="#99F1FF"/>
<path d="M17.1088 4.27591V17.1075V20.1184C17.1088 20.4539 16.9755 20.7757 16.7383 21.0129C16.5011 21.2501 16.1793 21.3834 15.8438 21.3834H8.55441V17.1062H11.4811C11.8388 17.1055 12.1817 16.9632 12.4348 16.7104C12.6879 16.4575 12.8306 16.1147 12.8316 15.7569V12.8316H8.55441V8.55441H12.8316V5.62905C12.8318 5.45158 12.797 5.27581 12.7292 5.1118C12.6614 4.9478 12.5619 4.79877 12.4365 4.67322C12.3111 4.54768 12.1621 4.44806 11.9982 4.38011C11.8342 4.31216 11.6585 4.2772 11.4811 4.2772H4.2772V21.386H0V0H12.8316L17.1088 4.27591Z" fill="#0BD1FF"/>
</svg>
