<svg width="165" height="28" viewBox="0 0 165 28" fill="none" xmlns="http://www.w3.org/2000/svg">
<path d="M21.5391 4.25793H32.3176V5.66035C32.3176 5.8666 32.2357 6.06441 32.0898 6.21025C31.944 6.35609 31.7462 6.43802 31.5399 6.43802H23.8643V11.8143H31.7357V13.2167C31.7357 13.423 31.6537 13.6208 31.5079 13.7667C31.362 13.9125 31.1642 13.9944 30.958 13.9944H23.8643V21.4056H21.5391V4.25793Z" fill="#242E47"/>
<path d="M34.3259 15.665C34.3194 14.8579 34.4804 14.0582 34.799 13.3165C35.1054 12.6018 35.5453 11.9521 36.0951 11.4021C37.2498 10.2619 38.8072 9.62256 40.43 9.62256C42.0527 9.62256 43.6101 10.2619 44.7648 11.4021C45.3142 11.9524 45.754 12.602 46.061 13.3165C46.379 14.0583 46.5397 14.858 46.5328 15.665C46.538 16.4598 46.3844 17.2477 46.0808 17.9822C45.7772 18.7167 45.3297 19.3831 44.7648 19.9422C43.6063 21.075 42.0503 21.7093 40.43 21.7093C38.8096 21.7093 37.2537 21.075 36.0951 19.9422C35.5304 19.3829 35.083 18.7165 34.7792 17.982C34.4754 17.2476 34.3213 16.4598 34.3259 15.665ZM36.6511 15.665C36.6457 16.2135 36.7361 16.7587 36.9181 17.2761C37.0798 17.7424 37.3352 18.1707 37.6686 18.5347C38.0021 18.8897 38.4066 19.1706 38.8558 19.359C39.8666 19.7616 40.9933 19.7616 42.0041 19.359C42.4528 19.1702 42.8568 18.8894 43.1901 18.5347C43.5243 18.1711 43.7801 17.7427 43.9418 17.2761C44.2961 16.2313 44.2961 15.0988 43.9418 14.054C43.7794 13.5877 43.5236 13.1594 43.1901 12.7954C42.8568 12.4407 42.4528 12.1598 42.0041 11.9711C40.9933 11.5685 39.8666 11.5685 38.8558 11.9711C38.4066 12.1595 38.0021 12.4404 37.6686 12.7954C37.3358 13.1598 37.0805 13.588 36.9181 14.054C36.7363 14.5714 36.646 15.1166 36.6511 15.665Z" fill="#242E47"/>
<path d="M62.7876 9.926H64.1887C64.395 9.926 64.5928 10.008 64.7386 10.1538C64.8845 10.2996 64.9664 10.4974 64.9664 10.7037V11.6939H65.0156C65.3142 11.0539 65.8153 10.5301 66.4414 10.2034C67.1624 9.81405 67.972 9.61801 68.7912 9.63437C69.3306 9.63436 69.8664 9.72191 70.3777 9.89359C70.8739 10.0554 71.3287 10.324 71.7101 10.6803C72.1087 11.065 72.4184 11.5321 72.6174 12.0491C72.857 12.6785 72.9723 13.3484 72.957 14.0218V21.4097H70.7795V14.6283C70.7906 14.1627 70.7168 13.6989 70.5617 13.2596C70.4381 12.914 70.2398 12.5998 69.9811 12.3394C69.7443 12.1088 69.4585 11.9347 69.1451 11.83C68.8287 11.725 68.4973 11.672 68.1639 11.6732C67.7343 11.6692 67.3075 11.743 66.9041 11.8909C66.5153 12.0373 66.167 12.2741 65.8879 12.5818C65.5785 12.9283 65.3469 13.3371 65.2088 13.7807C65.037 14.337 64.9552 14.9172 64.9664 15.4993V21.4097H62.7876V9.926Z" fill="#242E47"/>
<path d="M59.442 21.406H57.2619V19.6381H57.214C56.9147 20.2773 56.4138 20.8006 55.7882 21.1274C55.0677 21.5169 54.2586 21.7129 53.4397 21.6964C52.896 21.6979 52.3557 21.6103 51.8403 21.4371C51.3487 21.2728 50.8985 21.004 50.5208 20.6491C50.1222 20.2649 49.8126 19.7982 49.6135 19.2817C49.3751 18.6515 49.2602 17.9813 49.2752 17.3077V9.9198H50.6763C50.8826 9.9198 51.0804 10.0017 51.2262 10.1476C51.3721 10.2934 51.454 10.4912 51.454 10.6975V16.7011C51.4426 17.1665 51.5168 17.63 51.6731 18.0685C51.7962 18.4144 51.9946 18.7287 52.2537 18.9888C52.4902 19.2197 52.776 19.3939 53.0897 19.4981C53.4061 19.6032 53.7375 19.6561 54.0709 19.655C54.5001 19.6588 54.9265 19.585 55.3294 19.4372C55.7183 19.2909 56.0669 19.0546 56.3469 18.7477C56.6556 18.4009 56.8868 17.9921 57.0247 17.5488C57.1971 16.9921 57.2789 16.4114 57.2671 15.8288V9.9198H58.6695C58.8758 9.9198 59.0736 10.0017 59.2194 10.1476C59.3653 10.2934 59.4472 10.4912 59.4472 10.6975L59.442 21.406Z" fill="#242E47"/>
<path d="M87.7056 21.4064H85.5255V19.759H85.4776C85.0423 20.3843 84.4432 20.8775 83.746 21.1847C83.0373 21.5174 82.2645 21.6908 81.4816 21.6928C80.6556 21.7044 79.8358 21.5478 79.0721 21.2327C78.374 20.9402 77.7461 20.5023 77.2304 19.9482C76.7181 19.3931 76.3192 18.7432 76.0561 18.0351C75.7753 17.2758 75.6357 16.4715 75.6439 15.6619C75.6366 14.8486 75.7762 14.0407 76.0561 13.2771C76.3158 12.567 76.715 11.916 77.2304 11.3627C77.7492 10.8154 78.3765 10.3823 79.0721 10.0912C79.8358 9.77603 80.6556 9.61947 81.4816 9.63107C82.2859 9.62609 83.0809 9.80334 83.8069 10.1495C84.4854 10.4561 85.0642 10.9469 85.4776 11.5662H85.5255V4.16663H86.9279C87.1342 4.16663 87.332 4.24855 87.4778 4.3944C87.6237 4.54024 87.7056 4.73805 87.7056 4.9443V21.4064ZM81.7435 19.6618C82.2835 19.6702 82.8196 19.5674 83.3182 19.3598C83.767 19.1706 84.1714 18.8899 84.5055 18.5355C84.8388 18.1715 85.0942 17.7432 85.2559 17.2769C85.6102 16.2321 85.6102 15.0996 85.2559 14.0547C85.0936 13.5887 84.8383 13.1606 84.5055 12.7962C84.1714 12.4418 83.767 12.161 83.3182 11.9719C82.3074 11.5692 81.1808 11.5692 80.17 11.9719C79.7208 12.1603 79.3162 12.4412 78.9827 12.7962C78.6499 13.1606 78.3946 13.5887 78.2323 14.0547C77.8762 15.0993 77.8762 16.2324 78.2323 17.2769C78.394 17.7432 78.6494 18.1715 78.9827 18.5355C79.3162 18.8905 79.7208 19.1713 80.17 19.3598C80.6696 19.5671 81.2065 19.669 81.7473 19.6592L81.7435 19.6618Z" fill="#242E47"/>
<path d="M92.647 16.4652C92.6412 16.9414 92.7534 17.4116 92.9736 17.8339C93.1889 18.2379 93.4839 18.5942 93.8407 18.8811C94.208 19.1796 94.626 19.4096 95.0746 19.5603C95.5426 19.7209 96.0341 19.8024 96.5289 19.8014C97.1512 19.8166 97.7648 19.6528 98.2968 19.3296C98.6305 19.1183 98.9395 18.8705 99.2183 18.5908C99.351 18.4555 99.5286 18.3734 99.7176 18.3598C99.9066 18.3462 100.094 18.402 100.245 18.5169L101.323 19.3413C100.114 20.9078 98.4182 21.6911 96.2372 21.6911C95.3939 21.7033 94.5567 21.5468 93.7746 21.231C93.0696 20.9444 92.4338 20.511 91.9095 19.9595C91.3935 19.4072 90.9941 18.7566 90.7352 18.0464C90.4553 17.2824 90.3156 16.474 90.323 15.6603C90.3155 14.8437 90.4679 14.0335 90.7715 13.2754C91.0553 12.5633 91.4748 11.9131 92.0067 11.361C92.5396 10.8144 93.1782 10.3818 93.8835 10.0895C94.6356 9.77814 95.4427 9.62167 96.2567 9.62943C97.2737 9.62943 98.1335 9.80698 98.836 10.1621C99.5083 10.4941 100.099 10.9698 100.568 11.5554C101.02 12.1297 101.354 12.7884 101.549 13.4931C101.75 14.2063 101.852 14.9438 101.852 15.6849C101.852 15.8912 101.77 16.0889 101.624 16.2348C101.478 16.3806 101.281 16.4626 101.074 16.4626L92.647 16.4652ZM99.5255 14.7206C99.5144 14.2679 99.4366 13.8194 99.2948 13.3894C99.1653 12.9988 98.9551 12.6398 98.6778 12.3357C98.3908 12.0285 98.0394 11.7887 97.6487 11.6332C97.1899 11.4534 96.7002 11.3653 96.2074 11.374C95.7028 11.3684 95.2028 11.4714 94.7415 11.676C94.3187 11.8634 93.9362 12.1311 93.6152 12.464C93.315 12.7778 93.0732 13.1425 92.901 13.5411C92.7351 13.9107 92.6468 14.3104 92.6418 14.7154L99.5255 14.7206Z" fill="#242E47"/>
<path d="M104.468 9.92523H105.869C106.075 9.92523 106.273 10.0072 106.419 10.153C106.565 10.2989 106.647 10.4967 106.647 10.7029V11.6932H106.696C106.842 11.3843 107.038 11.1019 107.276 10.8572C107.517 10.6084 107.79 10.3926 108.088 10.2156C108.396 10.0341 108.726 9.89172 109.069 9.79173C109.415 9.68793 109.774 9.63467 110.134 9.6336C110.463 9.63005 110.791 9.67907 111.104 9.77878L111.007 12.1286C110.829 12.0807 110.652 12.0405 110.474 12.0068C110.298 11.9754 110.12 11.9594 109.941 11.9589C108.876 11.9589 108.06 12.2578 107.494 12.8558C106.928 13.4537 106.646 14.3817 106.647 15.6398V21.405H104.468V9.92523Z" fill="#242E47"/>
<path d="M135.888 23.3192C135.645 23.9491 135.411 24.506 135.185 24.9899C134.977 25.4478 134.685 25.8629 134.324 26.2134C133.948 26.561 133.496 26.8177 133.005 26.9639C132.472 27.1367 131.769 27.2231 130.897 27.2231C129.977 27.2251 129.061 27.078 128.187 26.7876L128.672 23.8065C129.206 24.0448 129.783 24.1684 130.367 24.1694C130.703 24.1799 131.038 24.1361 131.36 24.0398C131.603 23.9622 131.825 23.8291 132.008 23.651C132.185 23.4719 132.328 23.263 132.432 23.034C132.544 22.7921 132.666 22.5095 132.796 22.1864L133.056 21.5072L127.897 9.63989H131.816L134.844 17.4166H134.892L137.484 9.63989H141.213L135.888 23.3192Z" fill="black"/>
<path d="M150.681 12.5419H148.262V16.4652C148.261 16.7606 148.277 17.0557 148.31 17.3492C148.335 17.5914 148.409 17.8261 148.528 18.0387C148.648 18.2397 148.83 18.3969 149.046 18.4872C149.343 18.6031 149.661 18.6565 149.98 18.644C150.235 18.6396 150.489 18.6197 150.742 18.5844C151.002 18.5656 151.251 18.4685 151.456 18.3057V21.3334C151.049 21.479 150.627 21.5764 150.197 21.6238C149.771 21.6714 149.342 21.6956 148.913 21.6964C148.342 21.7013 147.773 21.636 147.218 21.5019C146.73 21.3864 146.269 21.1768 145.862 20.885C145.472 20.5994 145.16 20.2206 144.955 19.7833C144.723 19.2656 144.612 18.7026 144.628 18.1359V12.5419H142.303V9.63463H144.628V6.14807H147.479C147.686 6.14807 147.883 6.23 148.029 6.37584C148.175 6.52168 148.257 6.71949 148.257 6.92574V9.63463H151.453V11.7642C151.453 11.9695 151.372 12.1666 151.227 12.3122C151.083 12.4579 150.886 12.5405 150.681 12.5419Z" fill="black"/>
<path d="M164.441 19.3705C163.858 20.1149 163.101 20.7053 162.238 21.0905C161.371 21.4888 160.429 21.6953 159.475 21.6957C158.605 21.7014 157.74 21.554 156.921 21.2603C156.15 20.9867 155.442 20.5624 154.838 20.0121C154.244 19.4673 153.77 18.8053 153.446 18.0679C153.11 17.2622 152.937 16.3979 152.937 15.5249C152.937 14.6519 153.11 13.7876 153.446 12.9819C153.771 12.2447 154.245 11.5827 154.838 11.0377C155.443 10.4879 156.151 10.0636 156.921 9.78957C157.74 9.49583 158.605 9.34841 159.475 9.35406C160.26 9.34333 161.039 9.49148 161.764 9.78957C162.433 10.0683 163.029 10.495 163.509 11.0377C164.001 11.6068 164.375 12.2675 164.611 12.9819C164.879 13.8025 165.01 14.6617 165 15.5249V15.8852C165 16.0915 164.918 16.2893 164.772 16.4351C164.626 16.581 164.428 16.6629 164.222 16.6629H156.575C156.691 17.3076 157.024 17.893 157.52 18.3219C158.021 18.7404 158.659 18.9603 159.312 18.9402C159.845 18.9575 160.371 18.8183 160.826 18.5397C161.06 18.39 161.277 18.2163 161.474 18.0212C161.605 17.89 161.779 17.8099 161.964 17.7954C162.149 17.7809 162.333 17.8329 162.482 17.9422L164.441 19.3705ZM161.365 14.186C161.378 13.8962 161.331 13.6068 161.227 13.336C161.123 13.0652 160.964 12.8189 160.76 12.6125C160.55 12.3959 160.298 12.2257 160.018 12.1129C159.739 12.0002 159.438 11.9474 159.137 11.958C158.773 11.9505 158.41 12.0166 158.072 12.1524C157.782 12.2699 157.515 12.438 157.284 12.6488C157.069 12.8464 156.896 13.0853 156.776 13.3513C156.655 13.6139 156.585 13.8972 156.57 14.186H161.365Z" fill="black"/>
<path d="M126.784 15.1283C126.614 14.6598 126.353 14.2292 126.017 13.8607C125.682 13.489 125.279 13.1838 124.831 12.9612C124.348 12.7198 123.828 12.5608 123.293 12.4907V12.4389C124.125 12.2012 124.871 11.7271 125.44 11.074C125.977 10.435 126.248 9.63273 126.248 8.66063C126.248 7.72483 126.064 6.97569 125.69 6.40669C125.33 5.84745 124.83 5.39249 124.239 5.08725C123.606 4.75949 122.92 4.54664 122.213 4.45862C121.471 4.35234 120.723 4.29907 119.974 4.29919H117.356V7.49672H113.578V20.1482C113.578 20.3202 113.612 20.4905 113.678 20.6495C113.744 20.8084 113.84 20.9527 113.962 21.0743C114.084 21.1959 114.228 21.2923 114.387 21.358C114.546 21.4237 114.716 21.4574 114.889 21.4573H120.603C121.373 21.4563 122.141 21.3742 122.893 21.2123C123.625 21.0659 124.326 20.7964 124.967 20.4152C125.574 20.0477 126.088 19.5457 126.469 18.948C126.858 18.3388 127.053 17.587 127.053 16.6824C127.054 16.1527 126.963 15.6269 126.784 15.1283ZM117.356 7.49672H119.923C120.225 7.49804 120.526 7.52713 120.822 7.58358C121.11 7.63248 121.389 7.72743 121.646 7.86483C121.907 7.99774 122.123 8.20308 122.269 8.45606C122.415 8.70904 122.485 8.99885 122.47 9.29056C122.479 9.59506 122.408 9.89666 122.265 10.1654C122.132 10.3996 121.944 10.598 121.718 10.7435C121.485 10.895 121.227 11.0022 120.956 11.0598C120.673 11.1249 120.383 11.1575 120.092 11.157H117.356V7.49672ZM123.037 17.1891C122.89 17.443 122.687 17.6598 122.444 17.8229C122.196 17.9846 121.92 18.0988 121.631 18.1599C121.342 18.2243 121.047 18.2569 120.751 18.2571H117.356V14.3558H120.208C120.541 14.3586 120.874 14.3828 121.205 14.4284C121.546 14.4699 121.88 14.5571 122.197 14.6876C122.495 14.8097 122.756 15.005 122.958 15.2553C123.171 15.5369 123.277 15.8842 123.26 16.2365C123.276 16.5706 123.199 16.9026 123.037 17.1956V17.1891Z" fill="black"/>
<path d="M116.047 2.35022H111.992V6.18802H116.047V2.35022Z" fill="#3BCFF0"/>
<path d="M8.55015 8.55261H4.27295V12.8298H8.55015V8.55261Z" fill="#99F1FF"/>
<path d="M8.55015 17.1096H4.27295V21.3868H8.55015V17.1096Z" fill="#99F1FF"/>
<path d="M17.1088 4.27591V17.1075V20.1184C17.1088 20.4539 16.9755 20.7757 16.7383 21.0129C16.5011 21.2501 16.1793 21.3834 15.8438 21.3834H8.55441V17.1062H11.4811C11.8388 17.1055 12.1817 16.9632 12.4348 16.7104C12.6879 16.4575 12.8306 16.1147 12.8316 15.7569V12.8316H8.55441V8.55441H12.8316V5.62905C12.8318 5.45158 12.797 5.27581 12.7292 5.1118C12.6614 4.9478 12.5619 4.79877 12.4365 4.67322C12.3111 4.54768 12.1621 4.44806 11.9982 4.38011C11.8342 4.31216 11.6585 4.2772 11.4811 4.2772H4.2772V21.386H0V0H12.8316L17.1088 4.27591Z" fill="#0BD1FF"/>
</svg>
