<svg width="158" height="279" viewBox="0 0 158 279" fill="none" xmlns="http://www.w3.org/2000/svg">
<path fill-rule="evenodd" clip-rule="evenodd" d="M76.7271 0.0856562C76.9827 -0.00232729 77.2599 -0.00510046 77.5172 0.0777525L111.021 10.8673C111.21 10.9281 111.382 11.0329 111.522 11.1732L129.126 28.7771C129.209 28.8599 129.28 28.9539 129.336 29.0564L141.262 50.6354C141.364 50.8205 141.417 51.0286 141.417 51.24V69.4118C141.417 69.4999 141.408 69.5877 141.39 69.6737L134.575 101.474C134.538 101.648 134.465 101.811 134.359 101.954L118.567 123.386L110.714 145.262L105.787 172.748L106.811 173.433C109.275 175.083 110.229 178.245 109.089 180.982C108.125 183.296 105.864 184.803 103.357 184.803H49.2066C47.3628 184.803 46.0795 186.635 46.7091 188.368C47.0908 189.419 48.0889 190.118 49.2066 190.118H101.068C104.103 190.118 106.215 193.134 105.178 195.986C104.55 197.714 102.907 198.864 101.068 198.864H54.0616C52.5958 198.864 51.6589 200.427 52.3492 201.72C52.6867 202.352 53.345 202.747 54.0616 202.747H97.2698C100.45 202.747 102.567 206.034 101.251 208.93C100.541 210.491 98.9847 211.493 97.2698 211.493H59.4341C58.1987 211.493 57.4356 212.841 58.0712 213.9C58.3585 214.379 58.8758 214.672 59.4341 214.672H88.5081C93.1781 214.672 95.5168 220.318 92.2146 223.62L91.3307 222.736L92.1771 223.656C86.2169 229.14 80.1075 230.343 74.8815 229.522C69.7226 228.712 65.5163 225.947 63.1892 223.62C62.701 223.132 62.701 222.341 63.1892 221.853C63.6773 221.364 64.4688 221.364 64.9569 221.853C66.9835 223.879 70.7273 226.339 75.2695 227.052C79.7388 227.754 85.0736 226.784 90.4638 221.835C92.166 220.106 90.9428 217.172 88.5081 217.172H59.4341C57.9977 217.172 56.6665 216.418 55.9275 215.187C54.2921 212.461 56.2555 208.993 59.4341 208.993H97.2698C98.0044 208.993 98.6712 208.564 98.9752 207.895C99.5389 206.655 98.6322 205.247 97.2698 205.247H54.0616C52.4221 205.247 50.9159 204.343 50.1438 202.897C48.5645 199.939 50.7081 196.364 54.0616 196.364H101.068C101.856 196.364 102.56 195.872 102.829 195.131C103.273 193.91 102.368 192.618 101.068 192.618H49.2066C47.0374 192.618 45.1002 191.261 44.3594 189.222C43.1374 185.859 45.6282 182.303 49.2066 182.303H103.357C104.854 182.303 106.205 181.403 106.781 180.02C107.463 178.385 106.893 176.496 105.42 175.511L104.033 174.582H46.4691C45.859 174.582 45.3381 174.141 45.2365 173.54L37.8953 130.057L16.4468 95.6269C16.3704 95.5042 16.3158 95.3692 16.2855 95.2278L9.47111 63.4272C9.427 63.2214 9.43559 63.0077 9.49608 62.8061L16.3105 40.0913C16.3647 39.9108 16.459 39.7448 16.5863 39.6059L41.5726 12.3482C41.7133 12.1946 41.8902 12.0787 42.0871 12.0109L76.7271 0.0856562ZM40.3555 129.612L47.3456 171.015L89.8674 136.615L85.1835 123.603L46.0833 97.5361L40.3555 129.612ZM46.5628 94.8511L85.4498 120.776L90.4247 101.525L51.2929 68.3624L46.5628 94.8511ZM54.4726 67.7801L91.1194 98.8367L97.7159 73.3112L54.4726 67.7801ZM99.3173 70.9957L138.917 68.2456V52.0126L121.827 43.4674L92.8406 49.5992L55.2271 65.3562L99.3173 70.9957ZM51.4414 64.2316L89.8991 48.121L44.1656 15.8996L51.4414 64.2316ZM49.2034 16.3908L92.7409 47.065L121.147 41.056L126.721 29.9078L111.106 14.2921L105.576 28.4132C105.423 28.8037 105.085 29.0915 104.675 29.1795C104.265 29.2676 103.838 29.1442 103.538 28.8509L77.8666 3.73316L73.8113 21.982C73.7367 22.3177 73.5271 22.6079 73.2318 22.7842C72.9365 22.9604 72.5816 23.0073 72.2507 22.9136L49.2034 16.3908ZM81.7989 4.08305L103.937 25.7434L108.99 12.8394L81.7989 4.08305ZM75.4293 3.17643L71.658 20.1477L46.6725 13.0763L75.4293 3.17643ZM41.6474 15.9662L18.6228 41.084L12.3391 62.0296L48.9757 64.6465L41.6474 15.9662ZM48.9694 67.1525L44.2934 93.3382L28.9907 83.1364C28.4949 82.8058 27.8347 82.8712 27.4134 83.2925L18.2486 92.4574L12.2643 64.5307L48.9694 67.1525ZM19.0937 95.1477L38.428 126.184L43.814 96.0232L28.4566 85.7849L19.0937 95.1477ZM128.298 32.3455L137.127 48.3221L123.673 41.5951L128.298 32.3455ZM138.597 70.7739L101.016 73.3837L113.754 108.811L132.262 100.337L138.597 70.7739ZM129.481 104.36L114.603 111.172L117.836 120.164L129.481 104.36ZM114.695 118.816L112.322 112.216L108.806 113.826L114.695 118.816ZM106.7 112.04L111.473 109.855L99.4766 76.4899L93.2377 100.632L106.7 112.04ZM92.5429 103.32L104.189 113.19L88.0872 120.562L92.5429 103.32ZM87.9984 124.042L91.9252 134.951L96.2232 131.473C96.3008 131.411 96.3855 131.358 96.4757 131.315L111.878 124.042H87.9984ZM114.044 121.542L106.296 114.975L91.953 121.542H114.044ZM115.256 125.211L97.6789 133.511L92.8216 137.441L104.006 168.513L108.272 144.718C108.284 144.649 108.302 144.582 108.326 144.516L115.256 125.211ZM102.634 172.082L90.7638 139.106L50.0017 172.082H102.634Z" fill="#8089A5"/>
<path d="M28.2954 84.1765L50.4423 66.0047L17.5059 40.4506L72.5891 21.7109L86.218 29.0932M86.218 29.0932L104.39 27.9575L121.994 42.1542L139.598 69.4119M86.218 29.0932L92.4645 48.4008L99.279 72.2513" stroke="white" stroke-width="1.75" stroke-linecap="round" stroke-linejoin="round"/>
<path d="M39.084 129.605L86.785 122.791L97.0066 132.445L108.932 145.506" stroke="white" stroke-width="1.75" stroke-linecap="round"/>
<g filter="url(#filter0_d)">
<path fill-rule="evenodd" clip-rule="evenodd" d="M72.2051 24.8286V18.9551H73.3408V24.8286H72.2051Z" fill="white"/>
<path fill-rule="evenodd" clip-rule="evenodd" d="M69.8393 21.3242L75.7129 21.3242L75.7129 22.46L69.8393 22.46L69.8393 21.3242Z" fill="white"/>
<path fill-rule="evenodd" clip-rule="evenodd" d="M70.2726 23.5692L74.4258 19.416L75.2289 20.2191L71.0756 24.3723L70.2726 23.5692Z" fill="white"/>
<path fill-rule="evenodd" clip-rule="evenodd" d="M71.0733 19.4132L75.2266 23.5664L74.4235 24.3695L70.2702 20.2163L71.0733 19.4132Z" fill="white"/>
</g>
<g filter="url(#filter1_d)">
<path fill-rule="evenodd" clip-rule="evenodd" d="M85.8223 32.4446V24.9648H86.958V32.4446H85.8223Z" fill="white"/>
<path fill-rule="evenodd" clip-rule="evenodd" d="M82.655 28.1367L90.1348 28.1367L90.1348 29.2725L82.655 29.2725L82.655 28.1367Z" fill="white"/>
<path fill-rule="evenodd" clip-rule="evenodd" d="M83.3497 30.9452L88.6387 25.6562L89.4418 26.4593L84.1528 31.7483L83.3497 30.9452Z" fill="white"/>
<path fill-rule="evenodd" clip-rule="evenodd" d="M84.1544 25.6563L89.4434 30.9453L88.6403 31.7484L83.3513 26.4594L84.1544 25.6563Z" fill="white"/>
</g>
<g filter="url(#filter2_d)">
<path fill-rule="evenodd" clip-rule="evenodd" d="M91.5039 51.7493V44.2695H92.6396V51.7493H91.5039Z" fill="white"/>
<path fill-rule="evenodd" clip-rule="evenodd" d="M88.3367 47.4414L95.8164 47.4414L95.8164 48.5771L88.3367 48.5771L88.3367 47.4414Z" fill="white"/>
<path fill-rule="evenodd" clip-rule="evenodd" d="M89.0255 50.2519L94.3145 44.9629L95.1175 45.766L89.8286 51.0549L89.0255 50.2519Z" fill="white"/>
<path fill-rule="evenodd" clip-rule="evenodd" d="M89.8302 44.963L95.1191 50.252L94.3161 51.055L89.0271 45.7661L89.8302 44.963Z" fill="white"/>
</g>
<g filter="url(#filter3_d)">
<path fill-rule="evenodd" clip-rule="evenodd" d="M49.4746 69.9211V62.4414H50.6103V69.9211H49.4746Z" fill="white"/>
<path fill-rule="evenodd" clip-rule="evenodd" d="M46.3074 65.6133L53.7871 65.6133L53.7871 66.749L46.3074 66.749L46.3074 65.6133Z" fill="white"/>
<path fill-rule="evenodd" clip-rule="evenodd" d="M47.002 68.4237L52.291 63.1348L53.0941 63.9379L47.8051 69.2268L47.002 68.4237Z" fill="white"/>
<path fill-rule="evenodd" clip-rule="evenodd" d="M47.8067 63.1349L53.0957 68.4238L52.2926 69.2269L47.0036 63.9379L47.8067 63.1349Z" fill="white"/>
</g>
<g filter="url(#filter4_d)">
<path fill-rule="evenodd" clip-rule="evenodd" d="M85.8223 126.706V119.227H86.958V126.706H85.8223Z" fill="white"/>
<path fill-rule="evenodd" clip-rule="evenodd" d="M82.655 122.398L90.1348 122.398L90.1348 123.534L82.655 123.534L82.655 122.398Z" fill="white"/>
<path fill-rule="evenodd" clip-rule="evenodd" d="M83.3497 125.209L88.6387 119.92L89.4418 120.723L84.1528 126.012L83.3497 125.209Z" fill="white"/>
<path fill-rule="evenodd" clip-rule="evenodd" d="M84.1544 119.92L89.4434 125.209L88.6403 126.012L83.3513 120.723L84.1544 119.92Z" fill="white"/>
</g>
<g filter="url(#filter5_d)">
<path fill-rule="evenodd" clip-rule="evenodd" d="M121.031 46.0676V38.5879H122.167V46.0676H121.031Z" fill="white"/>
<path fill-rule="evenodd" clip-rule="evenodd" d="M117.864 41.7598L125.344 41.7598L125.344 42.8955L117.864 42.8955L117.864 41.7598Z" fill="white"/>
<path fill-rule="evenodd" clip-rule="evenodd" d="M118.553 44.5722L123.842 39.2832L124.645 40.0863L119.356 45.3753L118.553 44.5722Z" fill="white"/>
<path fill-rule="evenodd" clip-rule="evenodd" d="M119.358 39.2833L124.646 44.5723L123.843 45.3754L118.554 40.0864L119.358 39.2833Z" fill="white"/>
</g>
<g filter="url(#filter6_d)">
<path fill-rule="evenodd" clip-rule="evenodd" d="M16.2676 47.5614V32.5527H17.9712V47.5614H16.2676Z" fill="white"/>
<path fill-rule="evenodd" clip-rule="evenodd" d="M9.61828 39.209L24.627 39.209L24.627 40.9126L9.61828 40.9126L9.61828 39.209Z" fill="white"/>
<path fill-rule="evenodd" clip-rule="evenodd" d="M11.2173 44.7592L21.8301 34.1465L23.0347 35.3511L12.422 45.9639L11.2173 44.7592Z" fill="white"/>
<path fill-rule="evenodd" clip-rule="evenodd" d="M12.4205 34.1451L23.0332 44.7578L21.8286 45.9624L11.2158 35.3497L12.4205 34.1451Z" fill="white"/>
</g>
<g filter="url(#filter7_d)">
<path fill-rule="evenodd" clip-rule="evenodd" d="M27.2676 91.5009V76.4922H28.9712V91.5009H27.2676Z" fill="white"/>
<path fill-rule="evenodd" clip-rule="evenodd" d="M20.6183 83.1484L35.627 83.1484L35.627 84.852L20.6183 84.852L20.6183 83.1484Z" fill="white"/>
<path fill-rule="evenodd" clip-rule="evenodd" d="M22.2134 88.6987L32.8262 78.0859L34.0308 79.2906L23.4181 89.9033L22.2134 88.6987Z" fill="white"/>
<path fill-rule="evenodd" clip-rule="evenodd" d="M23.4166 78.0845L34.0293 88.6973L32.8247 89.9019L22.2119 79.2892L23.4166 78.0845Z" fill="white"/>
</g>
<g filter="url(#filter8_d)">
<path fill-rule="evenodd" clip-rule="evenodd" d="M139.705 77.872V62.8633H141.409V77.872H139.705Z" fill="white"/>
<path fill-rule="evenodd" clip-rule="evenodd" d="M133.056 69.5195L148.064 69.5195L148.064 71.2231L133.056 71.2231L133.056 69.5195Z" fill="white"/>
<path fill-rule="evenodd" clip-rule="evenodd" d="M134.655 75.0678L145.268 64.4551L146.472 65.6597L135.859 76.2724L134.655 75.0678Z" fill="white"/>
<path fill-rule="evenodd" clip-rule="evenodd" d="M135.858 64.4537L146.471 75.0664L145.266 76.271L134.653 65.6583L135.858 64.4537Z" fill="white"/>
</g>
<g filter="url(#filter9_d)">
<path fill-rule="evenodd" clip-rule="evenodd" d="M38.623 136.931V121.922H40.3267V136.931H38.623Z" fill="white"/>
<path fill-rule="evenodd" clip-rule="evenodd" d="M31.9737 128.578L46.9824 128.578L46.9824 130.282L31.9737 130.282L31.9737 128.578Z" fill="white"/>
<path fill-rule="evenodd" clip-rule="evenodd" d="M33.5728 134.126L44.1855 123.514L45.3902 124.718L34.7774 135.331L33.5728 134.126Z" fill="white"/>
<path fill-rule="evenodd" clip-rule="evenodd" d="M34.7759 123.512L45.3887 134.125L44.184 135.33L33.5713 124.717L34.7759 123.512Z" fill="white"/>
</g>
<g filter="url(#filter10_d)">
<path fill-rule="evenodd" clip-rule="evenodd" d="M107.783 153.888V136.773H109.726V153.888H107.783Z" fill="white"/>
<path fill-rule="evenodd" clip-rule="evenodd" d="M100.2 144.363L117.314 144.363L117.314 146.306L100.2 146.306L100.2 144.363Z" fill="white"/>
<path fill-rule="evenodd" clip-rule="evenodd" d="M102.017 150.7L114.119 138.598L115.493 139.971L103.391 152.073L102.017 150.7Z" fill="white"/>
<path fill-rule="evenodd" clip-rule="evenodd" d="M103.388 138.593L115.49 150.695L114.117 152.069L102.015 139.967L103.388 138.593Z" fill="white"/>
</g>
<g filter="url(#filter11_d)">
<path fill-rule="evenodd" clip-rule="evenodd" d="M98.8223 80.1454V65.1367H100.526V80.1454H98.8223Z" fill="white"/>
<path fill-rule="evenodd" clip-rule="evenodd" d="M92.173 71.793L107.182 71.793L107.182 73.4966L92.173 73.4966L92.173 71.793Z" fill="white"/>
<path fill-rule="evenodd" clip-rule="evenodd" d="M93.7681 77.3413L104.381 66.7285L105.585 67.9331L94.9728 78.5459L93.7681 77.3413Z" fill="white"/>
<path fill-rule="evenodd" clip-rule="evenodd" d="M94.9712 66.7271L105.584 77.3398L104.379 78.5445L93.7666 67.9317L94.9712 66.7271Z" fill="white"/>
</g>
<g filter="url(#filter12_d)">
<path fill-rule="evenodd" clip-rule="evenodd" d="M103.361 35.8485V20.8398H105.065V35.8485H103.361Z" fill="white"/>
<path fill-rule="evenodd" clip-rule="evenodd" d="M96.712 27.4961L111.721 27.4961L111.721 29.1997L96.712 29.1997L96.712 27.4961Z" fill="white"/>
<path fill-rule="evenodd" clip-rule="evenodd" d="M98.315 33.0483L108.928 22.4355L110.132 23.6402L99.5196 34.2529L98.315 33.0483Z" fill="white"/>
<path fill-rule="evenodd" clip-rule="evenodd" d="M99.5181 22.4341L110.131 33.0469L108.926 34.2515L98.3135 23.6388L99.5181 22.4341Z" fill="white"/>
</g>
<path d="M78.5117 244.506V276.506" stroke="#8089A5" stroke-width="3" stroke-linecap="round"/>
<defs>
<filter id="filter0_d" x="60.8398" y="9.95508" width="23.8735" height="23.8735" filterUnits="userSpaceOnUse" color-interpolation-filters="sRGB">
<feFlood flood-opacity="0" result="BackgroundImageFix"/>
<feColorMatrix in="SourceAlpha" type="matrix" values="0 0 0 0 0 0 0 0 0 0 0 0 0 0 0 0 0 0 127 0"/>
<feOffset/>
<feGaussianBlur stdDeviation="4.5"/>
<feColorMatrix type="matrix" values="0 0 0 0 1 0 0 0 0 1 0 0 0 0 1 0 0 0 0.82 0"/>
<feBlend mode="normal" in2="BackgroundImageFix" result="effect1_dropShadow"/>
<feBlend mode="normal" in="SourceGraphic" in2="effect1_dropShadow" result="shape"/>
</filter>
<filter id="filter1_d" x="73.6543" y="15.9648" width="25.4797" height="25.4797" filterUnits="userSpaceOnUse" color-interpolation-filters="sRGB">
<feFlood flood-opacity="0" result="BackgroundImageFix"/>
<feColorMatrix in="SourceAlpha" type="matrix" values="0 0 0 0 0 0 0 0 0 0 0 0 0 0 0 0 0 0 127 0"/>
<feOffset/>
<feGaussianBlur stdDeviation="4.5"/>
<feColorMatrix type="matrix" values="0 0 0 0 1 0 0 0 0 1 0 0 0 0 1 0 0 0 0.82 0"/>
<feBlend mode="normal" in2="BackgroundImageFix" result="effect1_dropShadow"/>
<feBlend mode="normal" in="SourceGraphic" in2="effect1_dropShadow" result="shape"/>
</filter>
<filter id="filter2_d" x="79.3359" y="35.2695" width="25.4797" height="25.4797" filterUnits="userSpaceOnUse" color-interpolation-filters="sRGB">
<feFlood flood-opacity="0" result="BackgroundImageFix"/>
<feColorMatrix in="SourceAlpha" type="matrix" values="0 0 0 0 0 0 0 0 0 0 0 0 0 0 0 0 0 0 127 0"/>
<feOffset/>
<feGaussianBlur stdDeviation="4.5"/>
<feColorMatrix type="matrix" values="0 0 0 0 1 0 0 0 0 1 0 0 0 0 1 0 0 0 0.82 0"/>
<feBlend mode="normal" in2="BackgroundImageFix" result="effect1_dropShadow"/>
<feBlend mode="normal" in="SourceGraphic" in2="effect1_dropShadow" result="shape"/>
</filter>
<filter id="filter3_d" x="37.3066" y="53.4414" width="25.4797" height="25.4797" filterUnits="userSpaceOnUse" color-interpolation-filters="sRGB">
<feFlood flood-opacity="0" result="BackgroundImageFix"/>
<feColorMatrix in="SourceAlpha" type="matrix" values="0 0 0 0 0 0 0 0 0 0 0 0 0 0 0 0 0 0 127 0"/>
<feOffset/>
<feGaussianBlur stdDeviation="4.5"/>
<feColorMatrix type="matrix" values="0 0 0 0 1 0 0 0 0 1 0 0 0 0 1 0 0 0 0.82 0"/>
<feBlend mode="normal" in2="BackgroundImageFix" result="effect1_dropShadow"/>
<feBlend mode="normal" in="SourceGraphic" in2="effect1_dropShadow" result="shape"/>
</filter>
<filter id="filter4_d" x="73.6543" y="110.227" width="25.4797" height="25.4797" filterUnits="userSpaceOnUse" color-interpolation-filters="sRGB">
<feFlood flood-opacity="0" result="BackgroundImageFix"/>
<feColorMatrix in="SourceAlpha" type="matrix" values="0 0 0 0 0 0 0 0 0 0 0 0 0 0 0 0 0 0 127 0"/>
<feOffset/>
<feGaussianBlur stdDeviation="4.5"/>
<feColorMatrix type="matrix" values="0 0 0 0 1 0 0 0 0 1 0 0 0 0 1 0 0 0 0.82 0"/>
<feBlend mode="normal" in2="BackgroundImageFix" result="effect1_dropShadow"/>
<feBlend mode="normal" in="SourceGraphic" in2="effect1_dropShadow" result="shape"/>
</filter>
<filter id="filter5_d" x="108.863" y="29.5879" width="25.4797" height="25.4797" filterUnits="userSpaceOnUse" color-interpolation-filters="sRGB">
<feFlood flood-opacity="0" result="BackgroundImageFix"/>
<feColorMatrix in="SourceAlpha" type="matrix" values="0 0 0 0 0 0 0 0 0 0 0 0 0 0 0 0 0 0 127 0"/>
<feOffset/>
<feGaussianBlur stdDeviation="4.5"/>
<feColorMatrix type="matrix" values="0 0 0 0 1 0 0 0 0 1 0 0 0 0 1 0 0 0 0.82 0"/>
<feBlend mode="normal" in2="BackgroundImageFix" result="effect1_dropShadow"/>
<feBlend mode="normal" in="SourceGraphic" in2="effect1_dropShadow" result="shape"/>
</filter>
<filter id="filter6_d" x="0.619141" y="23.5527" width="33.0087" height="33.0087" filterUnits="userSpaceOnUse" color-interpolation-filters="sRGB">
<feFlood flood-opacity="0" result="BackgroundImageFix"/>
<feColorMatrix in="SourceAlpha" type="matrix" values="0 0 0 0 0 0 0 0 0 0 0 0 0 0 0 0 0 0 127 0"/>
<feOffset/>
<feGaussianBlur stdDeviation="4.5"/>
<feColorMatrix type="matrix" values="0 0 0 0 1 0 0 0 0 1 0 0 0 0 1 0 0 0 0.82 0"/>
<feBlend mode="normal" in2="BackgroundImageFix" result="effect1_dropShadow"/>
<feBlend mode="normal" in="SourceGraphic" in2="effect1_dropShadow" result="shape"/>
</filter>
<filter id="filter7_d" x="11.6191" y="67.4922" width="33.0087" height="33.0087" filterUnits="userSpaceOnUse" color-interpolation-filters="sRGB">
<feFlood flood-opacity="0" result="BackgroundImageFix"/>
<feColorMatrix in="SourceAlpha" type="matrix" values="0 0 0 0 0 0 0 0 0 0 0 0 0 0 0 0 0 0 127 0"/>
<feOffset/>
<feGaussianBlur stdDeviation="4.5"/>
<feColorMatrix type="matrix" values="0 0 0 0 1 0 0 0 0 1 0 0 0 0 1 0 0 0 0.82 0"/>
<feBlend mode="normal" in2="BackgroundImageFix" result="effect1_dropShadow"/>
<feBlend mode="normal" in="SourceGraphic" in2="effect1_dropShadow" result="shape"/>
</filter>
<filter id="filter8_d" x="124.057" y="53.8633" width="33.0087" height="33.0087" filterUnits="userSpaceOnUse" color-interpolation-filters="sRGB">
<feFlood flood-opacity="0" result="BackgroundImageFix"/>
<feColorMatrix in="SourceAlpha" type="matrix" values="0 0 0 0 0 0 0 0 0 0 0 0 0 0 0 0 0 0 127 0"/>
<feOffset/>
<feGaussianBlur stdDeviation="4.5"/>
<feColorMatrix type="matrix" values="0 0 0 0 1 0 0 0 0 1 0 0 0 0 1 0 0 0 0.82 0"/>
<feBlend mode="normal" in2="BackgroundImageFix" result="effect1_dropShadow"/>
<feBlend mode="normal" in="SourceGraphic" in2="effect1_dropShadow" result="shape"/>
</filter>
<filter id="filter9_d" x="22.9746" y="112.922" width="33.0087" height="33.0087" filterUnits="userSpaceOnUse" color-interpolation-filters="sRGB">
<feFlood flood-opacity="0" result="BackgroundImageFix"/>
<feColorMatrix in="SourceAlpha" type="matrix" values="0 0 0 0 0 0 0 0 0 0 0 0 0 0 0 0 0 0 127 0"/>
<feOffset/>
<feGaussianBlur stdDeviation="4.5"/>
<feColorMatrix type="matrix" values="0 0 0 0 1 0 0 0 0 1 0 0 0 0 1 0 0 0 0.82 0"/>
<feBlend mode="normal" in2="BackgroundImageFix" result="effect1_dropShadow"/>
<feBlend mode="normal" in="SourceGraphic" in2="effect1_dropShadow" result="shape"/>
</filter>
<filter id="filter10_d" x="91.1992" y="127.773" width="35.1148" height="35.1148" filterUnits="userSpaceOnUse" color-interpolation-filters="sRGB">
<feFlood flood-opacity="0" result="BackgroundImageFix"/>
<feColorMatrix in="SourceAlpha" type="matrix" values="0 0 0 0 0 0 0 0 0 0 0 0 0 0 0 0 0 0 127 0"/>
<feOffset/>
<feGaussianBlur stdDeviation="4.5"/>
<feColorMatrix type="matrix" values="0 0 0 0 1 0 0 0 0 1 0 0 0 0 1 0 0 0 0.82 0"/>
<feBlend mode="normal" in2="BackgroundImageFix" result="effect1_dropShadow"/>
<feBlend mode="normal" in="SourceGraphic" in2="effect1_dropShadow" result="shape"/>
</filter>
<filter id="filter11_d" x="83.1738" y="56.1367" width="33.0087" height="33.0087" filterUnits="userSpaceOnUse" color-interpolation-filters="sRGB">
<feFlood flood-opacity="0" result="BackgroundImageFix"/>
<feColorMatrix in="SourceAlpha" type="matrix" values="0 0 0 0 0 0 0 0 0 0 0 0 0 0 0 0 0 0 127 0"/>
<feOffset/>
<feGaussianBlur stdDeviation="4.5"/>
<feColorMatrix type="matrix" values="0 0 0 0 1 0 0 0 0 1 0 0 0 0 1 0 0 0 0.82 0"/>
<feBlend mode="normal" in2="BackgroundImageFix" result="effect1_dropShadow"/>
<feBlend mode="normal" in="SourceGraphic" in2="effect1_dropShadow" result="shape"/>
</filter>
<filter id="filter12_d" x="87.7129" y="11.8398" width="33.0087" height="33.0087" filterUnits="userSpaceOnUse" color-interpolation-filters="sRGB">
<feFlood flood-opacity="0" result="BackgroundImageFix"/>
<feColorMatrix in="SourceAlpha" type="matrix" values="0 0 0 0 0 0 0 0 0 0 0 0 0 0 0 0 0 0 127 0"/>
<feOffset/>
<feGaussianBlur stdDeviation="4.5"/>
<feColorMatrix type="matrix" values="0 0 0 0 1 0 0 0 0 1 0 0 0 0 1 0 0 0 0.82 0"/>
<feBlend mode="normal" in2="BackgroundImageFix" result="effect1_dropShadow"/>
<feBlend mode="normal" in="SourceGraphic" in2="effect1_dropShadow" result="shape"/>
</filter>
</defs>
</svg>
