<svg width="77" height="41" viewBox="0 0 77 41" fill="none" xmlns="http://www.w3.org/2000/svg">
<path d="M48.0814 40.2664C47.3971 40.2664 46.7127 40.2546 46.0166 40.2664C45.7098 40.2664 45.5918 40.1602 45.6036 39.8534C45.6154 39.4404 45.6036 39.0274 45.6036 38.6145C45.6036 32.7031 45.6036 26.78 45.5918 20.8686C45.5918 20.4793 45.639 20.1843 46.0756 20.0663C48.9191 19.2993 51.7981 18.9926 54.6653 19.8421C57.4145 20.6562 58.7596 22.7447 59.2198 25.4467C59.5973 27.6885 59.4911 29.9067 58.5708 32.0188C57.4617 34.5674 55.5502 35.9479 52.7067 35.9125C52.1521 35.9007 51.6093 35.9361 51.0548 35.9007C50.7126 35.8889 50.6182 36.0187 50.6182 36.3373C50.63 37.4582 50.6064 38.5673 50.63 39.6882C50.6418 40.113 50.512 40.29 50.0637 40.2664C49.4265 40.2428 48.754 40.2664 48.0814 40.2664ZM50.6536 27.7003C50.6536 29.0572 50.6536 30.4023 50.6536 31.7592C50.6536 31.9362 50.5592 32.1486 50.8542 32.2312C52.2701 32.6441 53.6742 31.9244 54.0754 30.5085C54.5119 28.951 54.4765 27.3581 54.2523 25.7889C53.9574 23.724 53.332 23.2402 51.2672 23.2284C50.7952 23.2284 50.63 23.3346 50.6418 23.8302C50.6772 25.1163 50.6536 26.4024 50.6536 27.7003Z" fill="#E1E3EA"/>
<path d="M67.9568 19.5627C68.7591 19.5627 69.5732 19.5863 70.3756 19.5509C70.8122 19.5273 71.0009 19.7043 71.1779 20.0583C72.3106 22.5007 73.1484 25.0375 73.9625 27.5979C74.6941 29.8751 75.3666 32.1642 75.9448 34.4768C75.9684 34.5712 76.0038 34.6656 76.0156 34.76C76.2043 35.8219 76.1218 35.9281 75.048 35.9281C73.8917 35.9281 72.7354 35.9045 71.5791 35.9399C71.1307 35.9517 70.9537 35.7983 70.8829 35.3735C70.7532 34.6066 70.5526 33.8396 70.4228 33.0727C70.3638 32.7423 70.2458 32.6125 69.8918 32.6243C68.4759 32.6479 67.06 32.6479 65.6559 32.6243C65.3374 32.6243 65.2194 32.7305 65.1604 33.0373C64.9952 33.8632 64.7828 34.6774 64.6176 35.5033C64.5468 35.8337 64.3934 35.9399 64.0631 35.9399C62.8242 35.9163 61.5853 35.9163 60.3581 35.9399C59.898 35.9517 59.7918 35.7629 59.8036 35.3499C59.8272 34.6302 60.0632 33.9694 60.252 33.2969C61.4319 29.0492 62.718 24.8487 64.4052 20.7662C64.9126 19.5627 64.9244 19.5627 66.2105 19.5627C66.7769 19.5627 67.3668 19.5627 67.9568 19.5627ZM67.9332 23.3502C67.8742 23.3502 67.8152 23.3384 67.7444 23.3384C67.2016 25.1909 66.6589 27.0433 66.1161 28.884C66.0217 29.2144 66.2223 29.179 66.4229 29.179C67.1308 29.179 67.8388 29.179 68.5349 29.179C69.5497 29.179 69.5615 29.179 69.2783 28.1761C68.8535 26.5596 68.3933 24.9549 67.9332 23.3502Z" fill="#E1E3EA"/>
<path d="M43.4208 22.4723C43.4208 22.9797 43.4208 23.487 43.4208 23.9944C43.4208 24.136 43.4798 24.3838 43.2674 24.3838C42.6538 24.3838 42.0403 24.5961 41.4503 24.1832C40.4828 23.4988 39.4209 23.0859 38.1938 23.2746C36.9195 23.4752 36.0228 24.1596 35.5154 25.3159C34.831 26.8734 34.8192 28.478 35.48 30.0591C36.4003 32.2538 38.8191 32.9263 41.002 31.5576C41.6391 31.1564 42.2527 30.9913 42.9842 31.0385C43.3028 31.062 43.4326 31.1446 43.4326 31.475C43.4208 32.5133 43.4208 33.5517 43.4326 34.59C43.4326 34.8142 43.3736 34.9676 43.1612 35.0501C40.1996 36.1711 37.1909 36.6666 34.1939 35.2271C31.6925 34.0236 30.4064 31.8998 29.9816 29.2332C29.722 27.6049 29.8518 25.9884 30.4182 24.431C31.5155 21.4458 33.7101 19.8293 36.8251 19.4517C38.8427 19.204 40.8132 19.5461 42.7246 20.2187C43.232 20.3957 43.527 20.6316 43.4326 21.2216C43.3736 21.6464 43.4208 22.0593 43.4208 22.4723Z" fill="#E1E3EA"/>
<path d="M17.0738 22.6863C16.4603 22.5447 16.0709 22.2379 15.8821 21.6598C15.5989 22.2497 15.2686 22.7217 14.5606 22.9105C15.068 23.2644 15.4691 23.6302 15.4455 24.2438C15.4219 24.6095 15.2686 24.9281 14.9736 25.1641C14.4308 25.6125 13.6285 25.5181 13.1919 24.9517C12.7082 24.3264 12.8969 23.5948 13.7347 22.9931C13.4987 22.8279 13.2391 22.7099 13.0385 22.5093C12.8379 22.3087 12.6846 22.0491 12.4722 21.7659C12.2716 22.2261 11.9294 22.5329 11.3749 22.6745C11.8114 22.9459 12.2598 23.0639 12.484 23.4768C12.7082 23.878 12.7671 24.291 12.6138 24.7157C12.4014 25.2939 11.7996 25.6951 11.1861 25.6597C10.5371 25.6243 9.99436 25.1523 9.85277 24.5151C9.69938 23.819 10.0298 23.2762 10.9737 22.7335C10.4191 22.4621 9.91177 22.1553 9.84097 21.5064C9.75838 20.8456 10.0888 20.3973 10.7259 20.0079C10.1123 19.7955 9.73478 19.4297 9.5106 18.8398C9.16842 19.6303 8.66106 20.1141 7.79973 20.0079C7.19797 19.9371 6.72601 19.4887 6.58442 18.8752C6.38383 17.9666 6.8912 17.4475 7.72893 17.0227C7.25697 16.9401 6.96199 16.7395 6.73781 16.4328C6.51362 16.126 6.45463 15.7838 6.51362 15.4298C6.61982 14.8045 7.20977 14.3089 7.84692 14.3207C8.47228 14.3207 9.01503 14.7809 9.15662 15.3944C9.31001 16.0788 8.95604 16.6451 8.07111 17.0345C8.70826 17.1643 9.16842 17.4711 9.4516 18.1318C9.66398 17.5419 9.95896 17.1407 10.4781 16.9047C9.82917 16.4917 9.4162 15.9726 9.61679 15.1938C9.75838 14.6393 10.1359 14.2617 10.7023 14.1673C11.54 14.0257 12.0946 14.4269 12.4368 15.2882C12.5902 14.6629 12.8851 14.2617 13.3335 13.9903C12.2716 12.7514 12.4014 11.8783 13.8055 11.0642C13.4397 10.9108 13.1447 10.6984 12.9795 10.368C12.7907 10.014 12.7907 9.64827 12.9087 9.2825C13.0975 8.73974 13.6521 8.37396 14.242 8.39756C14.8438 8.42116 15.3512 8.86953 15.4927 9.45948C15.6343 10.132 15.3394 10.6512 14.5252 11.0642C15.127 11.3355 15.5989 11.6895 15.6933 12.3621C15.7995 13.0228 15.5281 13.542 14.9736 13.9549C15.4455 14.2499 15.7405 14.6275 15.9057 15.2056C16.2597 14.6039 16.6255 14.1555 17.3216 14.1437C17.7346 14.1437 18.0885 14.2617 18.3835 14.5685C19.0443 15.2528 18.8791 16.126 17.9234 16.9283C18.3953 17.1761 18.6903 17.5891 18.9145 18.12C19.1741 17.5419 19.5752 17.2233 20.2006 17.0699C19.7994 16.8221 19.4454 16.6333 19.2803 16.244C19.1151 15.8664 19.1033 15.4888 19.2921 15.1113C19.5634 14.5567 20.1652 14.2499 20.7551 14.3679C21.3805 14.4859 21.8053 14.9697 21.8525 15.5832C21.8997 16.2794 21.5221 16.7631 20.6607 17.0581C21.4513 17.4357 21.9704 17.9784 21.7699 18.9106C21.6401 19.5123 21.1327 19.9607 20.531 20.0197C19.6814 20.1141 19.1741 19.6421 18.8437 18.8398C18.6313 19.4415 18.2301 19.7955 17.6992 19.9961C19.0679 20.999 18.6313 22.3205 17.2508 22.7453C17.7228 22.9105 18.1121 23.0992 18.3363 23.4768C18.5723 23.878 18.6077 24.291 18.4661 24.7157C18.2537 25.3175 17.6166 25.7186 16.9912 25.6597C16.3423 25.5889 15.8113 25.0933 15.7169 24.4561C15.5635 23.6538 15.9411 23.1464 17.0738 22.6863ZM15.9529 15.6658C15.7051 16.2794 15.3158 16.7513 15.9647 17.1643C16.3541 17.4121 16.4249 16.9047 16.885 16.9283C16.3423 16.5861 16.0473 16.2676 15.9529 15.6658ZM11.6344 16.8693C11.9176 16.9165 12.0474 17.3767 12.366 17.1761C13.0031 16.7631 12.72 16.2676 12.4132 15.772C12.2952 16.2204 12.0356 16.5743 11.6344 16.8693ZM15.8939 20.94C16.0473 20.4562 16.4013 20.2085 16.7906 19.9253C16.4013 20.0905 16.3541 19.3589 15.8939 19.6657C15.3276 20.0551 15.5989 20.4562 15.8939 20.94ZM12.4604 20.9282C12.602 20.4916 13.0739 20.1967 12.5312 19.7365C12.012 19.2881 11.9294 20.0551 11.5518 19.9725C11.9412 20.1967 12.2834 20.4444 12.4604 20.9282Z" fill="#E1E3EA"/>
<path d="M12.2381 12.6831C12.2263 13.3792 11.6245 13.9692 10.9166 13.981C10.2086 13.9928 9.57148 13.332 9.60688 12.6123C9.63048 11.9043 10.244 11.338 10.9638 11.3498C11.6481 11.3734 12.2381 11.9869 12.2381 12.6831Z" fill="#E1E3EA"/>
<path d="M18.7562 12.6593C18.7562 13.3791 18.1663 13.9808 17.4583 13.9808C16.7386 13.9808 16.1486 13.3909 16.1486 12.6711C16.1368 11.9514 16.7386 11.3496 17.4465 11.3496C18.1663 11.3496 18.7562 11.9396 18.7562 12.6593Z" fill="#E1E3EA"/>
<path d="M10.8374 8.52539C11.5335 8.52539 12.1117 9.10355 12.1117 9.79969C12.0999 10.484 11.4981 11.074 10.8138 11.0504C10.1412 11.0386 9.58665 10.4722 9.58665 9.79969C9.56305 9.09175 10.1294 8.52539 10.8374 8.52539Z" fill="#E1E3EA"/>
<path d="M18.7807 9.77871C18.7807 10.4867 18.2261 11.0648 17.53 11.0648C16.8339 11.0648 16.2793 10.4867 16.2793 9.77871C16.2911 9.09436 16.8221 8.5516 17.5064 8.5398C18.2144 8.51621 18.7689 9.05896 18.7807 9.77871Z" fill="#E1E3EA"/>
<path d="M24.8841 15.9043C24.8959 16.5886 24.3413 17.1314 23.657 17.1432C22.9726 17.1432 22.4181 16.5886 22.4299 15.9161C22.4417 15.2671 22.9726 14.7244 23.6334 14.7126C24.3059 14.6772 24.8723 15.2199 24.8841 15.9043Z" fill="#E1E3EA"/>
<path d="M4.69409 17.1267C4.00974 17.1267 3.45518 16.5603 3.46698 15.8878C3.47878 15.2152 4.05694 14.6725 4.74129 14.6961C5.40203 14.7079 5.9212 15.2506 5.93299 15.8996C5.93299 16.5839 5.39024 17.1267 4.69409 17.1267Z" fill="#E1E3EA"/>
<path d="M6.16124 18.8054C6.14945 19.4897 5.57129 20.0325 4.89874 20.0089C4.24979 19.9853 3.70703 19.4189 3.70703 18.7818C3.70703 18.121 4.28519 17.5547 4.95774 17.5547C5.64208 17.5665 6.17304 18.1092 6.16124 18.8054Z" fill="#E1E3EA"/>
<path d="M23.3657 17.5549C24.0382 17.5431 24.6046 18.0858 24.6164 18.7584C24.6282 19.4191 24.0736 19.9973 23.4011 20.0091C22.7403 20.0327 22.1622 19.4663 22.1504 18.8056C22.1504 18.1212 22.6931 17.5667 23.3657 17.5549Z" fill="#E1E3EA"/>
<path d="M8.16058 22.6277C7.48803 22.6159 6.96887 22.0967 6.98067 21.4242C6.99247 20.7516 7.52343 20.2443 8.19597 20.2561C8.85672 20.2679 9.39948 20.8224 9.38768 21.4596C9.37588 22.1203 8.83313 22.6395 8.16058 22.6277Z" fill="#E1E3EA"/>
<path d="M15.3581 6.8541C15.3463 7.52665 14.8271 8.03401 14.1664 8.02221C13.5056 8.01041 12.9864 7.47945 12.9982 6.8187C13.01 6.15795 13.541 5.63879 14.2018 5.65059C14.8625 5.66239 15.3699 6.18155 15.3581 6.8541Z" fill="#E1E3EA"/>
<path d="M20.1683 20.2678C20.8408 20.2678 21.36 20.7869 21.3482 21.4595C21.3482 22.1438 20.8408 22.6394 20.1565 22.6394C19.4721 22.6394 18.9766 22.132 18.9766 21.4477C18.9884 20.7633 19.4957 20.256 20.1683 20.2678Z" fill="#E1E3EA"/>
<path d="M25.043 13.0456C25.043 13.6592 24.5475 14.1547 23.9221 14.1665C23.2732 14.1783 22.754 13.671 22.7658 13.0338C22.7658 12.3967 23.3086 11.8893 23.9457 11.9129C24.5593 11.9247 25.043 12.4321 25.043 13.0456Z" fill="#E1E3EA"/>
<path d="M4.44737 14.1657C3.82202 14.1657 3.32645 13.682 3.31465 13.0684C3.30286 12.4195 3.81022 11.9121 4.44737 11.9121C5.09632 11.9121 5.59188 12.4313 5.56828 13.0802C5.56828 13.6938 5.07272 14.1657 4.44737 14.1657Z" fill="#E1E3EA"/>
<path d="M21.0638 24.3629C21.0638 24.9529 20.5565 25.4484 19.9665 25.4366C19.3765 25.4248 18.881 24.9175 18.8928 24.3393C18.9046 23.773 19.3883 23.3128 19.9665 23.301C20.5683 23.2892 21.0638 23.773 21.0638 24.3629Z" fill="#E1E3EA"/>
<path d="M7.65245 13.8818C7.0625 13.87 6.59053 13.3626 6.61413 12.7609C6.63773 12.1591 7.14509 11.6872 7.73504 11.7226C8.3132 11.758 8.76157 12.2299 8.74977 12.8081C8.74977 13.4098 8.24241 13.9054 7.65245 13.8818Z" fill="#E1E3EA"/>
<path d="M20.6755 13.8821C20.0855 13.8821 19.59 13.3629 19.6018 12.7848C19.6136 12.2184 20.0973 11.7347 20.6637 11.7229C21.2536 11.7111 21.761 12.2066 21.761 12.7966C21.761 13.3865 21.2536 13.8939 20.6755 13.8821Z" fill="#E1E3EA"/>
<path d="M8.3512 23.3008C8.95296 23.3008 9.43672 23.7845 9.43672 24.3745C9.43672 24.9527 8.91756 25.4482 8.32761 25.4364C7.74945 25.4246 7.28928 24.9645 7.28928 24.3863C7.27749 23.7727 7.73765 23.3008 8.3512 23.3008Z" fill="#E1E3EA"/>
<path d="M10.7814 7.90062C10.2387 7.91242 9.7549 7.46405 9.7313 6.92129C9.7077 6.36674 10.1915 5.85938 10.7578 5.85938C11.3006 5.85938 11.7725 6.31954 11.7843 6.8623C11.7843 7.40506 11.3124 7.88882 10.7814 7.90062Z" fill="#E1E3EA"/>
<path d="M17.6045 7.8988C17.0499 7.8988 16.6016 7.43863 16.6016 6.88407C16.6016 6.32952 17.0499 5.88115 17.6045 5.86935C18.1826 5.85755 18.6546 6.34132 18.631 6.90767C18.6192 7.46223 18.159 7.9106 17.6045 7.8988Z" fill="#E1E3EA"/>
<path d="M15.1897 3.96191C15.1779 4.49287 14.6941 4.96483 14.1514 4.95303C13.5968 4.94123 13.172 4.46927 13.1838 3.91471C13.1956 3.38375 13.6322 2.95898 14.175 2.95898C14.7295 2.95898 15.1897 3.41915 15.1897 3.96191Z" fill="#E1E3EA"/>
<path d="M14.2069 28.0331C13.6642 28.0449 13.2276 27.6319 13.204 27.101C13.1804 26.5464 13.6288 26.0626 14.1715 26.0744C14.6907 26.0744 15.1509 26.5228 15.1509 27.042C15.1627 27.5729 14.7379 28.0213 14.2069 28.0331Z" fill="#E1E3EA"/>
<path d="M24.0813 21.6488C24.0931 22.168 23.6919 22.5928 23.1728 22.6046C22.6772 22.6164 22.2288 22.1916 22.217 21.6842C22.2052 21.1887 22.63 20.7403 23.1374 20.7285C23.6447 20.7285 24.0695 21.1415 24.0813 21.6488Z" fill="#E1E3EA"/>
<path d="M5.20947 20.7383C5.71683 20.7383 6.1416 21.1513 6.1534 21.6586C6.1534 22.166 5.72863 22.5907 5.22127 22.6025C4.71391 22.6025 4.28914 22.1778 4.27734 21.6704C4.27734 21.163 4.70211 20.7383 5.20947 20.7383Z" fill="#E1E3EA"/>
<path d="M2.05863 13.3887C2.04683 13.8606 1.65746 14.2382 1.18549 14.2264C0.748926 14.2146 0.383154 13.8252 0.371355 13.3887C0.359556 12.9285 0.748926 12.5273 1.20909 12.5273C1.68106 12.5273 2.07043 12.9167 2.05863 13.3887Z" fill="#E1E3EA"/>
<path d="M27.9686 13.3543C27.9804 13.8263 27.6029 14.2156 27.1427 14.2274C26.6825 14.2274 26.2931 13.8381 26.3049 13.3661C26.3049 12.9177 26.6707 12.5402 27.1073 12.5284C27.5675 12.5048 27.9686 12.8941 27.9686 13.3543Z" fill="#E1E3EA"/>
<path d="M9.35527 27.2404C9.34347 27.7005 8.9777 28.0545 8.51753 28.0427C8.06917 28.0309 7.6916 27.6533 7.70339 27.205C7.71519 26.7684 8.11636 26.3908 8.55293 26.4026C9.0013 26.4026 9.36707 26.7802 9.35527 27.2404Z" fill="#E1E3EA"/>
<path d="M20.6443 27.2303C20.6325 27.6905 20.2667 28.0445 19.8065 28.0327C19.3464 28.0209 18.9924 27.6551 19.0042 27.2067C19.016 26.7584 19.3936 26.3926 19.8419 26.3926C20.2785 26.4044 20.6443 26.7819 20.6443 27.2303Z" fill="#E1E3EA"/>
<path d="M24.1815 9.35575C24.6181 9.36755 24.9956 9.76871 24.9838 10.1935C24.972 10.6418 24.5945 10.9958 24.1461 10.984C23.6859 10.9722 23.3438 10.6065 23.3438 10.1581C23.3673 9.70972 23.7449 9.34395 24.1815 9.35575Z" fill="#E1E3EA"/>
<path d="M4.1659 10.984C3.71753 10.9722 3.35176 10.5946 3.36356 10.1581C3.37536 9.72151 3.77653 9.34394 4.21309 9.35574C4.64966 9.36754 5.01543 9.75691 5.00363 10.2053C4.99184 10.6536 4.62606 10.9958 4.1659 10.984Z" fill="#E1E3EA"/>
<path d="M14.9561 1.05837C14.9679 1.47134 14.6021 1.84891 14.1773 1.86071C13.7526 1.87251 13.3868 1.50674 13.375 1.08197C13.375 0.680801 13.7526 0.267832 14.1419 0.267832C14.5431 0.256033 14.9443 0.657203 14.9561 1.05837Z" fill="#E1E3EA"/>
<path d="M0.885604 11.2631C0.425439 11.2277 0.154059 10.9563 0.0832645 10.5316C0.0242689 10.1658 0.484434 9.74101 0.885604 9.76461C1.35757 9.78821 1.60535 10.0596 1.62895 10.508C1.65255 10.9091 1.27497 11.2631 0.885604 11.2631Z" fill="#E1E3EA"/>
<path d="M28.2371 10.5426C28.2017 10.9556 27.9657 11.227 27.5056 11.2506C27.0808 11.2742 26.7032 10.9084 26.7386 10.4836C26.774 10.0353 27.0336 9.7757 27.4938 9.7757C27.9185 9.7639 28.2371 10.0943 28.2371 10.5426Z" fill="#E1E3EA"/>
<path d="M9.92188 4.00514C9.92188 3.59217 10.264 3.25 10.6652 3.25C11.0664 3.2618 11.4322 3.62757 11.3968 4.01694C11.3614 4.44171 11.1136 4.70129 10.677 4.72489C10.264 4.76029 9.92188 4.41811 9.92188 4.00514Z" fill="#E1E3EA"/>
<path d="M17.6849 4.74101C17.2719 4.72921 16.9534 4.39883 16.9652 3.97406C16.9888 3.5257 17.2601 3.30151 17.6731 3.26612C18.0743 3.23072 18.4164 3.58469 18.4164 3.99766C18.4282 4.42243 18.0979 4.7528 17.6849 4.74101Z" fill="#E1E3EA"/>
<path d="M27.1703 19.1462C27.0995 19.571 26.8635 19.8306 26.4152 19.807C25.9668 19.7834 25.7426 19.512 25.719 19.0872C25.7072 18.6861 26.0848 18.3439 26.4978 18.3911C26.9579 18.4383 27.1467 18.7097 27.1703 19.1462Z" fill="#E1E3EA"/>
<path d="M1.89585 18.3652C2.32062 18.4242 2.5802 18.6366 2.6038 19.0732C2.62739 19.4861 2.27342 19.8283 1.86045 19.7929C1.42389 19.7575 1.1761 19.5097 1.1879 19.0732C1.1879 18.6366 1.47108 18.4242 1.89585 18.3652Z" fill="#E1E3EA"/>
<path d="M14.1534 30.6286C13.7286 30.5696 13.4691 30.3336 13.4809 29.8971C13.4927 29.4959 13.764 29.2363 14.1652 29.2363C14.59 29.2363 14.8731 29.4841 14.8613 29.9325C14.8613 30.3808 14.59 30.5932 14.1534 30.6286Z" fill="#E1E3EA"/>
<path d="M22.6078 26.8262C22.9735 26.8498 23.2095 27.0268 23.2331 27.3925C23.2449 27.7583 23.0443 27.9943 22.6668 28.0061C22.301 28.0297 22.065 27.8173 22.0532 27.4515C22.0414 27.0858 22.2538 26.8852 22.6078 26.8262Z" fill="#E1E3EA"/>
<path d="M5.72726 28.03C5.33789 27.9828 5.1019 27.7704 5.1137 27.4165C5.1255 27.0625 5.34969 26.8265 5.71546 26.8383C6.09303 26.8501 6.30541 27.0743 6.29361 27.4401C6.29361 27.8058 6.05763 27.9946 5.72726 28.03Z" fill="#E1E3EA"/>
<path d="M14.7064 32.8199C14.6592 33.1267 14.5058 33.3391 14.1754 33.3391C13.845 33.3391 13.6562 33.1503 13.6562 32.8199C13.6562 32.4896 13.8568 32.3008 14.1754 32.3008C14.494 32.3008 14.671 32.5014 14.7064 32.8199Z" fill="#E1E3EA"/>
</svg>
