<svg width="131" height="25" viewBox="0 0 131 25" fill="none" xmlns="http://www.w3.org/2000/svg">
<path d="M0.107163 12.1138C0.107163 8.41896 0.120479 4.72265 0.093848 1.02779C0.0894096 0.480348 0.234398 0.331445 0.7892 0.340204C3.57209 0.382539 6.35497 0.369401 9.13786 0.400057C10.7771 0.419035 12.3705 0.729981 13.881 1.36063C16.8873 2.6161 18.7367 4.86717 19.4675 7.97371C20.1081 10.6905 20.0578 13.4321 19.3048 16.1225C18.0561 20.5867 14.421 23.4378 9.61721 23.7998C6.61536 24.0261 3.60907 23.8451 0.605745 23.9181C0.0524228 23.9312 0.104204 23.6232 0.104204 23.2714C0.108643 19.5532 0.107163 15.8335 0.107163 12.1138ZM6.44374 12.0817C6.44374 13.7109 6.44374 15.3415 6.44374 16.9707C6.44374 18.7181 6.44374 18.7181 8.24574 18.6554C10.5537 18.5751 12.156 17.4904 12.8143 15.397C13.5245 13.1415 13.5511 10.8423 12.8469 8.57516C12.3439 6.95182 11.2121 5.96497 9.50329 5.63943C8.67182 5.4803 7.83148 5.57519 6.99706 5.51972C6.51771 5.4876 6.42894 5.67008 6.43338 6.09928C6.4541 8.09196 6.44374 10.0861 6.44374 12.0817Z" fill="#E1E3EA"/>
<path d="M66.2955 15.7232C66.2748 17.037 66.0544 18.2516 65.5735 19.4107C64.2553 22.5946 61.3541 24.3128 57.4645 24.2252C52.3337 24.1099 49.1026 20.7669 48.9753 15.4268C48.9428 14.0356 49.0774 12.6561 49.536 11.3305C50.5968 8.25903 52.8234 6.5919 56.0324 6.1306C57.6391 5.89994 59.2399 5.95688 60.7771 6.4868C64.2154 7.67072 65.8354 10.2444 66.2467 13.6779C66.3295 14.3743 66.408 15.0808 66.2955 15.7232ZM55.0885 15.1086C55.127 16.1947 55.1654 17.3129 55.6241 18.3596C56.0176 19.2574 56.7233 19.6954 57.7116 19.6866C58.6881 19.6793 59.4071 19.2282 59.7222 18.2706C60.3909 16.2356 60.4131 14.1655 59.7799 12.1203C59.4456 11.0386 58.7117 10.5627 57.6436 10.5656C56.5931 10.5685 55.8785 11.0853 55.4998 12.1364C55.1551 13.0882 55.1225 14.0838 55.0885 15.1086Z" fill="#E1E3EA"/>
<path d="M116.32 16.7747C114.743 16.7747 113.164 16.7995 111.588 16.7615C111.036 16.7484 110.991 16.9484 111.076 17.3922C111.338 18.7483 112.568 19.7469 114.174 19.8476C115.84 19.9512 117.475 19.7717 119.03 19.1513C119.536 18.9483 119.693 19.0797 119.788 19.5717C119.958 20.4534 120.125 21.3425 120.407 22.1921C120.631 22.8622 120.338 23.0855 119.796 23.303C117.499 24.2213 115.105 24.3322 112.679 24.1541C111.468 24.0651 110.301 23.7702 109.211 23.2256C107.045 22.1425 105.749 20.3804 105.222 18.0797C104.709 15.8374 104.765 13.5849 105.456 11.3806C106.41 8.33244 108.561 6.63319 111.724 6.14999C113.124 5.93685 114.521 5.99087 115.913 6.26824C119.122 6.90764 121.243 9.22002 121.595 12.4331C121.735 13.6959 121.677 14.9586 121.718 16.2214C121.733 16.6841 121.567 16.7936 121.126 16.7878C119.524 16.7601 117.922 16.7747 116.32 16.7747ZM113.689 12.9338C114.377 12.9338 115.064 12.9295 115.752 12.9367C116.062 12.9397 116.258 12.909 116.206 12.4973C116.037 11.1426 115.095 10.2244 113.797 10.2025C112.377 10.1791 111.4 11.036 111.186 12.4375C111.124 12.8448 111.235 12.9513 111.627 12.9397C112.315 12.9178 113.003 12.9338 113.689 12.9338Z" fill="#E1E3EA"/>
<path d="M33.0481 16.7697C31.4473 16.7697 29.845 16.7872 28.2442 16.7595C27.7442 16.7507 27.6791 16.9026 27.7693 17.3478C28.0563 18.7639 29.2488 19.7449 30.9043 19.8427C32.5702 19.942 34.2006 19.758 35.7555 19.1347C36.2171 18.9493 36.3798 19.0339 36.473 19.5142C36.658 20.466 36.871 21.4164 37.1299 22.3507C37.2601 22.8222 37.1344 23.0266 36.689 23.2149C34.3604 24.2032 31.9192 24.3113 29.4441 24.1551C28.5579 24.0996 27.6865 23.92 26.8521 23.6178C24.3961 22.7288 22.7613 21.0427 22.0556 18.5595C21.3618 16.1157 21.4135 13.6471 22.2006 11.2325C23.1697 8.25739 25.3223 6.61069 28.4203 6.14062C29.7932 5.93186 31.1647 5.97128 32.5317 6.24427C35.8191 6.90266 37.917 9.13475 38.2913 12.4092C38.4378 13.6909 38.4126 14.98 38.4304 16.2675C38.4363 16.7201 38.2351 16.7785 37.8534 16.7741C36.2511 16.761 34.6503 16.7697 33.0481 16.7697ZM30.3791 12.9289C31.0671 12.9289 31.755 12.9128 32.443 12.9347C32.8409 12.9479 32.9386 12.8311 32.8765 12.4282C32.6634 11.0238 31.7373 10.1858 30.348 10.199C29.0047 10.2121 28.0652 11.1099 27.8699 12.5099C27.8196 12.8646 27.9321 12.9362 28.2413 12.9333C28.9544 12.923 29.6675 12.9289 30.3791 12.9289Z" fill="#E1E3EA"/>
<path d="M103.557 18.8159C103.557 20.2173 103.551 21.575 103.561 22.9341C103.563 23.2071 103.426 23.3049 103.194 23.3954C100.956 24.2728 98.658 24.5151 96.3205 23.9122C94.2832 23.3867 93.0937 21.6392 93.0316 19.0845C92.9724 16.5809 92.9798 14.0758 93.0079 11.5722C93.0138 10.9985 92.8304 10.8934 92.3037 10.9021C90.8967 10.9269 90.8967 10.9036 90.8952 9.49776C90.8952 8.62186 90.91 7.74596 90.8893 6.87152C90.8804 6.48758 90.9589 6.31824 91.4086 6.30948C92.9917 6.27444 92.9916 6.25546 92.9916 4.71534C92.9916 3.88907 93.0035 3.06134 92.9857 2.23507C92.9798 1.91537 93.0582 1.77376 93.4177 1.72121C95.1206 1.4672 96.8205 1.18837 98.5145 0.889103C99.0057 0.802973 99.0945 0.969395 99.0871 1.41173C99.0619 2.77229 99.1093 4.13578 99.0634 5.49635C99.0427 6.12554 99.1655 6.40291 99.8816 6.33868C100.688 6.26714 101.508 6.34451 102.32 6.3124C102.753 6.29634 102.864 6.45108 102.857 6.85546C102.835 8.04668 102.836 9.23791 102.855 10.4291C102.861 10.8145 102.728 10.9299 102.345 10.9196C101.408 10.8963 100.472 10.9255 99.5354 10.905C99.1921 10.8977 99.0664 10.9824 99.0693 11.3459C99.0856 13.559 99.0634 15.7721 99.0871 17.9838C99.096 18.8626 99.6375 19.3546 100.541 19.394C101.568 19.4393 102.522 19.0947 103.557 18.8159Z" fill="#E1E3EA"/>
<path d="M79.1209 15.4505C79.1209 13.9352 79.1076 12.6709 79.1298 11.4082C79.1357 11.033 79.0336 10.9016 78.6386 10.9045C78.1296 10.9089 77.4594 11.141 77.1502 10.8009C76.8218 10.4403 77.057 9.78045 77.0452 9.25199C77.0274 8.45053 77.0629 7.64762 77.0319 6.84617C77.0156 6.42135 77.1709 6.32063 77.5793 6.31333C79.1224 6.28559 79.1224 6.27099 79.1224 4.75568C79.1224 3.97758 79.146 3.19949 79.1135 2.42285C79.0957 2.00242 79.22 1.82578 79.6579 1.75716C81.309 1.49877 82.9572 1.21556 84.5994 0.907535C85.0935 0.815565 85.2237 0.933813 85.2134 1.4287C85.1808 2.88708 85.2163 4.34546 85.1927 5.80384C85.1853 6.22136 85.3154 6.34544 85.7327 6.33376C86.6677 6.30603 87.6042 6.3396 88.5407 6.31771C88.9283 6.30895 89.0511 6.43887 89.0452 6.81989C89.0245 8.01112 89.0201 9.20235 89.0467 10.3921C89.0556 10.8169 88.9061 10.9337 88.4948 10.9235C87.5598 10.8987 86.6218 10.9337 85.6868 10.9074C85.2947 10.8972 85.1912 11.0242 85.1941 11.4023C85.2119 13.541 85.1897 15.6797 85.2089 17.8198C85.2193 18.8928 85.7844 19.3993 86.8867 19.3993C87.7092 19.3993 88.4963 19.1862 89.2642 18.9336C89.6459 18.8081 89.7346 18.8796 89.7302 19.2519C89.7184 20.4431 89.7169 21.6344 89.7317 22.8241C89.7361 23.1424 89.6133 23.2913 89.3145 23.4081C87.1988 24.2387 85.021 24.4869 82.8018 23.9905C80.7039 23.5219 79.6017 22.1716 79.2659 19.9293C79.0277 18.3556 79.1756 16.776 79.1209 15.4505Z" fill="#E1E3EA"/>
<path d="M40.6698 12.0969C40.6698 8.42395 40.692 4.751 40.6506 1.07951C40.6432 0.380244 40.8666 0.250318 41.5087 0.269296C43.0606 0.313091 44.6141 0.297033 46.1675 0.275135C46.5877 0.269296 46.7075 0.391922 46.7075 0.806516C46.6942 8.3203 46.6942 15.8355 46.7075 23.3522C46.709 23.8135 46.5537 23.9274 46.1128 23.9216C44.5105 23.8997 42.9082 23.8909 41.306 23.926C40.7689 23.9376 40.6565 23.7552 40.6594 23.2617C40.6787 19.5391 40.6698 15.818 40.6698 12.0969Z" fill="#E1E3EA"/>
<path d="M68.6595 15.1113C68.6595 12.415 68.6788 9.71864 68.6447 7.02233C68.6373 6.42525 68.8252 6.29241 69.3948 6.30555C70.969 6.34204 72.546 6.33182 74.1217 6.30993C74.5685 6.30409 74.709 6.42817 74.709 6.88072C74.6942 12.3712 74.6942 17.8601 74.709 23.3506C74.7105 23.809 74.5596 23.9243 74.1172 23.917C72.5179 23.8936 70.9172 23.8893 69.3164 23.9199C68.806 23.9301 68.6447 23.7914 68.6492 23.2732C68.6728 20.5521 68.6595 17.8324 68.6595 15.1113Z" fill="#E1E3EA"/>
<path d="M126.615 24.2676C124.665 24.2778 123.108 22.7727 123.105 20.8764C123.103 18.983 124.663 17.4487 126.593 17.4473C128.494 17.4458 130.025 18.9392 130.049 20.8166C130.072 22.7406 128.563 24.2574 126.615 24.2676Z" fill="#E1E3EA"/>
<path d="M71.7303 4.24469C70.8944 4.24469 70.057 4.23009 69.2226 4.25199C68.832 4.26221 68.6397 4.18484 68.653 3.73959C68.6826 2.74545 68.6707 1.74986 68.6574 0.755719C68.653 0.434558 68.7166 0.272518 69.0968 0.275438C70.8174 0.291496 72.5395 0.291496 74.2616 0.275438C74.6285 0.272518 74.7143 0.403902 74.7084 0.739661C74.6907 1.75862 74.6892 2.77757 74.7084 3.79652C74.7143 4.14834 74.5901 4.25929 74.2409 4.25199C73.402 4.23155 72.5662 4.24469 71.7303 4.24469Z" fill="#E1E3EA"/>
</svg>
