<svg width="196" height="33" viewBox="0 0 196 33" fill="none" xmlns="http://www.w3.org/2000/svg">
<path d="M26.3086 5.24805H38.9871V6.89786C38.9871 7.1405 38.8907 7.3732 38.7191 7.54477C38.5476 7.71634 38.3149 7.81272 38.0722 7.81272H29.0441V14.1375H38.304V15.7812C38.304 16.0238 38.2076 16.2565 38.036 16.4281C37.8644 16.5997 37.6318 16.696 37.3891 16.696H29.0441V25.4147H26.3086V5.24805Z" fill="#E1E3EA"/>
<path d="M41.35 18.6695C41.3421 17.72 41.531 16.7793 41.905 15.9066C42.265 15.066 42.7826 14.3021 43.4298 13.656C44.7878 12.3135 46.6205 11.5605 48.5301 11.5605C50.4398 11.5605 52.2724 12.3135 53.6305 13.656C54.2771 14.3025 54.7946 15.0663 55.1552 15.9066C55.5297 16.7792 55.7192 17.7199 55.7118 18.6695C55.7166 19.6042 55.5351 20.5306 55.178 21.3945C54.8209 22.2585 54.2954 23.0426 53.632 23.7012C52.9725 24.3452 52.1962 24.8575 51.3448 25.2108C49.5371 25.9508 47.5109 25.9508 45.7032 25.2108C44.8543 24.857 44.0807 24.3447 43.4237 23.7012C42.7595 23.0432 42.2335 22.2591 41.8763 21.3951C41.5192 20.5311 41.3382 19.6044 41.3439 18.6695H41.35ZM44.0854 18.6695C44.0762 19.3141 44.1793 19.9555 44.3904 20.5648C44.5809 21.114 44.8819 21.6184 45.2747 22.0469C45.6669 22.4637 46.1422 22.7935 46.6699 23.0151C47.8591 23.4908 49.1859 23.4908 50.3751 23.0151C50.9028 22.7935 51.3781 22.4637 51.7703 22.0469C52.1621 21.6179 52.4625 21.1136 52.6531 20.5648C53.0719 19.3365 53.0719 18.004 52.6531 16.7757C52.4625 16.2269 52.1621 15.7226 51.7703 15.2936C51.3781 14.8768 50.9028 14.5469 50.3751 14.3254C49.1859 13.8496 47.8591 13.8496 46.6699 14.3254C46.1422 14.5469 45.6669 14.8768 45.2747 15.2936C44.8819 15.7221 44.5809 16.2265 44.3904 16.7757C44.1795 17.3845 44.0763 18.0253 44.0854 18.6695Z" fill="#E1E3EA"/>
<path d="M74.8405 11.915H76.4903C76.733 11.915 76.9657 12.0115 77.1372 12.183C77.3088 12.3546 77.4052 12.5873 77.4052 12.8299V13.9948H77.4616C77.8131 13.2425 78.4026 12.6269 79.1388 12.2429C79.9862 11.7839 80.9383 11.5533 81.9017 11.5735C82.5363 11.5733 83.1666 11.6763 83.7681 11.8784C84.3516 12.0694 84.8865 12.3853 85.3355 12.804C85.8045 13.2564 86.1688 13.806 86.4029 14.4142C86.6848 15.1552 86.8204 15.9438 86.8023 16.7364V25.4276H84.2377V17.4423C84.2507 16.8945 84.1639 16.3489 83.9815 15.8322C83.8358 15.4257 83.6026 15.0561 83.2984 14.7496C83.0198 14.4789 82.6836 14.2745 82.315 14.1519C81.9428 14.0278 81.553 13.965 81.1607 13.9659C80.6558 13.9612 80.1542 14.048 79.6801 14.222C79.2226 14.3947 78.8125 14.6732 78.4832 15.0348C78.1196 15.4425 77.8477 15.9234 77.6857 16.4452C77.483 17.1 77.3868 17.7831 77.4006 18.4685V25.42H74.8359L74.8405 11.915Z" fill="#E1E3EA"/>
<path d="M70.8033 25.4207H68.2386V23.3409H68.1822C67.8311 24.0936 67.2416 24.7094 66.5049 25.0929C65.6576 25.5518 64.7055 25.7825 63.742 25.7623C63.1029 25.7647 62.4677 25.6617 61.862 25.4573C61.2835 25.2644 60.7534 24.9486 60.3083 24.5318C59.8388 24.0797 59.4744 23.5301 59.2409 22.9216C58.959 22.1806 58.8234 21.392 58.8414 20.5994V11.9082H60.4913C60.7339 11.9082 60.9666 12.0046 61.1381 12.1762C61.3097 12.3477 61.4061 12.5804 61.4061 12.8231V19.898C61.3931 20.4458 61.4799 20.9914 61.6623 21.5082C61.8076 21.9149 62.0408 22.2845 62.3454 22.5907C62.624 22.8615 62.9602 23.0658 63.3288 23.1885C63.701 23.3125 64.0908 23.3753 64.4831 23.3745C64.9882 23.3793 65.4899 23.2919 65.9636 23.1168C66.4213 22.9452 66.8316 22.6672 67.1606 22.3056C67.5241 21.8976 67.7965 21.4167 67.9596 20.8952C68.161 20.2401 68.2568 19.5571 68.2432 18.8718V11.9204H69.8884C70.131 11.9204 70.3637 12.0168 70.5353 12.1883C70.7069 12.3599 70.8033 12.5926 70.8033 12.8352V25.4207Z" fill="#E1E3EA"/>
<path d="M104.147 25.422H101.582V23.4841H101.526C101.013 24.2192 100.309 24.7993 99.4887 25.1613C98.6546 25.5527 97.7448 25.7567 96.8234 25.759C95.8516 25.7734 94.8871 25.5892 93.9889 25.2177C93.1681 24.8742 92.43 24.3596 91.8237 23.7082C91.2212 23.0551 90.7519 22.2906 90.4423 21.4576C90.1122 20.5637 89.9479 19.6171 89.9574 18.6642C89.9488 17.7075 90.1131 16.7571 90.4423 15.8587C90.7469 15.0233 91.2167 14.2578 91.8237 13.6081C92.4327 12.9633 93.1704 12.4537 93.9889 12.1123C94.8871 11.7408 95.8516 11.5566 96.8234 11.571C97.7696 11.5655 98.7047 11.774 99.5589 12.1809C100.357 12.5416 101.039 13.119 101.526 13.8475H101.582V5.14258H103.232C103.475 5.14258 103.707 5.23896 103.879 5.41053C104.051 5.5821 104.147 5.8148 104.147 6.05744V25.422ZM97.133 23.3712C97.7684 23.3806 98.3991 23.2591 98.9856 23.0144C99.5133 22.7929 99.9886 22.4631 100.381 22.0462C100.773 21.6173 101.073 21.113 101.264 20.5641C101.682 19.3358 101.682 18.0034 101.264 16.7751C101.073 16.2262 100.773 15.722 100.381 15.293C99.9886 14.8761 99.5133 14.5463 98.9856 14.3247C97.7964 13.849 96.4696 13.849 95.2804 14.3247C94.7527 14.5463 94.2774 14.8761 93.8852 15.293C93.4923 15.7215 93.1914 16.2259 93.0009 16.7751C92.5841 18.0037 92.5841 19.3355 93.0009 20.5641C93.1914 21.1133 93.4923 21.6177 93.8852 22.0462C94.2774 22.4631 94.7527 22.7929 95.2804 23.0144C95.8683 23.26 96.5005 23.3815 97.1376 23.3712H97.133Z" fill="#E1E3EA"/>
<path d="M109.959 19.6106C109.952 20.1708 110.084 20.724 110.343 21.2207C110.594 21.6976 110.937 22.1193 111.354 22.4604C111.788 22.8101 112.28 23.0801 112.807 23.2578C113.357 23.4473 113.935 23.5437 114.517 23.543C115.249 23.5605 115.971 23.3674 116.596 22.9864C116.989 22.7376 117.353 22.4461 117.682 22.1173C117.838 21.9582 118.047 21.8615 118.269 21.8455C118.492 21.8295 118.712 21.8953 118.89 22.0304L120.158 23.0017C118.735 24.8436 116.741 25.7646 114.175 25.7646C113.183 25.7794 112.198 25.5953 111.278 25.2233C110.449 24.8873 109.701 24.3773 109.085 23.7275C108.478 23.0778 108.008 22.3124 107.702 21.4769C107.374 20.578 107.21 19.627 107.219 18.6698C107.21 17.7093 107.389 16.7563 107.745 15.8642C108.079 15.027 108.573 14.2627 109.198 13.6137C109.825 12.9702 110.576 12.4613 111.406 12.1179C112.291 11.7508 113.241 11.5667 114.2 11.5765C115.397 11.5765 116.408 11.7855 117.234 12.2032C118.025 12.5928 118.72 13.1519 119.271 13.8409C119.803 14.5168 120.195 15.2916 120.425 16.1204C120.661 16.9596 120.78 17.8271 120.78 18.6988C120.78 18.9414 120.684 19.1741 120.512 19.3457C120.341 19.5172 120.108 19.6137 119.866 19.6137L109.959 19.6106ZM118.05 17.5598C118.037 17.0268 117.946 16.4987 117.78 15.9923C117.627 15.5328 117.379 15.1104 117.052 14.7527C116.715 14.3913 116.301 14.1091 115.842 13.9262C115.302 13.7144 114.726 13.6108 114.146 13.6213C113.553 13.6143 112.965 13.736 112.423 13.9781C111.926 14.1977 111.476 14.512 111.098 14.9036C110.744 15.2719 110.459 15.7012 110.258 16.1707C110.063 16.606 109.959 17.0767 109.953 17.5537L118.05 17.5598Z" fill="#E1E3EA"/>
<path d="M123.867 11.9178H125.517C125.76 11.9178 125.992 12.0142 126.164 12.1858C126.335 12.3574 126.432 12.59 126.432 12.8327V13.9976H126.488C126.662 13.6348 126.893 13.3026 127.173 13.0141C127.455 12.7184 127.777 12.462 128.127 12.2518C128.49 12.0377 128.877 11.8702 129.282 11.7532C129.688 11.6314 130.111 11.5693 130.535 11.5687C130.921 11.5636 131.306 11.6213 131.674 11.7394L131.56 14.5023C131.351 14.4464 131.142 14.3991 130.933 14.3605C130.726 14.3228 130.516 14.304 130.306 14.3041C129.053 14.3041 128.094 14.6553 127.429 15.3577C126.764 16.0601 126.432 17.1524 126.432 18.6344V25.4151H123.867V11.9178Z" fill="#E1E3EA"/>
<path d="M160.828 27.6725C160.543 28.4136 160.268 29.0692 160.001 29.6395C159.758 30.178 159.415 30.6658 158.99 31.0774C158.548 31.4868 158.016 31.7888 157.438 31.9602C156.81 32.1635 155.983 32.2652 154.959 32.2652C153.874 32.2682 152.796 32.0946 151.768 31.7513L152.338 28.2443C152.965 28.5255 153.645 28.671 154.332 28.6713C154.727 28.6842 155.122 28.6327 155.5 28.5188C155.786 28.4277 156.047 28.271 156.263 28.0614C156.471 27.851 156.639 27.6052 156.761 27.3356C156.893 27.0509 157.036 26.7185 157.188 26.3384L157.502 25.5409L151.434 11.5801H156.038L159.6 20.7287H159.657L162.706 11.5801H167.095L160.828 27.6725Z" fill="#E1E3EA"/>
<path d="M178.235 14.9963H175.388V19.6118C175.387 19.9593 175.406 20.3065 175.446 20.6517C175.475 20.9372 175.563 21.2138 175.702 21.4644C175.845 21.7001 176.058 21.8844 176.312 21.9904C176.661 22.1276 177.034 22.1909 177.409 22.1764C177.709 22.1707 178.009 22.1468 178.307 22.1048C178.613 22.0827 178.906 21.9685 179.147 21.777V25.3388C178.668 25.5107 178.171 25.6254 177.665 25.6804C177.164 25.7372 176.66 25.7657 176.155 25.7658C175.484 25.7714 174.814 25.6952 174.161 25.5386C173.587 25.4021 173.045 25.155 172.566 24.8113C172.107 24.4753 171.74 24.0297 171.499 23.5152C171.226 22.9063 171.095 22.2439 171.114 21.5772V14.9963H168.379V11.5778H171.114V7.47461H174.469C174.712 7.47461 174.944 7.57099 175.116 7.74256C175.287 7.91413 175.384 8.14684 175.384 8.38947V11.5778H179.145V14.0815C179.145 14.3233 179.05 14.5553 178.879 14.7267C178.708 14.8982 178.477 14.9951 178.235 14.9963Z" fill="#E1E3EA"/>
<path d="M194.419 23.0265C193.733 23.9025 192.843 24.5972 191.827 25.0498C190.808 25.5186 189.7 25.7614 188.579 25.7619C187.555 25.7688 186.538 25.5954 185.574 25.2496C184.668 24.9286 183.835 24.4299 183.124 23.7827C182.425 23.1388 181.867 22.3576 181.484 21.4879C181.09 20.5399 180.887 19.5232 180.887 18.4964C180.887 17.4695 181.09 16.4528 181.484 15.5047C181.868 14.638 182.426 13.8594 183.124 13.2176C183.835 12.5704 184.668 12.0717 185.574 11.7508C186.538 11.4044 187.555 11.2305 188.579 11.2369C189.502 11.2249 190.418 11.3997 191.272 11.7508C192.058 12.0776 192.759 12.5792 193.323 13.2176C193.902 13.8865 194.343 14.664 194.619 15.5047C194.935 16.47 195.09 17.4808 195.076 18.4964V18.9218C195.076 19.1644 194.98 19.3971 194.808 19.5687C194.637 19.7402 194.404 19.8366 194.161 19.8366H185.165C185.303 20.5944 185.694 21.2827 186.275 21.7883C186.866 22.2793 187.616 22.5374 188.384 22.5141C189.011 22.5344 189.63 22.3712 190.165 22.0445C190.44 21.8658 190.696 21.6583 190.927 21.4254C191.082 21.2709 191.286 21.1767 191.504 21.1599C191.722 21.1431 191.939 21.2048 192.115 21.3339L194.419 23.0265ZM190.801 16.9274C190.816 16.586 190.761 16.2453 190.638 15.9264C190.515 15.6076 190.328 15.3176 190.087 15.0748C189.84 14.8214 189.542 14.6226 189.213 14.4913C188.885 14.36 188.532 14.2991 188.178 14.3124C187.749 14.3034 187.323 14.3807 186.925 14.5396C186.584 14.6784 186.271 14.8761 185.999 15.1235C185.746 15.356 185.543 15.6371 185.402 15.95C185.259 16.2594 185.177 16.5932 185.159 16.9335L190.801 16.9274Z" fill="#E1E3EA"/>
<path d="M150.122 18.0368C149.919 17.4864 149.613 16.9802 149.219 16.5456C148.825 16.1083 148.351 15.7493 147.824 15.4874C147.255 15.2034 146.643 15.0163 146.013 14.9339V14.8744C146.993 14.5945 147.87 14.0362 148.539 13.2673C149.17 12.5156 149.489 11.5717 149.489 10.4281C149.489 9.32828 149.271 8.44444 148.835 7.77659C148.411 7.11863 147.821 6.58343 147.126 6.22438C146.382 5.83927 145.575 5.58889 144.744 5.48485C143.871 5.36038 142.991 5.29822 142.109 5.29883H139.031V9.06043H134.586V23.9422C134.586 24.3508 134.748 24.7427 135.037 25.0317C135.326 25.3208 135.717 25.4833 136.126 25.4837H142.85C143.756 25.4827 144.659 25.3856 145.544 25.1941C146.405 25.022 147.23 24.7049 147.984 24.2563C148.698 23.824 149.303 23.2335 149.753 22.5303C150.21 21.8152 150.439 20.9308 150.439 19.8665C150.44 19.2429 150.333 18.6238 150.122 18.0368ZM139.031 9.06043H142.05C142.405 9.06273 142.759 9.09695 143.108 9.16262C143.446 9.22138 143.773 9.33303 144.076 9.49348C144.383 9.64924 144.637 9.89066 144.809 10.1884C144.981 10.4862 145.063 10.8274 145.044 11.1707C145.055 11.5283 144.973 11.8826 144.805 12.1984C144.649 12.4746 144.428 12.7082 144.16 12.8785C143.887 13.0567 143.584 13.1834 143.265 13.252C142.931 13.3283 142.59 13.3661 142.248 13.3649H139.031V9.06043ZM145.712 20.4612C145.54 20.76 145.302 21.0152 145.015 21.2068C144.723 21.3966 144.399 21.5314 144.058 21.6047C143.718 21.6801 143.372 21.7179 143.024 21.7176H139.031V17.1296H142.393C142.785 17.1323 143.177 17.1603 143.565 17.2134C143.966 17.2649 144.359 17.37 144.732 17.526C145.081 17.6707 145.39 17.9002 145.628 18.1938C145.878 18.5252 146.004 18.9336 145.984 19.3481C145.997 19.7369 145.903 20.122 145.712 20.4612Z" fill="#E1E3EA"/>
<path opacity="0.9" d="M137.486 3.00586H132.715V7.52069H137.486V3.00586Z" fill="#E1E3EA"/>
<path opacity="0.4" d="M11.0357 10.334H6.00391V15.3657H11.0357V10.334Z" fill="#E1E3EA"/>
<path opacity="0.4" d="M11.0357 20.3965H6.00391V25.4282H11.0357V20.3965Z" fill="#E1E3EA"/>
<path d="M21.1034 5.30238V20.3976V23.9397C21.1034 24.1351 21.0649 24.3286 20.9901 24.5092C20.9153 24.6897 20.8057 24.8538 20.6675 24.992C20.5293 25.1302 20.3652 25.2398 20.1847 25.3146C20.0041 25.3894 19.8106 25.4278 19.6152 25.4278H11.0322V20.3961H14.4752C14.8969 20.3957 15.3011 20.228 15.5993 19.9298C15.8974 19.6317 16.0651 19.2274 16.0655 18.8058V15.3628H11.0338V10.3311H16.0655V6.88813C16.0655 6.67935 16.0244 6.47264 15.9444 6.27978C15.8645 6.08692 15.7473 5.91168 15.5996 5.76413C15.4519 5.61657 15.2766 5.49958 15.0836 5.41983C14.8907 5.34007 14.684 5.29913 14.4752 5.29933H6.0005V25.4263H0.96875V0.267578H16.064L21.1034 5.30238Z" fill="#E1E3EA"/>
</svg>
