<svg width="557" height="102" viewBox="0 0 557 102" fill="none" xmlns="http://www.w3.org/2000/svg">
<g clip-path="url(#clip0)">
<path d="M58.9795 75.2324L56.3785 69.6213L30.2125 12.8867H27.3891L0.511719 77.4813H3.3573L10.8714 59.4901H33.725L41.3058 75.2324L42.4174 77.4813H47.9751L60.0244 77.5036L58.9795 75.2324ZM11.894 57.1076L21.4979 33.9729L32.5912 57.1076H11.894Z" fill="#F0F0F2"/>
<path d="M106.065 25.3563V30.5666C103.487 26.1801 98.8848 23.998 92.2376 23.998C85.6128 23.998 80.055 26.4251 75.6088 31.2569C71.1626 36.0887 68.9395 42.9244 68.9395 51.7641C68.9395 60.6039 71.1181 67.5287 75.4976 72.5163C79.8772 77.504 85.1904 79.9978 91.4596 79.9978C94.5497 79.9978 97.462 79.3521 100.174 78.0829C102.886 76.7915 104.843 74.8543 106.065 72.2937V101.307H123.028V25.3563H106.065ZM106.065 68.8869C104.02 72.9617 101.352 75.0102 98.0844 75.0102C94.7942 75.0102 91.9709 73.1175 89.6366 69.3323C87.3023 65.5693 86.1241 59.4906 86.1241 51.1407C86.1241 42.7908 87.0356 36.9348 88.8585 33.5726C90.6592 30.2103 93.4159 28.5404 97.1063 28.5404C100.819 28.5404 103.22 30.0545 104.354 33.0604C105.487 36.0887 106.065 41.7888 106.065 50.1832V68.8869Z" fill="#F0F0F2"/>
<path d="M241.009 25.3563V30.5666C238.452 26.1801 233.828 23.998 227.203 23.998C220.556 23.998 215.021 26.4251 210.552 31.2569C206.106 36.0887 203.883 42.9244 203.883 51.7642C203.883 60.6039 206.061 67.5287 210.441 72.5164C214.821 77.504 220.134 79.9978 226.403 79.9978C229.493 79.9978 232.405 79.3521 235.117 78.0829C237.83 76.7915 239.808 74.8543 241.009 72.2937V80.0424H257.993V25.3563H241.009ZM241.009 68.887C238.963 72.9617 236.318 75.0102 233.028 75.0102C229.738 75.0102 226.936 73.1176 224.602 69.3323C222.246 65.5693 221.09 59.4906 221.09 51.1407C221.09 42.7908 222.001 36.9348 223.802 33.5726C225.603 30.2103 228.359 28.5404 232.072 28.5404C235.762 28.5404 238.185 30.0545 239.319 33.0604C240.431 36.0887 241.009 41.7888 241.009 50.1832V68.887Z" fill="#F0F0F2"/>
<path d="M174.537 27.6266V67.4166C171.891 71.9589 168.468 74.2078 164.244 74.2078C161.087 74.2078 158.708 73.0722 157.107 70.801C155.507 68.5299 154.729 64.7223 154.729 59.3561V25.3555H137.744V27.6266V56.8846C137.744 71.469 144.458 78.7724 157.886 78.7724C161.42 78.7724 164.733 78.0821 167.801 76.6793C170.846 75.2766 173.092 73.5621 174.537 71.5136V79.908H191.521V75.2543V25.3777H174.537V27.6266Z" fill="#F0F0F2"/>
<path d="M301.343 24.8887C298.786 24.8887 296.43 25.3785 294.206 26.4028C292.05 27.4048 290.449 28.6294 289.404 30.0767V25.3785H272.42V27.6497H272.442V79.931H289.404V32.9713C291.294 29.765 293.74 28.1396 296.763 28.1396C299.053 28.1396 300.765 28.9634 301.898 30.5666C303.032 32.192 303.61 34.953 303.61 38.8051V42.9467H315.815V40.6087C315.815 30.1435 310.991 24.8887 301.343 24.8887Z" fill="#F0F0F2"/>
<path d="M327.088 27.6266H327.11V77.6368V79.908H344.072V77.6368V25.3555H327.088V27.6266Z" fill="#F0F0F2"/>
<path d="M335.199 0.306641C332.443 0.306641 330.086 1.28636 328.13 3.24579C326.173 5.20523 325.195 7.56546 325.195 10.3265C325.195 13.0875 326.173 15.4255 328.13 17.3626C330.086 19.2998 332.443 20.2573 335.199 20.2573C337.956 20.2573 340.29 19.2998 342.224 17.3626C344.158 15.4255 345.114 13.0875 345.114 10.3265C345.114 7.56546 344.158 5.20523 342.224 3.24579C340.29 1.28636 337.956 0.306641 335.199 0.306641Z" fill="#F0F0F2"/>
<path d="M397.782 72.9617C394.514 74.1863 391.58 74.7875 389.023 74.7875C379.442 74.7875 374.262 68.1299 373.506 54.8369H407.698C407.698 44.1045 405.297 36.3113 400.495 31.4795C395.715 26.6477 389.713 24.2207 382.51 24.2207C375.307 24.2207 369.171 26.4251 364.102 30.8561C359.056 35.2871 356.521 42.056 356.521 51.2075C356.521 56.5737 357.388 61.1383 359.078 64.9235C360.768 68.7088 363.124 71.5366 366.148 73.4293C369.171 75.3219 372.261 76.6579 375.44 77.4595C378.597 78.2388 382.176 78.6396 386.133 78.6396C390.091 78.6396 394.07 77.7267 398.071 75.9231C402.073 74.0973 404.896 71.8038 406.564 68.9983L404.963 67.8627C403.451 70.0671 401.073 71.7593 397.782 72.9617ZM373.395 51.3188C373.395 44.8171 374.106 39.0501 375.551 34.0402C376.974 29.008 379.308 26.4919 382.554 26.4919C385.8 26.4919 388.156 29.097 389.646 34.3073C391.113 39.5177 391.847 45.6186 391.847 52.5657H373.395V51.3188Z" fill="#F0F0F2"/>
<path d="M450.649 46.2866C448.381 45.5518 446.113 44.8393 443.824 44.2159C442.49 43.8151 441.156 43.4588 439.822 43.1025C436.221 42.1674 433.153 40.8982 430.618 39.4286C429.551 38.8051 428.551 37.4914 427.951 36.3336C427.55 35.5988 427.35 34.7972 427.35 33.9734C427.35 33.439 427.417 32.9268 427.55 32.4592C427.55 32.437 427.573 32.4147 427.573 32.3924C427.639 32.1252 427.728 31.8803 427.839 31.6354C428.04 31.1455 428.373 30.7002 428.751 30.2549C428.951 30.0322 429.196 29.8318 429.44 29.6537C429.574 29.5201 429.707 29.431 429.863 29.3197C429.951 29.2752 430.018 29.2084 430.107 29.1638C430.307 29.0302 430.507 28.8966 430.73 28.7853C430.974 28.6517 431.219 28.5181 431.463 28.4068C431.685 28.2954 431.908 28.2064 432.13 28.1173C433.308 27.5829 434.62 27.1821 436.065 26.9595C436.443 26.8704 436.843 26.8259 437.243 26.7591C437.554 26.7145 437.888 26.67 438.221 26.6477C438.533 26.6255 438.866 26.6032 439.2 26.5809C440.511 26.5364 441.867 26.6032 443.246 26.7591C452.36 27.761 458.074 32.3256 457.985 37.6028L458.029 37.625L459.363 38.1149C459.452 37.3578 459.43 35.9105 459.297 35.1089C458.852 31.7913 456.74 29.1416 452.961 27.1821C449.181 25.2227 444.224 24.2207 438.088 24.2207C431.93 24.2207 426.75 25.7125 422.571 28.6517C418.391 31.5909 416.057 35.3316 415.612 39.8739C415.168 44.4163 416.168 48.0679 418.614 50.8735C419.103 51.4301 419.614 51.9645 420.148 52.4321C421.281 53.5009 422.526 54.4138 423.882 55.1932C425.127 55.9057 426.461 56.5069 427.884 56.9967C428.795 57.3085 429.729 57.6202 430.663 57.9096C433.486 58.8226 436.376 59.6464 439.266 60.4035C443.112 61.3832 446.402 62.6524 449.115 64.1888C451.404 65.5025 452.738 67.1279 453.072 69.0428C453.161 69.3991 453.183 69.7553 453.183 70.1339C453.183 74.4535 449.27 76.6134 441.423 76.6134C438.066 76.6134 434.865 76.2571 431.863 75.6114C431.73 75.5891 431.597 75.5446 431.485 75.5223C424.749 74.2086 419.281 71.5589 417.502 67.9072L416.057 68.8647C417.102 71.4698 419.458 73.6742 423.149 75.4778C427.773 77.7489 433.842 78.8623 441.312 78.8623C448.781 78.8623 454.361 77.3036 458.052 74.1641C461.742 71.0245 463.609 66.8607 463.609 61.6504C463.609 57.7092 462.342 54.4584 459.808 51.8977C457.273 49.3148 454.228 47.4445 450.649 46.2866Z" fill="#F0F0F2"/>
<path d="M493.22 58.9997C493.22 58.9551 493.242 58.9106 493.242 58.8438C493.375 58.0422 493.62 57.0402 493.709 56.7062C493.731 56.6394 493.731 56.5949 493.731 56.5949C494.398 54.0343 495.332 51.4736 496.532 48.9353C498.822 44.0812 502.09 39.2494 506.381 34.4844C508.871 31.5676 511.449 29.0069 514.073 26.7803C514.428 26.4686 514.806 26.1568 515.162 25.8674C515.206 25.8451 515.229 25.8006 515.273 25.7561C515.318 25.7115 515.384 25.6893 515.429 25.6447L515.406 25.6225C516.029 25.0881 517.185 24.1974 517.696 23.8189C517.852 23.7076 517.941 23.6408 517.941 23.6408C525.055 18.475 528.345 16.0257 536.348 16.2706C539.505 16.3597 540.55 16.6937 543.151 17.5843C546.752 18.8312 547.397 19.6551 549.264 21.1469C550.887 22.4384 552.043 24.2419 553.11 26.2014C555.667 30.7437 556.512 35.4196 556.512 40.2514V41.721H554.244L554.022 40.3628C553.8 38.4701 553.066 36.4439 550.954 33.7942C549.976 32.5695 548.998 31.9238 546.486 30.6769C545.174 30.0312 542.662 28.9624 539.594 29.3632C532.724 30.2761 529.968 34.2172 525.966 38.0693C525.966 38.0693 525.966 38.0693 525.944 38.0916C525.922 38.1139 525.855 38.1807 525.766 38.2475C525.722 38.292 525.655 38.3588 525.588 38.4256C524.944 39.1826 523.921 40.3405 523.343 41.053L523.276 41.0085C517.63 46.7087 513.628 52.8319 511.116 59.2001C509.004 64.4772 507.937 68.8414 507.937 72.2926C507.937 75.7217 508.737 78.4382 510.316 80.4421C511.894 82.4461 513.984 83.4481 516.54 83.4481C522.431 83.4481 525.366 79.3733 525.366 71.2016C525.366 67.5722 524.81 64.3213 523.676 61.4489C522.543 58.5766 521.031 56.8176 519.141 56.1273L519.719 54.3237C525.299 54.3237 529.768 55.771 533.125 58.6879C536.482 61.5825 538.171 65.212 538.171 69.5094C538.171 73.8068 536.415 77.592 532.902 80.8429C529.39 84.0938 524.032 85.7192 516.829 85.7192C509.626 85.7192 503.802 83.7153 499.333 79.7073C494.887 75.6994 492.664 70.6004 492.664 64.4104C492.686 62.7849 492.864 60.9814 493.22 58.9997Z" fill="#F0F0F2"/>
<path d="M548.376 40.7647C546.219 44.3718 543.863 45.2179 542.373 45.7078C540.461 46.3312 538.305 46.5094 536.06 46.4203C533.592 46.3312 530.68 45.5074 528.901 44.4386C526.233 42.8354 524.633 41.544 523.477 39.0947L523.61 38.7607C523.543 38.6939 523.388 38.9166 523.343 38.8498L522.076 40.2525C522.721 42.2788 525.166 49.7603 530.457 52.0537C532.814 53.0779 534.859 53.2561 537.327 53.2561C537.594 53.2561 537.86 53.2338 538.127 53.2115C540.039 53.0111 541.884 52.2541 543.44 51.1185C544.463 50.3837 545.575 49.3817 546.486 48.1794L546.686 47.9344C547.464 46.8879 548.909 44.6613 549.532 40.8537L548.376 40.7647Z" fill="#F0F0F2"/>
<path d="M515.83 23.7974C513.918 21.6153 511.072 19.4109 508.849 18.3644C506.092 17.0729 504.292 16.2713 500.69 15.9819C497.067 15.6702 493.843 16.2045 491.086 17.1175C488.33 18.0304 486.129 19.8562 484.462 21.5485C482.794 23.2184 481.549 25.1556 480.682 27.36C479.838 29.5643 479.482 31.7687 479.615 33.9731C479.749 36.1774 480.371 38.315 481.527 40.408C482.683 42.4788 484.395 44.3269 486.685 45.9078C488.952 47.4442 491.776 48.4684 495.133 48.936C495.177 48.7134 495.333 48.1567 495.466 47.7337C495.533 47.5555 495.599 47.3997 495.644 47.3106C493.554 45.7297 492.287 43.4808 491.798 40.4971C491.309 37.4689 491.909 34.2625 493.643 30.8335C494.932 28.5178 496.889 26.4693 499.468 24.6657C502.069 22.8622 504.714 21.9047 507.404 21.7489C508.471 21.7043 509.472 21.8379 510.405 22.1942C510.45 22.1942 510.472 22.2165 510.494 22.2387C511.472 22.6172 512.384 23.2407 513.206 24.1091L513.34 24.2427L513.985 25.022L515.43 27.0482C515.43 27.0482 517.542 26.2244 517.319 25.8459C517.097 25.4896 515.83 23.7974 515.83 23.7974Z" fill="#F0F0F2"/>
</g>
<defs>
<clipPath id="clip0">
<rect width="556" height="101" fill="white" transform="translate(0.511719 0.306641)"/>
</clipPath>
</defs>
</svg>
