<svg width="125" height="41" viewBox="0 0 125 41" fill="none" xmlns="http://www.w3.org/2000/svg">
<g opacity="0.8">
<path d="M50.1641 13.1845C50.1641 12.1442 50.9942 11.3008 52.0182 11.3008H55.3304C58.243 11.3008 60.3691 11.938 61.7085 13.2124C63.0692 14.4652 63.7495 16.1932 63.7495 18.3964C63.7495 20.9452 63.016 22.8999 61.549 24.2607C60.0821 25.6215 57.9029 26.3019 55.0115 26.3019C54.3246 26.3019 53.7677 26.8677 53.7677 27.5655V35.1147H52.0182C50.9942 35.1147 50.1641 34.2713 50.1641 33.231V13.1845ZM55.1071 23.0943C56.978 23.0943 58.2856 22.6731 59.0297 21.8308C59.7738 20.9884 60.1459 19.9732 60.1459 18.7852C60.1459 17.5108 59.7844 16.474 59.0616 15.6748C58.3387 14.8756 57.1269 14.476 55.426 14.476H53.7677V23.0943H55.1071Z" fill="white"/>
<path d="M66.756 22.1269C66.756 21.0865 67.5861 20.2432 68.6101 20.2432H70.2002V22.0289C71.2192 20.9883 72.8889 20.2766 74.2666 20.7191C74.2992 20.7295 74.2832 20.7259 74.3148 20.7391C74.3578 20.7572 74.4278 20.7866 74.5134 20.8228C75.1619 21.0967 75.5654 21.7352 75.5654 22.4487V23.3566C75.38 23.3566 74.5345 23.3566 73.8967 23.3566C72.8974 23.3566 72.2412 23.7099 71.412 24.3579C70.6041 25.0059 70.2002 26.0427 70.2002 27.4683V35.1147H68.6101C67.5861 35.1147 66.756 34.2713 66.756 33.231V22.1269Z" fill="white"/>
<path d="M84.7862 35.4387C83.468 35.4387 82.2455 35.1255 81.1187 34.4991C80.0132 33.8511 79.1203 32.9439 78.4399 31.7775C77.7808 30.5895 77.4513 29.2071 77.4513 27.6303C77.4513 26.0751 77.7383 24.7143 78.3124 23.5479C78.9076 22.3815 79.7474 21.4744 80.8317 20.8264C81.916 20.1784 83.1916 19.8544 84.6586 19.8544C85.509 19.8544 86.3063 20.0056 87.0504 20.308C87.7945 20.6104 88.4217 20.9884 88.932 21.442C89.4422 21.874 89.7824 22.306 89.9525 22.7379L90.0162 20.2432H91.4469C92.4709 20.2432 93.301 21.0865 93.301 22.1269V33.231C93.301 34.2713 92.4709 35.1147 91.4469 35.1147H90.0481L89.9844 32.4903C89.6229 33.2679 88.9639 33.9591 88.0071 34.5639C87.0504 35.1471 85.9768 35.4387 84.7862 35.4387ZM85.3602 32.5227C86.572 32.5227 87.5926 32.1015 88.4217 31.2591C89.2509 30.3951 89.6654 29.2719 89.6654 27.8895V27.6627C89.6654 26.7339 89.4741 25.9023 89.0914 25.1679C88.7087 24.4335 88.1878 23.8611 87.5288 23.4507C86.8697 23.0403 86.1468 22.8351 85.3602 22.8351C83.9995 22.8351 82.9471 23.2887 82.203 24.1959C81.4589 25.0815 81.0868 26.2371 81.0868 27.6627C81.0868 29.1099 81.4483 30.2871 82.1711 31.1943C82.9152 32.0799 83.9783 32.5227 85.3602 32.5227Z" fill="white"/>
<path d="M98.1877 22.0575C98.1877 21.0555 98.9873 20.2432 99.9736 20.2432C100.96 20.2432 101.759 21.0555 101.759 22.0575V33.3003C101.759 34.3024 100.96 35.1147 99.9736 35.1147C98.9873 35.1147 98.1877 34.3024 98.1877 33.3003V22.0575ZM99.9417 17.4568C99.2827 17.4568 98.7299 17.23 98.2834 16.7764C97.8369 16.3228 97.6137 15.7612 97.6137 15.0916C97.6137 14.4868 97.8369 13.9684 98.2834 13.5364C98.7299 13.1044 99.2827 12.8884 99.9417 12.8884C100.58 12.8884 101.122 13.1044 101.568 13.5364C102.015 13.9684 102.238 14.4868 102.238 15.0916C102.238 15.7612 102.015 16.3228 101.568 16.7764C101.143 17.23 100.601 17.4568 99.9417 17.4568Z" fill="white"/>
<path d="M111.567 24.1959L112.364 23.0295L108.824 23.1267H106.305V22.1269C106.305 21.0865 107.135 20.2432 108.159 20.2432H114.38C115.829 20.2432 116.718 21.8555 115.961 23.1107L111.089 31.1943L110.291 32.4255L113.735 32.2959L117.435 32.2311V33.231C117.435 34.2713 116.605 35.1147 115.581 35.1147H108.233C106.78 35.1147 105.892 33.4931 106.658 32.2382L111.567 24.1959Z" fill="white"/>
<path d="M121.235 11.3008H122.793C123.817 11.3008 124.647 12.1441 124.647 13.1845V33.231C124.647 34.2713 123.817 35.1147 122.793 35.1147H121.235V11.3008Z" fill="white"/>
</g>
<g opacity="0.8">
<path fill-rule="evenodd" clip-rule="evenodd" d="M21.1019 4.6877L21.1101 4.68769C21.3176 4.68674 21.5203 4.74015 21.697 4.84064L36.6702 13.3113L36.6714 13.312C36.8486 13.413 36.9928 13.556 37.0919 13.7244C37.1909 13.8926 37.2423 14.0814 37.2427 14.2722V14.2734V31.2106C37.2426 31.4018 37.1913 31.5915 37.0921 31.7602C36.993 31.9288 36.8487 32.072 36.6713 32.173L36.6702 32.1736L31.14 35.302V26.3352C31.14 20.3409 26.8132 15.1986 21.1876 15.1986C15.5625 15.1986 11.2351 20.3321 11.2351 26.3352V35.3912L5.5488 32.1733C5.37063 32.0722 5.22566 31.9287 5.12604 31.7596C5.02664 31.5908 4.97513 31.4014 4.97474 31.21V14.274C4.97556 14.0823 5.02735 13.8928 5.12687 13.7238C5.22649 13.5547 5.37119 13.4111 5.54898 13.3095L5.55035 13.3087L20.516 4.84198L20.5186 4.84051C20.6942 4.74059 20.8956 4.68724 21.1019 4.6877ZM11.8668 39.0736L11.8632 40.2676C11.195 40.2656 10.5378 40.0911 9.95747 39.7601L9.95462 39.7584L3.33193 36.0106C2.47948 35.5263 1.76861 34.8295 1.27262 33.9877C0.776534 33.1456 0.513521 32.1889 0.511723 31.2132L0.511719 31.211L0.511721 14.2694C0.513791 13.2935 0.777206 12.3365 1.27377 11.4945C1.77023 10.6526 2.48162 9.95601 3.33456 9.47197L3.336 9.47115L18.3079 1.00206C19.1617 0.52027 20.1278 0.267578 21.1098 0.267578C22.0918 0.267578 23.0579 0.52027 23.9116 1.00206L38.8887 9.47291C39.7402 9.95792 40.4501 10.6547 40.9454 11.4963C41.4409 12.3381 41.7037 13.2943 41.7058 14.2694L41.7058 14.2719L41.7058 31.2129C41.7042 32.1889 41.4413 33.146 40.9452 33.9884C40.4493 34.8307 39.7384 35.5278 38.8858 36.0125L38.8839 36.0136L32.4183 39.6735C31.8371 40.0023 31.1795 40.1747 30.5116 40.1749C29.8437 40.1751 29.1862 40.0032 28.6048 39.6748C28.0233 39.3463 27.5372 38.8719 27.1977 38.2969C26.8581 37.7217 26.6779 37.0672 26.677 36.3993L26.677 36.3978V26.3352C26.677 22.4367 24.0346 19.6199 21.1876 19.6199C18.3406 19.6199 15.6982 22.4367 15.6982 26.3352V36.4795C15.7019 37.1489 15.5237 37.8059 15.1839 38.3828C14.8447 38.9586 14.3573 39.4327 13.7742 39.7592C13.1951 40.0899 12.5392 40.2647 11.8721 40.2676L11.8668 39.0736Z" fill="white"/>
</g>
</svg>
