<svg width="111" height="33" viewBox="0 0 111 33" fill="none" xmlns="http://www.w3.org/2000/svg">
<path d="M24.4902 7.17586C24.4902 5.29247 24.5135 3.40908 24.4902 1.52568C24.4902 0.851383 24.653 0.339844 25.3971 0.339844C27.4432 0.363096 29.5126 0.270088 31.5355 0.54911C35 0.990893 37.0694 3.7346 36.9764 7.43163C36.9067 10.8729 34.5815 13.4538 31.1635 13.7794C29.3266 13.9421 27.4665 13.8956 25.6063 13.9654C24.7228 13.9886 24.4902 13.5468 24.5135 12.733C24.5367 10.8729 24.5135 9.01275 24.4902 7.17586C24.5135 7.17586 24.4902 7.17586 24.4902 7.17586ZM29.0708 2.64177C27.2339 2.64177 27.2339 2.64177 27.2107 4.47866C27.2107 5.89702 27.2107 7.33863 27.2107 8.75698C27.2107 11.9657 27.2107 11.9657 30.5124 11.4774C32.2331 11.2217 33.4422 10.3381 33.9072 8.61747C34.907 5.05995 32.9306 2.64177 29.0708 2.64177Z" fill="#E1E3EA"/>
<path d="M79.0058 9.45263C79.0058 7.42973 79.0058 5.40682 79.0058 3.38392C79.0058 2.87238 79.0058 2.38409 78.9593 1.87255C78.8663 0.988986 78.936 0.314684 80.1451 0.291432C81.424 0.268181 81.4705 0.988986 81.4705 1.91906C81.4472 5.33707 81.4705 8.77833 81.424 12.1963C81.424 12.7776 81.2147 13.824 81.0287 13.824C80.1916 13.8937 79.2848 13.824 78.4942 13.4984C78.006 13.2892 77.6804 12.6149 77.3317 12.1033C75.7273 9.7084 74.1462 7.29022 72.4023 4.63951C72.3093 5.1743 72.2395 5.40682 72.2395 5.63934C72.2395 7.98777 72.193 10.3362 72.2628 12.6846C72.286 13.6845 71.821 13.9402 70.9374 13.9402C70.0539 13.9402 69.7051 13.6147 69.7051 12.7079C69.7283 9.01085 69.7283 5.29056 69.7051 1.59353C69.7051 0.640209 70.0771 0.291432 71.0072 0.268181C72.379 0.244929 73.2393 0.895979 73.9136 1.98881C75.4715 4.5 77.0526 7.01119 78.6338 9.49913C78.75 9.52238 78.8663 9.49913 79.0058 9.45263Z" fill="#E1E3EA"/>
<path d="M84.7494 7.03405C84.7494 5.22041 84.7959 3.40678 84.7262 1.61639C84.7029 0.68632 84.982 0.267788 85.9585 0.337543C87.8419 0.430551 89.7486 0.337543 91.632 0.546809C95.0267 0.942089 97.3286 3.75555 97.2356 7.19681C97.1426 10.8241 94.8407 13.4748 91.3994 13.8003C89.5161 13.9631 87.6327 13.9166 85.7493 13.9863C84.9355 14.0096 84.6797 13.5911 84.6797 12.847C84.7029 10.9171 84.6797 8.9872 84.6797 7.08056C84.7262 7.03405 84.7494 7.03405 84.7494 7.03405ZM87.5397 6.91779H87.5629C87.5629 7.80136 87.5629 8.68493 87.5629 9.56849C87.5629 11.5449 87.8652 11.8007 89.8881 11.5914C90.0741 11.5681 90.2601 11.5449 90.4694 11.5216C93.1433 11.0799 94.4454 9.52199 94.3524 6.84804C94.2594 4.3136 92.8643 2.91849 90.1904 2.68597C89.7021 2.63947 89.1905 2.66272 88.679 2.63947C87.8419 2.59296 87.4931 2.96499 87.5397 3.80206C87.5862 4.84839 87.5397 5.87146 87.5397 6.91779Z" fill="#E1E3EA"/>
<path d="M56.883 28.59C57.1387 28.218 57.2782 28.032 57.348 27.846C58.3711 25.2418 59.3942 22.6143 60.4172 20.0101C60.9288 18.708 61.5101 18.4988 62.9052 19.1731C61.6496 22.2191 60.394 25.2418 59.1384 28.2878C58.6966 29.3574 58.2781 30.4269 57.7665 31.4733C57.6038 31.7988 57.2085 32.2173 56.9062 32.2173C56.6039 32.2173 56.1854 31.822 56.0226 31.4965C55.2321 29.8921 54.5113 28.2645 53.6742 26.4276C52.9069 28.218 52.2559 29.7991 51.5351 31.3338C51.3723 31.6825 50.9305 32.1708 50.6515 32.1708C50.326 32.1476 49.9307 31.6825 49.7679 31.3105C48.024 27.4507 46.3499 23.5677 44.606 19.7079C44.327 19.0801 44.513 18.8011 45.0943 18.7778C46.0011 18.7313 46.7219 18.9638 47.1172 19.9404C48.0938 22.4516 49.1634 24.9163 50.1865 27.4042C50.326 27.753 50.4887 28.0785 50.7677 28.7063C51.4653 27.1019 52.1163 25.7766 52.6511 24.4047C52.7674 24.1257 52.5349 23.6607 52.3954 23.3119C51.8373 21.94 51.2328 20.5682 50.6515 19.1963C51.7908 18.4523 52.4186 18.5918 52.9302 19.7544C53.2092 20.3589 53.4882 20.9867 53.8602 21.8005C54.209 20.9635 54.5113 20.3589 54.7205 19.7079C54.9531 18.9173 55.4879 18.7313 56.2319 18.7778C56.883 18.8243 57.0457 19.1033 56.7434 19.6846C56.3249 20.4984 55.9296 21.3587 55.4879 22.1493C54.8368 23.3351 54.7671 24.4512 55.5111 25.6371C55.9994 26.5439 56.3714 27.4972 56.883 28.59Z" fill="#E1E3EA"/>
<path d="M9.87418 13.6147C8.15355 14.3122 6.96771 13.8472 6.13065 12.2661C5.57261 11.2197 5.03782 10.1501 4.36352 9.17357C4.131 8.84804 3.57296 8.73178 3.17768 8.49927C3.03817 8.8713 2.80565 9.22007 2.7824 9.5921C2.73589 10.6384 2.71264 11.6848 2.7824 12.7078C2.85215 13.6844 2.48012 13.9402 1.50355 13.9402C0.503723 13.9402 0.0851912 13.6844 0.108443 12.6613C0.154947 10.8477 0.178198 9.05731 0.178198 7.24367C0.178198 5.36028 0.154947 3.47689 0.108443 1.59349C0.0851912 0.663421 0.457219 0.268141 1.41054 0.337896C3.06142 0.430903 4.73554 0.337896 6.38642 0.500659C8.1303 0.663421 9.10688 1.66325 9.4789 3.31412C9.89744 5.17426 9.36265 6.84839 7.82803 7.63895C6.8282 8.15049 6.87471 8.61553 7.4095 9.38283C7.85128 10.0571 8.22331 10.7779 8.61859 11.4755C9.06037 12.1498 9.4324 12.8473 9.87418 13.6147ZM2.80565 4.49996C2.80565 6.08108 2.96841 6.33685 4.10775 6.3136C5.96789 6.29035 6.8282 5.66255 6.8282 4.3837C6.8282 3.12811 5.82838 2.50031 3.92173 2.52356C2.52663 2.52356 2.8289 3.52339 2.80565 4.49996Z" fill="#E1E3EA"/>
<path d="M10.0604 28.5408C10.0604 26.5644 10.0604 24.8903 10.0604 23.2162C10.0604 22.2164 10.0372 21.2165 10.0372 20.2167C10.0372 19.5657 9.9674 18.8449 10.9905 18.8449C11.9671 18.8449 12.0136 19.4727 12.0136 20.1702C12.0136 22.3791 12.0136 24.5648 12.0136 26.7737C12.0136 28.1223 12.0368 29.4709 12.0136 30.8195C11.9903 31.2613 11.8043 32.0519 11.6648 32.0519C11.0137 32.0751 10.2697 32.0519 9.75813 31.7263C9.17684 31.3311 8.82806 30.6103 8.38628 30.029C6.36338 27.4713 4.36372 24.8903 2.1083 22.4024C2.1083 25.1926 2.13156 27.9828 2.08505 30.773C2.08505 31.1683 1.89904 31.7263 1.62002 31.9356C0.945715 32.4006 0.0853998 31.9123 0.0853998 31.052C0.0388963 27.2155 0.0388963 23.4022 0.062148 19.5889C0.062148 18.8449 1.434 18.4961 2.22456 19.0541C2.52684 19.2634 2.7826 19.5889 3.01512 19.8912C5.10778 22.4954 7.22369 25.1228 9.31635 27.7503C9.47911 27.9363 9.66513 28.0991 10.0604 28.5408Z" fill="#E1E3EA"/>
<path d="M73.9481 18.7788C76.5523 18.6858 78.6914 19.8019 80.0633 22.0806C81.4584 24.3825 81.3189 26.8704 79.8773 29.0561C78.2729 31.5208 75.785 32.5671 72.8785 32.1951C68.0189 31.5673 65.3682 27.6842 66.6935 23.3362C67.5771 20.4994 70.3906 18.7091 73.9481 18.7788ZM73.5993 30.4047C76.436 30.4047 78.6217 28.2423 78.6449 25.4753C78.6682 22.7316 76.5058 20.5227 73.7621 20.4994C70.8788 20.4762 68.5537 22.7781 68.6002 25.6148C68.6699 28.1958 70.9718 30.4279 73.5993 30.4047Z" fill="#E1E3EA"/>
<path d="M12.5934 7.10263C12.5934 5.24248 12.6166 3.40559 12.5934 1.54545C12.5701 0.661886 12.9422 0.289858 13.8257 0.289858C15.8719 0.31311 17.918 0.336361 19.9642 0.289858C20.8943 0.266606 21.0803 0.754893 21.0803 1.5222C21.1035 2.28951 20.8245 2.66154 19.9874 2.61503C18.8016 2.56853 17.5925 2.63829 16.3834 2.56853C15.5464 2.52203 15.2673 2.91731 15.2673 3.66136C15.2906 5.94004 15.4998 5.84703 17.2437 5.87028C17.7088 5.87028 18.1738 5.89353 18.6388 5.84703C19.5224 5.75402 20.0339 5.96329 20.0339 7.00962C20.0339 8.0792 19.4759 8.21871 18.6156 8.17221C18.0343 8.14896 17.453 8.17221 16.8717 8.17221C15.2906 8.17221 15.2441 8.21871 15.2441 9.66032C15.2208 11.3809 15.4533 11.66 16.988 11.66C18.104 11.6832 19.2201 11.6832 20.3595 11.66C21.1035 11.6367 21.2895 12.0553 21.2895 12.6598C21.2895 13.2643 21.3128 13.9154 20.4757 13.9386C18.1273 13.9619 15.7556 13.9619 13.4072 13.9154C12.7561 13.9154 12.5469 13.4271 12.5469 12.7993C12.6166 10.8927 12.5934 9.00927 12.5934 7.10263Z" fill="#E1E3EA"/>
<path d="M95.346 31.7049C93.9044 32.3094 92.9743 32.0071 92.2535 30.8678C91.5327 29.7285 90.7887 28.6124 90.1144 27.4498C89.6958 26.7057 89.0215 26.4965 88.3705 26.7755C88.0682 26.915 87.9054 27.5893 87.8822 28.0311C87.8124 28.9612 87.8357 29.8912 87.8589 30.798C87.8822 31.6119 87.5567 32.0071 86.7196 32.0304C85.8825 32.0536 85.65 31.6584 85.65 30.9143C85.65 27.2405 85.6035 23.59 85.6035 19.9162C85.6035 19.2652 85.8128 18.7769 86.6266 18.8234C88.2542 18.8931 89.8818 18.8699 91.4862 19.0559C93.6719 19.3349 94.7415 20.358 94.9972 22.1251C95.253 23.8923 94.4159 25.3571 92.6256 26.3104C92.5325 26.357 92.4395 26.45 92.1605 26.636C93.1603 28.3334 94.2299 29.9842 95.346 31.7049ZM87.8124 22.6599C87.8357 24.9618 87.8357 24.9618 90.1144 24.8688C90.3934 24.8688 90.6491 24.8688 90.9282 24.8223C91.8815 24.6596 92.6488 23.776 92.7186 22.8227C92.7651 21.8926 92.0443 20.9393 91.0212 20.7765C90.1841 20.6603 89.3238 20.6603 88.4867 20.7533C88.231 20.7765 87.9519 21.2183 87.8357 21.5206C87.7194 21.8694 87.8124 22.2646 87.8124 22.6599Z" fill="#E1E3EA"/>
<path d="M98.2285 13.616C99.1586 11.035 100.089 8.52384 100.995 6.01265C101.554 4.45478 102.181 2.92017 102.67 1.3623C102.949 0.455479 103.53 0.362472 104.344 0.33922C105.181 0.315969 105.599 0.59499 105.878 1.38555C107.18 5.08258 108.552 8.73311 109.878 12.4301C110.04 12.8719 110.622 13.616 109.715 13.8252C108.924 14.0113 107.901 14.4065 107.413 13.244C107.18 12.7092 107.134 12.1046 106.878 11.6163C106.669 11.1978 106.274 10.6398 105.925 10.5932C104.786 10.4537 103.623 10.5235 102.484 10.57C102.274 10.5932 101.995 10.942 101.879 11.1978C101.693 11.5698 101.623 12.0116 101.507 12.4069C100.879 14.1043 100.182 14.4065 98.2285 13.616ZM105.855 8.33783C105.274 6.6637 104.832 5.33835 104.39 4.013C103.762 5.19884 103.344 6.29167 103.018 7.43101C102.949 7.68678 103.181 8.29132 103.321 8.31458C104.088 8.38433 104.879 8.33783 105.855 8.33783Z" fill="#E1E3EA"/>
<path d="M55.5879 13.5456C55.9599 12.5225 56.3087 11.4762 56.6807 10.4531C57.7503 7.45367 58.8664 4.45419 59.9127 1.45471C60.1685 0.710653 60.587 0.292121 61.4241 0.315373C62.2611 0.315373 62.9122 0.501387 63.2145 1.40821C64.4933 5.03548 65.8419 8.61625 67.1208 12.2435C67.2835 12.7318 68.0508 13.4526 67.0278 13.8944C66.1907 14.2664 64.8653 13.7316 64.5631 12.9411C64.4468 12.6621 64.4236 12.3365 64.3771 12.0575C64.191 11.0577 63.6563 10.4531 62.5867 10.4996C62.1681 10.5229 61.7264 10.5461 61.3078 10.5461C59.3547 10.5927 59.3082 10.6159 58.7036 12.4528C58.1688 14.1269 57.448 14.4059 55.5879 13.5456ZM61.7264 4.05891C61.6101 4.05891 61.5171 4.05891 61.4008 4.08216C61.0753 5.12849 60.68 6.17482 60.4708 7.2444C60.401 7.59318 60.7498 8.31398 60.9823 8.36048C61.6101 8.47674 62.2844 8.31398 63.075 8.24423C62.5867 6.68636 62.1681 5.36101 61.7264 4.05891Z" fill="#E1E3EA"/>
<path d="M45.3361 7.10397C45.3361 5.22058 45.3826 3.33718 45.3128 1.45379C45.2895 0.570223 45.6616 0.314453 46.4754 0.314453C47.8705 0.360957 49.2656 0.314453 50.6375 0.337705C52.9394 0.40746 54.4507 1.61655 54.7995 3.59295C55.1948 5.94138 54.0322 8.17355 51.8931 8.8711C51.0792 9.15013 50.1724 9.31289 49.2889 9.28964C48.1495 9.26638 47.7542 9.66166 47.8937 10.7777C47.9868 11.4521 47.8472 12.1729 47.917 12.8472C47.9868 13.7075 47.545 13.94 46.8009 13.8935C46.0801 13.8702 45.2663 13.9865 45.2895 12.8472C45.3593 10.9638 45.3361 9.03387 45.3361 7.10397ZM47.917 4.8253C47.8472 6.82495 47.9402 7.01096 49.0331 7.05747C50.9862 7.15047 52.0326 6.35991 52.0791 4.73229C52.1256 3.26743 51.3815 2.63963 49.5911 2.59313C47.9868 2.54662 47.9868 2.54662 47.917 4.8253Z" fill="#E1E3EA"/>
<path d="M110.394 31.7987C108.534 32.3102 107.441 31.9847 106.441 30.7291C105.395 29.4037 104.325 28.0784 103.279 26.753C103 26.4042 102.791 25.9857 102.535 25.5904C102.372 25.6834 102.233 25.7764 102.07 25.8695C102.047 26.2182 102 26.567 102 26.9158C102 28.2179 102 29.5432 102.023 30.8453C102.023 31.5894 101.768 32.0079 100.954 32.0312C100.186 32.0312 99.8377 31.6824 99.8377 30.9151C99.8377 27.3343 99.8145 23.7535 99.8145 20.1728C99.8145 19.4055 99.9075 18.7777 100.931 18.8242C101.907 18.8707 102.047 19.4287 102.023 20.2193C102 21.7771 102.023 23.3583 102.023 25.2882C102.581 24.7534 102.93 24.4976 103.209 24.1721C104.302 22.8235 105.372 21.4516 106.464 20.103C107.627 18.6614 108.115 18.5219 110.138 19.1497C108.883 20.6146 107.697 22.0329 106.488 23.4513C106.232 23.7535 105.999 24.0326 105.697 24.3116C104.86 25.0789 104.976 25.7997 105.72 26.5903C107.139 28.0784 108.487 29.613 109.859 31.1244C109.999 31.2871 110.161 31.4964 110.394 31.7987Z" fill="#E1E3EA"/>
<path d="M17.5781 25.4492C17.5781 23.7518 17.5781 22.0544 17.5781 20.3803C17.5781 18.962 17.6943 18.8457 19.0662 18.8457C20.8798 18.8457 22.6935 18.8457 24.5071 18.8457C25.2046 18.8457 25.7627 18.9387 25.7394 19.8223C25.7162 20.6593 25.2279 20.7989 24.5071 20.7756C23.3445 20.7291 22.1819 20.7756 21.0426 20.7291C20.1823 20.6826 19.787 21.0081 19.7172 21.8917C19.508 24.0774 19.7637 24.4029 21.9727 24.4261C22.6005 24.4261 23.205 24.4494 23.8328 24.4261C24.5071 24.4029 24.8326 24.7749 24.6699 25.3562C24.5769 25.6817 24.1351 26.1003 23.8095 26.1468C22.9027 26.2398 21.9494 26.17 21.0426 26.1235C20.1823 26.077 19.787 26.3793 19.7637 27.3093C19.7172 30.0763 19.8335 30.2391 22.647 30.2391C23.4143 30.2391 24.2048 30.1461 24.9721 30.2623C25.2977 30.3088 25.8557 30.7506 25.8557 30.9831C25.8324 31.3784 25.4372 32.0295 25.1814 32.0527C22.9027 32.1457 20.6241 32.1225 18.3454 32.0527C18.0896 32.0527 17.6711 31.4249 17.6711 31.0761C17.5548 29.1462 17.5781 27.3093 17.5781 25.4492Z" fill="#E1E3EA"/>
<path d="M35.46 18.8458C37.0179 18.8458 38.5525 18.8691 40.1103 18.8458C40.8079 18.8458 41.2032 19.0086 41.2032 19.7991C41.2032 20.613 40.8311 20.7757 40.1103 20.7292C39.4593 20.6827 38.8082 20.706 38.1339 20.6827C36.8086 20.6362 36.3901 21.078 36.4133 22.3801C36.4598 25.1936 36.4598 28.007 36.5296 30.8205C36.5528 31.6343 36.297 32.0761 35.4367 32.0296C34.6229 32.0063 34.3904 31.5645 34.4137 30.8205C34.4369 27.9373 34.4137 25.0308 34.4602 22.1476C34.4834 21.0315 34.0649 20.5897 32.9488 20.706C32.2512 20.7757 31.5537 20.7292 30.8561 20.7525C30.2051 20.7757 29.7168 20.6827 29.7168 19.8456C29.7168 18.9853 30.1586 18.8226 30.9026 18.8458C32.4373 18.8691 33.9486 18.8458 35.46 18.8458Z" fill="#E1E3EA"/>
</svg>
