<svg width="199" height="25" viewBox="0 0 199 25" fill="none" xmlns="http://www.w3.org/2000/svg">
<path d="M20.6558 10.982H19.7577L7.24942 10.9651C4.94178 10.9651 3.08078 9.00298 3.22846 6.64937C3.36293 4.50237 5.18671 2.85558 7.32506 2.85558H23.3993C24.8197 2.85558 25.9711 1.6969 25.9711 0.267578H7.24942C3.4998 0.267578 0.469376 3.43069 0.656677 7.24502C0.828369 10.7489 3.78196 13.4468 7.24942 13.5435L20.6558 13.57C22.9635 13.57 24.8245 15.5322 24.6768 17.8858C24.5423 20.0328 22.7185 21.6796 20.5802 21.6796H4.50594C3.08558 21.6796 1.93416 22.8383 1.93416 24.2676H20.555C24.0957 24.2676 27.0841 21.5008 27.2486 17.9414C27.4263 14.1355 24.3994 10.982 20.6558 10.982Z" fill="url(#paint0_linear)" fill-opacity="0.8"/>
<path d="M24.3269 5.00391H7.51543C6.56452 5.00391 5.74568 5.73971 5.70125 6.69541C5.65323 7.71635 6.46126 8.55848 7.465 8.55848H20.7946C22.7456 8.55848 24.3269 6.96726 24.3269 5.00391Z" fill="url(#paint1_linear)" fill-opacity="0.8"/>
<path d="M3.8125 19.2011H20.6239C21.5748 19.2011 22.3937 18.4653 22.4381 17.5096C22.4861 16.4886 21.6781 15.6465 20.6744 15.6465H7.3448C5.39375 15.6465 3.8125 17.2377 3.8125 19.2011Z" fill="url(#paint2_linear)" fill-opacity="0.8"/>
<path d="M35.5977 19.8068L36.6014 18.3884C37.3085 17.3897 38.6726 17.1033 39.6971 17.7662C41.0428 18.6365 42.734 19.2365 44.6998 19.2365C47.157 19.2365 48.3532 18.0933 48.3532 16.8885C48.3532 13.1443 36.2582 15.7145 36.2582 7.75084C36.2582 4.22886 39.2817 1.31055 44.2267 1.31055C47.5651 1.31055 50.3373 2.32529 52.4158 4.26096L51.3128 5.72258C50.6094 6.65585 49.3299 6.95336 48.3115 6.38674C46.9144 5.60901 45.3334 5.24361 43.8162 5.24361C41.8945 5.24361 40.8246 6.10034 40.8246 7.36938C40.8246 10.7321 52.8877 8.48042 52.8877 16.3799C52.8877 20.25 50.1474 23.1695 44.478 23.1695C40.4484 23.1695 37.55 21.8054 35.5977 19.8068Z" fill="#E1E3EA"/>
<path d="M54.8477 15.1106C54.8477 10.764 57.8711 7.08398 62.8799 7.08398C67.9194 7.08398 70.9428 10.764 70.9428 15.1106C70.9428 19.4893 67.9194 23.1693 62.8799 23.1693C57.8711 23.1693 54.8477 19.4893 54.8477 15.1106ZM66.7845 15.1106C66.7845 12.7305 65.3678 10.6689 62.8787 10.6689C60.3908 10.6689 59.0047 12.7305 59.0047 15.1106C59.0047 17.5215 60.3908 19.5843 62.8787 19.5843C65.3678 19.5843 66.7845 17.5215 66.7845 15.1106Z" fill="#E1E3EA"/>
<path d="M73.9121 20.4158V1.62695H75.5568C76.8583 1.62695 77.9123 2.68984 77.9123 3.99963V22.7884H76.2676C74.9661 22.7897 73.9121 21.7268 73.9121 20.4158Z" fill="#E1E3EA"/>
<path d="M85.2267 21.3182L79.7031 7.46484H82.354C83.3356 7.46484 84.2156 8.07838 84.56 9.00424L87.9547 18.1246L91.3569 8.98696C91.6976 8.07097 92.5665 7.46484 93.5371 7.46484H96.2382L90.7147 21.317C90.3605 22.2058 89.5051 22.7885 88.554 22.7885H87.3873C86.4363 22.7897 85.5809 22.207 85.2267 21.3182Z" fill="#E1E3EA"/>
<path d="M104.931 7.08398C100.301 7.08398 97.0566 10.6689 97.0566 15.1106C97.0566 20.0288 100.553 23.1693 105.183 23.1693C107.545 23.1693 109.94 22.4397 111.451 21.0435L110.947 20.3016C110.32 19.3757 109.134 19.0054 108.106 19.4325C107.28 19.7757 106.368 19.9658 105.624 19.9658C103.041 19.9658 101.498 18.3486 101.246 16.413H111.671C112.162 16.413 112.554 16.0093 112.554 15.5155C112.55 10.506 109.464 7.08398 104.931 7.08398ZM101.183 13.6835C101.372 12.1602 102.443 10.2887 104.931 10.2887C107.577 10.2887 108.584 12.2244 108.678 13.6835H101.183Z" fill="#E1E3EA"/>
<path d="M115.443 20.4158V1.62695H117.088C118.39 1.62695 119.444 2.68984 119.444 3.99963V9.43134C120.641 7.87713 122.342 7.08336 124.137 7.08336C128.011 7.08336 130.878 10.1288 130.878 15.1421C130.878 20.2503 127.979 23.1686 124.137 23.1686C122.31 23.1686 120.641 22.344 119.444 20.8207V22.7872H117.799C116.499 22.7897 115.443 21.7268 115.443 20.4158ZM122.878 19.585C125.209 19.585 126.751 17.8085 126.751 15.1433C126.751 12.478 125.207 10.6695 122.878 10.6695C121.586 10.6695 120.105 11.4312 119.444 12.4459V17.8715C120.105 18.8554 121.586 19.585 122.878 19.585Z" fill="#E1E3EA"/>
<path d="M132.918 15.1106C132.918 10.764 135.941 7.08398 140.95 7.08398C145.99 7.08398 149.013 10.764 149.013 15.1106C149.013 19.4893 145.99 23.1693 140.95 23.1693C135.941 23.1693 132.918 19.4893 132.918 15.1106ZM144.856 15.1106C144.856 12.7305 143.439 10.6689 140.95 10.6689C138.462 10.6689 137.076 12.7305 137.076 15.1106C137.076 17.5215 138.462 19.5843 140.95 19.5843C143.438 19.5843 144.856 17.5215 144.856 15.1106Z" fill="#E1E3EA"/>
<path d="M150.994 15.1106C150.994 10.764 154.018 7.08398 159.026 7.08398C164.066 7.08398 167.089 10.764 167.089 15.1106C167.089 19.4893 164.066 23.1693 159.026 23.1693C154.019 23.1693 150.994 19.4893 150.994 15.1106ZM162.932 15.1106C162.932 12.7305 161.515 10.6689 159.026 10.6689C156.537 10.6689 155.152 12.7305 155.152 15.1106C155.152 17.5215 156.539 19.5843 159.026 19.5843C161.514 19.5843 162.932 17.5215 162.932 15.1106Z" fill="#E1E3EA"/>
<path d="M179.216 21.7613L175.886 16.8876L174.059 18.8541V22.7884H172.414C171.113 22.7884 170.059 21.7255 170.059 20.4158V1.62695H171.703C173.005 1.62695 174.059 2.68984 174.059 3.99963V14.2853L179.118 8.29933C179.565 7.76973 180.221 7.46482 180.912 7.46482H184.737L178.721 14.4125L184.926 22.7884H181.156C180.381 22.7897 179.656 22.4045 179.216 21.7613Z" fill="#E1E3EA"/>
<path d="M186.789 18.8188L187.314 17.9645C188.417 19.0113 190.684 20.0582 192.574 20.0582C194.307 20.0582 195.126 19.3607 195.126 18.4077C195.126 15.8696 186.086 17.9312 186.086 11.9032C186.086 9.33301 188.323 7.08008 192.323 7.08008C193.763 7.08008 195.035 7.3566 196.143 7.80966C197.471 8.35406 198.007 9.96259 197.281 11.2094L196.858 11.9353C195.945 10.9514 194.213 10.1589 192.355 10.1589C190.906 10.1589 189.961 10.8255 189.961 11.6822C189.961 13.966 198.969 12.0624 198.969 18.2497C198.969 21.0421 196.607 23.1678 192.386 23.1678C190.766 23.1678 189.18 22.8345 187.826 22.2333C186.522 21.6556 186.042 20.0384 186.789 18.8188Z" fill="#E1E3EA"/>
<defs>
<linearGradient id="paint0_linear" x1="30.2497" y1="5.23197" x2="5.48728" y2="15.7676" gradientUnits="userSpaceOnUse">
<stop stop-color="#B8B8B8"/>
<stop offset="1" stop-color="#E0E0E0"/>
</linearGradient>
<linearGradient id="paint1_linear" x1="-0.324399" y1="12.5786" x2="24.8826" y2="2.72174" gradientUnits="userSpaceOnUse">
<stop offset="0.1893" stop-color="#B2B2B2"/>
<stop offset="0.4692" stop-color="#A8A8A8"/>
<stop offset="0.9404" stop-color="#8D8D8D"/>
<stop offset="1" stop-color="#8A8A8A"/>
</linearGradient>
<linearGradient id="paint2_linear" x1="26.1593" y1="10.7648" x2="16.7893" y2="15.7393" gradientUnits="userSpaceOnUse">
<stop stop-color="white"/>
<stop offset="0.00393599" stop-color="#868686"/>
<stop offset="0.6314" stop-color="#A1A1A1"/>
<stop offset="1" stop-color="#ABABAB"/>
</linearGradient>
</defs>
</svg>
