<svg width="28" height="25" viewBox="0 0 28 25" fill="none" xmlns="http://www.w3.org/2000/svg">
<path fill-rule="evenodd" clip-rule="evenodd" d="M10.5963 1.11742C11.3625 1.47722 12.3432 2.23511 13.0021 2.98535C13.0021 2.98535 13.1145 3.1357 13.2355 3.29997C13.3947 3.1753 13.5526 3.05532 13.6468 2.98571C13.7004 2.94743 13.7311 2.92446 13.7311 2.92446L13.8027 2.8726C16.2052 1.13201 17.3438 0.307118 20.075 0.390505C21.163 0.421126 21.5231 0.535958 22.4195 0.842177C23.4812 1.20887 23.7973 1.46915 24.2693 1.85775L24.2693 1.85776C24.3491 1.92348 24.4334 1.99286 24.5265 2.06705C25.0858 2.51107 25.4842 3.13116 25.852 3.80484C26.7331 5.36655 27.0242 6.9742 27.0242 8.63544V9.14069H26.2427L26.1661 8.67371C26.0895 8.023 25.8367 7.32635 25.1088 6.41535C24.7717 5.9943 24.4346 5.77229 23.5688 5.34359C23.1167 5.12158 22.251 4.75412 21.1936 4.89191C19.2006 5.15615 18.2121 6.15822 17.1265 7.25873L17.1265 7.25874C16.9225 7.4655 16.7151 7.67573 16.497 7.8852L16.4893 7.89285C16.4817 7.90051 16.4587 7.92348 16.428 7.94644L16.3667 8.00769C16.2903 8.09717 16.1986 8.20294 16.1029 8.31318L16.1029 8.3132L16.1027 8.31339C16.0156 8.41382 15.9252 8.51796 15.8403 8.61686C16.2211 9.2304 16.7344 9.61846 17.5084 10.0825C18.1213 10.4499 19.125 10.7332 19.9755 10.7638C20.7493 10.7944 21.4925 10.7332 22.1514 10.5188C22.6648 10.3504 23.4769 10.0595 24.2201 8.81932L24.6185 8.84994C24.404 10.159 23.906 10.9246 23.6378 11.2844L23.5689 11.3686C23.2547 11.782 22.8716 12.1265 22.5192 12.3791C21.9829 12.7695 21.3469 13.0298 20.688 13.0987L20.688 13.0987C20.5961 13.1064 20.5041 13.114 20.4122 13.114C19.5618 13.114 18.8569 13.0528 18.0447 12.7006C16.5323 12.0466 15.6945 10.1655 15.3259 9.14528C13.508 11.0338 12.2081 13.0534 11.3789 15.1502C10.6511 16.9646 10.2833 18.465 10.2833 19.6516C10.2833 20.8306 10.5591 21.7645 11.1031 22.4535C11.6471 23.1425 12.3673 23.487 13.2484 23.487C15.2788 23.487 16.2901 22.0861 16.2901 19.2765C16.2901 18.0287 16.0986 16.911 15.7078 15.9234C15.3171 14.9359 14.7961 14.3311 14.1448 14.0938L14.344 13.4737C16.2671 13.4737 17.8071 13.9713 18.9641 14.9742C20.121 15.9694 20.7033 17.2172 20.7033 18.6947C20.7033 20.1722 20.098 21.4736 18.8874 22.5913C17.6769 23.709 15.8304 24.2679 13.348 24.2679C10.8656 24.2679 8.85822 23.5789 7.3182 22.2009C5.78585 20.8229 5.01968 19.0698 5.01968 16.9416C5.02734 16.3828 5.08863 15.7627 5.21122 15.0813C5.21122 15.0745 5.21277 15.0676 5.21447 15.06C5.21656 15.0507 5.21888 15.0404 5.21888 15.0277C5.26485 14.7521 5.34913 14.4077 5.37978 14.2928C5.38744 14.2699 5.38744 14.2545 5.38744 14.2545C5.6173 13.3742 5.93909 12.4938 6.35282 11.6211C7.14198 9.95217 8.26826 8.29094 9.74698 6.65267C10.6051 5.64981 11.4939 4.76943 12.3979 4.00388C12.4782 3.9337 12.5618 3.86351 12.6443 3.79548L12.3662 3.4064L12.144 3.13846L12.098 3.09253C11.8145 2.79396 11.5004 2.57961 11.1633 2.44947C11.1556 2.44181 11.148 2.43416 11.1326 2.43416C10.8109 2.31167 10.4661 2.26574 10.0983 2.28105C9.17124 2.33464 8.25949 2.66382 7.36306 3.28391C6.4743 3.904 5.80007 4.60831 5.35569 5.40447C4.75807 6.58342 4.5512 7.6858 4.71976 8.72694C4.88832 9.75278 5.32504 10.526 6.04524 11.0695C6.02992 11.1001 6.00694 11.1537 5.98395 11.215C5.93798 11.3604 5.88435 11.5518 5.86902 11.6284C4.7121 11.4676 3.73906 11.1154 2.95756 10.5872C2.1684 10.0437 1.57844 9.40828 1.18003 8.69632C0.781621 7.97671 0.567092 7.24178 0.521122 6.48389C0.475151 5.726 0.597739 4.96811 0.888886 4.21022C1.18769 3.45233 1.61675 2.78631 2.19138 2.21215C2.76602 1.63033 3.52453 1.00259 4.47459 0.688712C5.42464 0.374838 6.54326 0.191107 7.78446 0.298283C9.02567 0.397804 9.64627 0.673401 10.5963 1.11742Z" fill="#F0F0F2" fill-opacity="0.6"/>
</svg>
