<svg width="90" height="67" viewBox="0 0 90 67" fill="none" xmlns="http://www.w3.org/2000/svg">
<path d="M0.584961 44.4425C2.73549 43.7899 4.88008 43.1153 7.041 42.4987C7.60443 42.3377 8.22204 42.4656 8.81442 42.4582C8.99332 42.456 8.93913 42.6089 8.93988 42.7066C8.94433 43.2453 8.95621 43.784 8.93691 44.322C8.92503 44.649 9.02821 44.6328 9.25908 44.4903C10.2315 43.8906 11.2166 43.3005 12.2989 42.9198C15.3536 41.8453 18.3823 42.8551 20.028 45.9329C20.8016 47.3799 21.1074 48.9372 21.0992 50.5584C21.0881 52.7749 20.5009 54.8062 19.0237 56.5215C17.6622 58.1008 15.8955 58.9717 13.8571 59.3546C12.4823 59.6125 11.1001 59.5493 9.71858 59.4538C8.94062 59.4002 8.9421 59.381 8.9421 60.1292C8.9421 61.5615 8.94582 62.9939 8.93839 64.4255C8.93765 64.6496 8.97031 64.7635 9.23978 64.8135C9.97765 64.9502 10.7029 65.1479 11.4386 65.2971C11.6598 65.3419 11.714 65.433 11.7095 65.6388C11.6991 66.0665 11.714 66.495 11.7184 66.9227C8.08174 66.9227 4.44507 66.9227 0.80766 66.9227C0.811371 66.495 0.824733 66.0665 0.814341 65.6395C0.809144 65.436 0.861107 65.3419 1.08084 65.2927C1.74077 65.1464 2.38956 64.9509 3.05098 64.8135C3.29224 64.7635 3.339 64.6731 3.339 64.4541C3.33381 58.3992 3.33306 52.3443 3.34049 46.2893C3.34049 46.0446 3.26997 45.9858 3.03168 45.9888C2.21586 46.0013 1.40004 45.9888 0.584961 45.9858C0.584961 45.4714 0.584961 44.9569 0.584961 44.4425ZM8.9421 51.7894C8.9421 53.5407 8.95101 55.2913 8.93394 57.0418C8.93097 57.3571 9.02524 57.4424 9.32737 57.4174C9.72081 57.385 10.1194 57.41 10.5129 57.3777C12.4867 57.2167 13.9239 56.2937 14.612 54.4138C15.2779 52.5927 15.3195 50.7238 14.7961 48.8645C14.4094 47.4909 13.5356 46.5319 12.1029 46.1556C11.1988 45.9182 10.2946 46.024 9.38379 46.1548C8.98442 46.2122 8.93171 46.3775 8.93468 46.7207C8.95101 48.4096 8.9421 50.0999 8.9421 51.7894Z" fill="#C2C2C2"/>
<path d="M73.7839 0C73.7883 1.05386 73.7935 2.10698 73.798 3.16084C68.2929 3.16231 62.7877 3.16304 57.2833 3.16451C57.2877 2.10992 57.241 1.05459 57.3071 0C62.7996 0 68.2921 0 73.7839 0Z" fill="#D2D2D2" fill-opacity="0.5"/>
<path d="M85.4799 20.5385C86.3751 20.4687 87.2717 20.526 88.1677 20.5084C88.659 20.4988 89.1497 20.4959 89.6411 20.49C89.6411 23.2326 89.6411 25.9753 89.6411 28.7179C88.253 28.7143 86.8642 28.7106 85.4762 28.7069C85.4769 25.9848 85.4784 23.2613 85.4799 20.5385Z" fill="#D2D2D2" fill-opacity="0.6"/>
<path d="M35.4944 49.2838C34.6511 50.6573 33.8071 52.0309 32.9645 53.4051C31.7686 55.3563 30.5705 57.306 29.3813 59.2609C29.2528 59.4718 29.1155 59.5615 28.8564 59.5578C27.6939 59.5416 26.5307 59.5394 25.3682 59.5585C25.0564 59.5637 24.9807 59.4769 24.9814 59.1734C24.9918 54.9374 24.9851 50.7007 24.9948 46.4647C24.9955 46.167 24.9488 46.0509 24.6088 46.0304C23.7091 45.9752 22.8146 45.854 21.9156 45.782C21.6959 45.7643 21.6446 45.6857 21.6669 45.4953C21.678 45.3983 21.6632 45.2991 21.6699 45.2021C21.6921 44.8626 21.5251 44.4327 21.7389 44.2093C21.9312 44.0094 22.3558 44.0241 22.6794 43.952C24.2888 43.5941 25.8945 43.2215 27.5098 42.8908C28.2878 42.7314 29.0873 42.8607 29.8764 42.8298C29.9952 42.8254 30.0241 42.8886 30.0211 42.9886C30.0189 43.0746 30.0211 43.1598 30.0211 43.2458C30.0211 46.5514 30.0211 49.8577 30.0211 53.1634C30.0211 53.2707 30.0211 53.3779 30.0211 53.522C30.1963 53.4492 30.232 53.314 30.2958 53.2097C32.3543 49.8489 34.4135 46.4875 36.4639 43.1216C36.5916 42.9121 36.7207 42.8181 36.982 42.8218C38.0948 42.8387 39.209 42.8401 40.3218 42.8218C40.6158 42.8166 40.6811 42.8974 40.6803 43.1804C40.6707 47.1349 40.6737 51.0902 40.6737 55.0447C40.6737 55.152 40.6737 55.2586 40.6737 55.4702C40.9929 55.0506 41.2549 54.7081 41.5132 54.3642C42.5681 52.962 43.6193 51.5569 44.6808 50.1591C44.8166 49.9805 44.8656 49.8034 44.8649 49.5858C44.859 47.6266 44.8619 45.668 44.8612 43.7088C44.8612 43.5368 44.853 43.3759 45.0089 43.2421C45.893 42.4822 46.8944 42.1273 48.0532 42.433C49.1994 42.7358 49.9313 43.4824 50.2001 44.6282C50.4042 45.4983 50.1993 46.3258 49.7933 47.1055C49.1489 48.3409 48.2522 49.4028 47.397 50.4934C45.0935 53.4301 42.7871 56.3646 40.4911 59.3072C40.3441 59.496 40.1986 59.5578 39.9677 59.5563C38.6315 59.546 37.296 59.5423 35.9598 59.5585C35.6547 59.5622 35.5664 59.4858 35.5671 59.1756C35.579 56.0045 35.5746 52.8334 35.5746 49.6623C35.5746 49.5432 35.5746 49.4242 35.5746 49.3051C35.5486 49.2977 35.5219 49.2904 35.4944 49.2838Z" fill="#C2C2C2"/>
<path d="M66.8363 54.8761C66.8363 55.8793 66.8333 56.8302 66.8393 57.7812C66.84 57.9451 66.7249 57.9818 66.6158 58.0326C64.8773 58.8299 63.0972 59.509 61.1738 59.7023C59.2831 59.8926 57.3797 59.9338 55.5774 59.2393C53.023 58.256 51.3936 56.3555 50.6817 53.7782C49.8161 50.6423 50.3714 47.7401 52.614 45.2738C53.8633 43.9002 55.466 43.0918 57.2743 42.67C59.2578 42.207 61.2369 42.1768 63.1974 42.7699C64.2767 43.0962 65.2432 43.6283 65.9462 44.5352C66.6218 45.4075 66.8808 46.3872 66.601 47.466C66.258 48.7888 65.0599 49.5781 63.5344 49.5458C62.602 49.526 61.7936 49.1534 60.9867 48.7514C60.816 48.6661 60.859 48.5353 60.8583 48.4104C60.8561 47.1125 60.8524 45.8154 60.8605 44.5175C60.862 44.2824 60.8405 44.214 60.5629 44.2765C58.8488 44.6601 57.647 45.6464 57.0746 47.2815C56.3093 49.4679 56.2893 51.6756 57.2246 53.8245C57.8853 55.3428 59.0374 56.3379 60.7247 56.612C61.7832 56.7839 62.8084 56.5929 63.8083 56.2247C64.8253 55.8484 65.7896 55.3634 66.8363 54.8761Z" fill="#C2C2C2"/>
<path d="M85.4866 20.5341C85.4851 23.2569 85.4844 25.9805 85.4829 28.7033C85.422 28.7121 85.3611 28.7298 85.3002 28.7298C82.5439 28.729 79.7875 28.7261 77.0311 28.7239C77.0289 25.982 77.0266 23.24 77.0244 20.4981C79.8246 20.4951 82.6248 20.4929 85.425 20.49C85.445 20.5047 85.4658 20.5194 85.4866 20.5341Z" fill="#D2D2D2" fill-opacity="0.7"/>
<path d="M57.2645 28.8003C57.2645 30.0481 57.2593 31.2952 57.2682 32.543C57.2697 32.7686 57.2282 32.8575 56.9683 32.8568C51.6301 32.8487 46.2919 32.8502 40.9537 32.8524C40.78 32.8524 40.6582 32.8627 40.6612 32.6158C40.679 31.3444 40.6775 30.0731 40.682 28.801C40.6998 28.7848 40.7169 28.7694 40.7347 28.7532C40.8824 28.7488 41.0301 28.7415 41.1786 28.7415C46.3899 28.7407 51.6012 28.7407 56.8117 28.7407C56.9476 28.7407 57.0834 28.7363 57.2193 28.7341C57.2348 28.7562 57.2497 28.7782 57.2645 28.8003Z" fill="#C2C2C2"/>
<path d="M57.2686 28.7845C57.2537 28.7625 57.2389 28.7404 57.2233 28.7184H57.2225C57.2478 28.7155 57.273 28.7118 57.2983 28.7088C60.736 28.7081 64.1738 28.7074 67.6108 28.7059C69.5238 28.7088 71.4368 28.7037 73.3498 28.7221C73.6883 28.725 73.7848 28.6361 73.7826 28.2965C73.7685 25.6942 73.7744 23.0919 73.7744 20.4902C74.8642 20.4888 75.9539 20.4873 77.0437 20.4858L77.034 20.5027C77.0363 23.2447 77.0385 25.9867 77.0407 28.7287C76.9316 28.739 76.8225 28.7588 76.7141 28.7588C70.2327 28.7684 63.7507 28.7765 57.2686 28.7845Z" fill="#D2D2D2" fill-opacity="0.8"/>
<path d="M57.2892 3.17092C62.7943 3.16945 68.2994 3.16871 73.8038 3.16724C73.8246 3.18051 73.8402 3.19747 73.8513 3.21959C73.8298 3.22327 73.809 3.22991 73.789 3.23949C72.1195 3.23876 70.45 3.23728 68.7805 3.23728C64.9597 3.23876 61.1382 3.24171 57.3174 3.24392C57.3033 3.23065 57.2892 3.21885 57.2743 3.20705C57.2676 3.19083 57.2721 3.17903 57.2892 3.17092Z" fill="#9EC8F9"/>
<path d="M40.7154 28.74C40.698 28.756 40.6813 28.772 40.6639 28.7873C40.6545 28.743 40.6683 28.7233 40.7154 28.74Z" fill="#D14328"/>
<path d="M85.4247 20.4842C82.6246 20.4872 79.8245 20.4894 77.0244 20.4923L77.0341 20.4754C77.0341 16.3893 77.0333 12.3024 77.0333 8.21625C77.0422 8.19934 77.0474 8.18171 77.0482 8.1626C77.1951 8.17362 77.3414 8.19493 77.4884 8.19493C80.0197 8.19714 82.5518 8.19787 85.0832 8.19346C85.3059 8.19273 85.441 8.19861 85.4395 8.49258C85.4262 12.4898 85.4269 16.487 85.4247 20.4842Z" fill="#D2D2D2" fill-opacity="0.3"/>
<path d="M73.8259 3.21631C74.7278 3.21925 75.6298 3.22072 76.531 3.22586C77.1019 3.2288 77.0343 3.16707 77.0365 3.74398C77.0417 5.22336 77.0439 6.70348 77.0469 8.18287C77.0462 8.20197 77.0417 8.21961 77.0321 8.23652C75.9728 8.23211 74.9134 8.22843 73.8541 8.22476C73.7428 8.08586 73.7791 7.92271 73.7784 7.7669C73.7717 6.25665 73.768 4.7464 73.7635 3.23689C73.7829 3.2266 73.8036 3.21998 73.8259 3.21631Z" fill="#D2D2D2" fill-opacity="0.2"/>
<path d="M57.304 28.7075C57.3047 25.97 57.3054 23.2318 57.3054 20.4944C57.3054 20.4944 57.304 20.4907 57.304 20.49C60.7417 20.49 64.1795 20.49 67.6166 20.49L67.6158 20.4937C67.6158 23.2304 67.6158 25.9671 67.6158 28.7038C64.1795 28.706 60.7417 28.7067 57.304 28.7075Z" fill="#C2C2C2"/>
<path d="M67.6039 28.7097C67.6039 25.973 67.6039 23.2363 67.6039 20.4995C69.66 20.4966 71.7155 20.4929 73.7709 20.49L73.7672 20.4937C73.7672 23.0959 73.7605 25.6981 73.7753 28.2996C73.7775 28.6392 73.681 28.7288 73.3426 28.7251C71.4297 28.7068 69.5168 28.7126 67.6039 28.7097Z" fill="#D2D2D2" fill-opacity="0.9"/>
<path d="M73.8556 8.21558C74.9148 8.21925 75.974 8.22366 77.0333 8.22733C77.0333 12.3142 77.034 16.4004 77.034 20.4865C75.9444 20.488 74.8547 20.4894 73.765 20.4909L73.7687 20.4872C73.7673 16.3989 73.765 12.3105 73.7635 8.22293C73.7947 8.22072 73.8252 8.21778 73.8556 8.21558Z" fill="#D2D2D2" fill-opacity="0.5"/>
<path d="M73.8621 8.20643C73.8317 8.20864 73.8013 8.21158 73.7708 8.21378C68.279 8.21452 62.788 8.21525 57.2962 8.21525L57.2836 8.20349C57.2888 6.54335 57.294 4.88321 57.2999 3.22307C61.1207 3.22087 64.9422 3.21793 68.763 3.21646C70.4326 3.21572 72.1021 3.21793 73.7716 3.21866C73.776 4.72888 73.7805 6.2391 73.7864 7.74859C73.7872 7.90439 73.7508 8.06754 73.8621 8.20643Z" fill="#D2D2D2" fill-opacity="0.6"/>
<path d="M57.2906 8.21705C62.7823 8.21631 68.2734 8.21558 73.7651 8.21558C73.7666 12.3039 73.7688 16.3923 73.7703 20.48C71.7148 20.4829 69.6585 20.4866 67.603 20.4895C67.603 20.4895 67.603 20.4858 67.6038 20.4858C67.6045 19.2372 67.5971 17.9878 67.6127 16.7392C67.6164 16.4519 67.5362 16.3637 67.2385 16.3651C63.9233 16.3762 60.608 16.3732 57.2928 16.374L57.2876 16.3695C57.2891 13.6511 57.2898 10.9341 57.2906 8.21705Z" fill="#D2D2D2" fill-opacity="0.7"/>
<path d="M57.3054 16.3951C60.6208 16.3943 63.9361 16.3973 67.2514 16.3862C67.5491 16.3855 67.6285 16.473 67.6256 16.7603C67.6107 18.0089 67.6182 19.2582 67.6167 20.5068C64.1788 20.5068 60.741 20.5068 57.304 20.5068C57.304 19.1362 57.3047 17.7656 57.3054 16.3951Z" fill="#D2D2D2" fill-opacity="0.8"/>
</svg>
