<svg width="200" height="200" viewBox="0 0 200 200" fill="none" xmlns="http://www.w3.org/2000/svg">
<circle cx="100" cy="100" r="100" fill="#E8FBFF"/>
<path d="M132.389 56.3787C131.656 55.1456 130.066 54.7115 128.8 55.3974L116.694 61.9791C116.048 62.3275 115.584 62.9223 115.389 63.6245C115.195 64.3295 115.299 65.0835 115.674 65.7109L117.793 69.278C113.957 68.4247 109.435 68.1035 106.333 68.3158C102.976 68.5472 100.881 69.342 99.7461 70.8091L96.6567 74.7995L86.9815 71.7659L89.5647 68.9881C90.5718 67.9143 90.5214 66.2349 89.4612 65.2141L79.5547 55.7458C79.0226 55.2491 78.3271 54.9782 77.6031 55.0014C76.8804 55.0286 76.1944 55.3471 75.7045 55.8765L43.7052 91.0114C42.7648 92.0458 42.777 93.6354 43.7324 94.6616L53.1899 104.702C53.6921 105.243 54.4025 105.547 55.1415 105.547C55.166 105.547 55.1919 105.547 55.2191 105.547C55.9799 105.525 56.7053 105.179 57.1939 104.598L58.4623 103.094L60.6712 108.725L56.5379 113.512C56.5106 113.549 56.4712 113.59 56.4453 113.627C53.9411 116.884 54.5345 121.589 57.7777 124.11C59.0829 125.126 60.697 125.686 62.3397 125.686C62.4568 125.686 62.5575 125.681 62.6609 125.673C63.0093 127.352 63.9266 128.916 65.372 130.046C66.6908 131.083 68.2804 131.63 69.9462 131.63C70.0496 131.63 70.1531 131.622 70.2579 131.616C70.6199 133.296 71.5358 134.859 72.9825 135.989C74.3013 137.023 75.8773 137.565 77.5445 137.565C77.6452 137.565 77.7623 137.557 77.8657 137.557C78.2141 139.231 79.1314 140.8 80.5795 141.924C81.8956 142.959 83.4716 143.508 85.1388 143.508C85.4627 143.508 85.7744 143.487 86.0819 143.45C88.0336 143.197 89.7634 142.214 90.9787 140.667L94.0382 137.119L102.09 143.352C103.523 144.462 105.227 145 106.92 145C109.283 145 111.622 143.948 113.186 141.938C114.413 140.343 114.943 138.41 114.812 136.539C116.739 136.188 118.43 135.156 119.631 133.605C120.873 132.004 121.402 130.071 121.26 128.2C123.118 127.863 124.852 126.868 126.091 125.274C127.292 123.716 127.875 121.818 127.731 119.872C129.641 119.518 131.348 118.49 132.55 116.935C134.022 115.03 134.488 112.654 134.022 110.454C135.3 109.048 137.238 106.672 138.493 103.931L140.676 107.581C141.05 108.214 141.67 108.661 142.38 108.823C142.575 108.873 142.782 108.892 142.976 108.892C143.506 108.892 144.011 108.746 144.449 108.454L156.023 100.865C157.224 100.076 157.585 98.475 156.851 97.242L132.389 56.3787ZM55.0367 98.8302L49.3506 92.7902L77.8222 61.5273L83.8295 67.2692L81.8411 69.4005L57.3354 96.1029C57.3082 96.1342 57.2823 96.1614 57.2687 96.1872L55.0367 98.8302ZM61.0808 119.872C60.1771 119.167 59.9961 117.87 60.6684 116.949L66.7506 109.902C66.7901 109.862 66.8173 109.824 66.8541 109.777C67.2419 109.266 67.8381 108.976 68.4709 108.976C68.7948 108.976 69.2739 109.054 69.7366 109.417C70.643 110.12 70.8213 111.419 70.1517 112.341L64.0668 119.388C64.0273 119.427 64.0001 119.465 63.9634 119.513C63.6286 119.949 63.1372 120.228 62.5942 120.3C62.5166 120.305 62.4268 120.313 62.337 120.313C62.0253 120.313 61.5463 120.241 61.0808 119.872ZM69.9435 126.254C69.6196 126.254 69.1432 126.176 68.6778 125.816C67.7741 125.111 67.5931 123.811 68.2627 122.89L74.3476 115.837C74.3871 115.798 74.4143 115.759 74.451 115.72C74.8389 115.21 75.4323 114.912 76.0801 114.912C76.3891 114.912 76.8668 114.989 77.3322 115.352C78.2495 116.067 78.4305 117.405 77.7174 118.33C77.6929 118.355 77.6806 118.373 77.6534 118.4C77.4493 118.698 77.241 118.99 77.0206 119.272L72.9771 123.963C71.7522 125.171 70.6907 126.024 70.0456 126.255C70.0075 126.254 69.9707 126.254 69.9435 126.254ZM76.272 131.759C75.3819 131.054 75.2009 129.749 75.8596 128.833L76.8273 127.709C78.5979 125.965 80.1739 124.006 81.2083 122.645L81.9582 121.778C81.9827 121.738 82.0221 121.7 82.048 121.663C82.4468 121.145 83.0293 120.855 83.6744 120.855C83.9983 120.855 84.4746 120.933 84.9401 121.293C85.8438 121.998 86.0139 123.295 85.3552 124.219L79.2703 131.266C79.2308 131.303 79.1927 131.349 79.1668 131.389C78.832 131.827 78.3407 132.106 77.7977 132.178C77.7174 132.189 77.6276 132.189 77.5405 132.189C77.2165 132.189 76.7375 132.118 76.272 131.759ZM86.8686 137.211C86.8291 137.248 86.8019 137.289 86.7651 137.325C86.4276 137.764 85.9486 138.048 85.4069 138.115C85.3171 138.126 85.2259 138.134 85.1361 138.134C84.8244 138.134 84.3494 138.056 83.884 137.696C82.9803 136.991 82.7993 135.691 83.4689 134.77L89.5538 127.722C89.5933 127.683 89.6205 127.645 89.6572 127.6C90.0451 127.09 90.6412 126.797 91.2741 126.797C91.5952 126.797 92.0743 126.869 92.5398 127.238C93.4435 127.94 93.6245 129.24 92.9521 130.157L86.8686 137.211ZM128.295 113.646C127.883 114.183 127.288 114.524 126.616 114.608C125.944 114.692 125.286 114.51 124.745 114.098L115.856 107.213C114.692 106.301 113.001 106.521 112.097 107.689C112.083 107.702 112.07 107.723 112.058 107.736C112.045 107.75 112.03 107.761 112.018 107.773C111.114 108.948 111.335 110.637 112.509 111.544L121.384 118.432C121.926 118.845 122.263 119.44 122.355 120.112C122.444 120.781 122.251 121.442 121.836 121.978C120.986 123.081 119.396 123.288 118.285 122.427L109.487 115.614C108.312 114.702 106.631 114.914 105.715 116.093C105.715 116.106 105.702 116.12 105.688 116.132C105.675 116.145 105.664 116.157 105.651 116.175C104.748 117.344 104.965 119.033 106.13 119.942L114.926 126.757C116.037 127.616 116.245 129.211 115.378 130.316C114.966 130.851 114.371 131.189 113.699 131.279C113.029 131.362 112.369 131.181 111.838 130.76L103.38 124.211C102.203 123.307 100.512 123.52 99.606 124.694C99.5924 124.708 99.5787 124.721 99.5787 124.742C99.5651 124.755 99.5542 124.761 99.542 124.779C98.6383 125.948 98.8452 127.634 100.021 128.546L108.482 135.095C109.581 135.945 109.787 137.54 108.934 138.646C108.081 139.751 106.48 139.951 105.383 139.097L97.5155 133C99.6209 129.779 98.9377 125.398 95.8483 122.994C94.5295 121.963 92.9535 121.418 91.2768 121.418C91.1734 121.418 91.0699 121.427 90.9651 121.427C90.6167 119.753 89.6994 118.183 88.2541 117.054C86.9217 116.028 85.3457 115.478 83.6798 115.478C83.5764 115.478 83.4729 115.483 83.3559 115.491C83.0102 113.812 82.0902 112.248 80.6448 111.118C79.3261 110.084 77.75 109.542 76.0856 109.542C75.9685 109.542 75.8651 109.542 75.7617 109.548C75.4132 107.875 74.4959 106.305 73.0479 105.183C71.7318 104.149 70.1422 103.602 68.4764 103.602C67.1712 103.602 65.9191 103.942 64.8208 104.569L62.4309 98.4982L82.9707 76.1292L93.1495 79.3275L90.6194 82.5938C89.2748 84.3372 88.6814 86.4957 88.9658 88.6869C89.2367 90.8699 90.3486 92.8202 92.092 94.1621C93.8354 95.5122 95.9939 96.1083 98.1769 95.8293C100.36 95.553 102.31 94.4411 103.666 92.6977L105.487 90.3446L127.72 109.981C127.759 110.02 127.812 110.053 127.85 110.092C128.071 110.265 128.263 110.472 128.406 110.693C128.483 110.884 128.573 111.072 128.69 111.253C128.954 112.039 128.838 112.942 128.295 113.646ZM134.33 98.3253C134.678 100.433 132.804 103.488 130.997 105.721L108.273 85.6465C108.222 84.9047 107.871 84.1793 107.241 83.6894C106.064 82.783 104.373 82.998 103.47 84.1657L99.4141 89.4123C98.935 90.0179 98.2627 90.4058 97.5005 90.5024C96.737 90.6004 95.9912 90.3936 95.3815 89.9227C94.7759 89.4518 94.388 88.7713 94.2832 88.0091C94.1934 87.2483 94.4002 86.4998 94.8657 85.8928L103.907 74.2129C104.556 73.8454 107.293 73.3147 112.279 73.8414C117.071 74.3381 120.08 75.4283 120.624 75.8937C121.617 76.8695 123.997 80.0855 126.503 83.8527L132.831 94.4561C133.63 96.0647 134.186 97.4203 134.33 98.3253ZM143.849 102.426L137.353 91.5572C135.66 88.2106 133.283 84.3345 130.997 80.8926L121.72 65.3638L129.097 61.3476L150.917 97.7877L143.849 102.426Z" fill="#0BD1FF"/>
</svg>
