<svg width="200" height="200" viewBox="0 0 200 200" fill="none" xmlns="http://www.w3.org/2000/svg">
<circle cx="100" cy="100" r="100" fill="#E8FBFF"/>
<path d="M142.68 144H56.309C55.5831 144 54.9946 143.412 54.9946 142.686V56.3143C54.9946 55.5885 55.5831 55 56.309 55H142.68C143.406 55 143.995 55.5885 143.995 56.3143V142.686C143.995 143.412 143.406 144 142.68 144ZM57.6233 141.371H141.366V57.6287H57.6233V141.371Z" fill="#0BD1FF" stroke="#0BD1FF" stroke-width="2"/>
<path d="M142.68 76.4051H56.309C55.5831 76.4051 54.9946 75.8166 54.9946 75.0907V56.3143C54.9946 55.5885 55.5831 55 56.309 55H142.68C143.406 55 143.995 55.5885 143.995 56.3143V75.0907C143.995 75.8166 143.406 76.4051 142.68 76.4051ZM57.6233 73.7764H141.366V57.6287H57.6233V73.7764Z" fill="#0BD1FF" stroke="#0BD1FF" stroke-width="2"/>
<path d="M135.176 67.0204H99.5007C98.7749 67.0204 98.1864 66.432 98.1864 65.7061C98.1864 64.9802 98.7749 64.3917 99.5007 64.3917H135.176C135.902 64.3917 136.49 64.9802 136.49 65.7061C136.49 66.432 135.902 67.0204 135.176 67.0204Z" fill="#0BD1FF" stroke="#0BD1FF" stroke-width="2"/>
<path d="M65.7087 67.0204H63.8311C63.1052 67.0204 62.5167 66.432 62.5167 65.7061C62.5167 64.9802 63.1052 64.3917 63.8311 64.3917H65.7087C66.4346 64.3917 67.0231 64.9802 67.0231 65.7061C67.0231 66.432 66.4346 67.0204 65.7087 67.0204Z" fill="#0BD1FF" stroke="#0BD1FF" stroke-width="2"/>
<path d="M75.0837 67.0204H73.2061C72.4802 67.0204 71.8917 66.432 71.8917 65.7061C71.8917 64.9802 72.4802 64.3917 73.2061 64.3917H75.0837C75.8096 64.3917 76.3981 64.9802 76.3981 65.7061C76.3981 66.432 75.8096 67.0204 75.0837 67.0204Z" fill="#0BD1FF" stroke="#0BD1FF" stroke-width="2"/>
<path d="M75.0811 143.99C74.3552 143.99 73.7667 143.402 73.7667 142.676V75.0811C73.7667 74.3552 74.3552 73.7667 75.0811 73.7667C75.807 73.7667 76.3954 74.3552 76.3954 75.0811V142.676C76.3954 143.402 75.807 143.99 75.0811 143.99Z" fill="#0BD1FF" stroke="#0BD1FF" stroke-width="2"/>
<path d="M101.397 102.711H86.3757C85.6499 102.711 85.0614 102.123 85.0614 101.397V86.3757C85.0614 85.6498 85.6499 85.0614 86.3757 85.0614H101.397C102.123 85.0614 102.711 85.6498 102.711 86.3757V101.397C102.711 102.123 102.123 102.711 101.397 102.711ZM87.6901 100.082H100.083V87.6901H87.6901V100.082Z" fill="#0BD1FF" stroke="#0BD1FF" stroke-width="2"/>
<path d="M131.414 102.711H116.392C115.667 102.711 115.078 102.123 115.078 101.397V86.3757C115.078 85.6498 115.667 85.0614 116.392 85.0614H131.414C132.139 85.0614 132.728 85.6498 132.728 86.3757V101.397C132.728 102.123 132.139 102.711 131.414 102.711ZM117.707 100.082H130.099V87.6901H117.707V100.082Z" fill="#0BD1FF" stroke="#0BD1FF" stroke-width="2"/>
<path d="M101.397 132.733H86.3757C85.6499 132.733 85.0614 132.145 85.0614 131.419V116.398C85.0614 115.672 85.6499 115.084 86.3757 115.084H101.397C102.123 115.084 102.711 115.672 102.711 116.398V131.419C102.711 132.145 102.123 132.733 101.397 132.733ZM87.6901 130.105H100.083V117.712H87.6901V130.105Z" fill="#0BD1FF" stroke="#0BD1FF" stroke-width="2"/>
<path d="M131.414 132.733H116.392C115.667 132.733 115.078 132.145 115.078 131.419V116.398C115.078 115.672 115.667 115.084 116.392 115.084H131.414C132.139 115.084 132.728 115.672 132.728 116.398V131.419C132.728 132.145 132.139 132.733 131.414 132.733ZM117.707 130.105H130.099V117.712H117.707V130.105Z" fill="#0BD1FF" stroke="#0BD1FF" stroke-width="2"/>
<path d="M67.5863 83.901H63.8311C63.1052 83.901 62.5167 83.3126 62.5167 82.5867C62.5167 81.8608 63.1052 81.2723 63.8311 81.2723H67.5863C68.3122 81.2723 68.9007 81.8608 68.9007 82.5867C68.9007 83.3126 68.3122 83.901 67.5863 83.901Z" fill="#0BD1FF" stroke="#0BD1FF" stroke-width="2"/>
<path d="M67.5863 91.4401H63.8311C63.1052 91.4401 62.5167 90.8516 62.5167 90.1257C62.5167 89.3998 63.1052 88.8114 63.8311 88.8114H67.5863C68.3122 88.8114 68.9007 89.3998 68.9007 90.1257C68.9007 90.8516 68.3122 91.4401 67.5863 91.4401Z" fill="#0BD1FF" stroke="#0BD1FF" stroke-width="2"/>
<path d="M67.5863 98.9401H63.8311C63.1052 98.9401 62.5167 98.3516 62.5167 97.6257C62.5167 96.8998 63.1052 96.3114 63.8311 96.3114H67.5863C68.3122 96.3114 68.9007 96.8998 68.9007 97.6257C68.9007 98.3516 68.3122 98.9401 67.5863 98.9401Z" fill="#0BD1FF" stroke="#0BD1FF" stroke-width="2"/>
<path d="M67.5849 106.446H63.8297C63.1038 106.446 62.5153 105.857 62.5153 105.131C62.5153 104.405 63.1038 103.817 63.8297 103.817H67.5849C68.3108 103.817 68.8993 104.405 68.8993 105.131C68.8993 105.857 68.3108 106.446 67.5849 106.446Z" fill="#0BD1FF" stroke="#0BD1FF" stroke-width="2"/>
<path d="M67.5849 113.957H63.8297C63.1038 113.957 62.5153 113.368 62.5153 112.642C62.5153 111.917 63.1038 111.328 63.8297 111.328H67.5849C68.3108 111.328 68.8993 111.917 68.8993 112.642C68.8993 113.368 68.3108 113.957 67.5849 113.957Z" fill="#0BD1FF" stroke="#0BD1FF" stroke-width="2"/>
<path d="M67.5849 121.474H63.8297C63.1038 121.474 62.5153 120.885 62.5153 120.159C62.5153 119.433 63.1038 118.845 63.8297 118.845H67.5849C68.3108 118.845 68.8993 119.433 68.8993 120.159C68.8993 120.885 68.3108 121.474 67.5849 121.474Z" fill="#0BD1FF" stroke="#0BD1FF" stroke-width="2"/>
<path d="M67.5863 128.974H63.8311C63.1052 128.974 62.5167 128.385 62.5167 127.659C62.5167 126.933 63.1052 126.345 63.8311 126.345H67.5863C68.3122 126.345 68.9007 126.933 68.9007 127.659C68.9007 128.385 68.3122 128.974 67.5863 128.974Z" fill="#0BD1FF" stroke="#0BD1FF" stroke-width="2"/>
<path d="M67.5863 136.474H63.8311C63.1052 136.474 62.5167 135.885 62.5167 135.159C62.5167 134.433 63.1052 133.845 63.8311 133.845H67.5863C68.3122 133.845 68.9007 134.433 68.9007 135.159C68.9007 135.885 68.3122 136.474 67.5863 136.474Z" fill="#0BD1FF" stroke="#0BD1FF" stroke-width="2"/>
<path fill-rule="evenodd" clip-rule="evenodd" d="M37.6999 109.282V113H39.8176V109.282H42.9901V107.164L39.8176 107.164V104H37.6999V107.164L33.9901 107.164V109.282H37.6999Z" fill="#0BD1FF"/>
<path d="M37.6999 113H36.6999V114H37.6999V113ZM37.6999 109.282H38.6999V108.282H37.6999V109.282ZM39.8176 113V114H40.8176V113H39.8176ZM39.8176 109.282V108.282H38.8176V109.282H39.8176ZM42.9901 109.282V110.282H43.9901V109.282H42.9901ZM42.9901 107.164H43.9901V106.164H42.9901V107.164ZM39.8176 107.164H38.8176V108.164H39.8176V107.164ZM39.8176 104H40.8176V103H39.8176V104ZM37.6999 104V103H36.6999V104H37.6999ZM37.6999 107.164V108.164L38.6999 108.164V107.164H37.6999ZM33.9901 107.164L33.9901 106.164H32.9901V107.164H33.9901ZM33.9901 109.282H32.9901V110.282H33.9901V109.282ZM38.6999 113V109.282H36.6999V113H38.6999ZM39.8176 112H37.6999V114H39.8176V112ZM38.8176 109.282V113H40.8176V109.282H38.8176ZM42.9901 108.282H39.8176V110.282H42.9901V108.282ZM41.9901 107.164V109.282H43.9901V107.164H41.9901ZM39.8176 108.164L42.9901 108.164V106.164L39.8176 106.164V108.164ZM38.8176 104V107.164H40.8176V104H38.8176ZM37.6999 105H39.8176V103H37.6999V105ZM38.6999 107.164V104H36.6999V107.164H38.6999ZM33.9901 108.164H37.6999V106.164L33.9901 106.164L33.9901 108.164ZM34.9901 109.282V107.164H32.9901V109.282H34.9901ZM37.6999 108.282H33.9901V110.282H37.6999V108.282Z" fill="#0BD1FF"/>
<path fill-rule="evenodd" clip-rule="evenodd" d="M153.699 129.282V133H155.816V129.282H158.989V127.164L155.816 127.164V124H153.699V127.164L149.989 127.164V129.282H153.699Z" fill="#0BD1FF"/>
<path d="M153.699 133H152.699V134H153.699V133ZM153.699 129.282H154.699V128.282H153.699V129.282ZM155.816 133V134H156.816V133H155.816ZM155.816 129.282V128.282H154.816V129.282H155.816ZM158.989 129.282V130.282H159.989V129.282H158.989ZM158.989 127.164H159.989V126.164H158.989V127.164ZM155.816 127.164H154.816V128.164H155.816V127.164ZM155.816 124H156.816V123H155.816V124ZM153.699 124V123H152.699V124H153.699ZM153.699 127.164V128.164L154.699 128.164V127.164H153.699ZM149.989 127.164L149.989 126.164H148.989V127.164H149.989ZM149.989 129.282H148.989V130.282H149.989V129.282ZM154.699 133V129.282H152.699V133H154.699ZM155.816 132H153.699V134H155.816V132ZM154.816 129.282V133H156.816V129.282H154.816ZM158.989 128.282H155.816V130.282H158.989V128.282ZM157.989 127.164V129.282H159.989V127.164H157.989ZM155.816 128.164L158.989 128.164V126.164L155.816 126.164V128.164ZM154.816 124V127.164H156.816V124H154.816ZM153.699 125H155.816V123H153.699V125ZM154.699 127.164V124H152.699V127.164H154.699ZM149.989 128.164H153.699V126.164L149.989 126.164L149.989 128.164ZM150.989 129.282V127.164H148.989V129.282H150.989ZM153.699 128.282H149.989V130.282H153.699V128.282Z" fill="#0BD1FF"/>
<path fill-rule="evenodd" clip-rule="evenodd" d="M160.713 80.2817V84H162.83V80.2817H166.003V78.1641L162.83 78.1641V75H160.713V78.1641L157.003 78.1641L157.003 80.2817H160.713Z" fill="#0BD1FF"/>
<path d="M160.713 84H159.713V85H160.713V84ZM160.713 80.2817H161.713V79.2817H160.713V80.2817ZM162.83 84V85H163.83V84H162.83ZM162.83 80.2817V79.2817H161.83V80.2817H162.83ZM166.003 80.2817V81.2817H167.003V80.2817H166.003ZM166.003 78.1641H167.003V77.1641H166.003V78.1641ZM162.83 78.1641H161.83V79.1641H162.83V78.1641ZM162.83 75H163.83V74H162.83V75ZM160.713 75V74H159.713V75H160.713ZM160.713 78.1641V79.1641L161.713 79.1641V78.1641H160.713ZM157.003 78.1641L157.003 77.1641H156.003V78.1641H157.003ZM157.003 80.2817H156.003V81.2817H157.003V80.2817ZM161.713 84V80.2817H159.713V84H161.713ZM162.83 83H160.713V85H162.83V83ZM161.83 80.2817V84H163.83V80.2817H161.83ZM166.003 79.2817H162.83V81.2817H166.003V79.2817ZM165.003 78.1641V80.2817H167.003V78.1641H165.003ZM162.83 79.1641L166.003 79.1641V77.1641L162.83 77.1641V79.1641ZM161.83 75V78.1641H163.83V75H161.83ZM160.713 76H162.83V74H160.713V76ZM161.713 78.1641V75H159.713V78.1641H161.713ZM157.003 79.1641H160.713L160.713 77.1641L157.003 77.1641L157.003 79.1641ZM158.003 80.2817L158.003 78.1641H156.003L156.003 80.2817H158.003ZM160.713 79.2817H157.003V81.2817H160.713V79.2817Z" fill="#0BD1FF"/>
<rect x="137.503" y="93.5145" width="21" height="21" fill="#0BD1FF" stroke="#0BD1FF" stroke-width="3"/>
<path fill-rule="evenodd" clip-rule="evenodd" d="M155.87 100.013L146.576 110.236L139.922 103.668L142.933 100.618L146.409 104.049L152.699 97.1297L155.87 100.013Z" fill="white"/>
</svg>
