<svg width="139" height="26" viewBox="0 0 139 26" fill="none" xmlns="http://www.w3.org/2000/svg">
<path d="M0.654846 12.5602C0.654846 8.6429 0.668963 4.72405 0.640729 0.806754C0.636023 0.226356 0.78974 0.0684878 1.37794 0.0777742C4.32837 0.122658 7.27879 0.108729 10.2292 0.141231C11.9672 0.161352 13.6565 0.491017 15.258 1.15964C18.4452 2.49068 20.4059 4.87728 21.1808 8.17084C21.8599 11.0512 21.8066 13.9578 21.0082 16.8103C19.6844 21.5432 15.8305 24.5659 10.7374 24.9498C7.55486 25.1897 4.36758 24.9977 1.18344 25.0751C0.59681 25.0891 0.651709 24.7625 0.651709 24.3895C0.656414 20.4474 0.654846 16.5038 0.654846 12.5602ZM7.3729 12.5261C7.3729 14.2534 7.3729 15.9822 7.3729 17.7095C7.3729 19.5621 7.3729 19.5621 9.28339 19.4956C11.7303 19.4104 13.429 18.2605 14.127 16.041C14.8799 13.6498 14.9082 11.2121 14.1615 8.80851C13.6282 7.08743 12.4283 6.04117 10.6166 5.69603C9.73513 5.52732 8.8442 5.62793 7.95954 5.56911C7.45133 5.53506 7.35722 5.72853 7.36192 6.18356C7.38388 8.29621 7.3729 10.4104 7.3729 12.5261Z" fill="#C7C7C7"/>
<path d="M70.8299 16.3846C70.8079 17.7775 70.5742 19.0652 70.0644 20.2941C68.6668 23.6697 65.5909 25.4914 61.4672 25.3985C56.0275 25.2762 52.6018 21.732 52.4669 16.0704C52.4324 14.5954 52.5752 13.1328 53.0614 11.7275C54.1861 8.47109 56.5467 6.70359 59.9489 6.21451C61.6523 5.96997 63.3495 6.03033 64.9792 6.59216C68.6245 7.84736 70.342 10.576 70.7781 14.2162C70.8659 14.9545 70.9491 15.7036 70.8299 16.3846ZM58.9481 15.733C58.9889 16.8845 59.0297 18.0701 59.516 19.1798C59.9332 20.1316 60.6814 20.5959 61.7292 20.5866C62.7644 20.5789 63.5267 20.1007 63.8608 19.0854C64.5698 16.9278 64.5933 14.7332 63.922 12.5648C63.5675 11.418 62.7895 10.9134 61.657 10.9165C60.5434 10.9196 59.7857 11.4675 59.3842 12.5818C59.0187 13.591 58.9842 14.6465 58.9481 15.733Z" fill="#C7C7C7"/>
<path d="M123.861 17.5012C122.189 17.5012 120.515 17.5276 118.845 17.4873C118.26 17.4734 118.211 17.6854 118.302 18.1559C118.58 19.5938 119.883 20.6524 121.587 20.7592C123.353 20.8691 125.086 20.6787 126.735 20.0209C127.271 19.8058 127.437 19.9451 127.538 20.4667C127.718 21.4015 127.895 22.3441 128.195 23.2448C128.432 23.9552 128.121 24.192 127.547 24.4226C125.111 25.3962 122.573 25.5138 120.001 25.325C118.718 25.2306 117.48 24.9179 116.324 24.3406C114.028 23.1922 112.654 21.3241 112.095 18.8849C111.551 16.5076 111.611 14.1195 112.343 11.7824C113.355 8.55079 115.636 6.74924 118.989 6.23694C120.473 6.01098 121.954 6.06824 123.43 6.36231C126.832 7.04021 129.081 9.4918 129.455 12.8983C129.602 14.2371 129.541 15.5759 129.585 16.9147C129.6 17.4053 129.425 17.5214 128.957 17.5152C127.259 17.4858 125.56 17.5012 123.861 17.5012ZM121.072 13.4292C121.802 13.4292 122.529 13.4246 123.259 13.4323C123.588 13.4354 123.795 13.4029 123.74 12.9664C123.562 11.5301 122.562 10.5566 121.187 10.5334C119.681 10.5086 118.646 11.4172 118.418 12.903C118.352 13.3348 118.47 13.4478 118.886 13.4354C119.615 13.4122 120.344 13.4292 121.072 13.4292Z" fill="#C7C7C7"/>
<path d="M35.5792 17.4962C33.882 17.4962 32.1833 17.5148 30.4861 17.4854C29.956 17.4761 29.8869 17.6371 29.9826 18.1091C30.2869 19.6104 31.5512 20.6505 33.3063 20.7542C35.0725 20.8595 36.801 20.6644 38.4496 20.0036C38.939 19.807 39.1115 19.8968 39.2103 20.406C39.4064 21.4151 39.6323 22.4227 39.9067 23.4132C40.0448 23.9131 39.9115 24.1298 39.4393 24.3295C36.9705 25.3773 34.3824 25.4918 31.7582 25.3262C30.8186 25.2674 29.8948 25.077 29.0101 24.7566C26.4064 23.8141 24.6731 22.0264 23.9249 19.3938C23.1893 16.8029 23.2442 14.1856 24.0786 11.6257C25.106 8.47144 27.3883 6.7256 30.6728 6.22723C32.1284 6.0059 33.5824 6.04769 35.0317 6.33712C38.517 7.03514 40.7412 9.40162 41.1381 12.8732C41.2933 14.2321 41.2667 15.5987 41.2855 16.9638C41.2918 17.4436 41.0784 17.5055 40.6738 17.5009C38.975 17.487 37.2779 17.4962 35.5792 17.4962ZM32.7495 13.4242C33.4789 13.4242 34.2083 13.4071 34.9376 13.4304C35.3596 13.4443 35.4631 13.3205 35.3972 12.8933C35.1713 11.4044 34.1894 10.516 32.7166 10.5299C31.2923 10.5438 30.2963 11.4957 30.0893 12.98C30.0359 13.3561 30.1552 13.4319 30.483 13.4288C31.239 13.418 31.9951 13.4242 32.7495 13.4242Z" fill="#C7C7C7"/>
<path d="M110.333 19.6643C110.333 21.1501 110.327 22.5895 110.338 24.0304C110.339 24.3198 110.195 24.4235 109.949 24.5195C107.576 25.4497 105.14 25.7066 102.661 25.0674C100.501 24.5102 99.2403 22.6576 99.1744 19.9491C99.1117 17.2947 99.1195 14.6388 99.1493 11.9845C99.1556 11.3762 98.9611 11.2648 98.4027 11.2741C96.911 11.3004 96.911 11.2756 96.9094 9.78517C96.9094 8.85654 96.9251 7.92791 96.9031 7.00082C96.8937 6.59377 96.9769 6.41423 97.4537 6.40494C99.1321 6.3678 99.132 6.34768 99.132 4.71483C99.132 3.83882 99.1446 2.96126 99.1258 2.08525C99.1195 1.7463 99.2026 1.59617 99.5838 1.54045C101.389 1.27114 103.191 0.975529 104.987 0.658245C105.508 0.566929 105.602 0.74337 105.594 1.21233C105.568 2.65481 105.618 4.10038 105.569 5.54286C105.547 6.20993 105.678 6.504 106.437 6.4359C107.292 6.36006 108.161 6.44209 109.022 6.40804C109.481 6.39101 109.599 6.55507 109.591 6.98379C109.568 8.24674 109.569 9.50968 109.59 10.7726C109.596 11.1812 109.455 11.3035 109.048 11.2927C108.056 11.2679 107.063 11.2988 106.07 11.2772C105.706 11.2694 105.573 11.3592 105.576 11.7446C105.593 14.0909 105.569 16.4373 105.594 18.7821C105.604 19.7138 106.178 20.2354 107.136 20.2772C108.225 20.3252 109.237 19.9599 110.333 19.6643Z" fill="#C7C7C7"/>
<path d="M84.4242 16.096C84.4242 14.4895 84.4101 13.1492 84.4336 11.8104C84.4399 11.4126 84.3316 11.2733 83.9128 11.2764C83.3733 11.2811 82.6627 11.5271 82.3349 11.1665C81.9867 10.7842 82.2361 10.0847 82.2235 9.52438C82.2047 8.67468 82.2423 7.82343 82.2094 6.97373C82.1921 6.52334 82.3568 6.41654 82.7897 6.40881C84.4257 6.3794 84.4257 6.36392 84.4257 4.75738C84.4257 3.93244 84.4508 3.1075 84.4163 2.28411C84.3975 1.83837 84.5293 1.65109 84.9936 1.57835C86.744 1.3044 88.4914 1.00414 90.2325 0.67757C90.7564 0.580063 90.8944 0.705429 90.8834 1.23011C90.8489 2.77629 90.8866 4.32247 90.8615 5.86865C90.8536 6.3113 90.9917 6.44286 91.434 6.43047C92.4253 6.40107 93.4182 6.43667 94.4111 6.41345C94.8221 6.40416 94.9522 6.54191 94.946 6.94587C94.924 8.20881 94.9193 9.47176 94.9475 10.7332C94.9569 11.1835 94.7985 11.3074 94.3625 11.2965C93.3712 11.2702 92.3767 11.3074 91.3854 11.2795C90.9697 11.2687 90.8599 11.4033 90.863 11.8042C90.8819 14.0716 90.8583 16.339 90.8787 18.608C90.8897 19.7456 91.4889 20.2826 92.6575 20.2826C93.5296 20.2826 94.364 20.0567 95.1781 19.7889C95.5828 19.6558 95.6769 19.7316 95.6722 20.1263C95.6597 21.3893 95.6581 22.6522 95.6738 23.9136C95.6785 24.251 95.5483 24.4089 95.2314 24.5327C92.9884 25.4134 90.6795 25.6765 88.3267 25.1502C86.1025 24.6534 84.934 23.2218 84.5779 20.8445C84.3254 19.176 84.4822 17.5014 84.4242 16.096Z" fill="#C7C7C7"/>
<path d="M43.6605 12.5415C43.6605 8.64741 43.684 4.75333 43.6401 0.860808C43.6322 0.119448 43.8691 -0.0182992 44.5498 0.00182117C46.1952 0.0482529 47.8422 0.0312279 49.4892 0.00801206C49.9347 0.00182117 50.0617 0.13183 50.0617 0.571384C50.0476 8.53752 50.0476 16.5052 50.0617 24.4744C50.0633 24.9635 49.8986 25.0842 49.4311 25.078C47.7324 25.0548 46.0337 25.0455 44.3349 25.0827C43.7656 25.0951 43.6464 24.9016 43.6495 24.3785C43.6699 20.4318 43.6605 16.4866 43.6605 12.5415Z" fill="#C7C7C7"/>
<path d="M73.3343 15.7367C73.3343 12.878 73.3547 10.0194 73.3186 7.16075C73.3107 6.52773 73.5099 6.38688 74.1138 6.40081C75.7827 6.43951 77.4548 6.42867 79.1252 6.40546C79.5989 6.39927 79.7479 6.53082 79.7479 7.01062C79.7322 12.8316 79.7322 18.651 79.7479 24.472C79.7495 24.958 79.5895 25.0803 79.1205 25.0725C77.425 25.0478 75.7278 25.0431 74.0307 25.0756C73.4896 25.0865 73.3186 24.9394 73.3233 24.39C73.3484 21.505 73.3343 18.6216 73.3343 15.7367Z" fill="#C7C7C7"/>
<path d="M134.78 25.4451C132.712 25.4559 131.062 23.8602 131.059 21.8497C131.056 19.8423 132.711 18.2157 134.756 18.2141C136.772 18.2126 138.395 19.7959 138.42 21.7863C138.445 23.8261 136.846 25.4342 134.78 25.4451Z" fill="#C7C7C7"/>
<path d="M76.5898 4.21632C75.7035 4.21632 74.8158 4.20084 73.9311 4.22406C73.517 4.23489 73.3131 4.15286 73.3272 3.68081C73.3586 2.62682 73.346 1.57129 73.3319 0.517302C73.3272 0.176807 73.3947 0.0050116 73.7978 0.00810701C75.622 0.0251318 77.4477 0.0251318 79.2735 0.00810701C79.6625 0.0050116 79.7535 0.144305 79.7472 0.500277C79.7284 1.58058 79.7268 2.66087 79.7472 3.74117C79.7535 4.11417 79.6217 4.2318 79.2515 4.22406C78.3622 4.20239 77.476 4.21632 76.5898 4.21632Z" fill="#C7C7C7"/>
</svg>
