<svg
  width="253"
  height="42"
  viewBox="0 0 253 42"
  fill="none"
  xmlns="http://www.w3.org/2000/svg"
>
<path
    d="M33.0265 6.52881H49.5537V8.67918C49.5537 8.99544 49.428 9.29874 49.2044 9.52237C48.9808 9.74599 48.6775 9.87162 48.3612 9.87162H36.5919V18.1153H48.6613V20.2657C48.6613 20.582 48.5357 20.8853 48.3121 21.1089C48.0884 21.3325 47.7851 21.4581 47.4689 21.4581H36.5919V32.822H33.0265V6.52881Z"
    fill="#242E47"
  />
<path
    d="M52.6331 24.0198C52.6231 22.7821 52.8701 21.5559 53.3585 20.4187C53.8284 19.3228 54.5029 18.3266 55.3459 17.4833C57.1164 15.735 59.5045 14.7546 61.9927 14.7546C64.481 14.7546 66.869 15.735 68.6396 17.4833C69.4819 18.3271 70.1563 19.3232 70.627 20.4187C71.1147 21.5561 71.361 22.7823 71.3504 24.0198C71.3585 25.2385 71.1228 26.4465 70.6573 27.5728C70.1918 28.6991 69.5058 29.7209 68.6396 30.5782C66.8631 32.3151 64.4773 33.2877 61.9927 33.2877C59.5082 33.2877 57.1224 32.3151 55.3459 30.5782C54.48 29.7206 53.794 28.6987 53.3282 27.5726C52.8623 26.4464 52.626 25.2385 52.6331 24.0198ZM56.1985 24.0198C56.1902 24.8608 56.3288 25.6968 56.6079 26.4902C56.8559 27.2052 57.2474 27.8619 57.7586 28.4199C58.27 28.9643 58.8903 29.395 59.579 29.6839C61.129 30.3012 62.8565 30.3012 64.4064 29.6839C65.0944 29.3944 65.7139 28.9639 66.2249 28.4199C66.7373 27.8625 67.1297 27.2056 67.3776 26.4902C67.9208 24.8881 67.9208 23.1516 67.3776 21.5495C67.1286 20.8345 66.7364 20.1779 66.2249 19.6197C65.7139 19.0758 65.0944 18.6451 64.4064 18.3557C62.8565 17.7384 61.129 17.7384 59.579 18.3557C58.8903 18.6446 58.27 19.0753 57.7586 19.6197C57.2483 20.1784 56.8568 20.8349 56.6079 21.5495C56.3291 22.3429 56.1906 23.1788 56.1985 24.0198Z"
    fill="#242E47"
  />
<path
    d="M96.2744 15.2199H98.4228C98.739 15.2199 99.0423 15.3455 99.266 15.5692C99.4896 15.7928 99.6152 16.096 99.6152 16.4123V17.9307H99.6907C100.149 16.9494 100.917 16.1462 101.877 15.6452C102.982 15.0482 104.224 14.7476 105.48 14.7727C106.307 14.7727 107.129 14.9069 107.913 15.1702C108.674 15.4183 109.371 15.8301 109.956 16.3765C110.567 16.9663 111.042 17.6826 111.347 18.4752C111.714 19.4404 111.891 20.4676 111.868 21.5V32.8282H108.529V22.4301C108.546 21.7161 108.433 21.0049 108.195 20.3314C108.005 19.8014 107.701 19.3197 107.304 18.9204C106.941 18.5669 106.503 18.2999 106.023 18.1394C105.537 17.9783 105.029 17.8971 104.518 17.8989C103.859 17.8928 103.205 18.0059 102.586 18.2328C101.99 18.4572 101.456 18.8203 101.028 19.292C100.554 19.8234 100.199 20.4502 99.9869 21.1304C99.7235 21.9834 99.5981 22.873 99.6152 23.7656V32.8282H96.2744V15.2199Z"
    fill="#242E47"
  />
<path
    d="M91.1445 32.8227H87.8017V30.1119H87.7281C87.2693 31.0921 86.5012 31.8944 85.542 32.3954C84.4372 32.9927 83.1965 33.2933 81.9408 33.2679C81.1071 33.2702 80.2787 33.136 79.4884 32.8704C78.7346 32.6185 78.0444 32.2062 77.4652 31.6621C76.8541 31.073 76.3793 30.3574 76.0741 29.5654C75.7085 28.5991 75.5323 27.5715 75.5553 26.5386V15.2104H77.7037C78.02 15.2104 78.3233 15.3361 78.5469 15.5597C78.7705 15.7833 78.8961 16.0866 78.8961 16.4029V25.6085C78.8786 26.322 78.9925 27.0328 79.232 27.7052C79.4209 28.2355 79.725 28.7175 80.1224 29.1162C80.4849 29.4704 80.9233 29.7375 81.4042 29.8973C81.8894 30.0583 82.3975 30.1395 82.9087 30.1377C83.5668 30.1436 84.2206 30.0305 84.8385 29.8039C85.4347 29.5795 85.9693 29.2172 86.3986 28.7466C86.872 28.2148 87.2264 27.588 87.438 26.9082C87.7022 26.0547 87.8277 25.1643 87.8096 24.2709V15.2104H89.96C90.2762 15.2104 90.5795 15.3361 90.8032 15.5597C91.0268 15.7833 91.1524 16.0866 91.1524 16.4029L91.1445 32.8227Z"
    fill="#242E47"
  />
<path
    d="M134.482 32.8232H131.139V30.2973H131.066C130.398 31.256 129.48 32.0124 128.411 32.4834C127.324 32.9935 126.139 33.2594 124.939 33.2624C123.672 33.2802 122.415 33.0402 121.244 32.5569C120.174 32.1084 119.211 31.437 118.42 30.5874C117.635 29.7362 117.023 28.7398 116.62 27.654C116.189 26.4896 115.975 25.2564 115.988 24.0151C115.976 22.7681 116.19 21.5293 116.62 20.3583C117.018 19.2695 117.63 18.2714 118.42 17.4229C119.216 16.5837 120.178 15.9197 121.244 15.4733C122.415 14.99 123.672 14.75 124.939 14.7678C126.172 14.7601 127.391 15.0319 128.504 15.5627C129.545 16.0328 130.432 16.7854 131.066 17.735H131.139V6.38892H133.29C133.606 6.38892 133.909 6.51454 134.133 6.73817C134.357 6.96179 134.482 7.2651 134.482 7.58135V32.8232ZM125.34 30.1482C126.168 30.1612 126.99 30.0035 127.755 29.6851C128.443 29.3951 129.063 28.9646 129.575 28.4212C130.087 27.8631 130.478 27.2064 130.726 26.4914C131.269 24.8893 131.269 23.1528 130.726 21.5508C130.477 20.8362 130.086 20.1797 129.575 19.621C129.063 19.0776 128.443 18.6471 127.755 18.357C126.205 17.7396 124.477 17.7396 122.928 18.357C122.239 18.6459 121.619 19.0766 121.107 19.621C120.597 20.1797 120.205 20.8362 119.956 21.5508C119.411 23.1524 119.411 24.8898 119.956 26.4914C120.204 27.2064 120.596 27.8631 121.107 28.4212C121.619 28.9656 122.239 29.3962 122.928 29.6851C123.694 30.003 124.517 30.1593 125.346 30.1442L125.34 30.1482Z"
    fill="#242E47"
  />
<path
    d="M142.059 25.2466C142.05 25.9768 142.222 26.6978 142.56 27.3452C142.89 27.9648 143.342 28.5111 143.889 28.9511C144.452 29.4087 145.093 29.7614 145.781 29.9925C146.499 30.2388 147.252 30.3637 148.011 30.3621C148.965 30.3854 149.906 30.1343 150.722 29.6387C151.234 29.3148 151.707 28.9348 152.135 28.5059C152.338 28.2985 152.611 28.1725 152.9 28.1516C153.19 28.1308 153.478 28.2164 153.709 28.3926L155.362 29.6566C153.508 32.0587 150.908 33.2597 147.564 33.2597C146.271 33.2783 144.987 33.0385 143.788 32.5542C142.707 32.1148 141.732 31.4502 140.928 30.6046C140.137 29.7577 139.524 28.7601 139.127 27.6712C138.698 26.4996 138.484 25.2601 138.495 24.0124C138.484 22.7602 138.717 21.518 139.183 20.3556C139.618 19.2636 140.261 18.2667 141.077 17.4202C141.894 16.582 142.873 15.9187 143.955 15.4706C145.108 14.9931 146.346 14.7532 147.594 14.7651C149.153 14.7651 150.471 15.0373 151.549 15.5819C152.579 16.0909 153.486 16.8203 154.204 17.7183C154.898 18.5988 155.409 19.6089 155.708 20.6895C156.017 21.7829 156.174 22.9139 156.173 24.0502C156.173 24.3664 156.048 24.6697 155.824 24.8933C155.6 25.1169 155.297 25.2426 154.981 25.2426L142.059 25.2466ZM152.606 22.5715C152.589 21.8775 152.47 21.1897 152.252 20.5305C152.054 19.9315 151.731 19.3811 151.306 18.9147C150.866 18.4437 150.327 18.0759 149.728 17.8376C149.025 17.5618 148.274 17.4267 147.518 17.4401C146.744 17.4315 145.978 17.5894 145.27 17.9031C144.622 18.1906 144.036 18.6009 143.543 19.1115C143.083 19.5926 142.712 20.1518 142.448 20.763C142.194 21.3296 142.059 21.9425 142.051 22.5636L152.606 22.5715Z"
    fill="#242E47"
  />
<path
    d="M160.184 15.2187H162.333C162.649 15.2187 162.952 15.3444 163.176 15.568C163.399 15.7916 163.525 16.0949 163.525 16.4111V17.9295H163.601C163.825 17.456 164.125 17.0229 164.491 16.6477C164.86 16.2661 165.279 15.9353 165.735 15.6639C166.208 15.3856 166.713 15.1673 167.24 15.014C167.77 14.8548 168.32 14.7732 168.873 14.7715C169.377 14.7661 169.879 14.8412 170.36 14.9941L170.211 18.5972C169.938 18.5237 169.666 18.4621 169.394 18.4104C169.124 18.3623 168.851 18.3377 168.577 18.3369C166.943 18.3369 165.693 18.7953 164.825 19.7122C163.957 20.6291 163.524 22.052 163.525 23.9811V32.821H160.184V15.2187Z"
    fill="#242E47"
  />
<path
    d="M208.362 35.7562C207.989 36.7221 207.63 37.576 207.284 38.3179C206.965 39.0202 206.518 39.6566 205.965 40.1941C205.387 40.727 204.695 41.1207 203.942 41.3448C203.124 41.6098 202.047 41.7423 200.71 41.7423C199.298 41.7453 197.895 41.5198 196.554 41.0745L197.298 36.5035C198.116 36.8688 199.001 37.0584 199.897 37.06C200.412 37.076 200.926 37.0089 201.42 36.8612C201.793 36.7422 202.133 36.5381 202.413 36.265C202.684 35.9904 202.904 35.6701 203.063 35.319C203.235 34.948 203.422 34.5148 203.622 34.0192L204.019 32.9778L196.109 14.7812H202.119L206.762 26.7056H206.835L210.81 14.7812H216.528L208.362 35.7562Z"
    fill="black"
  />
<path
    d="M231.044 19.2308H227.336V25.2467C227.333 25.6995 227.358 26.1521 227.409 26.602C227.447 26.9736 227.561 27.3334 227.743 27.6594C227.928 27.9676 228.207 28.2086 228.538 28.347C228.994 28.5248 229.481 28.6067 229.969 28.5874C230.36 28.5807 230.75 28.5502 231.138 28.496C231.538 28.4673 231.919 28.3184 232.233 28.0688V32.7113C231.609 32.9344 230.961 33.0838 230.303 33.1565C229.649 33.2295 228.992 33.2666 228.334 33.2678C227.458 33.2753 226.585 33.1752 225.734 32.9697C224.986 32.7925 224.28 32.4712 223.655 32.0237C223.057 31.5858 222.579 31.005 222.264 30.3344C221.91 29.5407 221.738 28.6773 221.763 27.8084V19.2308H218.198V14.7731H221.763V9.427H226.136C226.452 9.427 226.755 9.55263 226.979 9.77625C227.202 9.99988 227.328 10.3032 227.328 10.6194V14.7731H232.229V18.0384C232.229 18.3533 232.104 18.6554 231.882 18.8788C231.661 19.1022 231.359 19.2287 231.044 19.2308Z"
    fill="black"
  />
<path
    d="M252.143 29.7015C251.249 30.8428 250.089 31.7482 248.765 32.3387C247.436 32.9495 245.992 33.2661 244.53 33.2668C243.195 33.2755 241.869 33.0495 240.612 32.5991C239.431 32.1796 238.346 31.529 237.419 30.6852C236.509 29.8499 235.782 28.8348 235.284 27.7041C234.769 26.4688 234.503 25.1435 234.503 23.8049C234.503 22.4663 234.769 21.1409 235.284 19.9056C235.782 18.7751 236.509 17.7601 237.419 16.9245C238.346 16.0814 239.432 15.4309 240.612 15.0107C241.869 14.5603 243.195 14.3342 244.53 14.3429C245.733 14.3264 246.926 14.5536 248.039 15.0107C249.064 15.438 249.979 16.0924 250.714 16.9245C251.469 17.7971 252.043 18.8102 252.404 19.9056C252.815 21.1639 253.016 22.4812 253 23.8049V24.3573C253 24.6736 252.874 24.9769 252.651 25.2005C252.427 25.4241 252.124 25.5498 251.807 25.5498H240.082C240.26 26.5383 240.771 27.436 241.531 28.0936C242.3 28.7353 243.278 29.0726 244.279 29.0416C245.096 29.0682 245.903 28.8547 246.6 28.4276C246.959 28.1981 247.292 27.9316 247.594 27.6326C247.795 27.4313 248.061 27.3085 248.345 27.2863C248.628 27.264 248.91 27.3439 249.14 27.5113L252.143 29.7015ZM247.427 21.7519C247.447 21.3075 247.375 20.8637 247.215 20.4485C247.056 20.0333 246.812 19.6556 246.499 19.3392C246.178 19.007 245.79 18.7461 245.362 18.5732C244.933 18.4003 244.473 18.3193 244.011 18.3356C243.452 18.3241 242.896 18.4255 242.377 18.6337C241.933 18.8139 241.523 19.0716 241.169 19.3948C240.839 19.6978 240.574 20.0642 240.39 20.472C240.204 20.8747 240.097 21.3091 240.074 21.7519H247.427Z"
    fill="black"
  />
<path
    d="M194.403 23.1967C194.141 22.4784 193.742 21.8181 193.227 21.253C192.713 20.6831 192.096 20.2152 191.408 19.8738C190.668 19.5037 189.87 19.2599 189.049 19.1524V19.0729C190.326 18.7085 191.47 17.9816 192.342 16.9802C193.165 16.0004 193.58 14.7701 193.58 13.2796C193.58 11.8447 193.298 10.696 192.726 9.82355C192.174 8.96604 191.406 8.26843 190.5 7.80039C189.53 7.29783 188.478 6.97145 187.394 6.83649C186.257 6.67354 185.11 6.59185 183.961 6.59204H179.947V11.4949H174.154V30.8939C174.154 31.1577 174.206 31.4188 174.307 31.6625C174.408 31.9062 174.556 32.1275 174.742 32.3139C174.929 32.5004 175.15 32.6482 175.394 32.7489C175.638 32.8497 175.899 32.9014 176.163 32.9011H184.925C186.106 32.8997 187.283 32.7738 188.437 32.5255C189.559 32.3011 190.634 31.8878 191.617 31.3033C192.547 30.7398 193.335 29.97 193.92 29.0536C194.517 28.1195 194.815 26.9668 194.815 25.5796C194.816 24.7675 194.677 23.9612 194.403 23.1967ZM179.947 11.4949H183.882C184.345 11.497 184.807 11.5416 185.261 11.6281C185.703 11.7031 186.13 11.8487 186.525 12.0594C186.924 12.2632 187.255 12.578 187.479 12.9659C187.703 13.3538 187.81 13.7982 187.787 14.2455C187.801 14.7124 187.693 15.1748 187.473 15.587C187.27 15.9461 186.982 16.2503 186.635 16.4734C186.278 16.7056 185.882 16.87 185.466 16.9583C185.032 17.0582 184.588 17.1082 184.142 17.1073H179.947V11.4949ZM188.658 26.3567C188.432 26.7459 188.121 27.0784 187.747 27.3285C187.368 27.5764 186.945 27.7516 186.501 27.8452C186.058 27.944 185.606 27.994 185.152 27.9943H179.947V22.0122H184.319C184.83 22.0165 185.341 22.0536 185.848 22.1235C186.37 22.1872 186.883 22.3209 187.37 22.521C187.826 22.7082 188.227 23.0077 188.536 23.3915C188.862 23.8233 189.026 24.3557 189 24.896C189.023 25.4083 188.905 25.9173 188.658 26.3666V26.3567Z"
    fill="black"
  />
<path d="M177.94 3.60376H171.721V9.48841H177.94V3.60376Z" fill="#3BCFF0" />
<path d="M13.1104 13.114H6.552V19.6724H13.1104V13.114Z" fill="#99F1FF" />
<path d="M13.1104 26.2349H6.552V32.7933H13.1104V26.2349Z" fill="#99F1FF" />
<path
    d="M26.2336 6.55641V26.2316V30.8483C26.2336 31.3628 26.0292 31.8561 25.6655 32.2199C25.3017 32.5837 24.8083 32.788 24.2939 32.788H13.1168V26.2296H17.6043C18.1529 26.2286 18.6787 26.0103 19.0668 25.6226C19.4549 25.2349 19.6736 24.7093 19.6752 24.1607V19.6752H13.1168V13.1168H19.6752V8.63124C19.6755 8.35912 19.6221 8.0896 19.5181 7.83812C19.4142 7.58665 19.2617 7.35814 19.0694 7.16563C18.877 6.97312 18.6487 6.82038 18.3973 6.71619C18.1459 6.61199 17.8764 6.5584 17.6043 6.5584H6.5584V32.792H0V0H19.6752L26.2336 6.55641Z"
    fill="#0BD1FF"
  />
</svg>
