<svg width="180" height="58" viewBox="0 0 180 58" fill="none" xmlns="http://www.w3.org/2000/svg">
<path d="M72 18.7314C72 17.2229 73.2037 16 74.6885 16H79.4911C83.7145 16 86.7973 16.9239 88.7394 18.7718C90.7124 20.5884 91.6989 23.094 91.6989 26.2886C91.6989 29.9843 90.6353 32.8188 88.5082 34.7919C86.3811 36.7651 83.2213 37.7517 79.0287 37.7517C78.0327 37.7517 77.2253 38.572 77.2253 39.5839V50.5302H74.6885C73.2037 50.5302 72 49.3073 72 47.7988V18.7314ZM79.1674 33.1007C81.8803 33.1007 83.7762 32.4899 84.8551 31.2685C85.9341 30.047 86.4736 28.5749 86.4736 26.8523C86.4736 25.0045 85.9495 23.5011 84.9014 22.3423C83.8532 21.1834 82.0961 20.604 79.6299 20.604H77.2253V33.1007H79.1674Z" fill="#3E91F3"/>
<path d="M96.0582 31.6978C96.0582 30.1893 97.2619 28.9664 98.7467 28.9664H101.052V31.5558C102.53 30.0468 104.951 29.015 106.949 29.6565C106.996 29.6717 106.973 29.6664 107.019 29.6856C107.081 29.7118 107.182 29.7544 107.307 29.8069C108.247 30.204 108.832 31.1299 108.832 32.1644V33.4809C108.563 33.4809 107.337 33.4809 106.412 33.4809C104.963 33.4809 104.012 33.9933 102.81 34.9329C101.638 35.8725 101.052 37.3758 101.052 39.443V50.5302H98.7467C97.2619 50.5302 96.0582 49.3073 96.0582 47.7988V31.6978Z" fill="#3E91F3"/>
<path d="M122.202 51C120.291 51 118.518 50.5459 116.884 49.6376C115.281 48.698 113.986 47.3825 113 45.6913C112.044 43.9687 111.566 41.9642 111.566 39.6779C111.566 37.4228 111.983 35.4497 112.815 33.7584C113.678 32.0671 114.896 30.7517 116.468 29.8121C118.04 28.8725 119.89 28.4027 122.017 28.4027C123.25 28.4027 124.406 28.6219 125.485 29.0604C126.564 29.4989 127.474 30.047 128.213 30.7047C128.953 31.3311 129.447 31.9575 129.693 32.5839L129.786 28.9664H131.86C133.345 28.9664 134.549 30.1893 134.549 31.6978V47.7988C134.549 49.3073 133.345 50.5302 131.86 50.5302H129.832L129.739 46.7248C129.215 47.8523 128.26 48.8546 126.872 49.7315C125.485 50.5772 123.928 51 122.202 51ZM123.034 46.7718C124.792 46.7718 126.271 46.1611 127.474 44.9396C128.676 43.6868 129.277 42.0582 129.277 40.0537V39.7248C129.277 38.3781 129 37.1723 128.445 36.1074C127.89 35.0425 127.134 34.2125 126.179 33.6175C125.223 33.0224 124.175 32.7248 123.034 32.7248C121.061 32.7248 119.535 33.3825 118.456 34.698C117.378 35.9821 116.838 37.6577 116.838 39.7248C116.838 41.8233 117.362 43.5302 118.41 44.8456C119.489 46.1298 121.031 46.7718 123.034 46.7718Z" fill="#3E91F3"/>
<path d="M141.634 31.5973C141.634 30.1443 142.794 28.9664 144.224 28.9664C145.654 28.9664 146.813 30.1443 146.813 31.5973V47.8993C146.813 49.3523 145.654 50.5302 144.224 50.5302C142.794 50.5302 141.634 49.3523 141.634 47.8993V31.5973ZM144.178 24.9262C143.222 24.9262 142.42 24.5973 141.773 23.9396C141.126 23.2819 140.802 22.4676 140.802 21.4966C140.802 20.6197 141.126 19.868 141.773 19.2416C142.42 18.6152 143.222 18.302 144.178 18.302C145.102 18.302 145.889 18.6152 146.536 19.2416C147.183 19.868 147.507 20.6197 147.507 21.4966C147.507 22.4676 147.183 23.2819 146.536 23.9396C145.919 24.5973 145.133 24.9262 144.178 24.9262Z" fill="#3E91F3"/>
<path d="M161.034 34.698L162.19 33.0067L157.057 33.1477H153.404V31.6978C153.404 30.1893 154.608 28.9664 156.093 28.9664H165.113C167.214 28.9664 168.503 31.3043 167.406 33.1243L160.34 44.8456L159.184 46.6309L164.179 46.443L169.543 46.349V47.7988C169.543 49.3073 168.339 50.5302 166.854 50.5302H156.2C154.093 50.5302 152.805 48.1788 153.916 46.3592L161.034 34.698Z" fill="#3E91F3"/>
<path d="M175.052 16H177.312C178.796 16 180 17.2229 180 18.7314V47.7988C180 49.3073 178.796 50.5302 177.312 50.5302H175.052V16Z" fill="#3E91F3"/>
<path fill-rule="evenodd" clip-rule="evenodd" d="M29.8558 6.40918L29.8676 6.40917C30.1686 6.40779 30.4625 6.48523 30.7187 6.63094L52.4298 18.9134L52.4316 18.9144C52.6885 19.0609 52.8975 19.2682 53.0413 19.5123C53.1848 19.7562 53.2593 20.03 53.26 20.3067V20.3085V44.8673C53.2598 45.1447 53.1854 45.4197 53.0416 45.6643C52.8978 45.9088 52.6886 46.1164 52.4313 46.2629L52.4298 46.2638L44.4111 50.7999V37.7981C44.4111 29.1063 38.1372 21.65 29.98 21.65C21.8237 21.65 15.549 29.0935 15.549 37.7981V50.9293L7.30377 46.2633C7.04542 46.1167 6.83522 45.9086 6.69077 45.6634C6.54664 45.4187 6.47194 45.1441 6.47139 44.8665V20.3093C6.47257 20.0314 6.54766 19.7565 6.69197 19.5115C6.83641 19.2663 7.04624 19.0581 7.30403 18.9108L7.30602 18.9096L29.0063 6.63288L29.01 6.63075C29.2646 6.48586 29.5566 6.40852 29.8558 6.40918ZM16.4649 56.2687L16.4597 58C15.4907 57.9971 14.5377 57.7441 13.6963 57.2641L13.6922 57.2617L4.0893 51.8274C2.85325 51.1251 1.82249 50.1148 1.10331 48.8941C0.383983 47.6732 0.00261272 46.2859 5.77898e-06 44.8711L0 44.8679L2.88949e-06 20.3027C0.00300528 18.8875 0.384957 17.5 1.10498 16.279C1.82484 15.0583 2.85636 14.0482 4.09312 13.3464L4.09521 13.3452L25.8045 1.065C27.0424 0.366403 28.4433 0 29.8672 0C31.2911 0 32.692 0.366404 33.9299 1.06501L55.6467 13.3477C56.8813 14.051 57.9106 15.0614 58.6289 16.2817C59.3473 17.5023 59.7284 18.8887 59.7314 20.3027L59.7314 20.3063L59.7314 44.8708C59.729 46.2859 59.3479 47.6737 58.6286 48.8952C57.9095 50.1165 56.8787 51.1273 55.6425 51.8301L55.6396 51.8318L46.2645 57.1386C45.4218 57.6153 44.4682 57.8653 43.4998 57.8656C42.5314 57.8659 41.578 57.6167 40.735 57.1404C39.8918 56.6641 39.187 55.9763 38.6947 55.1425C38.2023 54.3086 37.9409 53.3595 37.9397 52.391L37.9397 52.3888V37.7981C37.9397 32.1453 34.1082 28.0609 29.98 28.0609C25.8519 28.0609 22.0203 32.1453 22.0203 37.7981V52.5072C22.0257 53.478 21.7674 54.4306 21.2746 55.267C20.7828 56.1019 20.0762 56.7894 19.2306 57.2628C18.3909 57.7424 17.4398 57.9958 16.4725 58L16.4649 56.2687Z" fill="#3E91F3"/>
</svg>
