<svg width="200" height="200" viewBox="0 0 200 200" fill="none" xmlns="http://www.w3.org/2000/svg">
<circle cx="100" cy="100" r="100" fill="#E8FBFF"/>
<path d="M148.366 70H141.676C141.378 70 141.095 70.0517 140.821 70.125L138.166 67.48C136.919 66.235 135.79 64.8633 134.811 63.4017C129.196 55.0083 119.803 50 109.681 50H106.122C104.026 50 102.272 51.4167 101.726 53.3333H94.8417V66.6667H91.4965C90.2721 66.6667 89.1397 67.02 88.1512 67.5933V60H86.4785C70.7992 60 58.0437 72.71 58.0437 88.3333C58.0437 96.215 60.658 104.028 65.4033 110.333L70.4429 117.028C67.183 117.518 63.9966 118.503 61.0494 119.972L59.8836 120.553C59.355 120.205 58.7227 120 58.0437 120H51.3531C49.5082 120 48.0078 121.495 48.0078 123.333V143.333C48.0078 145.172 49.5082 146.667 51.3531 146.667H58.0437C58.7227 146.667 59.355 146.462 59.8836 146.113L61.0511 146.695C65.3916 148.857 70.2506 150 75.1029 150H93.1691C95.392 150 97.5397 149.373 99.393 148.213C100.313 149.297 101.671 150 103.205 150H109.896C112.662 150 114.913 147.757 114.913 145C114.913 143.715 114.41 142.553 113.609 141.667C114.412 140.78 114.913 139.618 114.913 138.333C114.913 137.048 114.41 135.887 113.609 135C114.412 134.113 114.913 132.952 114.913 131.667C114.913 128.91 112.662 126.667 109.896 126.667H116.586C119.353 126.667 121.604 124.423 121.604 121.667C121.604 118.91 119.353 116.667 116.586 116.667H112.848C116.347 112.573 118.819 107.665 119.992 102.412L122.017 93.3333H88.1512V83.3333H81.4606C79.6157 83.3333 78.1153 81.8383 78.1153 80C78.1153 78.1617 79.6157 76.6667 81.4606 76.6667H85.7359C86.8967 78.65 89.031 80 91.4965 80H94.8417V90H124.949V82.96C126.281 83.1983 127.641 83.3333 129.019 83.3333C130.263 83.3333 131.432 83.8167 132.312 84.6917L138.439 90.7967C138.799 92.25 140.108 93.3333 141.676 93.3333H148.366C150.211 93.3333 151.712 91.8383 151.712 90V73.3333C151.712 71.495 150.211 70 148.366 70ZM68.0795 108.333C65.4601 104.853 63.5667 100.865 62.4745 96.6667H84.8059V103.333H91.4965C93.3414 103.333 94.8417 104.828 94.8417 106.667C94.8417 108.505 93.3414 110 91.4965 110H84.8059V116.667H75.1029C74.8587 116.667 74.6128 116.682 74.3686 116.688L68.0795 108.333ZM51.3531 143.333V123.333H58.0437L58.0453 143.333H51.3531ZM75.1029 146.667C70.7674 146.667 66.4253 145.645 62.5464 143.713L61.3889 143.137V123.53L62.5464 122.953C66.4253 121.022 70.7658 120 75.1029 120H92.8931C93.9669 120 94.8417 120.872 94.8417 121.943C94.8417 122.897 94.156 123.703 93.2126 123.86L85.2107 125.188L84.8929 126.14C84.1184 128.448 81.9591 130 79.517 130H78.1153V133.333H79.517C80.1827 133.333 80.83 133.238 81.4606 133.1V138.333C81.4606 141.597 82.8155 144.547 84.9899 146.667H75.1029ZM98.4948 133.333C98.7172 133.957 99.0551 134.518 99.4917 135C99.0551 135.482 98.7172 136.043 98.4948 136.667H84.8059V133.333H98.4948ZM111.568 138.333C111.568 139.252 110.817 140 109.896 140H103.205C102.283 140 101.532 139.252 101.532 138.333C101.532 137.415 102.283 136.667 103.205 136.667H109.896C110.817 136.667 111.568 137.415 111.568 138.333ZM84.9748 140H98.4948C98.7172 140.623 99.0551 141.185 99.4917 141.667C98.6988 142.542 98.2037 143.687 98.192 144.952C96.7452 146.043 95.0023 146.667 93.1691 146.667C89.1313 146.667 85.7526 143.798 84.9748 140ZM109.896 146.667H103.205C102.283 146.667 101.532 145.918 101.532 145C101.532 144.082 102.283 143.333 103.205 143.333H109.896C110.817 143.333 111.568 144.082 111.568 145C111.568 145.918 110.817 146.667 109.896 146.667ZM111.568 131.667C111.568 132.585 110.817 133.333 109.896 133.333H103.205C102.283 133.333 101.532 132.585 101.532 131.667C101.532 130.748 102.283 130 103.205 130H109.896C110.817 130 111.568 130.748 111.568 131.667ZM118.259 121.667C118.259 122.585 117.508 123.333 116.586 123.333H108.225C108.82 122.183 109.471 121.063 110.21 120H116.586C117.508 120 118.259 120.748 118.259 121.667ZM117.846 96.6667L116.727 101.69C115.628 106.615 113.269 111.21 109.906 114.98C106.896 118.355 104.595 122.377 103.183 126.67C101.015 126.68 99.1856 128.072 98.4948 130.002H86.502C86.9586 129.44 87.365 128.83 87.6795 128.158L93.7612 127.148C96.327 126.72 98.187 124.532 98.187 121.943C98.187 119.033 95.8119 116.667 92.8914 116.667H88.1512V113.333H91.4965C95.1863 113.333 98.187 110.343 98.187 106.667C98.187 102.99 95.1863 100 91.4965 100H88.1512V96.6667H117.846ZM81.4606 73.3333C77.7708 73.3333 74.7701 76.3233 74.7701 80C74.7701 83.6767 77.7708 86.6667 81.4606 86.6667H84.8059V93.3333H61.7854C61.5311 91.68 61.3889 90.01 61.3889 88.3333C61.3889 75.1083 71.7493 64.25 84.8059 63.3883V73.3333H81.4606ZM121.604 86.6667H98.187V76.6667H91.4965C89.6515 76.6667 88.1512 75.1717 88.1512 73.3333C88.1512 71.495 89.6515 70 91.4965 70H98.187V56.6667H102.042C102.578 57.7033 103.504 58.5233 104.67 58.91L110.73 60.9233C112.286 61.44 113.649 62.3067 114.776 63.405C114.475 63.36 114.171 63.3333 113.861 63.3333C110.752 63.3333 108.223 65.8533 108.223 68.9517C108.223 69.9283 108.48 70.8933 108.966 71.7383C111.799 76.6783 116.34 80.3233 121.604 82.1083V86.6667ZM129.019 80C121.949 80 115.378 76.2 111.871 70.0817C111.674 69.7383 111.57 69.3483 111.57 68.95C111.568 67.6917 112.597 66.6667 113.861 66.6667C114.905 66.6667 115.843 67.245 116.308 68.175C117.906 71.3567 121.116 73.3333 124.687 73.3333H128.295V70H124.687C123.384 70 122.163 69.5783 121.156 68.85L121.122 68.645C120.273 63.5617 116.695 59.39 111.787 57.76L105.727 55.7467C105.219 55.58 104.878 55.1067 104.878 54.5733C104.878 53.8883 105.435 53.3333 106.122 53.3333H109.681C118.68 53.3333 127.035 57.7883 132.026 65.2483C133.127 66.8933 134.396 68.4367 135.8 69.835L138.454 72.48C138.382 72.755 138.33 73.0367 138.33 73.3333V85.9767L134.676 82.335C133.165 80.83 131.155 80 129.019 80ZM141.676 90V73.3333H148.366L148.368 90H141.676Z" fill="#0BD1FF" stroke="#0BD1FF" stroke-width="1.5"/>
</svg>
