<svg width="254" height="42" viewBox="0 0 254 42" fill="none" xmlns="http://www.w3.org/2000/svg">
<path d="M33.051 6.49719H49.5885V8.64917C49.5885 8.96566 49.4628 9.26919 49.239 9.49298C49.0152 9.71677 48.7117 9.84249 48.3952 9.84249H36.6191V18.0923H48.6975V20.2364C48.6975 20.5528 48.5718 20.8564 48.348 21.0802C48.1242 21.304 47.8207 21.4297 47.5042 21.4297H36.6191V32.802H33.051V6.49719Z" fill="white"/>
<path d="M52.6737 24.0012C52.6633 22.7628 52.9098 21.5357 53.3976 20.3974C53.8672 19.3009 54.5423 18.3045 55.3865 17.4618C57.1579 15.7106 59.5483 14.7285 62.0392 14.7285C64.5301 14.7285 66.9206 15.7106 68.692 17.4618C69.5355 18.3051 70.2105 19.3014 70.6809 20.3974C71.1693 21.5356 71.4165 22.7627 71.4069 24.0012C71.4131 25.2205 71.1764 26.4289 70.7106 27.5557C70.2448 28.6826 69.5593 29.7054 68.694 30.5645C67.8337 31.4045 66.8212 32.0727 65.7107 32.5335C63.3527 33.4988 60.7098 33.4988 58.3519 32.5335C57.2446 32.0721 56.2355 31.4038 55.3785 30.5645C54.5122 29.7061 53.826 28.6835 53.3602 27.5565C52.8944 26.4294 52.6583 25.2207 52.6657 24.0012H52.6737ZM56.2417 24.0012C56.2296 24.8421 56.3642 25.6787 56.6395 26.4734C56.888 27.1898 57.2806 27.8477 57.793 28.4066C58.3045 28.9503 58.9245 29.3805 59.6128 29.6695C61.164 30.2901 62.8946 30.2901 64.4458 29.6695C65.1341 29.3805 65.7541 28.9503 66.2656 28.4066C66.7767 27.8471 67.1686 27.1893 67.4172 26.4734C67.9635 24.8712 67.9635 23.1332 67.4172 21.531C67.1686 20.8151 66.7767 20.1574 66.2656 19.5979C65.7541 19.0541 65.1341 18.6239 64.4458 18.3349C62.8946 17.7143 61.164 17.7143 59.6128 18.3349C58.9245 18.6239 58.3045 19.0541 57.793 19.5979C57.2806 20.1568 56.888 20.8147 56.6395 21.531C56.3644 22.3251 56.2298 23.161 56.2417 24.0012Z" fill="white"/>
<path d="M96.3591 15.195H98.5111C98.8276 15.195 99.1311 15.3208 99.3549 15.5446C99.5787 15.7684 99.7044 16.0719 99.7044 16.3884V17.9079H99.778C100.237 16.9266 101.005 16.1235 101.966 15.6227C103.071 15.024 104.313 14.7231 105.57 14.7495C106.397 14.7493 107.219 14.8837 108.004 15.1473C108.765 15.3964 109.463 15.8084 110.049 16.3546C110.66 16.9447 111.135 17.6616 111.441 18.4548C111.808 19.4214 111.985 20.45 111.962 21.4839V32.8205H108.617V22.4047C108.634 21.6901 108.52 20.9785 108.282 20.3045C108.092 19.7742 107.788 19.2921 107.391 18.8924C107.028 18.5392 106.589 18.2727 106.109 18.1127C105.623 17.9509 105.115 17.869 104.603 17.8701C103.944 17.864 103.29 17.9772 102.672 18.2042C102.075 18.4295 101.54 18.7928 101.111 19.2643C100.636 19.7962 100.282 20.4235 100.07 21.104C99.8059 21.9582 99.6804 22.8492 99.6984 23.7432V32.8105H96.3531L96.3591 15.195Z" fill="white"/>
<path d="M91.0904 32.8099H87.7451V30.0971H87.6715C87.2136 31.0789 86.4446 31.8821 85.4838 32.3824C84.3785 32.981 83.1366 33.2819 81.8799 33.2555C81.0462 33.2586 80.2176 33.1242 79.4277 32.8577C78.673 32.606 77.9816 32.1942 77.401 31.6504C76.7886 31.0608 76.3133 30.3438 76.0087 29.5502C75.641 28.5837 75.4641 27.555 75.4877 26.5212V15.1846H77.6397C77.9561 15.1846 78.2596 15.3103 78.4834 15.5341C78.7072 15.7579 78.833 16.0614 78.833 16.3779V25.6063C78.816 26.3208 78.9292 27.0325 79.1671 27.7065C79.3567 28.237 79.6609 28.7191 80.0581 29.1186C80.4216 29.4717 80.8601 29.7383 81.3409 29.8983C81.8263 30.0601 82.3348 30.142 82.8465 30.1409C83.5053 30.1471 84.1597 30.0332 84.7777 29.8048C85.3747 29.581 85.9099 29.2183 86.339 28.7467C86.8131 28.2144 87.1684 27.5873 87.3812 26.907C87.6439 26.0525 87.7688 25.1616 87.7511 24.2677V15.2004H89.8971C90.2136 15.2004 90.5171 15.3262 90.7409 15.55C90.9647 15.7737 91.0904 16.0773 91.0904 16.3938V32.8099Z" fill="white"/>
<path d="M134.583 32.8102H131.238V30.2823H131.164C130.496 31.2412 129.576 31.9979 128.507 32.4701C127.419 32.9806 126.232 33.2467 125.03 33.2497C123.763 33.2685 122.505 33.0282 121.333 32.5437C120.263 32.0955 119.3 31.4243 118.509 30.5747C117.723 29.7227 117.111 28.7256 116.707 27.6391C116.276 26.4731 116.062 25.2384 116.075 23.9955C116.063 22.7475 116.278 21.5078 116.707 20.336C117.104 19.2463 117.717 18.2479 118.509 17.4004C119.303 16.5593 120.265 15.8946 121.333 15.4493C122.505 14.9647 123.763 14.7244 125.03 14.7432C126.265 14.7361 127.484 15.008 128.599 15.5388C129.64 16.0092 130.529 16.7624 131.164 17.7127H131.238V6.35815H133.39C133.706 6.35815 134.01 6.48387 134.234 6.70766C134.457 6.93146 134.583 7.23499 134.583 7.55148V32.8102ZM125.434 30.1352C126.263 30.1473 127.086 29.9889 127.851 29.6697C128.539 29.3808 129.159 28.9506 129.671 28.4068C130.182 27.8473 130.573 27.1896 130.822 26.4737C131.368 24.8715 131.368 23.1334 130.822 21.5313C130.573 20.8154 130.182 20.1576 129.671 19.5981C129.159 19.0544 128.539 18.6241 127.851 18.3351C126.3 17.7146 124.569 17.7146 123.018 18.3351C122.329 18.6241 121.709 19.0544 121.198 19.5981C120.685 20.157 120.293 20.8149 120.044 21.5313C119.501 23.1339 119.501 24.871 120.044 26.4737C120.293 27.19 120.685 27.8479 121.198 28.4068C121.709 28.9506 122.329 29.3808 123.018 29.6697C123.785 29.9901 124.609 30.1485 125.44 30.1352H125.434Z" fill="white"/>
<path d="M142.165 25.2287C142.156 25.9594 142.328 26.6809 142.666 27.3289C142.993 27.951 143.441 28.5009 143.985 28.9459C144.55 29.4021 145.192 29.7543 145.88 29.9861C146.597 30.2332 147.351 30.3589 148.11 30.358C149.065 30.3809 150.006 30.1289 150.822 29.632C151.335 29.3074 151.81 28.9273 152.238 28.4984C152.442 28.2908 152.715 28.1648 153.005 28.1439C153.295 28.123 153.582 28.2087 153.814 28.385L155.468 29.6519C153.612 32.0545 151.011 33.2558 147.664 33.2558C146.37 33.2751 145.085 33.035 143.885 32.5497C142.803 32.1115 141.828 31.4462 141.025 30.5986C140.233 29.7513 139.619 28.7529 139.221 27.6631C138.792 26.4905 138.579 25.25 138.591 24.0015C138.58 22.7487 138.813 21.5057 139.277 20.342C139.713 19.25 140.356 18.253 141.172 17.4064C141.99 16.5672 142.97 15.9033 144.052 15.4553C145.207 14.9766 146.446 14.7364 147.696 14.7493C149.258 14.7493 150.577 15.0218 151.654 15.5667C152.686 16.0748 153.593 16.8041 154.311 17.7028C155.005 18.5844 155.516 19.5951 155.816 20.6761C156.124 21.7707 156.28 22.9024 156.28 24.0393C156.28 24.3558 156.154 24.6593 155.93 24.8831C155.707 25.1069 155.403 25.2327 155.087 25.2327L142.165 25.2287ZM152.718 22.5536C152.702 21.8585 152.583 21.1696 152.366 20.5091C152.166 19.9097 151.843 19.3588 151.417 18.8921C150.977 18.4208 150.437 18.0527 149.838 17.8142C149.134 17.5379 148.382 17.4027 147.626 17.4164C146.852 17.4072 146.086 17.566 145.379 17.8817C144.73 18.1682 144.143 18.5782 143.651 19.089C143.189 19.5694 142.817 20.1293 142.555 20.7418C142.3 21.3096 142.165 21.9235 142.157 22.5457L152.718 22.5536Z" fill="white"/>
<path d="M160.303 15.1945H162.455C162.772 15.1945 163.075 15.3202 163.299 15.544C163.523 15.7678 163.649 16.0713 163.649 16.3878V17.9073H163.722C163.948 17.4341 164.25 17.0008 164.615 16.6245C164.984 16.2387 165.402 15.9043 165.86 15.6301C166.333 15.3509 166.839 15.1324 167.366 14.9797C167.896 14.8209 168.447 14.7398 169.001 14.739C169.505 14.7325 170.006 14.8077 170.486 14.9618L170.337 18.5656C170.065 18.4927 169.793 18.431 169.52 18.3806C169.25 18.3315 168.976 18.3069 168.702 18.3071C167.067 18.3071 165.816 18.7652 164.949 19.6814C164.082 20.5976 163.649 22.0223 163.649 23.9555V32.8H160.303V15.1945Z" fill="white"/>
<path d="M208.516 35.7494C208.145 36.716 207.785 37.5712 207.438 38.315C207.12 39.0175 206.673 39.6538 206.119 40.1906C205.542 40.7246 204.849 41.1186 204.094 41.3421C203.275 41.6073 202.197 41.7399 200.861 41.7399C199.446 41.7439 198.04 41.5175 196.698 41.0696L197.442 36.4952C198.26 36.862 199.146 37.0518 200.043 37.0521C200.558 37.069 201.073 37.0018 201.567 36.8532C201.94 36.7343 202.28 36.53 202.561 36.2566C202.832 35.9821 203.053 35.6615 203.211 35.3098C203.384 34.9386 203.569 34.505 203.768 34.0091L204.178 32.9689L196.262 14.7588H202.269L206.915 26.692H206.988L210.966 14.7588H216.69L208.516 35.7494Z" fill="white"/>
<path d="M231.218 19.2086H227.505V25.2289C227.503 25.6822 227.528 26.1351 227.581 26.5853C227.619 26.9577 227.732 27.3185 227.915 27.6454C228.1 27.9529 228.379 28.1932 228.71 28.3315C229.165 28.5105 229.652 28.5931 230.14 28.5742C230.532 28.5667 230.923 28.5355 231.312 28.4807C231.712 28.4519 232.094 28.3029 232.408 28.0531V32.6991C231.783 32.9233 231.134 33.0729 230.474 33.1446C229.821 33.2187 229.163 33.2559 228.505 33.256C227.629 33.2634 226.756 33.1639 225.904 32.9597C225.155 32.7816 224.449 32.4593 223.824 32.011C223.225 31.5728 222.747 30.9915 222.431 30.3204C222.076 29.5262 221.905 28.6621 221.93 27.7926V19.2086H218.362V14.7495H221.93V9.39746H226.306C226.622 9.39746 226.926 9.52318 227.149 9.74697C227.373 9.97076 227.499 10.2743 227.499 10.5908V14.7495H232.406V18.0153C232.406 18.3307 232.281 18.6333 232.058 18.8569C231.836 19.0806 231.534 19.207 231.218 19.2086Z" fill="white"/>
<path d="M252.332 29.6877C251.438 30.8304 250.277 31.7365 248.951 32.3269C247.622 32.9383 246.177 33.2552 244.715 33.2557C243.379 33.2647 242.052 33.0386 240.795 32.5875C239.613 32.1689 238.526 31.5183 237.599 30.6742C236.687 29.8343 235.959 28.8152 235.461 27.6809C234.946 26.4443 234.681 25.1182 234.681 23.7788C234.681 22.4394 234.946 21.1131 235.461 19.8766C235.961 18.746 236.689 17.7305 237.599 16.8933C238.526 16.0491 239.613 15.3986 240.795 14.98C242.052 14.5283 243.379 14.3014 244.715 14.3097C245.919 14.2941 247.114 14.5221 248.227 14.98C249.253 15.4063 250.167 16.0606 250.902 16.8933C251.658 17.7658 252.232 18.7799 252.593 19.8766C253.005 21.1356 253.207 22.4541 253.189 23.7788V24.3337C253.189 24.6502 253.064 24.9536 252.84 25.1774C252.616 25.4012 252.313 25.527 251.996 25.527H240.262C240.441 26.5154 240.952 27.4132 241.71 28.0727C242.48 28.7131 243.459 29.0498 244.46 29.0194C245.278 29.0459 246.085 28.833 246.783 28.4069C247.142 28.1738 247.476 27.9031 247.778 27.5994C247.979 27.3977 248.246 27.2749 248.53 27.253C248.814 27.2311 249.097 27.3116 249.327 27.48L252.332 29.6877ZM247.613 21.7322C247.633 21.287 247.56 20.8425 247.4 20.4266C247.24 20.0107 246.995 19.6325 246.682 19.3157C246.359 18.9852 245.971 18.7259 245.542 18.5547C245.113 18.3834 244.653 18.3039 244.192 18.3213C243.632 18.3096 243.076 18.4104 242.557 18.6176C242.113 18.7987 241.704 19.0566 241.35 19.3793C241.02 19.6825 240.755 20.0492 240.57 20.4574C240.384 20.861 240.277 21.2964 240.254 21.7402L247.613 21.7322Z" fill="white"/>
<path d="M194.55 23.1783C194.286 22.4605 193.886 21.8001 193.372 21.2332C192.858 20.6628 192.241 20.1946 191.553 19.8529C190.811 19.4825 190.012 19.2385 189.19 19.1309V19.0534C190.468 18.6883 191.613 17.9601 192.485 16.9571C193.309 15.9766 193.724 14.7454 193.724 13.2538C193.724 11.8191 193.44 10.6663 192.871 9.79516C192.318 8.93693 191.549 8.23884 190.642 7.7705C189.671 7.26818 188.619 6.94158 187.535 6.80588C186.397 6.64352 185.248 6.56244 184.098 6.56324H180.083V11.4698H174.285V30.8812C174.285 31.4142 174.497 31.9253 174.873 32.3023C175.25 32.6793 175.761 32.8914 176.294 32.8919H185.065C186.246 32.8906 187.424 32.7639 188.579 32.5141C189.702 32.2897 190.778 31.8761 191.761 31.2909C192.693 30.727 193.482 29.9567 194.068 29.0395C194.665 28.1067 194.963 26.9532 194.963 25.565C194.965 24.7515 194.825 23.944 194.55 23.1783ZM180.083 11.4698H184.021C184.484 11.4728 184.946 11.5174 185.401 11.6031C185.842 11.6797 186.268 11.8253 186.664 12.0346C187.064 12.2378 187.396 12.5527 187.62 12.9411C187.844 13.3295 187.951 13.7746 187.927 14.2224C187.941 14.6888 187.834 15.1509 187.615 15.5629C187.411 15.9232 187.122 16.2278 186.773 16.4499C186.417 16.6825 186.022 16.8476 185.606 16.9372C185.171 17.0366 184.726 17.086 184.279 17.0844H180.083V11.4698ZM188.798 26.3406C188.574 26.7304 188.263 27.0633 187.889 27.3132C187.508 27.5607 187.084 27.7366 186.64 27.8323C186.197 27.9305 185.745 27.9799 185.292 27.9794H180.083V21.9949H184.468C184.98 21.9985 185.491 22.035 185.998 22.1043C186.521 22.1715 187.033 22.3086 187.519 22.512C187.975 22.7007 188.377 23.0002 188.689 23.3832C189.014 23.8154 189.178 24.3481 189.152 24.8887C189.169 25.396 189.047 25.8982 188.798 26.3406Z" fill="white"/>
<path opacity="0.9" d="M178.072 3.57141H171.849V9.46044H178.072V3.57141Z" fill="white"/>
<path opacity="0.4" d="M13.1304 13.1305H6.56714V19.6938H13.1304V13.1305Z" fill="white"/>
<path opacity="0.4" d="M13.1304 26.2585H6.56714V32.8218H13.1304V26.2585Z" fill="white"/>
<path d="M26.2631 6.56727V26.2571V30.8773C26.2631 31.1322 26.2129 31.3846 26.1153 31.6201C26.0178 31.8557 25.8748 32.0696 25.6945 32.2499C25.5143 32.4301 25.3003 32.5731 25.0648 32.6707C24.8293 32.7682 24.5769 32.8184 24.322 32.8184H13.1266V26.2551H17.6175C18.1675 26.2546 18.6948 26.0359 19.0837 25.647C19.4726 25.2581 19.6913 24.7308 19.6918 24.1808V19.6899H13.1286V13.1266H19.6918V8.63568C19.6918 8.36336 19.6382 8.09373 19.5339 7.84217C19.4296 7.5906 19.2768 7.36203 19.0842 7.16956C18.8915 6.9771 18.6628 6.82449 18.4111 6.72046C18.1595 6.61643 17.8898 6.56302 17.6175 6.56329H6.56329V32.8164H0V0H19.6899L26.2631 6.56727Z" fill="white"/>
</svg>
