<svg
  version="1.1"
  xmlns="http://www.w3.org/2000/svg"
  xmlns:xlink="http://www.w3.org/1999/xlink"
  x="0px"
  y="0px"
  viewBox="0 0 681 615"
  style="enable-background:new 0 0 681 615;"
  xml:space="preserve"
>

 <defs>
    <style
      type="text/css"
    ><![CDATA[
     .blue-square {
  width: 26px;
  height: 26px;
  display: inline-block;
  background: #0bd1ff;
  margin: 0 0 0 10px;
  vertical-align: top;
  position: relative;
  top: 14px;
}

.st1 {
  fill: #150035;
}

.st2 {
  fill: #ffffff;
}

.st3 {
  fill: #0bd1ff;
}

.st4 {
  -webkit-clip-path: url(#SVGID_2_);
  clip-path: url(#SVGID_2_);
}

.st5 {
  fill-rule: evenodd;
  clip-rule: evenodd;
  fill: #c6c6c6;
  fill-opacity: 0.4;
}

.st6 {
  fill: #f1f1f1;
}

.st7 {
  fill: #16110d;
}

.st8 {
  fill: #b7b7b7;
}

.st9 {
  fill: #15100c;
}

.st10 {
  -webkit-clip-path: url(#SVGID_4_);
  clip-path: url(#SVGID_4_);
}

.st11 {
  -webkit-clip-path: url(#SVGID_6_);
  clip-path: url(#SVGID_6_);
}

.st12 {
  -webkit-clip-path: url(#SVGID_8_);
  clip-path: url(#SVGID_8_);
}

.st13 {
  fill: #adf0ff;
  fill-opacity: 0.9;
}

.st14 {
  fill: #45dcff;
  fill-opacity: 0.8;
}

.st15 {
  fill: #00b7e1;
}

.st16 {
  fill: #75e5ff;
  fill-opacity: 0.6;
}

.st17 {
  fill: #98ecff;
}

.st18 {
  fill: none;
  stroke: #00b7e1;
  stroke-width: 2;
}

.st19 {
  fill: #00b7e1;
  stroke: #00b7e1;
  stroke-width: 2;
}

.st20 {
  opacity: 0.5;
  fill: #00cfff;
  enable-background: new;
}

.st21 {
  fill: #b5f1ff;
  fill-opacity: 0.9;
}

.st22 {
  fill: #0bd1ff;
  fill-opacity: 0.9;
}

.st23 {
  fill: none;
  stroke: #00b7e1;
}

.floating {
  animation-name: floating;
  animation-duration: 3s;
  animation-iteration-count: infinite;
  animation-timing-function: ease-in-out;
}

@keyframes floating {
  0% {
    transform: translate(0, 0);
  }

  65% {
    transform: translate(0, 0.938rem);
  }

  to {
    transform: translate(0, 0);
  }
}

.floating-2 {
  animation-name: floating;
  animation-duration: 4s;
  animation-iteration-count: infinite;
  animation-timing-function: ease-in-out;
}

@keyframes floating-2 {
  0% {
    transform: translate(0, 0);
  }

  65% {
    transform: translate(0, 1.563rem);
  }

  to {
    transform: translate(0, 0);
  }
}

.floating-3 {
  animation-name: floating;
  animation-duration: 5s;
  animation-iteration-count: infinite;
  animation-timing-function: ease-in-out;
}

@keyframes floating-2 {
  0% {
    transform: translate(0, 0);
  }

  65% {
    transform: translate(0, 2rem);
  }

  to {
    transform: translate(0, 0);
  }
}

.floating-4 {
  animation-name: floating;
  animation-duration: 5s;
  animation-iteration-count: infinite;
  animation-timing-function: ease-in-out;
}

@keyframes floating-2 {
  0% {
    transform: translate(0, 0);
  }

  65% {
    transform: translate(0, 1rem);
  }

  to {
    transform: translate(0, 0);
  }
}

.floating-5 {
  animation-name: floating;
  animation-duration: 6s;
  animation-iteration-count: infinite;
  animation-timing-function: ease-in-out;
}

@keyframes floating-2 {
  0% {
    transform: translate(0, 0);
  }

  65% {
    transform: translate(0, 2rem);
  }

  to {
    transform: translate(0, 0);
  }
}
    ]]></style>
  </defs>

              <g>
                <path
      class="st0"
      d="M6,554.3c-2.7-1.5-2.7-5.4,0-6.9L151.8,462c1.2-0.7,2.8-0.7,4,0l62.2,35.3c2.7,1.5,2.7,5.4,0,6.9L72.2,589.5
      c-1.2,0.7-2.8,0.7-4,0L6,554.3z"
    />
                <path
      class="st1"
      d="M5.9,536.2l55.4,31.7c5.8,3.4,16.3,3.1,23.1-0.9l126.1-73.2c6.8-4,8.6-14.2,2.8-17.5l-56.6-25.8
      c-5.8-3.4-16.3-3.1-23.1,0.9l-128,67.7C-1.2,522.9-0.3,532.8,5.9,536.2z"
    />
                <path
      class="st1"
      d="M60.6,569.1L5.2,537.4c-3.4-1.8-5.2-5.5-5.2-9.5s1.8-7.4,5.2-9.5l128-67.7c7.1-4,17.8-4.6,24-0.9l56.6,25.8
      c2.5,1.5,4,4.3,4,7.7c0,4.6-2.8,9.2-6.8,11.7L84.9,568.1c-4,2.2-8.9,3.4-13.5,3.4C67.4,571.5,63.4,570.6,60.6,569.1z M134.2,452.2
      l-128,67.7c-2.8,1.5-4.3,4.3-4.3,7.7c0,3.4,1.5,6.5,4.3,7.7l55.4,31.7c5.5,3.4,15.7,2.8,22.2-0.9l126.1-73.2
      c3.4-1.8,5.8-5.8,5.8-9.8c0-1.5-0.3-4.3-3.1-5.8L156,451.3c-2.5-1.5-5.8-2.2-9.5-2.2C142.5,449.1,137.8,450,134.2,452.2z"
    />
                <path
      class="st2"
      d="M5.9,531.2l55.4,31.7c5.8,3.4,16.3,3.1,23.1-0.9l126.1-73.2c6.8-4,7.7-9.8,1.5-13.2l-55.4-32
      c-5.8-3.4-16.3-3.1-23.1,0.9L7.4,517.7C0.6,522-0.3,527.8,5.9,531.2z"
    />
                <path
      class="st1"
      d="M60.6,564.1L5.2,532.5c-2.8-1.5-4.6-4-4.6-6.8c0-3.1,2.2-6.2,6.2-8.3l126.1-73.2c7.1-4,17.8-4.6,24-0.9
      l55.4,31.7c2.8,1.5,4.6,4,4.6,6.8c0,3.1-2.2,6.2-6.2,8.3L84.6,563.2c-3.7,2.2-8.6,3.4-13.5,3.4C67.4,566.6,63.4,565.7,60.6,564.1z
       M134.2,445.7L8,518.9c-3.4,1.8-5.2,4.3-5.2,6.8c0,1.8,1.2,3.7,3.4,4.9l55.4,31.7c5.5,3.4,15.7,2.8,22.2-0.9l126.1-73.2
      c3.4-1.8,5.2-4.3,5.2-6.8c0-1.8-1.2-3.7-3.4-4.9l-55.4-31.7c-2.5-1.5-5.8-2.2-9.5-2.2C142.5,442.3,137.9,443.5,134.2,445.7z"
    />
                <path
      class="st2"
      d="M152.9,447.9l6.2,3.7c1.2,0.6,1.2,1.8,0,2.8c-1.2,0.6-1.2,1.8,0,2.8l30.2,17.2c1.2,0.6,3.4,0.6,4.6,0
      c1.2-0.6,3.4-0.6,4.6,0l6.2,3.7c4.3,2.5,4.3,6.2,0,8.6L80,558.9c-4.3,2.5-10.8,2.5-15.1,0l-52.3-29.8c-4.3-2.5-4.3-6.2,0-8.6
      l125.2-72.6C142.2,445.4,148.9,445.4,152.9,447.9z"
    />
                <path
      class="st3"
      d="M79.4,558.6l121.5-70.4l-3.7-2.5c-1.2-0.6-3.4-0.6-4.6,0c-1.2,0.6-3.4,0.6-4.6,0l-30.2-17.2
      c-1.2-0.6-1.2-1.8,0-2.8c1.2-0.6,1.2-1.8,0-2.8l-6.2-3.7c-4.3-2.5-11.1-2.5-15.1,0L14.5,530l49.8,28.6
      C68.6,561.1,75.4,561.1,79.4,558.6z"
    />
                <path
      class="st1"
      d="M64.6,559.8L12.3,530c-2.5-1.2-3.7-3.1-3.7-5.2c0-2.2,1.2-4,3.7-5.2l125.2-72.6c4.6-2.8,11.7-2.8,16,0l6.2,3.7
      c0.9,0.6,1.5,1.2,1.5,2.2c0,0.9-0.6,1.8-1.5,2.2c-0.3,0.3-0.3,0.3-0.3,0.6c0,0,0,0.3,0.6,0.6l30.2,17.2c0.9,0.6,2.8,0.6,3.7,0
      c1.5-0.9,4-0.9,5.8,0l6.2,3.7c2.5,1.2,3.7,3.1,3.7,5.2c0,2.2-1.2,4-3.7,5.2L80.6,559.8c-2.2,1.2-5.2,1.8-8,1.8
      C69.5,562,66.8,561.4,64.6,559.8z M194.8,474.9c-1.5,0.9-4,0.9-5.8,0l-30.2-17.2c-0.9-0.6-1.5-1.2-1.5-2.2s0.6-1.8,1.5-2.2
      c0.3-0.3,0.3-0.3,0.3-0.6c0,0,0-0.3-0.6-0.6l-6.2-3.7c-4-2.2-10.2-2.2-14.2,0L13.2,521.4c-1.5,0.9-2.5,2.2-2.5,3.4
      c0,1.2,0.9,2.5,2.8,3.4L65.9,558c4,2.2,10.2,2.2,14.2,0l125.2-72.6c1.5-0.9,2.5-2.2,2.5-3.4c0-1.2-0.9-2.5-2.8-3.4l-6.2-3.7
      c-0.6-0.3-1.2-0.3-1.8-0.3C196,474.6,195.1,474.6,194.8,474.9z"
    />
                <path
      class="st3"
      d="M69.5,565.4l-1.2,0l0,4.9l1.2,0L69.5,565.4z"
    />
                <path
      class="st3"
      d="M81.2,564.1l-1.2,0l0,4.9l1.2,0L81.2,564.1z"
    />
                <path
      class="st3"
      d="M57.8,560.7l-1.2,0l0,4.9l1.2,0L57.8,560.7z"
    />
                <path
      class="st3"
      d="M8.9,532.4l-1.2,0l0,4.9l1.2,0L8.9,532.4z"
    />
                <path
      class="st3"
      d="M76.9,565.1l-1.2,0l0,4.9l1.2,0L76.9,565.1z"
    />
                <path
      class="st3"
      d="M36.9,554l-4.9-2.8c-0.9-0.6-1.5-1.5-1.5-2.8c0-0.6,0.3-1.2,0.6-1.5c0.3-0.3,0.9-0.3,1.5,0l4.9,2.8
      c0.9,0.6,1.5,1.5,1.5,2.8c0,0.6-0.3,1.2-0.6,1.5c-0.3,0-0.3,0.3-0.6,0.3S37.2,554.3,36.9,554z M31.7,548.5c0,0.6,0.3,1.5,0.9,1.5
      l4.9,2.8c0,0,0,0,0-0.3c0-0.6-0.3-1.5-0.9-1.5l-4.6-2.8C32,548.2,31.7,548.2,31.7,548.5z"
    />
                <g class="floating">
                  <path
        class="st2"
        d="M144,393.7c-5.8-9.8-12.6-4.6-13.8-3.7c0,0-0.3,0-0.3-0.3c-1.2-2.5-7.7-15.1-13.8-12.3l-9.8,5.5v0.3l7.1,12
        l9.2,25.5l-2.5,0.6v5.2c0,0.3,0.3,0.3,0.3,0.3l9.8-5.5l12.3-9.8C142.1,411.9,151.4,406,144,393.7z"
      />
                  <path
        class="st1"
        d="M120,428.2c-0.3,0-0.6,0-0.6-0.3c-0.3-0.3-0.6-0.6-0.6-1.2v-6.2l2.2-0.6l-8.9-24.3l-7.1-12.3v-0.6
        c0,0,0.3-0.6,0.6-0.6l9.8-5.5c2.2-1.2,5.8-1.2,10.2,4.3c2.2,2.8,4,5.5,4.9,7.4c1.5-0.9,3.7-2.2,6.5-1.5c3.1,0.3,5.8,2.8,8,6.5
        c8,13.2-1.8,19.7-1.8,19.7l-12.3,9.8l-9.8,5.5C120.6,428.2,120.3,428.2,120,428.2z M121.2,422.6v2.5l8.3-4.6l12-9.5
        c0.3-0.3,8-5.2,1.2-16.6c-1.8-3.1-4-4.9-6.2-5.2c-2.8-0.3-4.9,1.2-5.5,1.8l-0.6,0.3h-0.6c-0.6,0-0.9-0.3-1.2-0.9
        c-0.6-1.2-2.5-4.9-4.9-8c-1.8-2.5-4.6-4.9-7.1-3.7l-8.9,4.9l6.5,11.4L124,422L121.2,422.6z"
      />
                  <path
        class="st3"
        d="M134.1,400.2c0,0-4.3-0.3-5.2,0c-0.9,0-10.2,4.3-10.2,4.3l-1.5,3.1l4.9,13.2l-2.5,0.6v5.2
        c0,0.3,0.3,0.3,0.3,0.3l9.8-5.5l12.3-9.8c0,0,8.6-5.2,2.2-16.9L134.1,400.2z"
      />
                  <path
        class="st1"
        d="M119.7,428.2c-0.3,0-0.6,0-0.6-0.3c-0.3-0.3-0.6-0.6-0.6-1.2v-6.2l2.2-0.6l-4.6-12.6l1.8-4.3l0.6-0.3
        c3.7-1.5,9.8-4,10.5-4.3c0.6,0,3.7,0,5.2,0l11.1-5.8v1.8c6.8,12.6-2.5,18.5-2.8,18.8l-12.3,9.8l-9.5,5.2
        C120.3,428.2,120,428.2,119.7,428.2z M120.9,422.6v2.5l8.3-4.6l12-9.5c0.3-0.3,7.1-4.6,2.5-14.2l-9.2,4.9h-0.3
        c-2.2,0-4.6-0.3-4.9,0c-0.6,0.3-5.8,2.2-9.5,4l-0.9,2.5l5.2,14.1L120.9,422.6z"
      />
                  <path
        class="st3"
        d="M121.8,394.6l7.7-4.3V390c-0.6-1.2-2.5-4.9-4.9-8l-9.8,5.8l-3.1,5.8l1.2,1.8l1.5,4l3.4,2.8L121.8,394.6z"
      >
                  </path>
                  <path
        class="st1"
        d="M118.1,403.9l-4.9-3.7l-1.5-4.3l-1.5-2.5l3.4-6.8l11.4-6.5l0.6,0.9c2.5,3.4,4.6,7.1,5.2,8.3
        c0.3,0.3,0,0.9,0,1.2v0.6l-8,4.3L118.1,403.9z M115.4,398.6l1.8,1.5l3.4-6.5l7.4-4c-0.6-1.2-2.2-3.7-3.7-6.2l-8.6,4.9l-2.5,4.9
        l0.9,1.5L115.4,398.6z"
      />
                  <path
        class="st3"
        d="M133.8,399.3c-5.8-9.8-12.6-4.6-13.8-3.7c0,0-0.3,0-0.3-0.3c-1.2-2.5-7.7-15.1-13.8-12.3
        c-7.4,3.7,1.5,20,1.5,20l12,24c0,0.3,0.3,0.3,0.3,0.3l12.3-9.8C132.3,417.4,141.2,411.6,133.8,399.3z"
      />
                  <path
        class="st1"
        d="M120.3,428.5h-0.6c-0.3,0-0.9-0.3-1.2-0.9l-12-24c-0.3-0.3-6.2-11.4-4.3-17.8c0.6-1.8,1.5-3.1,3.4-4
        c6.2-3.1,12.6,7.1,15.1,11.7c1.5-0.9,3.7-2.2,6.5-1.5c3.1,0.3,5.8,2.8,8,6.5c8,13.2-1.8,19.7-1.8,19.7L120.3,428.5z M107.7,384.2
        c-0.3,0-0.9,0-1.2,0.3c-0.9,0.6-1.5,1.2-1.8,2.5c-1.5,4.6,2.5,12.9,4,15.7l11.7,22.8l11.1-8.9c0.3-0.3,8-5.2,1.2-16.6
        c-1.8-3.1-4-4.9-6.2-5.2c-2.8-0.3-4.9,1.2-5.5,1.8l-0.6,0.6h-0.6c-0.6,0-0.9-0.3-1.2-0.9C116.3,391.3,111.4,384.2,107.7,384.2z"
      >
                  </path>
                  <path
        class="st1"
        d="M115.3,404.8l-2.2,1.1l6.9,13.4l2.2-1.1L115.3,404.8z"
      />
                  <path
        class="st1"
        d="M117.2,391.3l10.2-5.5l2.2,4.6l-9.8,5.2L117.2,391.3z"
      />
                  <path
        class="st1"
        d="M134.1,416.5l4.9-2.2l5.8-4.3l1.5-4.6l0.3-4.6l-0.9-1.8l-9.2,5.2l0.6,3.4l-1.2,4.3L134.1,416.5z"
      >
                  </path>
                </g>
                <path
      class="st2"
      d="M164.9,494.6c-5.8-9.8-12.6-4.6-13.8-3.7c0,0-0.3,0-0.3-0.3c-1.2-2.5-7.7-15.1-13.8-12.3l-9.8,5.5v0.3l7.1,12
      l9.2,25.5l-2.5,0.6v5.2c0,0.3,0.3,0.3,0.3,0.3l9.8-5.5l12.3-9.8C163.4,512.8,172.3,506.9,164.9,494.6z"
    />
                <path
      class="st1"
      d="M141.2,529.1c-0.3,0-0.6,0-0.6-0.3c-0.3-0.3-0.6-0.6-0.6-1.2v-6.2l2.2-0.6l-8.9-24.3l-7.1-12.3v-0.6
      c0-0.3,0.3-0.6,0.6-0.9l9.8-5.5c6.5-3.1,12.6,7.1,15.1,11.7c1.5-0.9,3.7-2.2,6.5-1.5c3.1,0.3,5.8,2.8,8,6.5
      c8,13.2-1.8,19.7-1.8,19.7l-12.3,9.8l-10.2,5.8C141.5,529.1,141.2,529.1,141.2,529.1z M142.1,523.5v2.5l8.3-4.6l12-9.5
      c0.3-0.3,8-5.2,1.2-16.6c-1.8-3.1-4-4.9-6.2-5.2c-2.8-0.3-4.9,1.2-5.5,1.8l-0.6,0.3h-0.6c-0.6,0-0.9-0.3-1.2-0.9
      c-2.5-5.2-8-13.5-12-11.7l-8.9,4.9l6.5,11.4l9.8,26.8L142.1,523.5z"
    />
                <path
      class="st3"
      d="M155.1,501.1c0,0-4.3-0.3-5.2,0c-0.9,0-10.2,4.3-10.2,4.3l-1.5,3.4l4.9,13.2l-2.5,0.6v5.2
      c0,0.3,0.3,0.3,0.3,0.3l9.8-5.5l12.3-9.8c0,0,8.6-5.2,2.2-16.9L155.1,501.1z"
    />
                <path
      class="st1"
      d="M140.9,529.1c-0.3,0-0.6,0-0.6-0.3c-0.3-0.3-0.6-0.6-0.6-1.2v-6.2l2.2-0.6l-4.6-12.6l1.8-4.3l0.6-0.3
      c3.7-1.5,9.8-4,10.5-4.3c0.6,0,3.7,0,5.2,0l11.1-5.8l0.6,1.2c6.8,12.6-2.5,18.5-2.8,18.8l-12.3,9.8l-9.8,5.5
      C141.2,529.1,140.9,529.1,140.9,529.1z M141.8,523.5v2.5l8.3-4.6l12-9.5c0.3-0.3,7.1-4.6,2.5-14.1l-9.2,4.9h-0.3
      c-2.2,0-4.6-0.3-4.9,0c-0.6,0.3-5.8,2.2-9.5,4l-0.9,2.5l5.2,14.1L141.8,523.5z"
    />
                <path
      class="st3"
      d="M142.8,495.5l8-4.3v-0.3c-0.6-1.2-2.5-4.9-4.9-8l-10.2,5.5l-3.1,5.8l1.2,1.8l1.5,4l3.4,2.8L142.8,495.5z"
    >
                </path>
                <path
      class="st1"
      d="M139.1,504.8l-4.9-3.7l-1.5-4.3l-1.5-2.5l3.4-6.8l11.4-6.5l0.6,0.9c2.5,3.4,4.6,7.1,5.2,8.3
      c0.3,0.3,0,0.9,0,1.2v0.6l-8,4.3L139.1,504.8z M136.3,499.5l1.8,1.5l3.4-6.5l7.4-4c-0.6-1.2-2.2-3.7-3.7-6.2l-8.6,4.9l-2.5,4.9
      l0.9,1.5L136.3,499.5z"
    />
                <path
      class="st3"
      d="M154.8,500.2c-5.8-9.8-12.6-4.6-13.8-3.7c0,0-0.3,0-0.3-0.3c-1.2-2.5-7.7-15.1-13.8-12.3
      c-7.4,3.7,1.5,20,1.5,20l12,24c0,0.3,0.3,0.3,0.3,0.3l12.3-9.8C153.2,518.3,162.1,512.5,154.8,500.2z"
    />
                <path
      class="st1"
      d="M141.2,529.4h-0.6c-0.3,0-0.9-0.3-0.9-0.9l-12-24c-0.3-0.3-6.2-11.4-4.3-17.8c0.6-1.8,1.5-3.1,3.4-4
      c2.2-0.9,5.5-1.2,10.2,4.3c2.2,2.5,3.7,5.5,4.6,7.4c1.5-0.9,3.7-2.2,6.5-1.5c3.1,0.3,5.8,2.8,8,6.5c8,13.2-1.8,19.7-1.8,19.7
      L141.2,529.4z M128.6,485.1c-0.3,0-0.9,0-1.2,0.3c-0.9,0.6-1.5,1.2-1.8,2.5c-1.5,4.6,2.5,12.9,4,15.7l11.7,22.8l11.1-8.9
      c0.3-0.3,8-5.2,1.2-16.6c-1.8-3.1-4-4.9-6.2-5.2c-2.8-0.3-4.9,1.2-5.5,1.8l-0.6,0.3h-0.6c-0.6,0-0.9-0.3-1.2-0.9
      c-0.6-1.2-2.5-4.9-4.9-8C132.9,486.9,130.8,485.1,128.6,485.1z"
    />
                <path
      class="st1"
      d="M136.2,505.7l-2.2,1.1l6.9,13.4l2.2-1.1L136.2,505.7z"
    />
                <path
      class="st1"
      d="M138.5,492.2l9.8-5.5l2.2,4.6l-9.8,5.2L138.5,492.2z"
    />
                <path
      class="st1"
      d="M155.4,517.4l4.9-2.2l5.5-4.3l1.5-4.6l0.3-4.6l-0.9-1.8l-8.9,5.2l0.3,3.4l-1.2,4.3L155.4,517.4z"
    >
                </path>
                <path
      class="st2"
      d="M98.1,424.8c-5.8-9.8-12.6-4.6-13.8-3.7c0,0-0.3,0-0.3-0.3c-1.2-2.5-7.7-15.1-13.8-12.3l-9.8,5.5v0.3l7.1,12
      l9.2,25.5l-2.5,0.9v5.2c0,0.3,0.3,0.3,0.3,0.3l9.8-5.5l12.3-9.8C96.6,442.9,105.5,437.1,98.1,424.8z"
    />
                <path
      class="st1"
      d="M74.5,459.6c-0.3,0-0.6,0-0.6-0.3c-0.3-0.3-0.6-0.6-0.6-1.2v-6.2l2.2-0.6l-8.9-24.3l-7.1-12.3V414
      c0-0.3,0.3-0.6,0.6-0.9l9.8-5.5c6.5-3.1,12.6,7.1,15.1,11.7c1.5-0.9,3.7-2.2,6.5-1.5c3.1,0.3,5.8,2.8,8,6.5
      c8,13.2-1.8,19.7-1.8,19.7l-12.3,9.8l-9.8,5.5C74.8,459.6,74.5,459.6,74.5,459.6z M75.4,453.7v2.5l8.3-4.6l12.3-9.8
      c0.3-0.3,8-5.2,1.2-16.6c-1.8-3.1-4-4.9-6.2-5.2c-2.8-0.3-4.9,1.2-5.5,1.8l-0.6,0.3h-0.6c-0.6,0-0.9-0.3-1.2-0.9
      c-2.5-5.2-8-13.8-12-11.7l-9.2,5.5l6.5,11.1l9.8,27.1L75.4,453.7z"
    />
                <path
      class="st3"
      d="M88.3,431.6c0,0-4.3-0.3-5.2,0c-0.9,0-10.2,4.3-10.2,4.3l-1.5,3.4l4.9,13.2l-2.5,0.3v5.2
      c0,0.3,0.3,0.3,0.3,0.3l9.8-5.5l12.3-9.8c0,0,8.6-5.2,2.2-16.9L88.3,431.6z"
    />
                <path
      class="st1"
      d="M74.2,459.5c-0.3,0-0.6,0-0.6-0.3c-0.3-0.3-0.6-0.6-0.6-1.2v-6.2l2.2-0.6l-4.6-12.6l1.8-4.3l0.6-0.3
      c3.7-1.5,9.8-4,10.5-4.3c0.6,0,3.7,0,5.2,0l11.1-5.8l0.6,1.2c6.8,12.6-2.5,18.5-2.8,18.8l-12.3,9.8l-9.8,5.5
      C74.5,459.2,74.5,459.5,74.2,459.5z M75.1,453.7v2.5l8.3-4.6l12.3-9.8c0.3-0.3,7.1-4.6,2.5-14.2l-9.2,4.9h-0.3
      c-2.2,0-4.6-0.3-4.9,0c-0.6,0.3-5.8,2.2-9.5,4l-0.9,2.5l5.2,14.1L75.1,453.7z"
    />
                <path
      class="st3"
      d="M76,425.7l8-4.3v-0.3c-0.6-1.2-2.5-4.9-4.9-8L68.9,419l-3.1,5.8l1.2,1.8l1.5,4l3.4,2.8L76,425.7z"
    >
                </path>
                <path
      class="st1"
      d="M72.6,435.3l-4.9-4l-1.5-4.3l-1.5-2.5l3.4-6.8l11.4-6.5l0.6,0.9c2.5,3.1,4.3,6.8,5.2,8.3c0.3,0.3,0,0.9,0,1.2
      v0.6l-8,4.3L72.6,435.3z M69.5,429.7l1.8,1.5l3.4-6.5l7.4-4c-0.6-1.2-2.2-3.7-3.7-6.2l-8.6,4.9l-2.5,4.9l0.9,1.5L69.5,429.7z"
    />
                <path
      class="st3"
      d="M88,430.3c-5.8-9.8-12.6-4.6-13.8-3.7c0,0-0.3,0-0.3-0.3c-1.2-2.5-7.7-15.1-13.8-12.3
      c-7.4,4,1.5,20.3,1.5,20.3l12,24c0,0.3,0.3,0.3,0.3,0.3l12.3-9.8C86.5,448.5,95.4,442.9,88,430.3z"
    />
                <path
      class="st1"
      d="M74.5,459.9h-0.6c-0.3,0-0.9-0.3-1.2-0.9l-12-24c-0.3-0.3-6.2-11.4-4.3-17.8c0.6-1.8,1.5-3.1,3.4-4
      c6.2-3.1,12.6,7.1,15.1,11.7c1.5-0.9,3.7-2.2,6.5-1.5c3.1,0.3,5.8,2.8,8,6.5c8,13.2-1.8,19.7-1.8,19.7L74.5,459.9z M61.8,415.3
      c-0.3,0-0.9,0-1.2,0.3c-0.9,0.6-1.5,1.2-1.8,2.5c-1.5,4.6,2.5,12.9,4,15.7l11.7,22.8l11.1-8.9c0.3-0.3,8-5.2,1.2-16.6
      c-1.8-3.1-4-4.9-6.2-5.2c-2.8-0.3-4.9,1.2-5.5,1.8l-0.6,0.6h-0.6c-0.6,0-0.9-0.3-1.2-0.9C70.5,422.3,65.8,415.3,61.8,415.3z"
    />
                <path
      class="st1"
      d="M69.7,435.8l-2.2,1.1l6.9,13.4l2.2-1.1L69.7,435.8z"
    />
                <path
      class="st1"
      d="M71.7,422.6l9.8-5.5l2.2,4.3l-9.8,5.2L71.7,422.6z"
    />
                <path
      class="st1"
      d="M88.6,447.6l4.9-2.2l5.5-4.3l1.5-4.6l0.3-4.6l-0.6-1.8l-9.2,5.2l0.3,3.4l-1.2,4.3L88.6,447.6z"
    />
                <path
      class="st2"
      d="M101.8,489.7c-5.8-9.8-12.6-4.6-13.8-3.7c0,0-0.3,0-0.3-0.3c-1.2-2.5-7.7-15.1-13.8-12.3l-9.8,5.5v0.3l7.1,12
      l9.2,25.5l-2.5,0.6v5.2c0,0.3,0.3,0.3,0.3,0.3l9.8-5.5l12.3-9.8C100.3,507.5,109.5,502,101.8,489.7z"
    />
                <path
      class="st1"
      d="M78.2,524.1c-0.3,0-0.6,0-0.6-0.3c-0.3-0.3-0.6-0.6-0.6-1.2v-6.2l2.2-0.6l-8.9-24.3l-7.1-12.3v-0.6
      c0-0.3,0.3-0.6,0.6-0.9l9.8-5.5c6.5-3.1,12.6,7.1,15.1,11.7c1.5-0.9,3.7-2.2,6.5-1.5c3.1,0.3,5.8,2.8,8,6.5
      c8,13.2-1.8,19.7-1.8,19.7l-12.3,9.8l-9.8,5.5C78.8,524.1,78.5,524.1,78.2,524.1z M79.1,518.3v2.5l8.3-4.6l12.3-9.8
      c0.3-0.3,8-5.2,1.2-16.6c-1.8-3.1-4-4.9-6.2-5.2c-2.8-0.3-4.9,1.2-5.5,1.8l-0.6,0.3H88c-0.6,0-0.9-0.3-1.2-0.9
      c-2.5-5.2-8-13.5-12-11.7l-8.9,4.9l6.5,11.4l9.8,26.8L79.1,518.3z"
    />
                <path
      class="st3"
      d="M92,496.1c0,0-4.3-0.3-5.2,0c-0.9,0-10.2,4.3-10.2,4.3l-1.5,3.4l4.9,13.2l-2.5,0.3v5.2c0,0.3,0.3,0.3,0.3,0.3
      l9.8-5.5l12.3-9.8c0,0,8.6-5.2,2.2-16.9L92,496.1z"
    />
                <path
      class="st1"
      d="M77.8,524.1c-0.3,0-0.6,0-0.6-0.3c-0.3-0.3-0.6-0.6-0.6-1.2v-6.2l2.2-0.6l-4.6-12.6l1.8-4.3l0.6-0.3
      c3.7-1.5,9.8-4,10.5-4.3c0.6,0,3.7,0,5.2,0l11.1-5.8l0.6,1.2c6.8,12.6-2.5,18.5-2.8,18.8l-12.3,9.8l-9.8,5.5
      C78.5,524.1,78.1,524.1,77.8,524.1z M78.8,518.3v2.5l8.3-4.6l12.3-9.8c0.3-0.3,7.1-4.6,2.5-14.1l-9.2,4.9h-0.3
      c-2.2,0-4.6-0.3-4.9,0c-0.6,0.3-5.8,2.2-9.5,4l-0.9,2.5l5.2,14.1L78.8,518.3z"
    />
                <path
      class="st3"
      d="M79.7,490.3l8-4.3v-0.3c-0.6-1.2-2.5-4.9-4.9-8l-10.2,5.8l-3.1,5.8l1.2,1.8l1.5,4l3.4,2.8L79.7,490.3z"
    >
                </path>
                <path
      class="st1"
      d="M76.3,499.8l-4.9-3.7l-1.5-4.3l-1.5-2.5l3.4-6.8l11.4-6.5l0.6,0.9c2.5,3.1,4.3,6.8,5.2,8.3
      c0.3,0.6,0,0.9,0,1.2v0.6l-8,4.3L76.3,499.8z M73.5,494.6l1.8,1.5l3.4-6.5l7.4-4c-0.6-1.2-2.2-3.7-3.7-6.2l-8.6,4.9l-2.8,4.6
      l0.9,1.5L73.5,494.6z"
    />
                <path
      class="st3"
      d="M91.7,495.2c-5.8-9.8-12.6-4.6-13.8-3.7c0,0-0.3,0-0.3-0.3c-1.2-2.5-7.7-15.1-13.8-12.3
      c-7.4,3.7,1.5,20,1.5,20l12,24c0,0.3,0.3,0.3,0.3,0.3l12.3-9.8C90.1,513.4,99.4,507.5,91.7,495.2z"
    />
                <path
      class="st1"
      d="M78.1,524.5h-0.6c-0.3,0-0.9-0.3-1.2-0.9l-12-24c-0.3-0.3-6.2-11.4-4.3-17.8c0.6-1.8,1.5-3.1,3.4-4
      c6.2-3.1,12.6,7.1,15.1,11.7c1.5-0.9,3.7-2.2,6.5-1.5c3.1,0.3,5.8,2.8,8,6.5c8,13.2-1.8,19.7-1.8,19.7L78.1,524.5z M65.8,479.9
      c-0.3,0-0.9,0-1.2,0.3c-0.9,0.6-1.5,1.2-1.8,2.5c-1.5,4.6,2.5,12.9,4,15.7l11.7,22.8l11.1-8.9c0.3-0.3,8-5.2,1.2-16.6
      c-1.8-3.1-4-4.9-6.2-5.2c-2.8-0.3-4.9,1.2-5.5,1.8l-0.6,0.6h-0.6c-0.6,0-0.9-0.3-1.2-0.9C74.1,487.2,69.5,479.9,65.8,479.9z"
    />
                <path
      class="st1"
      d="M73.3,500.4l-2.2,1.1l6.9,13.4l2.2-1.1L73.3,500.4z"
    />
                <path
      class="st1"
      d="M75.4,487.2l10.2-5.5l2.2,4.3l-10.2,5.2L75.4,487.2z"
    />
                <path
      class="st1"
      d="M92.3,512.2l4.9-2.2l5.5-4l1.8-4.9v-4.6l-0.6-1.5l-9.2,4.9l0.6,3.7l-1.2,4.3L92.3,512.2z"
    />
                <path
      class="st1"
      d="M111.4,501.1l-2.5-0.3c0.6-4.9-1.2-8.9-1.2-8.9l2.2-0.9C110.1,490.9,112,495.2,111.4,501.1z"
    />
                <path
      class="st2"
      d="M121.8,458.3c-5.8-9.8-12.6-4.6-13.8-3.7c0,0-0.3,0-0.3-0.3c-1.2-2.5-7.7-15.1-13.8-12.3l-9.8,5.5v0.3l7.1,12
      l9.2,25.5l-2.5,0.6v5.2c0,0.3,0.3,0.3,0.3,0.3l9.8-5.5l12.3-9.8C120.3,476.5,129.5,470.9,121.8,458.3z"
    />
                <path
      class="st1"
      d="M98.1,493.1c-0.3,0-0.6,0-0.6-0.3c-0.3-0.3-0.6-0.6-0.6-1.2v-6.2l2.2-0.6l-8.9-24.3l-7.1-12.3v-0.6
      c0-0.3,0.3-0.6,0.6-0.9l9.8-5.5c2.2-1.2,5.8-1.2,10.2,4.3c2.2,2.5,3.7,5.5,4.6,7.4c1.5-0.9,3.7-2.2,6.5-1.5c3.1,0.3,5.8,2.8,8,6.5
      c8,13.2-1.8,19.7-1.8,19.7l-12.3,9.8l-9.8,5.5C98.8,493.1,98.5,493.1,98.1,493.1z M99.1,487.2v2.5l8.3-4.6l12-9.5
      c0.3-0.3,8-5.2,1.2-16.6c-1.8-3.1-4-4.9-6.2-5.2c-2.8-0.3-4.9,1.2-5.5,1.8l-0.6,0.3h-0.6c-0.6,0-0.9-0.3-1.2-0.9
      c-0.6-1.2-2.5-4.9-4.9-8c-1.8-2.5-4.6-4.9-7.1-3.7l-8.9,4.9l6.5,11.4l9.8,27.1L99.1,487.2z"
    />
                <path
      class="st3"
      d="M112,465.1c0,0-4.3-0.3-5.2,0c-0.9,0.3-10.2,4.3-10.2,4.3l-1.5,3.4L100,486l-2.5,0.6v5.2
      c0,0.3,0.3,0.3,0.3,0.3l9.8-5.5l12.3-9.8c0,0,8.6-5.2,2.2-16.9L112,465.1z"
    />
                <path
      class="st1"
      d="M97.8,493.1c-0.3,0-0.6,0-0.6-0.3c-0.3-0.3-0.6-0.6-0.6-1.2v-6.2l2.2-0.6l-4.6-12.6l1.5-4l0.6-0.3
      c3.7-1.5,9.8-4,10.5-4.3c0.6,0,3.7,0,5.2,0l11.1-5.8l0.3,1.2c6.8,12.6-2.5,18.5-2.8,18.8l-12.3,9.8l-9.8,5.2
      C98.5,493.1,98.1,493.1,97.8,493.1z M98.8,487.2v2.5l8.3-4.6l12-9.5c0.3-0.3,7.1-4.6,2.5-14.2l-9.2,4.9H112c-2.2,0-4.3-0.3-4.9,0
      c-0.6,0.3-5.8,2.2-9.5,4l-0.9,2.5l5.2,13.8L98.8,487.2z"
    />
                <path
      class="st3"
      d="M99.7,459.2l8-4.3v-0.3c-0.6-1.2-2.5-4.9-4.9-8l-10.2,5.8l-3.1,5.8l1.2,1.8l1.5,4l3.4,2.8L99.7,459.2z"
    >
                </path>
                <path
      class="st1"
      d="M96.3,468.8l-4.9-3.7l-1.5-4.3l-1.5-2.5l3.4-6.8l11.4-6.5l0.6,0.9c2.5,3.4,4.6,7.1,5.2,8.3
      c0.3,0.3,0,0.9,0,1.2v0.6l-8,4.3L96.3,468.8z M93.5,463.2l1.8,1.5l3.4-6.5l7.4-4c-0.6-1.2-2.2-3.7-3.7-6.2l-8.6,4.9l-2.5,4.9
      l0.9,1.5L93.5,463.2z"
    />
                <path
      class="st2"
      d="M111.7,464.2c-5.8-9.8-12.6-4.6-13.8-3.7c0,0-0.3,0-0.3-0.3c-1.2-2.5-7.7-15.1-13.8-12.3
      c-7.4,3.7,1.5,20,1.5,20l12,24c0,0.3,0.3,0.3,0.3,0.3l12.3-9.8C110.1,482,119.4,476.5,111.7,464.2z"
    />
                <path
      class="st1"
      d="M98.1,493.4h-0.6c-0.3,0-0.9-0.3-1.2-0.9l-12-24c-0.3-0.3-6.2-11.4-4.3-17.8c0.6-1.8,1.5-3.1,3.4-4
      c2.2-0.9,5.5-1.2,10.2,4.3c2.2,2.5,3.7,5.5,4.6,7.4c1.5-0.9,3.7-2.2,6.5-1.5c3.1,0.6,5.8,2.8,8,6.5c8,13.2-1.8,19.7-1.8,19.7
      L98.1,493.4z M85.8,448.8c-0.3,0-0.9,0-1.2,0.3c-0.9,0.6-1.5,1.2-1.8,2.5c-1.5,4.6,2.5,12.9,4,15.7L98.4,490l11.1-8.9
      c0.3-0.3,8-5.2,1.2-16.6c-1.8-3.1-4-4.9-6.2-5.2c-2.8-0.3-4.9,1.2-5.5,1.8l-0.6,0.3h-0.6c-0.6,0-0.9-0.3-1.2-0.9
      c-0.6-1.2-2.5-4.9-4.9-8C89.8,450.9,87.7,448.8,85.8,448.8z"
    />
                <path
      class="st1"
      d="M93.3,469.4l-2.2,1.1l6.9,13.4l2.2-1.1L93.3,469.4z"
    />
                <path
      class="st1"
      d="M95.4,456.2l10.2-5.5l2.2,4.3l-10.2,5.2L95.4,456.2z"
    />
                <path
      class="st1"
      d="M112.3,481.1l4.9-2.2l5.5-4.3l1.8-4.6v-4.6l-0.6-1.8l-9.2,5.2l0.6,3.7l-1.2,4.3L112.3,481.1z"
    />
                <g>
                  <defs>
                    <rect
          id="SVGID_1_"
          x="80.2"
          y="526.6"
          width="89.4"
          height="63.5"
        />
                  </defs>
                  <clipPath id="SVGID_2_">
                    <use xlink:href="#SVGID_1_" style="overflow:visible;" />
                  </clipPath>
                  <g class="st4">
                    <path
          class="st2"
          d="M141.3,588.8l-13-7.4c-3.7-2.1-6.6-5.6-8.2-9.5c-2.1-5.6-6.1-10.1-11.1-13l-26.7-15.6l26.7-15.6l25.9,14.8
          c5.6,2.9,9.5,7.7,11.6,13.5l0.3,0.8c1.6,4.2,4.8,7.9,8.7,10.1l11.9,6.6L141.3,588.8z"
        />
                    <path
          class="st1"
          d="M141.3,590.1l-13.5-7.7c-4-2.4-7.1-5.8-8.7-10.3c-1.9-5.3-5.8-9.8-10.6-12.4l-28.3-16.4l28.8-16.7l26.2,14.8
          c5.6,3.2,10,8.2,12.2,14.3l0.3,0.8c1.3,4,4.2,7.4,8.2,9.5l13.5,7.7L141.3,590.1z M84.5,543.3l24.9,14.6
          c5.3,2.9,9.5,7.9,11.6,13.5c1.3,4,4.2,7.1,7.7,9l12.4,7.1l23.8-14.3l-10.3-5.8c-4.2-2.4-7.7-6.1-9.3-10.6L145,556
          c-2.1-5.6-5.8-10.3-11.1-13l-24.6-14L84.5,543.3z"
        />
                    <path
          class="st2"
          d="M152.2,575l-9,5.3c-0.8,0.5-2.4,0.5-3.2-0.3l-4.2-2.4c-1.1-0.5-1.1-1.3-0.3-1.9l9-5.3
          c0.8-0.5,2.4-0.5,3.2,0.3l4.2,2.4C153,573.7,153,574.5,152.2,575z"
        />
                    <path
          class="st1"
          d="M141.8,581.4c-0.8,0-1.6-0.3-2.4-0.5l-4.2-2.4c-0.8-0.5-1.3-1.1-1.3-1.9c0-0.5,0.3-1.1,1.1-1.6l9-5.3
          c1.1-0.5,2.9-0.5,4.2,0.3l4.2,2.4c0.8,0.5,1.3,1.1,1.3,1.9c0,0.5-0.3,1.1-1.1,1.6l-9,5.3C143.2,581.4,142.4,581.4,141.8,581.4z
           M135.8,576.6c0,0,0,0.3,0.3,0.3l4.2,2.4c0.8,0.5,1.9,0.5,2.4,0.3l9-5.3h0.3c0,0,0-0.3-0.3-0.3l-4.2-2.4
          c-0.8-0.5-1.9-0.5-2.4-0.3L135.8,576.6z"
        />
                    <path
          class="st1"
          d="M124.1,564.2l-0.8-1.3l2.9-1.6l0.8,1.3L124.1,564.2z M128.4,561.6l-0.8-1.3l2.9-1.9l0.8,1.3L128.4,561.6z
           M132.9,559.2l-0.8-1.3l2.9-1.6l0.8,1.3L132.9,559.2z M137.1,556.5l-0.8-1.3l0.8-0.5l0.8,1.3L137.1,556.5z"
        >
                    </path>
                    <path
          class="st1"
          d="M133.9,550.3l-14,8.1l0.8,1.4l14-8.1L133.9,550.3z"
        />
                    <path
          class="st1"
          d="M113.1,535.9l-13.7,7.9l0.8,1.4l13.7-7.9L113.1,535.9z"
        />
                    <path
          class="st1"
          d="M118.4,538.9l-13.7,7.9l0.8,1.4l13.7-7.9L118.4,538.9z"
        />
                    <path
          class="st1"
          d="M123.7,542.1l-13.7,7.9l0.8,1.4l13.7-7.9L123.7,542.1z"
        />
                  </g>
                </g>
                <path
      class="st1"
      d="M189.2,467.5c-0.6,0.3-0.6,1.2,0,1.5c0.6,0.3,1.8,0.3,2.8,0c0.6-0.3,0.6-1.2,0-1.5
      C191.4,467.2,190.2,467.2,189.2,467.5z"
    />
                <path
      class="st1"
      d="M168.9,457.7l16,9.2c0.6,0.3,1.8,0.3,2.5,0c0.6-0.3,0.9-1.2,0.3-1.5l-16-9.2c-0.6-0.3-1.8-0.3-2.5,0
      C168.6,456.5,168.3,457.1,168.9,457.7z"
    />
                <path
      class="st3"
      d="M205.8,491.8l-1.2,0l0,4.9l1.2,0L205.8,491.8z"
    />
                <path
      class="st3"
      d="M210.1,489.4l-1.2,0l0,4.9l1.2,0L210.1,489.4z"
    />
                <path
      class="st3"
      d="M168.3,517.4c-0.3-0.3-0.6-0.9-0.6-1.5c0-1.2,0.6-2.2,1.5-2.8l4.9-2.8c0.6-0.3,0.9-0.3,1.5,0
      c0.3,0.3,0.6,0.9,0.6,1.5c0,1.2-0.6,2.2-1.5,2.8l-4.9,2.8c-0.3,0-0.6,0-0.9,0C168.9,517.4,168.6,517.4,168.3,517.4z M174.8,511.2
      l-4.9,3.1c-0.3,0.3-0.9,0.9-0.9,1.5c0,0.3,0,0.3,0,0.3l4.9-2.8C174.5,513.1,174.8,512.2,174.8,511.2
      C174.8,511.5,174.8,511.2,174.8,511.2z"
    />
                <path
      class="st3"
      d="M159.4,522.6c-0.3-0.3-0.6-0.9-0.6-1.5c0-1.2,0.6-2.2,1.5-2.8l4.9-2.8c0.6-0.3,0.9-0.3,1.5,0
      c0.3,0.3,0.6,0.9,0.6,1.5c0,1.2-0.6,2.2-1.5,2.8l-4.9,2.8c-0.3,0-0.6,0.3-0.9,0.3C159.7,522.9,159.4,522.9,159.4,522.6z
       M165.5,516.8l-4.9,2.8c-0.3,0.3-0.9,0.9-0.9,1.5c0,0.3,0,0.3,0,0.3l4.9-2.8C165.2,518.6,165.8,517.7,165.5,516.8
      C165.8,516.8,165.8,516.8,165.5,516.8z"
    />
                <path
      class="st3"
      d="M179.4,511.2c-0.3-0.3-0.6-0.9-0.6-1.5c0-1.2,0.6-2.2,1.5-2.8l0.9-0.6c0.6-0.3,0.9-0.3,1.5,0
      c0.3,0.3,0.6,0.9,0.6,1.5c0,1.2-0.6,2.2-1.5,2.8l-0.9,0.6c-0.3,0-0.6,0.3-0.9,0.3C180,511.2,179.7,511.2,179.4,511.2z M181.8,507.5
      l-0.9,0.6c-0.3,0.3-0.9,0.9-0.9,1.5c0,0.3,0,0.3,0,0.3l0.9-0.6C181.5,509.1,182.2,508.5,181.8,507.5
      C182.2,507.5,182.2,507.5,181.8,507.5z"
    />
              </g>
              <g>
                <path
      class="st5"
      d="M548.5,588.6c5.7-2.9,5.9-11,0.3-14.1L252.6,406.6c-2.3-1.3-5.2-1.4-7.5-0.2l-46.2,23.3
      c-5.7,2.9-5.9,11-0.3,14.1l76.9,43.6c5.6,3.2,5.4,11.2-0.3,14.1l-15,7.6c-5.7,2.9-5.9,10.9-0.4,14.1l86.7,50.1
      c2.3,1.3,5.2,1.4,7.6,0.2l34.9-17.6c2.4-1.2,5.2-1.1,7.5,0.2l98.4,55.8c2.3,1.3,5.2,1.4,7.5,0.2L548.5,588.6z"
    >
                </path>
                <path
      class="st6"
      d="M542.3,278.8L227.3,98.9c-4-2.3-7.5-2.1-10.1-0.2l-15.4,9.4l11.5,16.4v244.2c0,10.3,6.3,22.2,14,26.7
      L521.5,563l15.2,21.5l14.5-8.7c3.3-1.6,5.1-5.6,5.1-11.5V305.2C556.4,294.9,550.1,283.2,542.3,278.8z"
    />
                <path
      class="st6"
      d="M467.7,265.7L206,119.2l-4.2-9.6l11.7-7c2.3-1.9,6.1-2.1,10.1,0.2l315.1,179.7c4.2,2.6,8.2,7.3,10.8,12.6
      l0.5,1.6L531.1,308L467.7,265.7z"
    />
                <path
      class="st6"
      d="M551.7,306.4l-16.8,10.1l1.4,6.3l15.4-9.6V306.4z"
    />
                <path
      class="st7"
      d="M216.3,97.7c3-2.3,7.5-2.3,11.7,0l315.1,179.7c8.2,4.7,14.7,17.1,14.7,27.8v259.2c0,6.1-2.1,10.8-5.8,12.6
      l-15.7,9.4l-15.7-22.5l-294-167.5c-8.2-4.7-14.7-17.1-14.7-27.8V124.8l-12.2-17.3L216.3,97.7z M214.6,123.9v244.7
      c0,9.8,6.1,21.1,13.3,25.3l294.3,167.7l14.7,20.8l3-1.9l0.7-0.2l11.5-7c1.6-0.9,2.6-2.6,2.6-4.4V305.2c0-9.8-6.1-21.1-13.3-25.3
      L226.6,100.3c-3.3-1.9-6.3-1.9-8.7-0.2l-14,8.4L214.6,123.9z"
    />
                <path
      class="st7"
      d="M303.8,499.3l63.9-36.3c6.1-3.5,16.6-3,23.6,0.9l38.8,22.2l18.5,8.2v8.4h-0.2c-0.5,2.1-1.9,4.2-4.4,5.6
      l-78.6,44.7c-2.8,1.6-6.6,2.3-10.3,2.3c-4.7,0-9.4-1.2-13.3-3.3L290.4,523c-3.7-2.1-5.8-4.9-6.1-8.2c0-0.2,0-0.5,0-0.7v-6.6
      L303.8,499.3z"
    />
                <path
      class="st6"
      d="M443.2,500.8l-78.6,44.7c-5.6,3.3-15.7,2.8-22.2-0.9l-51.2-29.2c-6.5-3.7-7.3-9.4-1.6-12.6l78.8-44.7
      c5.6-3.3,15.7-2.8,22.2,0.9l51.2,29.2C448.3,491.9,449,497.5,443.2,500.8z"
    />
                <path
      class="st6"
      d="M298.2,509.2l21.3-12.6c7-4.2,15.7-4.2,22.7-0.2l53.6,30.6l-32.3,18.5c-5.6,3.3-15.7,2.8-22.2-0.9l-41.4-22.7
      C293.2,518.1,292.5,512.5,298.2,509.2z"
    />
                <path
      class="st7"
      d="M355,549.2c4,0,7.5-0.7,10.3-2.3l78.8-44.7c3-1.6,4.7-4.2,4.7-6.8c0-3-2.3-6.3-6.1-8.4l-51.2-29.2
      c-7-4-17.5-4.4-23.6-0.9l-78.6,44.7c-3,1.6-4.7,4.2-4.7,6.8c0,3,2.3,6.3,6.1,8.4l51.2,29.2C345.4,548,350.3,549.2,355,549.2z
       M442.5,499.4L363.6,544c-5.4,3-14.5,2.6-20.8-0.9l-51.2-29.2c-3-1.6-4.7-3.7-4.7-5.8c0-2.1,1.6-3.5,3-4.2l78.6-44.7
      c5.4-3,14.5-2.6,20.8,0.9l51.2,29.2c3,1.6,4.7,3.7,4.7,5.8C445.5,497.2,443.9,498.6,442.5,499.4z"
    />
                <path
      class="st7"
      d="M201.8,106.4c3-1.9,6.8-1.4,10.8,0.7l315.1,179.7c8.2,4.7,14.7,17.1,14.7,27.8v259.2c0,5.8-2.3,8.4-4.2,9.6
      c-1.2,0.7-2.8,1.2-4.4,1.2c-2.6,0-5.8-0.9-8.9-2.8L210.9,405.8c-8.2-4.7-14.7-17.1-14.7-27.8V118.8
      C196.2,112.9,198.3,108.2,201.8,106.4z"
    />
                <path
      class="st6"
      d="M197.6,347.8v31.3c0,9.6,6.8,21.1,15.2,26l313,178.5c8.4,4.7,15.2,0.9,15.2-8.7v-31.3L197.6,347.8z"
    >
                </path>
                <path
      class="st7"
      d="M532.5,587.1c1.6,0,3.3-0.5,4.7-1.2c3.3-1.9,5.1-5.8,5.1-11v-32.3l-0.7-0.5l-345.5-197v33.9
      c0,10.1,7,22.2,15.9,27.1l313,178.5C527.6,586.4,530.2,587.1,532.5,587.1z M539.3,544.5v30.6c0,4-1.4,7-3.7,8.4
      c-2.3,1.4-5.6,0.9-9.4-0.9L213.5,403.9c-8-4.4-14.3-15.4-14.3-24.6v-28.8L539.3,544.5z"
    />
                <path
      class="st6"
      d="M520.4,512.2L218.1,339.8c-2.8-1.6-4.9-5.8-4.9-9.4V132.6c0-3.5,2.3-5.4,4.9-3.7l302.2,172.4
      c2.8,1.6,4.9,5.8,4.9,9.4v197.9C525.3,512.2,523.2,513.9,520.4,512.2z"
    />
                <path
      class="st7"
      d="M522.5,514.3c0.7,0,1.4-0.2,2.1-0.5c1.6-0.9,2.3-2.8,2.3-5.1V310.6c0-4.2-2.6-8.9-5.6-10.8L218.8,127.6
      c-1.6-0.9-3.3-0.9-4.7-0.2c-1.6,0.9-2.3,2.8-2.3,5.1v197.9c0,4.2,2.6,8.9,5.6,10.8l302.2,172.4
      C520.6,514.1,521.5,514.3,522.5,514.3z M216.3,129.7c0.5,0,0.9,0.2,1.2,0.5l302.2,172.4c2.3,1.4,4.2,4.9,4.2,8.2v197.9
      c0,1.4-0.5,2.3-0.9,2.6c-0.5,0.2-1.4,0-1.9-0.2L218.8,338.6c-2.3-1.4-4.2-4.9-4.2-8.2V132.6c0-1.4,0.5-2.3,0.9-2.6
      C215.8,129.7,216,129.7,216.3,129.7z"
    />
                <path class="st8" d="M240.4,166.8h-0.5v163.4h0.5V166.8z" />
                <path class="st8" d="M258,176.9h-0.5v163.4h0.5V176.9z" />
                <path class="st8" d="M275.6,187h-0.5v163.4h0.5V187z" />
                <path class="st8" d="M293.2,197.1h-0.5v163.4h0.5V197.1z" />
                <path class="st8" d="M310.9,207.2h-0.5v163.4h0.5V207.2z" />
                <path class="st8" d="M328.5,217.6H328V381h0.5V217.6z" />
                <path class="st8" d="M346.1,227.7h-0.5v163.4h0.5V227.7z" />
                <path class="st8" d="M363.7,237.8h-0.5v163.4h0.5V237.8z" />
                <path class="st8" d="M381.4,248h-0.5v163.4h0.5V248z" />
                <path class="st8" d="M399,258.1h-0.5v163.4h0.5V258.1z" />
                <path class="st8" d="M416.6,268.2h-0.5v163.4h0.5V268.2z" />
                <path class="st8" d="M434.2,278.6h-0.5v163.4h0.5V278.6z" />
                <path class="st8" d="M451.8,288.7h-0.5V452h0.5V288.7z" />
                <path class="st8" d="M469.5,298.8H469v163.4h0.5V298.8z" />
                <path class="st8" d="M487.1,308.9h-0.5v163.4h0.5V308.9z" />
                <path
      class="st8"
      d="M486.9,308.4L239.9,167l0.2-0.5l247,141.7L486.9,308.4z"
    />
                <path
      class="st8"
      d="M486.9,328.9l-247-141.7l0.2-0.5l247,141.7L486.9,328.9z"
    />
                <path
      class="st8"
      d="M486.9,349.2l-247-141.7l0.2-0.2l247,141.4L486.9,349.2z"
    />
                <path
      class="st8"
      d="M486.9,369.4L239.9,228l0.2-0.5l247,141.7L486.9,369.4z"
    />
                <path
      class="st8"
      d="M486.9,389.9l-247-141.7l0.2-0.5l247,141.7L486.9,389.9z"
    />
                <path
      class="st8"
      d="M486.9,410.1l-247-141.7l0.2-0.2l247,141.4L486.9,410.1z"
    />
                <path
      class="st8"
      d="M486.9,430.4l-247-141.4l0.2-0.5l247,141.7L486.9,430.4z"
    />
                <path
      class="st8"
      d="M486.9,450.8l-247-141.7l0.2-0.5l247,141.7L486.9,450.8z"
    />
                <path
      class="st8"
      d="M486.9,471.8L240.1,330.1l0.2-0.5l246.7,141.7L486.9,471.8z"
    />
                <path
      class="st3"
      d="M306.2,292.8l-12.7-68.1c-8.8-2.8-17.1-2.5-24,0.8l-0.8,0.3c-0.3,0.3-0.6,0.3-0.8,0.6l-11.6,6.1l1.4,4.4
      c-0.8,1.4-1.7,3-2.5,4.7c-10.5,26.2,3.6,70.6,31.8,99c14.4,14.3,29.3,21.8,42,22.3l2.5,3.3l10.5-5.5c1.1-0.6,2.5-1.1,3.6-1.9
      c4.7-3,8.6-8,11.3-14.3c1.4-3.6,2.5-7.4,3-11.6L306.2,292.8z"
    />
                <path
      class="st2"
      d="M305.9,296.1l-12.7-68.4c-8.8-2.8-17.1-2.5-24,0.8l-0.6,0.3c-0.3,0.3-0.6,0.3-0.8,0.6l-11.6,6.3l1.4,4.1
      c-0.8,1.4-1.7,3-2.5,5c-10.5,26.2,3.6,70.6,31.8,99c14.4,14.3,29.3,21.8,42,22.3l-0.6-5.5l-5.3-6.9c1.1-0.6,8.8,2.8,10,1.9
      l-8.3-4.1l1.9,0.3c4.7-3-2.5,1.7,0-5c1.4-3.6,0.3-3.9,0.8-8L305.9,296.1z"
    />
                <path
      class="st9"
      d="M331.3,367.8l-3-3.6c-13.3-0.8-28.5-8.8-42.3-22.6c-28.5-28.7-42.8-73.9-32.1-100.6c0.6-1.4,1.4-2.8,2.2-4.4
      l-1.7-4.7l12.4-6.6c0.3,0,0.6-0.3,0.8-0.6l1.9-1.1c6.9-3,15.2-3,23.8-0.6l0.8,0.3l13,68.6l54.2,39.7v0.8c-0.6,4.4-1.7,8.5-3,12.1
      c-2.5,6.6-6.6,11.6-11.6,14.9l-0.3,0.3c-1.1,0.8-2.5,1.4-3.6,1.9L331.3,367.8z M257.8,233.3l1.1,3.6l-0.3,0.6
      c-0.8,1.7-1.7,3-2.2,4.7c-10.2,25.9,3.9,69.5,31.5,97.6c13.5,13.8,28.2,21.5,41.2,21.8h0.6l2.2,2.8l9.4-5c1.4-0.6,2.5-1.1,3.3-1.7
      c4.7-3,8.3-7.7,10.8-13.8c1.4-3,2.2-6.6,2.8-10.5l-53.3-39.7l-12.7-67.8c-8.3-2.2-16-1.9-22.4,1.1l-0.6,0.3
      c-0.6,0.3-0.6,0.3-0.8,0.6L257.8,233.3z"
    />
                <path
      class="st3"
      d="M293.7,299.4L281,231.3c-17.1-5-31.8,0.6-38.4,16.8c-10.5,26.5,3.9,70.6,32.1,99c28.2,28.4,59.4,30,69.9,3.6
      c1.4-3.6,2.5-7.4,3-11.6L293.7,299.4z"
    />
                <path
      class="st9"
      d="M318,370.8c-13.8,0-29.9-8.3-44.5-22.9c-28.5-28.4-42.8-73.6-32.1-100.3c6.6-16.5,21.6-23.2,39.8-17.6l0.8,0.3
      l12.7,68.4l54.2,39.7v0.8c-0.6,4.4-1.7,8.5-3,12.1c-4.1,10.5-11.6,16.8-21.3,19C322.2,370.5,320.3,370.8,318,370.8z M269.4,230.8
      c-11.6,0-20.7,6.3-25.4,17.9c-10.2,25.9,3.9,69.5,31.5,97.6c16,16.3,34.3,24.3,48.4,21.5c8.8-1.9,15.8-7.7,19.3-17.4
      c1.4-3,2.2-6.6,2.8-10.5l-53.6-39.7l-12.7-67.8C276,231.3,272.7,230.8,269.4,230.8z"
    />
                <path
      class="st9"
      d="M281,231.3l12.4-6.6l12.7,68.1l-12.4,6.6L281,231.3z"
    />
                <path
      class="st3"
      d="M347.3,339.1l12.4-6.6l-53.6-39.7l-12.4,6.6L347.3,339.1z"
    />
                <path
      class="st2"
      d="M347.3,339.1l6.1-3.3l-49.5-36.4l-7.5,3.9L347.3,339.1z"
    />
                <path
      class="st9"
      d="M363.4,331.7L307.3,292l-13-69.5l-14.9,8l12.7,68.1l0.3,1.4l1.1,0.8l53.9,39.7L363.4,331.7z M282.4,232.2
      l9.9-5.2l12.2,65.3l-10,5.2L282.4,232.2z M305.9,294.5l51.4,37.8l-9.7,5.2l-51.4-37.8L305.9,294.5z"
    />
                <path
      class="st3"
      d="M369.7,311.8c-1.1-13.8-6.1-28.9-13.5-43c-5.8-10.5-13-20.7-21.3-29.2c-10.5-10.8-21.6-17.6-31.8-20.7
      l-12.4,6.6l12.4,27.6l8.8,13l3.9,20.7c0,0.3,0.3,0.3,0.6,0.3c-0.3,0-0.3,0.3,0,0.6l19.9,14.6l20.7,31.2l12.4-6.6
      C370.3,322,370.3,317.1,369.7,311.8z"
    />
                <path
      class="st2"
      d="M370,317.3c-1.1-13.8-6.1-28.9-13.5-43c-5.8-10.5-13-20.7-21.3-29.2c-10.5-10.8-21.6-17.6-31.8-20.7l-12.4,6.6
      l12.4,27.6l8.8,13l3.9,20.7c0,0.3,0.3,0.3,0.6,0.3c-0.3,0-0.3,0.3,0,0.6l19.9,14.6l21,24.5l12.2-5.5
      C370.3,322,370.6,322.6,370,317.3z"
    />
                <path
      class="st9"
      d="M356.7,335.3L335.2,303l-20.7-15.2l0.3-0.3c0-0.3-0.3-0.3-0.3-0.6l-3.9-20.4l-8.6-12.7L288.7,225l14.1-7.4
      l0.6,0.3c10.8,3.3,21.8,10.5,32.3,21c8.3,8.5,15.8,18.5,21.6,29.5c7.7,14.3,12.4,29.8,13.8,43.6c0.6,5.5,0.3,10.5-0.3,15.2v0.8
      L356.7,335.3z M320.8,289.2l16.6,12.1l20.5,30.3l10.8-5.8c0.6-4.4,0.6-9.1,0-14.1c-1.1-13.5-6.1-28.7-13.5-42.5
      c-5.8-10.8-13-20.7-21.3-28.9c-10-9.9-20.5-16.8-30.7-20.1l-10.8,5.8l11.9,26.5l8.8,13.2l3.9,20.4l5.5,3H320.8z M316.4,287l0.6-0.6
      c0,0,0,0,0-0.3c0-0.3-0.3-0.3-0.6-0.3s-0.6-0.3-0.8,0l1.1,0.6L316.4,287z"
    />
                <path
      class="st3"
      d="M303.7,293.6l40.1-18.2c-5.8-10.5-13-20.7-21.3-29.2c-10.8-10.8-21.6-17.6-31.8-20.7l12.7,67.8
      C303.4,293.6,303.4,293.6,303.7,293.6z"
    />
                <path
      class="st9"
      d="M303.7,295c-0.3,0-0.6,0-0.8-0.3c-0.6-0.3-0.8-0.6-0.8-1.1l-13.3-70l2.2,0.6c10.8,3.3,21.8,10.5,32.3,21
      c8.3,8.5,15.8,18.5,21.6,29.5l0.6,1.4l-41.2,18.7C303.9,295,303.7,295,303.7,295z M292.3,227.5l11.9,64.5l37.6-17.1
      c-5.5-10.2-12.7-19.8-20.5-27.6C312,237.7,302,231.1,292.3,227.5z"
    />
                <path
      class="st3"
      d="M357,333.3c0.6-4.7,0.6-9.6,0.3-14.9l-53.6-24.3L357,333.3z"
    />
                <path
      class="st9"
      d="M358.1,335.8l-56.4-41.4l1.1-2.2l1.1,0.6l54.5,24.8v0.8c0.6,5.5,0.3,10.5-0.3,15.2V335.8z M314.7,300.5
      l41.5,30.6c0.3-3.6,0.3-7.4,0-11.6L314.7,300.5z"
    />
                <path
      class="st3"
      d="M303.7,293.9l53.6,24.3c-1.1-13.8-6.1-28.9-13.5-43l-40.1,18.2C303.7,293.6,303.7,293.9,303.7,293.9z"
    >
                </path>
                <path
      class="st2"
      d="M310.9,298l42.6,19.3c-2.5-14.1-4.1-19.8-10.8-33.1L310.9,298z"
    />
                <path
      class="st9"
      d="M359,320.6L302.6,295l-0.3-1.9l0.8-0.6l41.2-18.7l0.6,1.1c7.7,14.3,12.4,29.8,13.8,43.6L359,320.6z
       M306.4,293.9l49.2,22.3c-1.4-12.4-5.8-26.2-12.7-39.1L306.4,293.9z"
    />
                <path
      class="st7"
      d="M351.5,292.8l12.7-6.3l4.7,18.2l1.1,19.6l-1.1,3l-10.5,5.8l-1.7-19L351.5,292.8z"
    >
                </path>
                <path
      class="st7"
      d="M338.8,362.3l10.2-6.1l6.4-8.5l3.6-10.5l0.8-4.7l-12.4,6.6l-4.4,15.7L338.8,362.3z"
    >
                </path>
                <g class="floating-2">
                  <path
        class="st3"
        d="M498.4,338l-53.9-31.1c-1-0.6-2.1-0.6-2.7-0.2c-0.2,0-0.2,0.2-0.4,0.2l-7.8,4.7c-0.4,0.2-0.4,0.6-0.2,1
        l4.3,7.6v29.4c0,3.3,1.9,7,4.5,8.6l42.4,24.5l8.4,10.5l8.4-5.1c1-0.6,1.6-1.8,1.6-3.7v-37.8C502.9,343.3,501,339.6,498.4,338z"
      >
                  </path>
                  <path
        class="st2"
        d="M498.1,341.3l-53.7-31.1c-1-0.6-2.1-0.6-2.7-0.2c-0.2,0-0.2,0.2-0.4,0.2l-7.8,4.7c-0.4,0.2-0.4,0.6-0.2,1
        l4.3,7.6v29.4c0,3.3,1.9,7,4.5,8.6l42.4,24.5l4.5,3.7l9-1.8c1-0.6,4.9,1.8,4.9-0.2v-37.8C502.5,346.6,500.6,342.7,498.1,341.3z"
      >
                  </path>
                  <path
        class="st9"
        d="M492.6,394.3l-8.8-11.1l-42.2-24.3c-2.7-1.6-4.9-5.6-4.9-9.3v-29.2l-4.1-7.4c-0.4-0.8-0.2-1.8,0.6-2.1
        l7.8-4.7c0,0,0.2-0.2,0.4-0.2c1.2-0.6,2.3-0.4,3.7,0.4l53.9,31.1c2.7,1.6,4.9,5.6,4.9,9.3v37.8c0,2.1-0.8,3.9-2.1,4.5L492.6,394.3
        z M434.4,312.3l4.3,7.6v29.8c0,2.9,1.8,6.4,3.9,7.8l42.6,24.7l7.8,9.9l7.6-4.7c0.8-0.4,1.2-1.4,1.2-2.9v-37.8
        c0-2.9-1.8-6.4-3.9-7.8L444,307.8c-0.6-0.4-1.4-0.6-1.9-0.2c0,0-0.2,0-0.2,0.2L434.4,312.3z"
      />
                  <path
        class="st3"
        d="M489.9,392.9L436,361.7c-2.5-1.4-4.5-5.3-4.5-8.6v-37.8c0-3.3,1.9-4.9,4.5-3.3l53.9,31.1
        c2.5,1.4,4.5,5.3,4.5,8.6v37.8C494.4,392.7,492.4,394.2,489.9,392.9z"
      />
                  <path
        class="st9"
        d="M491.6,394.5c-0.8,0-1.6-0.2-2.3-0.6l-53.9-31.1c-2.5-1.8-4.7-5.8-4.7-9.5v-37.8c0-2.1,0.8-3.7,1.9-4.5
        c1.2-0.6,2.5-0.6,3.9,0.2l53.9,31.1c2.7,1.6,4.9,5.6,4.9,9.3v37.8c0,2.1-0.8,3.7-1.9,4.5C492.8,394.3,492.2,394.5,491.6,394.5z
         M490.5,392.1c0.6,0.4,1.4,0.6,1.9,0.2c0.6-0.4,1-1.4,1-2.7v-37.8c0-2.9-1.8-6.4-3.9-7.8l-53.9-31.1c-0.6-0.4-1.4-0.6-1.9-0.2
        c-0.6,0.4-1,1.4-1,2.7v37.8c0,2.9,1.8,6.4,3.9,7.8L490.5,392.1z"
      />
                  <path
        class="st2"
        d="M466,374.4l-4.3-2.5c-1-0.6-1.9-2.3-1.9-3.7v-28.4c0-1.4,0.8-2.1,1.9-1.4l4.3,2.5c1,0.6,1.9,2.3,1.9,3.7V373
        C467.9,374.4,466.9,375,466,374.4z"
      />
                  <path
        class="st9"
        d="M464.6,371.1c-0.4,0-0.8-0.2-1.2-0.4l-4.3-2.5c-1.4-0.8-2.3-2.7-2.3-4.5v-28.4c0-1.2,0.4-1.9,1.2-2.3
        c0.6-0.4,1.4-0.4,2.1,0.2l4.3,2.5c1.4,0.8,2.3,2.7,2.3,4.5v28.4c0,1.2-0.4,1.9-1.2,2.3C465.2,370.9,464.8,371.1,464.6,371.1z
         M458.8,334.5c0,0-0.2,0.2-0.2,0.8v28.4c0,1.2,0.6,2.3,1.4,2.9l4.3,2.5c0.2,0.2,0.2,0.2,0.4,0.2c0,0,0.2-0.2,0.2-0.8v-28.4
        c0-1.2-0.6-2.3-1.4-2.9l-4.3-2.5C458.8,334.5,458.8,334.5,458.8,334.5z"
      />
                  <path
        class="st2"
        d="M478,381.4l-5.1-2.9c-0.8-0.6-1.6-1.8-1.6-2.9v-18.7c0-1.2,0.8-1.8,1.6-1.2l5.1,2.9c0.8,0.6,1.6,1.8,1.6,2.9
        V380C479.6,381.4,478.8,381.8,478,381.4z"
      />
                  <path
        class="st9"
        d="M476.5,377.9c-0.4,0-0.8-0.2-1.2-0.4l-5.1-2.9c-1.2-0.6-2.1-2.3-2.1-3.9v-18.5c0-1,0.4-1.8,1-2.1
        c0.6-0.4,1.4-0.4,1.9,0l5.1,2.9c1.2,0.6,2.1,2.3,2.1,3.9v18.5c0,1-0.4,1.8-1,2.1C477,377.9,476.9,377.9,476.5,377.9z M476.3,375.9
        C476.3,375.9,476.5,375.9,476.3,375.9c0,0,0.2-0.2,0.2-0.4v-18.5c0-1-0.6-1.9-1.2-2.1l-5.1-2.9c0,0-0.2,0-0.2,0.4v18.5
        c0,1,0.6,1.9,1.2,2.1L476.3,375.9z"
      />
                  <path
        class="st2"
        d="M455.3,368.2l-5.5-3.1c-0.8-0.4-1.4-1.6-1.4-2.5v-7.2c0-1,0.6-1.6,1.4-1l5.5,3.1c0.8,0.4,1.4,1.6,1.4,2.5v7.2
        C456.6,368,456,368.6,455.3,368.2z"
      />
                  <path
        class="st9"
        d="M453.5,364.7c-0.4,0-0.8,0-1-0.2l-5.4-3.1c-1-0.6-1.8-2.1-1.8-3.5v-7.2c0-1,0.4-1.6,1-1.9
        c0.6-0.4,1.2-0.2,1.8,0l5.4,3.1c1,0.6,1.8,2.1,1.8,3.5v7.2c0,1-0.4,1.6-1,1.9C454.1,364.7,453.9,364.7,453.5,364.7z M447.3,350.5
        C447.1,350.5,447.1,350.7,447.3,350.5v7.4c0,0.8,0.4,1.6,1,1.8l5.3,3.1c0,0,0,0,0-0.2v-7.2c0-0.8-0.4-1.6-1-1.8L447.3,350.5z"
      >
                  </path>
                </g>
                <path
      class="st2"
      d="M200.3,332.3l-25.5-14.7c-1.8-1.1-3.3-3.7-3.3-5.9V290c0-2.2,1.5-3.3,3.3-2.6l25.5,14.7
      c1.8,1.1,3.3,3.7,3.3,5.9v21.7C203.6,332.3,202.1,333.4,200.3,332.3z"
    />
                <g class="floating-3">
                  <g>
                    <path
          class="st2"
          d="M224,353.6L176.6,326c-0.7-0.4-1.1-0.4-1.8,0c0,0,0,0-0.4,0l-12,7.4l11.3,19.1v-6.3c0,1.8,1.1,4,2.6,5.2
          l24.4,14.4l12.4,20.6l12.4-7.4c0.4-0.4,0.7-1.1,0.7-2.2v-18.8C226.6,357,225.5,354.8,224,353.6z"
        />
                    <path
          class="st1"
          d="M213.4,388.6l-1.5-0.4l-0.4-0.7l-11.7-20.2l-24.1-14c0,0-0.4,0-0.4-0.4h-2.9h1.5l-1.5,0.7l-11.7-19.9
          l0.4-1.5l0.7-0.4l12.4-7.4c1.1-0.4,2.2-0.4,3.3,0l47.4,27.6c1.8,1.1,3.3,4,3.3,6.3v19.1c0,1.5-0.4,2.6-1.5,3.3L213.4,388.6z
           M172.6,346.7h2.9c0,1.5,1.1,3.3,1.8,3.7l24.8,14.4l0.4,0.4l11.7,19.5l10.9-6.6c0,0,0-0.4,0-0.7v-18.8c0-1.5-1.1-3.3-1.8-3.7
          l-47.4-27.6h-0.4l-10.9,6.6l8,13.6V346.7z"
        />
                    <path
          class="st1"
          d="M198.8,359.2l0.4,5.5l1.8,1.1l12,20.6h0.4l12-7.4c0.4-0.4,0.7-1.1,0.7-2.2v-18.4c0,0,0,0-0.4,0l-12,7.4
          L198.8,359.2z"
        />
                    <path
          class="st1"
          d="M213.8,388.3l-1.5-0.4l-12.4-20.6l-2.2-1.5l-0.4-7l1.1-1.5l16.1,7l12-7.4l1.5,0.7v1.1v18.4
          c0,1.5-0.4,2.6-1.5,3.3L213.8,388.3z M200.6,364l1.5,0.7l0.4,0.4l11.7,19.5l10.9-6.6c0,0,0-0.4,0-0.7v-15.8l-9.9,5.9l-0.4,0.7
          l-14.6-6.6L200.6,364z"
        />
                    <path
          class="st3"
          d="M211.6,386.8l-47.4-27.6c-1.5-0.7-2.6-2.9-2.6-5.2v-18.8c0-1.8,1.1-2.9,2.6-1.8l47.4,27.6
          c1.5,0.7,2.6,2.9,2.6,5.2v18.8C214.1,386.8,213.1,387.5,211.6,386.8z"
        />
                    <path
          class="st1"
          d="M212.7,388.6c-0.7,0-1.1,0-1.8-0.4l-47.4-27.6c-1.8-1.1-3.3-4-3.3-6.3v-18.8c0-1.5,0.7-2.9,1.8-3.3
          c1.1-0.4,2.2-0.4,3.3,0l47.4,27.6c1.8,1.1,3.3,4,3.3,6.3v18.8c0,1.5-0.7,2.9-1.8,3.3C213.8,388.6,213.1,388.6,212.7,388.6z
           M212.3,385.3C212.7,385.7,212.7,385.7,212.3,385.3c0.4,0,0.4,0,0.4-0.7v-18.8c0-1.5-1.1-3.3-1.8-3.7l-47.4-27.2h-0.4
          c0,0,0,0.4,0,0.7v18.8c0,1.5,1.1,3.3,1.8,3.7L212.3,385.3z"
        />
                    <path
          class="st1"
          d="M182.4,329.5l-11.8,7.4l1.5,2.5l11.8-7.4L182.4,329.5z"
        />
                    <path
          class="st3"
          d="M225.2,369.8l-10.3,6.3l1.1,1.9l10.3-6.3L225.2,369.8z"
        />
                  </g>
                  <g>
                    <path
          class="st2"
          d="M223.3,286.7l-47.4-27.6c-0.7-0.4-1.1-0.4-1.8,0c0,0,0,0-0.4,0l-12,7.4l11.3,19.1v26.5c0,1.8,1.1,4,2.6,5.2
          l24.4,14.4l12.4,20.6l12.4-7.4c0.4-0.4,0.7-1.1,0.7-2.2v-50.8C226.2,290,224.7,287.4,223.3,286.7z"
        />
                    <path
          class="st1"
          d="M212.3,354.4l-1.1-1.5l-12-20.2l-23.7-14c-1.8-1.1-3.3-4-3.3-6.3v-26.1l-12-20.2l1.5-0.7L174,258
          c1.1-0.4,2.2-0.4,3.3,0l47.4,27.6c1.8,1.1,3.3,4,3.3,6.3V343c0,1.5-0.4,2.6-1.5,3.3L212.3,354.4z M164.2,267.2l10.9,18.4v0.4
          v26.5c0,1.5,1.1,3.3,1.8,3.7l24.8,14.4l0.4,0.4l11.7,19.5l10.9-6.6c0,0,0-0.4,0-0.7v-51.2c0-1.5-1.1-3.3-1.8-3.7l-47.4-27.6h-0.4
          L164.2,267.2z"
        />
                    <path
          class="st1"
          d="M198.4,324.6C198.4,324.9,198.4,324.9,198.4,324.6l0.4,5.5l1.8,1.1l12,20.6h0.4l12-7.4
          c0.4-0.4,0.7-1.1,0.7-2.2v-50.1c0,0,0,0-0.4,0l-12,7.4L198.4,324.6z"
        />
                    <path
          class="st1"
          d="M213.4,354l-1.5-0.4l-12.4-21l-2.2-1.5l-0.4-7l0.4-0.4l15.7-25.8l0.4-0.4l12.8-7.7l1.8,0.7v1.1v50.8
          c0,1.5-0.4,2.6-1.5,3.3L213.4,354z M199.9,329.4l1.5,0.7l0.4,0.4l11.7,19.5l10.9-6.6c0,0,0-0.4,0-0.7v-48.2l-9.5,5.9l-15,25
          V329.4z"
        />
                    <path
          class="st3"
          d="M211.2,352.2l-47.4-27.6c-1.5-0.7-2.6-2.9-2.6-5.2v-50.8c0-1.8,1.1-2.9,2.6-1.8l47.4,27.6
          c1.5,0.7,2.6,2.9,2.6,5.2v51.2C213.8,352.2,212.7,352.9,211.2,352.2z"
        />
                    <path
          class="st1"
          d="M212.3,354c-0.7,0-1.1,0-1.8-0.4l-47.4-27.6c-1.8-1.1-3.3-3.7-3.3-6.3v-51.2c0-1.5,0.7-2.9,1.8-3.3
          c1.1-0.4,2.2-0.4,3.3,0l47.4,27.6c1.8,1.1,3.3,4,3.3,6.3v51.2c0,1.5-0.7,2.9-1.8,3.3C213.1,354,212.7,354,212.3,354z M212,351.1
          C212,351.1,212.3,351.1,212,351.1c0.4,0,0.4,0,0.4-0.7v-51.2c0-1.5-1.1-3.3-1.8-3.7l-47.4-27.6h-0.4c0,0,0,0.4,0,0.7v51.2
          c0,1.5,1.1,3.3,1.8,3.7L212,351.1z"
        />
                    <path
          class="st1"
          d="M182.1,262.5l-11.8,7.4l1.5,2.5l11.8-7.4L182.1,262.5z"
        />
                    <path
          class="st3"
          d="M224.8,335.2l-10.3,6.3l1.1,1.9l10.3-6.3L224.8,335.2z"
        />
                    <path
          class="st1"
          d="M201.4,334.1c-0.7,0-1.5-0.4-1.8-0.7L174,318.7c-2.2-1.1-4-4.4-4-7.4v-21.7c0-1.8,0.7-3.3,1.8-4
          c1.1-0.7,2.2-0.4,3.6,0l25.5,14.7c2.2,1.1,4,4.4,4,7.4v22.1c0,1.8-0.7,3.3-1.8,4C202.5,334.1,202.1,334.1,201.4,334.1z
           M173.6,288.5c0,0-0.4,0.4-0.4,1.1v21.7c0,1.8,1.1,4,2.6,4.8l25.5,14.7c0.4,0.4,0.4,0.4,0.7,0c0,0,0.4-0.4,0.4-1.1V308
          c0-1.8-1.1-4-2.6-4.8l-25.5-14.7C173.6,288.5,173.6,288.5,173.6,288.5z"
        />
                    <path
          class="st1"
          d="M188.2,313.9c-1.1,0-2.2-0.7-2.9-2.2l-14.2-23.9l2.6-1.5l14.2,23.9c0,0.4,0.4,0.4,0.4,0.4l13.9-7.4l1.5,2.6
          l-14.2,7.4C189,313.9,188.6,313.9,188.2,313.9z"
        />
                  </g>
                  <g>
                    <path
          class="st2"
          d="M223.3,219.3l-47.4-27.6c-0.4-0.4-0.7-0.4-1.5,0c0,0,0,0-0.4,0l-12,7.4l11.3,19.1v26.5c0,1.8,1.1,4,2.6,5.2
          l24.4,14.4l12.4,20.6l12.4-7.4c0.4-0.4,0.7-1.1,0.7-2.2v-50.8C226.2,222.2,224.7,220,223.3,219.3z"
        />
                    <path
          class="st1"
          d="M212.3,287l-0.7-1.5l-12-20.2l-24.1-14c-1.8-1.1-3.3-4-3.3-6.3v-26.1l-11.7-19.5l0.4-1.5l0.7-0.4l12.4-7.4
          c0.7-0.4,1.8-0.4,2.9,0l47.4,27.6c1.8,1.1,3.3,4,3.3,6.3v51.2c0,1.5-0.4,2.6-1.5,3.3L212.3,287z M164.2,199.4l10.9,18.4v0.4v26.5
          c0,1.5,1.1,3.3,1.8,3.7l24.8,14.4l0.4,0.4l11.7,19.5l10.9-6.6c0,0,0-0.4,0-0.7v-50.8c0-1.5-1.1-3.3-1.8-3.7l-47.4-27.6h-0.4
          L164.2,199.4z"
        />
                    <path
          class="st1"
          d="M198.4,257.2l0.4,5.5l1.8,1.1l12,20.6h0.4l12-7.4c0.4-0.4,0.7-1.1,0.7-2.2v-50.4c0,0,0,0-0.4,0l-12,7.4
          L198.4,257.2z"
        />
                    <path
          class="st1"
          d="M213.4,286.3l-1.5-0.4l-12.4-21l-2.2-1.5l-0.4-7l0.4-0.4l15.7-25.8l0.4-0.4l12.8-7.7l1.8,0.7v1.1v50.8
          c0,1.5-0.4,2.6-1.5,3.3L213.4,286.3z M199.9,262l1.5,0.7l0.4,0.4l11.7,19.5l10.9-6.6c0,0,0-0.4,0-0.7V227l-9.9,5.9l-14.6,24.7
          V262z"
        />
                    <path
          class="st3"
          d="M211.2,284.8l-47.4-27.6c-1.5-0.7-2.6-2.9-2.6-5.2v-51.2c0-1.8,1.1-2.9,2.6-1.8l47.4,27.6
          c1.5,0.7,2.6,2.9,2.6,5.2V283C213.8,284.8,212.7,285.6,211.2,284.8z"
        />
                    <path
          class="st1"
          d="M212.3,286.7c-0.7,0-1.1,0-1.8-0.4l-47.4-27.6c-1.8-1.5-3.3-4-3.3-6.6v-51.2c0-1.5,0.7-2.9,1.8-3.3
          c0.7-0.7,1.8-0.4,2.9,0l47.4,27.6c1.8,1.1,3.3,4,3.3,6.3v51.2c0,1.5-0.7,2.9-1.8,3.3C213.1,286.3,212.7,286.7,212.3,286.7z
           M212,283.4C212,283.4,212.3,283.7,212,283.4c0.4,0,0.4,0,0.4-0.7v-51.2c0-1.5-1.1-3.3-1.8-3.7l-47.4-27.6h-0.4c0,0,0,0.4,0,0.7
          v51.2c0,1.5,1.1,3.3,1.8,3.7L212,283.4z"
        />
                    <path
          class="st1"
          d="M181.9,194.8l-11.8,7.4l1.5,2.5l11.8-7.4L181.9,194.8z"
        />
                    <path
          class="st3"
          d="M224.6,267.5l-10.3,6.3l1.1,1.9l10.3-6.3L224.6,267.5z"
        />
                    <path
          class="st2"
          d="M199.6,235.9c-5.1-8.5-10.6-4-11.7-2.9h-0.4c-1.1-2.6-6.9-13.6-12-11c-6.6,3.3,1.5,17.3,1.5,17.3l10.6,20.6
          c0,0,0.4,0.4,0.4,0l10.6-8.5C198.1,251.3,205.8,246.5,199.6,235.9z"
        />
                    <path
          class="st1"
          d="M187.9,261.6h-0.7c-0.4,0-1.1-0.4-1.1-1.1l-10.2-20.6c-0.4-1.1-5.5-9.9-3.6-15.5c0.4-1.5,1.5-2.9,2.9-3.7
          c5.5-2.6,10.9,5.5,13.1,9.9c1.1-0.7,3.3-1.5,5.5-1.1c2.6,0.4,5.1,2.2,7.3,5.9c7.3,11.8-1.8,17.7-1.8,17.7L187.9,261.6z
           M177.3,223c-0.4,0-0.7,0-0.7,0.4c-1.1,0.4-1.5,0.7-1.8,1.8c-1.1,3.7,2.2,10.7,3.6,13.3l9.9,19.1l9.1-7.4
          c0.4-0.4,6.6-4.4,1.1-13.6c-1.5-2.6-3.3-4-5.1-4.4c-2.2-0.4-4,1.1-4.4,1.5l-0.7,0.4h-0.7c-0.4,0-1.1-0.4-1.1-1.1
          C183.5,228.1,179.8,223,177.3,223z"
        />
                    <path
          class="st1"
          d="M184.1,236.6l-2.6,1.3l5.9,11.4l2.6-1.4L184.1,236.6z"
        />
                  </g>
                </g>
                <g>
                  <defs>
                    <rect
          id="SVGID_3_"
          x="447.3"
          y="441.5"
          width="88.3"
          height="89.4"
        />
                  </defs>
                  <clipPath id="SVGID_4_">
                    <use xlink:href="#SVGID_3_" style="overflow:visible;" />
                  </clipPath>
                  <g class="st10">
                    <path
          class="st2"
          d="M524.2,512l-12.7-7c-0.3-0.3-0.6-0.3-0.9,0l-9.9,6.1c-0.3,0-0.3,0.3,0,0.6l9.6,10.1c0,0,0,0,0,0.3v3.4
          c0,0.9,0.6,2.1,1.2,2.4l3.4-4l-0.6,5.5c0,0.3,0.3,0.3,0.6,0l9.9-6.1c0,0,0.3-0.6,0.3-0.9v-7.9C525.4,513.5,525.1,512.3,524.2,512
          z"
        />
                    <path
          class="st1"
          d="M514.9,530.6h-0.3c-0.3,0-0.9-0.3-0.9-0.6l-0.3-0.3l0.3-2.1l-1.5,1.8l-0.9-0.6c-1.2-0.6-1.9-2.1-1.9-3.7
          v-3.1l-9.6-10.1c-0.3-0.9-0.3-1.8,0.6-2.1l9.9-6.1c0.6-0.3,1.6-0.3,2.2,0l12.7,7c1.2,0.6,1.9,2.1,1.9,3.7v7.9
          c0,0.9-0.6,1.8-0.6,1.8l-0.3,0.3l-9.9,6.1C515.5,530.6,515.2,530.6,514.9,530.6z M514.5,522.1l0.9,0.6c0.3,0,0.6,0.3,0.6,0.6
          l0.3,0.3l-0.3,4l8.4-5.2v-7.6c0-0.6-0.3-1.2-0.6-1.5l-12.4-7l-9,5.5l9,9.5c0,0.3,0.3,0.6,0.3,0.9v3.4c0,0.3,0,0.3,0,0.6
          L514.5,522.1z"
        />
                    <path
          class="st1"
          d="M507.4,522.4c0,0,0,0.3,0,0.6l7.1,5.8c0.3,0.3,0.6,0.3,0.9,0.3l9.9-6.1c0,0,0.3-0.6,0.3-0.9v-7.3
          c0-0.3-0.3-0.3-0.3-0.3l-9.9,6.1L507.4,522.4z"
        />
                    <path
          class="st1"
          d="M515.2,530.6c-0.3,0-0.3,0-0.6,0s-0.9-0.3-0.9-0.6l-7.4-6.1l0.3-2.1l8.4-1.8l9.9-6.1c0.6-0.3,0.9-0.3,1.5,0
          c0.6,0.3,0.9,0.9,0.9,1.2v7.3c0,0.9-0.6,1.8-0.6,1.8l-0.3,0.3l-9.9,6.1C515.8,530.3,515.5,530.6,515.2,530.6z M509.6,523.3
          l5.6,4.6l9.3-5.5v-5.5l-8.1,4.9l-0.3,0.3L509.6,523.3z"
        />
                    <path
          class="st3"
          d="M513.9,529.4l-12.7-7c-0.6-0.3-1.2-1.5-1.2-2.4V512c0-0.9,0.6-1.5,1.2-0.9l12.7,7c0.6,0.3,1.2,1.5,1.2,2.4
          v7.9C515.2,529.4,514.5,530,513.9,529.4z"
        />
                    <path
          class="st1"
          d="M514.2,530.9c-0.3,0-0.9,0-1.2-0.3l-12.7-7c-1.2-0.6-1.9-2.1-1.9-3.7V512c0-0.9,0.3-1.8,1.2-2.1
          c0.6-0.3,1.5-0.3,2.2,0l12.7,7c1.2,0.6,1.9,2.1,1.9,3.7v7.9c0,0.9-0.3,1.8-1.2,2.1C515.2,530.9,514.9,530.9,514.2,530.9z
           M514.5,528.5l-0.6,1.2L514.5,528.5z M501.2,512.6v7.3c0,0.6,0.3,1.2,0.6,1.5l12.1,6.7v-7.3c0-0.6-0.3-1.2-0.6-1.5L501.2,512.6z"
        >
                    </path>
                    <path
          class="st1"
          d="M516.3,506.7l-10,6.1l1.3,2.1l10-6.1L516.3,506.7z"
        />
                    <path
          class="st3"
          d="M524.2,519.4l-8.8,5.2l1,1.6l8.8-5.2L524.2,519.4z"
        />
                    <path
          class="st2"
          d="M533.1,484.5L460.3,443c-0.3-0.3-0.6-0.3-0.9-0.3l-9.9,6.1c-0.3,0-0.3,0.3,0,0.6l9.3,10.4c0,0,0,0,0,0.3v3.4
          c0,0.9,0.6,2.1,1.2,2.4l3.4-4l59.8,40c0,0.3,0.3,0.3,0.6,0l9.9-6.1c0,0,0.3-0.6,0.3-0.9V487C534.4,486.1,533.8,484.8,533.1,484.5
          z"
        />
                    <path
          class="st1"
          d="M523.8,503.5h-0.3c-0.3,0-0.6-0.3-0.9-0.6l-58.9-39.4l-3.1,3.7l-0.9-0.3c-1.2-0.6-2.2-2.1-2.2-3.7v-3.1
          l-9.3-10.1c-0.6-0.6-0.3-1.5,0.6-2.1l9.9-6.1c0.6-0.3,1.5-0.3,2.2,0l72.8,41.5c1.2,0.6,1.9,2.1,1.9,3.7v7.9
          c0,0.9-0.6,1.8-0.6,1.8l-0.3,0.3l-9.9,6.1C524.5,503.1,524.2,503.5,523.8,503.5z M464.7,461l59.2,39.7l9.3-5.8v-7.6
          c0-0.6-0.3-1.2-0.6-1.5L459.7,444l-8.7,5.5l9,9.5c0,0.3,0.3,0.6,0.3,0.9v3.4c0,0.3,0,0.3,0,0.6l3.1-3.4l0.9,0.6
          C464.4,460.7,464.4,461,464.7,461z"
        />
                    <path
          class="st1"
          d="M467.5,467.1c0,0,49,28.4,49,28.7l7.1,5.8c0.3,0.3,0.6,0.3,0.9,0.3l9.9-6.1c0,0,0.3-0.6,0.3-0.9v-7.3
          c0-0.3-0.3-0.3-0.3-0.3l-9.9,6.1c0,0,0,0-49.3-28.1L467.5,467.1z"
        />
                    <path
          class="st1"
          d="M523.8,503.1c0,0-0.3,0-0.6,0c-0.3,0-0.9-0.3-0.9-0.6l-6.8-5.8c-2.5-1.5-30.1-17.7-48.6-28.4l-2.8-1.8
          l11.2-2.4l0.3,0.3c36.6,21,46.2,26.5,48.3,27.8l9.3-5.8c0.6-0.3,0.9-0.3,1.5,0c0.6,0.3,0.9,0.9,0.9,1.2v7.3
          c0,0.9-0.6,1.8-0.6,1.8l-0.3,0.3l-9.9,6.1C524.5,503.1,524.2,503.1,523.8,503.1z M517,494.9l6.8,5.8l9.3-5.5v-5.5l-8.4,4.6
          c-0.6,0.3-0.6,0.3-7.4-3.4c-6.2-3.4-18.3-10.4-42.4-24.4l-4,1.2C506.8,488.5,515.2,493.4,517,494.9z"
        />
                    <path
          class="st3"
          d="M522.6,502.2l-72.8-41.8c-0.6-0.3-1.2-1.5-1.2-2.4v-7.6c0-0.9,0.6-1.5,1.2-0.9l72.8,41.5
          c0.6,0.3,1.2,1.5,1.2,2.4v7.9C524.2,502.2,523.5,502.5,522.6,502.2z"
        />
                    <path
          class="st1"
          d="M523.2,503.5c-0.3,0-0.9,0-1.2-0.3l-72.8-41.5c-0.9-0.6-1.9-2.1-1.9-3.7v-7.6c0-0.9,0.3-1.8,1.2-2.1
          c0.6-0.3,1.5-0.3,2.2,0l72.8,41.5c1.2,0.6,1.9,2.1,1.9,3.7v7.9c0,0.9-0.3,1.8-1.2,2.1C523.8,503.5,523.5,503.5,523.2,503.5z
           M523.2,501l-0.6,1.2L523.2,501z M449.8,450.7v7.3c0,0.6,0.6,1.2,0.6,1.5l72.2,41.2v-7.3c0-0.6-0.3-1.2-0.6-1.5L449.8,450.7z"
        >
                    </path>
                    <path
          class="st1"
          d="M465.3,445l-10,6.1l1.3,2.1l10-6.1L465.3,445z"
        />
                    <path
          class="st3"
          d="M533.1,491.9l-8.8,5.2l1,1.6l8.8-5.2L533.1,491.9z"
        />
                  </g>
                </g>
                <g>
                  <defs>
                    <rect
          id="SVGID_5_"
          x="393.5"
          y="243.4"
          width="26.9"
          height="58.2"
        />
                  </defs>
                  <clipPath id="SVGID_6_">
                    <use xlink:href="#SVGID_5_" style="overflow:visible;" />
                  </clipPath>
                  <g class="st11">
                    <path
          class="st2"
          d="M416.7,250.6l-9.5-5.7c-0.6-0.3-1.2-0.3-1.5,0l-9.8,5.7c-0.3,0-0.3,0.3-0.3,0.6l9.2,15.7v0.3V284
          c0,1.5,0.9,3.3,2.1,4.2l-8.6-4.5c0,0,0,0,0.3,0.3l9.2,15.7c0,0.3,0.3,0.3,0.6,0.3l9.8-5.7c0.3-0.3,0.6-0.9,0.6-1.8v-37.7
          C418.9,253.3,417.9,251.2,416.7,250.6z"
        />
                    <path
          class="st1"
          d="M408.5,301.2h-0.3c-0.3,0-0.9-0.3-0.9-0.9l-9.2-15.7l0.3,0.3l0.9-2.4l4.6,2.4c0-0.3,0-0.6,0-0.9v-16.6
          l-9.2-15.7c-0.6-0.9-0.3-1.8,0.6-2.4l9.8-5.7c0.6-0.3,1.8-0.3,2.8,0l9.5,5.7c1.5,0.9,2.8,3,2.8,5.1v37.7c0,1.2-0.3,2.1-1.2,2.7
          l-9.8,5.7C409.1,300.9,408.8,301.2,408.5,301.2z M402,287.1l6.7,11.5l9.2-5.4c0,0,0-0.3,0-0.6v-37.7c0-1.2-0.9-2.7-1.5-3l-9.8-6
          h-0.3l-9.2,5.4l8.9,15.1c0,0.3,0.3,0.6,0.3,0.9v16.9c0,1.2,0.9,2.7,1.5,3l-1.2,2.1L402,287.1z"
        />
                    <path
          class="st1"
          d="M398.1,280.4c0,0,3.7-20.5,7-3l-6.7,6.3l0.3,0.3l9.2,15.7c0.3,0.3,0.6,0.3,0.9,0.3l9.5-5.7
          c0.3-0.3,0.6-0.9,0.6-1.8v-37.4c0,0,0-0.3-0.3,0l-9.8,5.7L398.1,280.4z"
        />
                    <path
          class="st1"
          d="M408.5,300.9c-0.3,0-0.3,0-0.6,0c-0.6,0-0.9-0.3-1.2-0.9l-9.2-15.7l-1.8,3.3l1.2-7.5
          c1.2-7.2,3.1-11.1,5.2-11.1c0.3,0,0.3,0,0.6,0l4.9-9.3l0.3-0.3l10.7-6.3l0.9,0.3c0.3,0.3,0.6,0.6,0.6,1.2v37.4
          c0,1.2-0.3,2.1-1.2,2.7l-9.8,5.7C409.1,300.9,408.8,300.9,408.5,300.9z M400.2,283.8l8.3,14.5l9.2-5.4c0,0,0-0.3,0-0.6v-35.3
          l-8,4.8l-4.9,9.3c0.6,1.2,1.2,3.3,1.8,6v0.6L400.2,283.8z M403,273.8l-4,7.5l4.9-4.5C403.6,275.6,403.3,274.7,403,273.8z"
        />
                    <path
          class="st3"
          d="M406.6,300l-9.5-5.7c-1.2-0.6-2.1-2.4-2.1-4.2v-37.7c0-1.5,0.9-2.4,2.1-1.5l9.5,5.7c1.2,0.6,2.1,2.7,2.1,4.2
          v37.7C408.8,300,407.8,300.9,406.6,300z"
        />
                    <path
          class="st1"
          d="M407.5,301.5c-0.6,0-0.9,0-1.5-0.3l-9.5-5.7c-1.8-0.9-3.1-3.3-3.1-5.4v-37.7c0-1.2,0.6-2.4,1.5-2.7
          c0.6-0.6,1.5-0.3,2.4,0l9.5,5.7c1.5,0.9,2.8,3,2.8,5.1v37.7c0,1.2-0.6,2.4-1.5,2.7C408.2,301.5,407.8,301.5,407.5,301.5z
           M407.2,299.1c0.3,0,0.3,0,0.3-0.6v-37.7c0-1.2-0.9-2.7-1.5-3l-9.8-6h-0.3c0,0,0,0.3,0,0.6v37.7c0,1.2,0.9,2.7,1.5,3L407.2,299.1
          z"
        />
                    <path
          class="st1"
          d="M413.4,247.7l-9.9,6.1l1.3,2l9.9-6.1L413.4,247.7z"
        />
                    <path
          class="st3"
          d="M417.7,281.7l-8.6,5.1l0.9,1.5l8.7-5.1L417.7,281.7z"
        />
                  </g>
                </g>
                <g>
                  <defs>
                    <rect
          id="SVGID_7_"
          x="492.7"
          y="408.1"
          width="40.9"
          height="58.2"
        />
                  </defs>
                  <clipPath id="SVGID_8_">
                    <use xlink:href="#SVGID_7_" style="overflow:visible;" />
                  </clipPath>
                  <g class="st12">
                    <path
          class="st2"
          d="M531,425.8l-28.6-16.5c-0.2-0.2-0.4-0.2-0.9,0c0,0,0,0-0.2,0l-7.3,4.4l6.8,11.5V441c0,1.1,0.7,2.4,1.5,3.1
          l14.7,8.6l7.5,12.3l7.5-4.4c0.2-0.2,0.4-0.7,0.4-1.3v-30.4C532.7,427.5,531.8,426.2,531,425.8z"
        />
                    <path
          class="st1"
          d="M524.4,466.3l-0.4-0.9l-7.3-12.1l-14.5-8.4c-1.1-0.7-2-2.4-2-3.7v-15.6l-7-11.7l0.2-0.9l0.4-0.2l7.5-4.4
          c0.4-0.2,1.1-0.2,1.8,0l28.6,16.5c1.1,0.7,2,2.4,2,3.7v30.6c0,0.9-0.2,1.5-0.9,2L524.4,466.3z M495.3,413.9l6.6,11v0.2V441
          c0,0.9,0.7,2,1.1,2.2l15,8.6l0.2,0.2l7,11.7l6.6-4c0,0,0-0.2,0-0.4v-30.4c0-0.9-0.7-2-1.1-2.2l-28.6-16.5h-0.2L495.3,413.9z"
        >
                    </path>
                    <path
          class="st1"
          d="M516,448.5l0.2,3.3l1.1,0.7l7.3,12.3h0.2l7.3-4.4c0.2-0.2,0.4-0.7,0.4-1.3v-30.2c0,0,0,0-0.2,0l-7.3,4.4
          L516,448.5z"
        />
                    <path
          class="st1"
          d="M525,465.9l-0.9-0.2l-7.5-12.6l-1.3-0.9l-0.2-4.2l0.2-0.2l9.5-15.4l7.9-4.6l1.1,0.4v0.7v30.4
          c0,0.9-0.2,1.5-0.9,2L525,465.9z M516.9,451.3l0.9,0.4l0.2,0.2l7,11.7l6.6-4c0,0,0-0.2,0-0.4v-28.9l-5.9,3.5l-8.8,14.8V451.3z"
        >
                    </path>
                    <path
          class="st3"
          d="M523.7,465l-28.6-16.5c-0.9-0.4-1.5-1.8-1.5-3.1v-30.6c0-1.1,0.7-1.8,1.5-1.1l28.6,16.5
          c0.9,0.4,1.5,1.8,1.5,3.1v30.6C525.2,465,524.6,465.4,523.7,465z"
        />
                    <path
          class="st1"
          d="M524.4,466.1c-0.4,0-0.7,0-1.1-0.2l-28.6-16.5c-1.1-0.9-2-2.4-2-4v-30.6c0-0.9,0.4-1.8,1.1-2
          c0.4-0.4,1.1-0.2,1.8,0l28.6,16.5c1.1,0.7,2,2.4,2,3.7v30.6c0,0.9-0.4,1.8-1.1,2C524.8,465.9,524.6,466.1,524.4,466.1z
           M494.4,414.3c0,0,0,0.2,0,0.4v30.6c0,0.9,0.7,2,1.1,2.2l28.6,16.5h0.2c0,0,0-0.2,0-0.4V433c0-0.9-0.7-2-1.1-2.2L494.4,414.3
          C494.7,414.3,494.7,414.3,494.4,414.3z"
        />
                    <path
          class="st1"
          d="M506,411.1l-7.1,4.4l0.9,1.5l7.1-4.4L506,411.1z"
        />
                    <path
          class="st3"
          d="M531.8,454.6l-6.2,3.7l0.7,1.1l6.2-3.7L531.8,454.6z"
        />
                    <path
          class="st2"
          d="M510.5,430.6l1.8,5.3c0.2,0.7,0.7,1.1,1.1,1.3l4,3.1c1.1,0.9,1.5,2.6,0.7,3.1l-2.9,1.5
          c-0.2,0.2-0.4,0.7-0.4,1.1l0.7,5.1c0.2,1.3-0.9,1.8-2,0.4l-3.5-4.4c-0.4-0.4-0.9-0.7-1.3-0.7H505c-0.9,0-2.2-1.5-2-2.6l0.7-4.2
          c0-0.4,0-1.1-0.4-1.5l-2.9-5.1c-0.9-1.3-0.4-2.6,0.7-2.2l4,1.8c0.4,0.2,0.9,0,1.1-0.2l2-3.1C508.5,428.4,510.1,429.1,510.5,430.6
          z"
        />
                    <path
          class="st1"
          d="M514.7,453.3c-0.7,0-1.3-0.4-2-1.1l-3.5-4.4c-0.2-0.2-0.4-0.4-0.4-0.4h-3.5c-0.7,0-1.3-0.2-2-0.9
          c-0.7-0.9-1.1-2-0.9-2.9l0.7-4.2c0-0.2,0-0.7-0.2-0.9l-2.9-5.1c-0.7-1.1-0.7-2.4,0-3.1c0.2-0.4,0.9-0.4,1.8-0.2l4,1.5l1.8-3.1
          c0.2-0.4,0.9-0.7,1.5-0.7c1.1,0,2,1.1,2.4,2.4l1.8,5.3c0.2,0.4,0.4,0.9,0.7,0.9l4,3.1c0.9,0.7,1.5,2,1.5,3.1
          c0,0.7-0.4,1.1-0.9,1.5l-2.9,1.5c0,0,0,0,0,0.2l0.7,5.1c0.2,1.1-0.4,1.8-0.9,2.2C515.1,453.3,514.9,453.3,514.7,453.3z
           M508.7,445.8c0.7,0,1.3,0.4,2,1.1l3.7,4.4c0.2,0.2,0.2,0.2,0.4,0.2c0,0,0,0,0-0.2l-0.7-5.1c-0.2-0.9,0.2-1.8,0.9-2l2.9-1.5
          c0-0.2-0.2-1.1-0.9-1.5l-4-3.1c-0.7-0.4-1.1-1.1-1.3-1.8l-1.8-5.3c-0.7-0.9-1.1-1.1-1.3-1.3l-1.8,3.1c-0.4,0.7-1.3,1.1-2.2,0.7
          l-4-1.5c0,0.2,0,0.4,0.2,0.9l2.9,5.1c0.4,0.7,0.7,1.5,0.4,2.2l-0.7,4.2c0,0.4,0.2,0.9,0.4,1.3c0.2,0.2,0.4,0.4,0.4,0.4
          L508.7,445.8z"
        />
                    <path
          class="st1"
          d="M510.1,435.3l-1.7,0.6l1.1,3.3l1.7-0.6L510.1,435.3z"
        />
                  </g>
                </g>
              </g>
              <g>
                <path
      class="st3"
      d="M534.5,113.1l100.2,58.7v100.7l-100.2-58.7V113.1z"
    />
                <path
      class="st13 floating-4"
      d="M607.8,210l73.2,42.4v141.7l-73.2-42.4V210z"
    />
                <g class="floating-2">
                  <path
        class="st14"
        d="M418.2,10.8l87.2,51.3v127.5l-87.2-51.3V10.8z"
      />
                  <path class="st15" d="M432.2,68.9l14,9v67.5l-14-9V68.9z" />
                  <path
        class="st15"
        d="M452.7,106.6l15.1,9v40.5l-15.1-9V106.6z"
      />
                  <path
        class="st15"
        d="M475.3,107.7l15.1,8.8v52.6l-15.1-8.8V107.7z"
      />
                </g>
                <path
      class="st16"
      d="M553.9,31.2l51.7,30.2v51.7l-51.7-30.2V31.2z"
    />
                <path
      class="st17"
      d="M584.1,304.8l51.7,29.8v51l-51.7-29.8V304.8z"
    />
                <g>
                  <path
        class="st18"
        d="M548.5,42.2c0-0.8,0.8-1.3,1.5-0.9l47.7,27.5c0.3,0.2,0.5,0.5,0.5,0.9v46.4c0,0.8-0.8,1.3-1.5,0.9L549,89.5
        c-0.3-0.2-0.5-0.5-0.5-0.9V42.2z"
      />
                  <path
        class="st19"
        d="M574.3,57.3c0-0.8,0.8-1.2,1.5-0.9l21.8,12.4c0.3,0.2,0.5,0.5,0.5,0.9v20.6c0,0.8-0.8,1.2-1.5,0.9
        l-21.8-12.4c-0.3-0.2-0.5-0.5-0.5-0.9V57.3z"
      />
                </g>
                <path
      class="st20"
      d="M577.6,334.2c0-1.6,1.7-2.5,3-1.7l26.2,15.8c0.6,0.4,1,1,1,1.7v26.6c0,1.6-1.7,2.5-3,1.7l-26.2-15.8
      c-0.6-0.4-1-1-1-1.7V334.2z"
    />
                <path class="st16" d="M393.5,0l11.8,6.7v14.8l-11.8-6.7V0z" />
                <path
      class="st16"
      d="M471.1,178.8l11.8,6.7v36.4l-11.8-6.7V178.8z"
    />
                <path
      class="st21"
      d="M519.6,194.9l35,18.8v56.5l-35-18.8V194.9z"
    />
                <path
      class="st3 floating"
      d="M658.4,187.4l11.8,6.7v14.8l-11.8-6.7V187.4z"
    />
                <path
      class="st22"
      d="M354.8,61.4l73.2,42.1v72.1l-73.2-42.1V61.4z"
    />
                <g class="floating-3">
                  <path
        class="st18"
        d="M578.6,314.7c0-0.8,0.8-1.3,1.5-0.9l46.6,27.8c0.3,0.2,0.5,0.5,0.5,0.9v47c0,0.8-0.8,1.3-1.5,0.9l-46.6-27.8
        l-0.5,0.9l0.5-0.9c-0.3-0.2-0.5-0.5-0.5-0.9V314.7z"
      />
                </g>
                <g class="floating-4">
                  <path
        class="st21"
        d="M366.7,126.7c0-0.8,0.8-1.3,1.5-0.9l41.1,24.2c0.3,0.2,0.5,0.5,0.5,0.9v41.2c0,0.8-0.8,1.3-1.5,0.9
        l-41.1-24.2c-0.3-0.2-0.5-0.5-0.5-0.9V126.7z"
      />
                  <path
        class="st23"
        d="M374.8,164.8l3.8-16.7l4.8,21.5l4.3-10.2l5.9,20.5l7-24.8"
      />
                </g>
              </g>
            </svg>
