<svg width="23" height="21" viewBox="0 0 23 21" fill="none" xmlns="http://www.w3.org/2000/svg">
<path d="M12.6508 8.17037C13.1525 7.47913 13.7653 7.0183 14.5158 6.73342C15.0531 6.52814 15.617 6.42341 16.1988 6.38989C17.0957 6.33962 17.9839 6.37733 18.8453 6.6622C19.9333 7.02249 20.7192 7.70116 21.2299 8.66891C21.7272 9.6157 21.9581 10.6295 21.9759 11.6769C22.0159 14.1821 22.0292 16.6873 22.047 19.1926C22.0514 19.7121 21.7938 19.976 21.2432 19.9844C20.2308 20.0053 19.2139 20.0053 18.2014 19.9844C17.6419 19.9718 17.4199 19.7204 17.4199 19.1842C17.4199 17.1943 17.4199 15.2043 17.4199 13.2144C17.4199 12.6111 17.3533 12.0204 17.1757 11.4381C16.6428 9.72462 14.3559 9.77071 13.5211 10.663C13.1126 11.1029 12.895 11.6224 12.7662 12.1796C12.6996 12.477 12.6641 12.787 12.6641 13.0887C12.6552 15.1205 12.6596 17.1524 12.6596 19.1842C12.6596 19.6911 12.4154 19.9676 11.8781 19.976C10.8879 19.9969 9.89318 19.9969 8.90294 19.976C8.36119 19.9634 8.10808 19.6785 8.10808 19.1674C8.10808 15.2378 8.10808 11.304 8.10364 7.37439C8.10364 6.9387 8.38339 6.5449 8.96954 6.56166C9.94646 6.59098 10.9234 6.57004 11.9003 6.57004C12.3754 6.57004 12.6552 6.83816 12.6596 7.28642C12.6552 7.5671 12.6508 7.83522 12.6508 8.17037Z" fill="white"/>
<path d="M1.6504 13.2623C1.6504 11.3101 1.6504 9.35364 1.6504 7.4014C1.6504 6.84002 1.92128 6.58447 2.51631 6.58447C3.46215 6.58447 4.40798 6.58447 5.35826 6.58447C5.84672 6.58447 6.12647 6.82327 6.17976 7.2841C6.19308 7.38883 6.19308 7.49356 6.19308 7.5983C6.19308 11.3855 6.19308 15.1768 6.19308 18.964C6.19308 19.0059 6.19308 19.0478 6.19308 19.0897C6.1842 19.7181 5.91777 19.9904 5.25169 19.9988C4.35026 20.0114 3.44882 20.003 2.54295 20.003C1.98344 20.003 1.63708 19.7055 1.64152 19.1274C1.66372 17.171 1.6504 15.2146 1.6504 13.2623Z" fill="white"/>
<path d="M3.93444 0.00204846C5.54636 0.0188059 6.85188 1.26305 6.83411 2.7754C6.81191 4.28357 5.52415 5.50268 3.90335 5.50687C2.30032 5.51106 0.985915 4.24168 0.994796 2.7377C1.00368 1.22115 2.3314 -0.0105196 3.93444 0.00204846Z" fill="white"/>
</svg>
