<svg width="92" height="64" viewBox="0 0 92 64" fill="none" xmlns="http://www.w3.org/2000/svg">
<path d="M91.2735 24.9643C90.4742 20.5179 88.4279 16.7604 85.1108 13.708C82.3373 11.1602 79.0681 9.5499 75.3593 8.90897C71.6426 8.27604 68.0137 8.66862 64.5288 10.1508C64.217 10.287 64.0891 10.2309 63.9133 9.94247C61.5234 6.02477 58.1423 3.38893 53.6502 2.41151C48.0791 1.20175 43.2033 2.66788 39.055 6.56155C38.6633 6.93009 38.6793 6.93009 38.3436 6.52149C35.4741 3.07648 31.8532 0.945376 27.4251 0.224326C26.9215 0.14421 26.394 0.152222 25.8984 0H23.4206C22.7731 0.104152 22.1177 0.184268 21.4703 0.312455C16.011 1.39403 11.9266 4.39039 9.20896 9.24546C7.53841 12.2338 6.91495 15.4785 7.13077 18.8755C7.25066 20.7342 7.6663 22.5368 8.38567 24.2593C8.50557 24.5477 8.45761 24.6839 8.18585 24.8602C4.39715 27.2717 2.09515 30.7007 1.20793 35.0991C1.11201 35.5958 1.128 36.1246 0.952148 36.6133V39.177C1.13599 39.7458 1.14398 40.3467 1.25588 40.9316C2.33494 46.9163 7.31461 51.8915 13.3254 52.9731C15.1558 53.3016 16.9782 53.3176 18.8006 52.9731C19.1043 52.917 19.2322 53.0051 19.3521 53.3016C21.4063 58.2207 24.9712 61.4655 30.0788 62.9957C31.1099 63.3081 32.173 63.4924 33.252 63.5485C33.3559 63.5565 33.4678 63.5405 33.5557 63.6126H35.7139C36.3133 63.5164 36.9128 63.4363 37.5043 63.3161C42.9076 62.1945 46.8082 59.126 49.2381 54.1668C49.4859 53.6701 49.4699 53.6621 49.9974 53.8944C56.5677 56.7947 64.305 54.311 67.9977 48.094C68.1176 47.8857 68.1976 47.7575 68.5093 47.8136C74.7599 48.8551 80.315 47.3329 85.0549 43.1027C88.5798 39.9541 90.65 35.9804 91.3614 31.2935C91.4333 30.8289 91.4094 30.3402 91.5852 29.8915V26.9272C91.3934 26.2863 91.3934 25.6133 91.2735 24.9643ZM19.3681 33.5849C18.8805 33.9294 18.337 34.0816 17.7695 34.1217C17.6336 34.1297 17.5057 34.1377 17.3698 34.1377H17.3619C17.3219 34.1377 17.2899 34.1377 17.25 34.1377H17.194C17.1221 34.1377 17.0421 34.1377 16.9702 34.1297C16.9542 34.1297 16.9302 34.1297 16.9063 34.1297C16.8103 34.1217 16.7144 34.1136 16.6185 34.1056C15.8032 34.0255 15.0439 33.7611 14.3165 33.3365C14.1007 33.2083 14.0048 33.0801 14.1247 32.8238C14.2606 32.5193 14.2925 32.0867 14.5163 31.9345C14.8041 31.7502 15.0838 32.1668 15.3716 32.303C16.035 32.6075 16.7224 32.7837 17.4498 32.7757C17.7056 32.7757 17.9533 32.7196 18.1771 32.5914C18.4889 32.4152 18.6727 32.1588 18.6887 31.7903C18.7047 31.4137 18.4889 31.1974 18.1931 31.0372C17.7615 30.8048 17.2819 30.6766 16.8103 30.5324C16.3308 30.3802 15.8512 30.228 15.4036 29.9796C13.773 29.0823 14.1327 26.9833 15.1957 26.2061C15.8352 25.7335 16.5626 25.5732 17.3379 25.5812C18.2331 25.5892 19.0724 25.7895 19.8717 26.2061C20.1115 26.3263 20.1834 26.4705 20.0635 26.7109C19.9196 26.9913 19.9356 27.4159 19.6718 27.5601C19.4081 27.7043 19.1203 27.3839 18.8326 27.2957C18.2571 27.1115 17.6816 26.9833 17.0741 26.9993C16.8423 27.0073 16.6265 27.0474 16.4187 27.1515C15.8512 27.456 15.7952 28.145 16.3228 28.5215C16.6745 28.7699 17.0901 28.89 17.4897 29.0262C18.0972 29.2265 18.7127 29.4028 19.2642 29.7393C20.687 30.5885 20.7429 32.6315 19.3681 33.5849ZM27.8008 33.673C26.4499 33.9775 25.0911 34.2498 23.6923 34.0415C22.6772 33.8893 21.79 33.5048 21.4463 32.4472C21.1106 31.4217 21.2305 30.4283 22.0458 29.6351C22.7891 28.9141 23.7403 28.7298 24.7394 28.7218C25.187 28.7218 25.6426 28.7538 26.0903 28.8099C26.354 28.842 26.41 28.7538 26.41 28.5135C26.402 27.6002 26.0103 27.1595 25.1151 27.0634C24.2199 26.9672 23.3566 27.1034 22.5493 27.496C22.2456 27.6402 22.1097 27.5841 22.0458 27.2717C22.0218 27.1836 21.9818 27.0954 21.9499 27.0073C21.6701 26.2782 21.6701 26.2622 22.4214 25.9978C23.5964 25.5812 24.8034 25.445 26.0343 25.7174C27.2412 25.9818 27.9366 26.807 28.0485 28.0328C28.1285 28.9141 28.0725 29.7954 28.0965 30.7568C28.0965 31.5259 28.0965 32.3831 28.0965 33.2324C28.1045 33.4647 28.0645 33.6169 27.8008 33.673ZM31.4935 28.201C31.4935 29.9636 31.4776 31.7262 31.5015 33.4887C31.5015 33.8733 31.3736 33.9855 31.014 33.9534C30.7662 33.9294 30.5104 33.9294 30.2546 33.9534C29.9109 33.9855 29.791 33.8573 29.791 33.4967C29.807 32.1588 29.799 30.8289 29.799 29.4909C29.799 27.2717 29.807 25.0605 29.791 22.8412C29.791 22.4807 29.879 22.3125 30.2546 22.3605C30.6463 22.4086 31.1498 22.1843 31.4056 22.4647C31.6454 22.7131 31.4776 23.2018 31.4855 23.5863C31.4935 25.1326 31.4935 26.6708 31.4935 28.201ZM40.206 30.0357C40.182 30.2841 40.0461 30.3001 39.8543 30.3001C39.055 30.3001 38.2557 30.3001 37.4564 30.3001V30.2921C36.681 30.2921 35.9137 30.3001 35.1384 30.2841C34.8826 30.2761 34.7947 30.3482 34.8107 30.6286C34.9066 31.9024 35.7139 32.6395 37.1126 32.6716C37.808 32.6876 38.4954 32.6155 39.1509 32.3511C39.4146 32.2469 39.5505 32.303 39.6225 32.5674C39.6544 32.6796 39.6944 32.7997 39.7344 32.9119C39.9822 33.6009 39.9901 33.6169 39.2948 33.8172C38.1278 34.1697 36.9368 34.2498 35.7458 33.9454C34.371 33.5929 33.4678 32.7276 33.1321 31.3176C32.8444 30.0758 32.8683 28.842 33.3959 27.6803C34.0433 26.2542 35.2263 25.6213 36.753 25.5973C38.0798 25.5812 39.1429 26.086 39.7743 27.3037C40.2299 28.161 40.3019 29.0823 40.206 30.0357ZM45.5213 34.0415C45.1696 34.1136 44.8099 34.1457 44.5222 34.1377C43.4192 34.1457 42.46 33.8813 41.5648 33.3525C41.333 33.2163 41.2211 33.0801 41.357 32.8077C41.5008 32.5113 41.4768 32.0627 41.7566 31.9265C42.0444 31.7823 42.3081 32.1588 42.5879 32.295C43.2513 32.5994 43.9387 32.7837 44.6661 32.7677C45.0098 32.7597 45.3215 32.6716 45.5933 32.4472C46.0489 32.0547 46.0089 31.4137 45.5133 31.0933C45.0737 30.8048 44.5622 30.6927 44.0666 30.5324C43.587 30.3802 43.0994 30.236 42.6598 29.9796C41.357 29.2345 41.1252 27.472 42.1882 26.3984C42.6838 25.9017 43.2913 25.6694 43.9707 25.5892C45.0737 25.4691 46.1128 25.6694 47.096 26.1821C47.3118 26.2943 47.3917 26.4225 47.2878 26.6548C47.1599 26.9432 47.1279 27.3438 46.9041 27.512C46.6404 27.7203 46.3366 27.3518 46.0489 27.2637C45.4494 27.0874 44.8419 26.9432 44.2105 26.9753C43.9627 26.9913 43.7389 27.0474 43.5391 27.1916C43.0435 27.5521 43.0515 28.145 43.547 28.4975C43.8748 28.7298 44.2664 28.842 44.6421 28.9782C45.1137 29.1464 45.6092 29.2906 46.0649 29.4989C47.2718 30.0437 47.6954 30.7728 47.5436 31.9825C47.4157 33.0161 46.6403 33.8012 45.5213 34.0415ZM53.8021 26.6708C53.7462 27.0874 53.5863 27.2316 53.1946 27.1756C53.0508 27.1595 52.8989 27.1756 52.755 27.1756C51.8358 27.1756 51.8358 27.1756 51.676 28.0488C51.2843 30.228 50.9006 32.4072 50.493 34.5783C50.3411 35.3635 50.0774 36.1166 49.5658 36.7655C48.7105 37.8631 46.9521 37.8551 46.0728 37.5346C45.913 37.4705 45.881 37.3664 45.937 37.2222C45.9769 37.11 46.0089 36.9978 46.0569 36.8857C46.1528 36.6533 46.1927 36.3569 46.3606 36.2047C46.5364 36.0525 46.8002 36.2608 47.04 36.2848C47.7434 36.3569 48.191 36.1166 48.4947 35.4756C48.8784 34.6584 48.9743 33.7611 49.1342 32.8879C49.4539 31.1413 49.7576 29.4028 50.0774 27.6563C50.1573 27.1996 50.1573 27.1836 49.6937 27.1836C48.7825 27.1756 48.8145 27.1836 48.9423 26.2943C49.0063 25.8376 49.2061 25.7415 49.6218 25.7495C50.3651 25.7735 50.3571 25.7495 50.517 25.0444C50.5569 24.8762 50.6129 24.708 50.6609 24.5477C51.3003 22.3205 53.1227 21.968 54.8012 22.3605C55.041 22.4166 55.113 22.5288 55.0091 22.7611C54.9931 22.7932 54.9851 22.8332 54.9691 22.8733C54.8572 23.1617 54.8172 23.5142 54.6174 23.7145C54.4016 23.9308 54.0739 23.6664 53.7941 23.6664C53.0508 23.6504 52.5312 24.027 52.2994 24.7961C52.0037 25.7735 52.0037 25.7735 53.0188 25.7735C53.954 25.7495 53.93 25.7415 53.8021 26.6708ZM61.4674 31.3656C60.9958 33.2644 59.4212 34.2979 57.4389 34.0896C55.4647 33.8813 54.2497 32.5594 54.1058 30.5324C54.0499 29.7313 54.0659 28.9381 54.3137 28.161C54.8412 26.4625 56.3199 25.4611 58.0864 25.6053C60.1646 25.7735 61.4594 27.0954 61.6113 29.1865C61.6273 29.4268 61.6433 29.6672 61.6593 29.8434C61.6193 30.3962 61.5873 30.8849 61.4674 31.3656ZM67.8459 26.2302C67.718 26.5346 67.678 26.9112 67.4862 27.1515C67.2544 27.4319 66.8627 27.1916 66.543 27.2156C65.5359 27.2957 64.8805 27.9927 64.8085 29.1624C64.7206 30.5485 64.7845 31.9345 64.7686 33.3285C64.7606 33.9534 64.7686 33.9534 64.1611 33.9534C63.058 33.9614 63.058 33.9614 63.058 32.8638C63.058 30.6606 63.066 28.4574 63.0501 26.2542C63.0501 25.8697 63.154 25.7174 63.5456 25.7655C63.7854 25.7975 64.0252 25.7815 64.265 25.7655C64.6007 25.7335 64.7766 25.8376 64.7286 26.2061C64.7206 26.2782 64.7366 26.3584 64.7446 26.5186C65.6158 25.6694 66.583 25.5732 67.6301 25.7895C67.9178 25.8456 67.9578 25.9738 67.8459 26.2302ZM73.7607 33.9374C72.8975 34.1297 72.0182 34.1938 71.147 34.0015C69.4845 33.6329 68.4214 32.4152 68.2375 30.7167C68.1576 29.9796 68.1576 29.2506 68.3335 28.5295C68.7731 26.7349 70.0999 25.6613 71.9863 25.5892C72.7216 25.5572 73.449 25.6453 74.1524 25.8536C74.4082 25.9257 74.5201 26.0219 74.4002 26.3023C74.2643 26.6067 74.2323 27.0153 74.0165 27.2076C73.7847 27.4079 73.425 27.1195 73.1133 27.0954C72.6976 27.0714 72.29 27.0313 71.8744 27.0794C70.8593 27.1836 70.1319 28.0088 69.996 29.2025C69.972 29.4429 69.964 29.6832 69.948 29.9075C69.964 30.1639 69.972 30.4042 70.012 30.6446C70.2038 31.8944 70.9712 32.5754 72.2261 32.6315C72.7616 32.6555 73.2971 32.6395 73.8007 32.4312C74.0325 32.3351 74.1524 32.3992 74.2163 32.6155C74.2483 32.7196 74.2803 32.8158 74.3202 32.9199C74.616 33.7371 74.616 33.7451 73.7607 33.9374ZM81.3062 30.2921H79.5077C78.7644 30.2921 78.013 30.3161 77.2697 30.2841C76.87 30.2681 76.838 30.4363 76.886 30.7568C77.0938 32.0146 77.8052 32.6315 79.148 32.6716C79.8434 32.6956 80.5388 32.6315 81.1863 32.3591C81.49 32.2309 81.6339 32.319 81.7058 32.6155C81.7218 32.6956 81.7618 32.7677 81.7857 32.8398C82.0655 33.6089 82.0655 33.6249 81.2902 33.8493C80.0912 34.1858 78.8763 34.2579 77.6693 33.9053C76.4064 33.5368 75.5831 32.7116 75.2394 31.4297C74.9117 30.1959 74.9597 28.9702 75.4393 27.7764C76.4943 25.1166 80.0912 25.0765 81.3781 26.5827C82.0495 27.3678 82.2973 28.2812 82.3133 29.2746C82.3213 30.2921 82.3133 30.2921 81.3062 30.2921Z" fill="#C7C7C7"/>
<path d="M16.6178 34.1079C16.7137 34.1156 16.8096 34.1233 16.9055 34.131C16.8096 34.1233 16.7137 34.1156 16.6178 34.1079Z" fill="#C7C7C7"/>
<path d="M17.1958 34.1358C17.1239 34.1358 17.044 34.1358 16.972 34.1282C17.044 34.1358 17.1159 34.1358 17.1958 34.1358Z" fill="#C7C7C7"/>
<path d="M17.2397 34.1396C17.2237 34.1396 17.1997 34.1396 17.1837 34.1396C17.2077 34.1396 17.2237 34.1396 17.2397 34.1396C17.4155 34.1396 17.5914 34.1396 17.7592 34.1243C17.5914 34.1396 17.4235 34.1396 17.2397 34.1396Z" fill="#C7C7C7"/>
<path d="M26.4265 31.3887C26.4265 31.589 26.4265 31.7893 26.4265 31.9896C26.4265 32.5665 26.4265 32.5825 25.8749 32.6626C25.2675 32.7507 24.668 32.8308 24.0525 32.6946C23.3971 32.5424 23.0454 32.1819 23.0134 31.6051C22.9735 30.876 23.2372 30.4514 23.9007 30.219C24.668 29.9466 25.4513 30.0748 26.2346 30.1469C26.4105 30.163 26.4345 30.2911 26.4345 30.4354C26.4265 30.7478 26.4265 31.0683 26.4265 31.3887Z" fill="#C7C7C7"/>
<path d="M80.6065 28.8025C80.6065 29.0188 80.4787 28.9948 80.3508 28.9948C79.8072 28.9948 79.2637 28.9948 78.7202 28.9948C78.2166 28.9948 77.713 28.9787 77.2095 29.0028C76.9217 29.0108 76.8898 28.9226 76.9377 28.6583C77.1935 27.4004 78.1607 26.7435 79.3197 27.0639C80.055 27.2642 80.6065 28.0173 80.6065 28.8025Z" fill="#C7C7C7"/>
<path d="M38.5291 28.79C38.5211 29.0304 38.3852 28.9983 38.2413 28.9983C37.7218 28.9983 37.2022 28.9983 36.6907 28.9983C36.1551 28.9983 35.6276 28.9903 35.0921 28.9983C34.9162 28.9983 34.8283 28.9663 34.8523 28.7499C35.0121 27.4601 36.0992 26.723 37.3221 27.0755C38.0015 27.2838 38.5531 28.077 38.5291 28.79Z" fill="#C7C7C7"/>
<path d="M59.4361 31.8554C59.0764 32.5043 58.5009 32.7206 57.7975 32.7046C57.1181 32.6966 56.5586 32.4482 56.2709 31.8073C55.7033 30.5575 55.7113 29.2676 56.2309 28.0018C56.5186 27.3048 57.1101 27.0244 57.8295 27.0244C58.5409 27.0163 59.1324 27.2647 59.4761 27.9377C59.7798 28.5386 59.8677 29.1795 59.8598 29.8364C59.8677 30.5415 59.7878 31.2305 59.4361 31.8554Z" fill="#C7C7C7"/>
</svg>
