<svg width="151" height="32" viewBox="0 0 151 32" fill="none" xmlns="http://www.w3.org/2000/svg">
<path d="M0.420898 16.6836C0.555926 16.6867 0.690954 16.6898 0.829123 16.6898C5.66187 16.6898 10.4946 16.6898 15.3305 16.6898C15.7795 16.6898 15.7324 16.643 15.7324 17.0893C15.7324 21.8607 15.7324 26.6352 15.7324 31.4065C15.7324 31.4377 15.7324 31.469 15.7324 31.5002C15.7293 31.806 15.7293 31.8091 15.4247 31.8091C10.5072 31.8091 5.58964 31.8091 0.672113 31.8091C0.587328 31.8091 0.505683 31.8091 0.420898 31.8091C0.420898 26.7693 0.420898 21.7265 0.420898 16.6836Z" fill="#C7C7C7"/>
<path d="M32.5061 0C32.5123 0.124824 32.528 0.246527 32.528 0.37135C32.528 5.17394 32.528 9.97653 32.528 14.7791C32.528 15.1786 32.5689 15.1286 32.1795 15.1286C27.3373 15.1286 22.4951 15.1286 17.6498 15.1286C17.2573 15.1286 17.3013 15.1786 17.3013 14.7791C17.3013 9.97653 17.3013 5.17394 17.3013 0.37135C17.3013 0.246527 17.3076 0.121703 17.3138 0C22.3758 0 27.4409 0 32.5061 0Z" fill="#C7C7C7"/>
<path d="M15.7387 0C15.723 0.015603 15.7073 0.0280853 15.6916 0.0436883C15.5786 0.0468089 15.4624 0.0530501 15.3462 0.0530501C10.548 0.0530501 5.74979 0.0530501 0.95159 0.0530501C0.489983 0.0530501 0.524525 0.0218441 0.524525 0.468089C0.524525 5.21763 0.524525 9.96405 0.524525 14.7136C0.524525 14.8478 0.518244 14.982 0.518244 15.1161C0.486842 15.1193 0.45544 15.1224 0.424039 15.1255C0.420898 10.0858 0.420898 5.04288 0.420898 0C5.52684 0 10.6328 0 15.7387 0Z" fill="#C7C7C7"/>
<path d="M17.2979 24.2148C17.2979 21.8182 17.2979 19.4215 17.2979 17.0249C17.2979 16.6349 17.2571 16.6817 17.6527 16.6817C22.4855 16.6817 27.3182 16.6817 32.1478 16.6817C32.5623 16.6817 32.5184 16.6286 32.5184 17.0405C32.5184 21.8338 32.5184 26.6239 32.5184 31.4171C32.5184 31.8446 32.5498 31.8009 32.129 31.8009C27.3182 31.8009 22.5075 31.8009 17.6936 31.8009C17.6622 31.8009 17.6308 31.8009 17.5994 31.8009C17.2948 31.7978 17.2916 31.7978 17.2916 31.492C17.2979 29.0704 17.2979 26.6426 17.2979 24.2148Z" fill="#C7C7C7"/>
<path d="M0.518555 15.1122C0.521695 14.978 0.524835 14.8438 0.524835 14.7096C0.524835 9.9601 0.524835 5.21368 0.524835 0.464142C0.527975 0.014777 0.493433 0.0459829 0.955041 0.0459829C5.75324 0.0459829 10.5514 0.0459829 15.3497 0.0459829C15.4658 0.0459829 15.5789 0.0397417 15.6951 0.0366211C15.7579 0.130239 15.7296 0.23946 15.7296 0.339318C15.7296 5.16063 15.7296 9.98195 15.7296 14.8033C15.7296 14.8563 15.7265 14.9062 15.7296 14.9593C15.739 15.0779 15.6951 15.134 15.5695 15.1247C15.5161 15.1216 15.4658 15.1247 15.4125 15.1247C10.5295 15.1247 5.64962 15.1247 0.766629 15.1247C0.684985 15.1216 0.60334 15.1153 0.518555 15.1122Z" fill="#C7C7C7"/>
<path d="M142.717 7.97459C142.482 7.89657 142.265 7.81856 142.049 7.75303C141.612 7.61884 141.16 7.597 140.714 7.67813C140.039 7.80296 139.599 8.21487 139.36 8.84523C139.241 9.15729 139.178 9.48495 139.169 9.81886C139.153 10.3993 139.163 10.9797 139.153 11.5601C139.15 11.7224 139.203 11.7723 139.367 11.7723C140.843 11.7661 142.315 11.7692 143.791 11.7692C144.008 11.7692 144.014 11.763 144.014 11.5414C144.017 10.6708 144.014 9.79701 144.014 8.92637C144.014 8.66736 144.017 8.66424 144.269 8.58935C145.189 8.31473 146.109 8.04012 147.029 7.76863C147.283 7.69374 147.289 7.69686 147.293 7.96211C147.296 9.06055 147.296 10.1621 147.296 11.2606C147.296 11.323 147.296 11.3854 147.296 11.4478C147.296 11.8004 147.277 11.7723 147.613 11.7723C148.47 11.7723 149.327 11.7723 150.185 11.7723C150.558 11.7723 150.527 11.7318 150.527 12.1C150.527 12.7335 150.527 13.367 150.527 13.9973C150.527 14.4092 150.565 14.3718 150.163 14.3718C149.305 14.3718 148.448 14.3718 147.591 14.3718C147.299 14.3718 147.296 14.3749 147.296 14.6589C147.296 16.7434 147.296 18.828 147.299 20.9157C147.299 21.2901 147.324 21.6615 147.437 22.0235C147.619 22.6258 148.027 22.9503 148.646 23.0502C149.252 23.1469 149.808 23.0252 150.332 22.7225C150.383 22.6913 150.427 22.6382 150.499 22.6507C150.555 22.7007 150.53 22.7662 150.53 22.8224C150.533 23.5682 150.53 24.3171 150.533 25.0629C150.533 25.2065 150.524 25.3095 150.351 25.3688C149.189 25.7651 148.009 25.8899 146.803 25.6247C145.33 25.3032 144.51 24.3483 144.187 22.9253C144.055 22.3449 144.017 21.7551 144.017 21.1653C144.014 19.0277 144.017 16.8901 144.014 14.7525C144.014 14.3281 144.055 14.3718 143.625 14.3718C142.256 14.3687 140.883 14.3718 139.514 14.3718C139.452 14.3718 139.389 14.378 139.326 14.3718C139.185 14.3593 139.144 14.4311 139.15 14.559C139.156 14.6402 139.15 14.7244 139.15 14.8087C139.15 18.1602 139.15 21.5117 139.15 24.8601C139.15 24.9537 139.15 25.0473 139.15 25.141C139.147 25.4093 139.147 25.4125 138.874 25.4125C137.985 25.4125 137.096 25.4125 136.208 25.4125C135.859 25.4125 135.884 25.4405 135.884 25.0942C135.884 21.6709 135.884 18.2476 135.884 14.8243C135.884 14.3125 135.957 14.378 135.442 14.3749C134.908 14.3718 134.374 14.3687 133.84 14.378C133.68 14.3812 133.617 14.3312 133.62 14.1658C133.627 13.4387 133.62 12.7148 133.623 11.9877C133.623 11.7786 133.63 11.7755 133.862 11.7755C134.405 11.7723 134.949 11.7755 135.495 11.7755C135.567 11.7755 135.643 11.7723 135.715 11.7755C135.831 11.7817 135.894 11.7411 135.887 11.6163C135.884 11.5445 135.887 11.4697 135.887 11.3979C135.891 10.755 135.862 10.1091 135.906 9.46935C135.997 8.09629 136.522 6.91983 137.621 6.03358C138.371 5.42507 139.247 5.10989 140.202 4.99755C140.956 4.91017 141.706 4.94137 142.444 5.11613C142.755 5.19102 142.758 5.19102 142.758 5.50308C142.758 6.23018 142.758 6.95416 142.758 7.68125C142.755 7.76551 142.771 7.86225 142.717 7.97459Z" fill="#C7C7C7"/>
<path d="M100.314 11.4194C100.986 11.4288 101.787 11.5037 102.566 11.7315C104.673 12.3525 106.07 13.7131 106.698 15.7945C107.307 17.8167 107.216 19.8357 106.412 21.7954C105.696 23.5336 104.412 24.7132 102.616 25.3092C100.829 25.9052 99.0173 25.9115 97.2243 25.331C95.2397 24.6882 93.9083 23.3526 93.2834 21.3804C92.6961 19.5299 92.7087 17.6544 93.3179 15.8101C94.0119 13.7131 95.4909 12.3931 97.6105 11.7627C98.4489 11.5162 99.3125 11.4319 100.314 11.4194ZM103.668 18.5968C103.658 18.3752 103.649 18.1474 103.636 17.9196C103.602 17.3361 103.492 16.7681 103.279 16.222C102.971 15.4263 102.462 14.8053 101.668 14.4402C101.124 14.1905 100.55 14.1125 99.9593 14.1094C98.3767 14.1 97.1929 14.9145 96.6433 16.3905C96.2697 17.3954 96.2194 18.4345 96.3262 19.4893C96.3796 20.0073 96.5052 20.5097 96.7156 20.9903C97.1144 21.9015 97.755 22.5631 98.719 22.8783C99.4601 23.1217 100.217 23.1435 100.98 22.9844C102.016 22.769 102.742 22.1668 103.184 21.2181C103.571 20.3849 103.658 19.5018 103.668 18.5968Z" fill="#C7C7C7"/>
<path d="M126.221 25.7525C124.921 25.7431 123.734 25.5496 122.625 25.0035C121.061 24.2327 120.025 23.0032 119.519 21.3556C118.954 19.5207 118.96 17.6701 119.557 15.8446C120.22 13.8162 121.617 12.4868 123.655 11.8378C125.275 11.3229 126.927 11.2698 128.576 11.6786C130.739 12.2153 132.212 13.5416 132.897 15.6574C133.55 17.6701 133.484 19.6923 132.714 21.6614C131.904 23.7397 130.334 24.9879 128.167 25.5247C127.505 25.6901 126.827 25.7369 126.221 25.7525ZM122.518 18.6313C122.515 19.3085 122.6 19.9763 122.82 20.6191C123.046 21.29 123.394 21.8829 123.956 22.3354C124.613 22.8628 125.379 23.0656 126.202 23.0812C126.789 23.0937 127.37 23.0126 127.913 22.7661C128.786 22.3666 129.323 21.6707 129.603 20.7845C130.042 19.3833 130.033 17.9666 129.64 16.5561C129.402 15.701 128.931 14.9896 128.124 14.5433C127.533 14.2156 126.889 14.1127 126.221 14.1095C124.625 14.0971 123.407 14.9396 122.873 16.4313C122.616 17.1459 122.525 17.8823 122.518 18.6313Z" fill="#C7C7C7"/>
<path d="M117.034 15.0171C116.529 14.7113 116.055 14.4741 115.549 14.3025C114.908 14.0872 114.252 13.9842 113.577 14.006C113.323 14.0154 113.078 14.0591 112.839 14.1371C112.374 14.2931 112.019 14.5771 111.925 15.0733C111.822 15.6131 111.95 16.1062 112.387 16.4838C112.563 16.6336 112.757 16.7553 112.968 16.8489C113.586 17.1266 114.208 17.3981 114.827 17.6758C115.361 17.9161 115.876 18.1907 116.34 18.5496C117.458 19.4171 117.863 20.578 117.713 21.9355C117.524 23.6393 116.507 24.7159 114.946 25.3151C113.907 25.7145 112.82 25.8175 111.709 25.7363C110.732 25.6646 109.787 25.468 108.876 25.1091C108.512 24.9656 108.581 25.0061 108.578 24.6629C108.575 23.7298 108.578 22.7967 108.578 21.8699C108.666 21.82 108.703 21.8886 108.75 21.9199C109.696 22.5877 110.738 23.0183 111.897 23.14C112.431 23.1962 112.965 23.1837 113.483 23.0308C113.948 22.8935 114.312 22.6407 114.428 22.1321C114.55 21.5984 114.403 21.1491 114.001 20.7808C113.706 20.5093 113.348 20.3346 112.987 20.1692C112.368 19.8883 111.727 19.6605 111.118 19.3641C110.798 19.2081 110.487 19.0395 110.195 18.8367C109.253 18.1876 108.719 17.2983 108.606 16.1686C108.487 15.0015 108.763 13.9467 109.564 13.0511C110.164 12.3802 110.924 11.9589 111.781 11.7061C113.238 11.2755 114.695 11.3691 116.146 11.728C116.387 11.7873 116.626 11.8653 116.871 11.9277C116.994 11.9589 117.037 12.0276 117.037 12.1493C117.034 13.0886 117.034 14.0216 117.034 15.0171Z" fill="#C7C7C7"/>
<path d="M82.2918 15.2407C82.1474 15.2188 82.0909 15.1377 82.0155 15.0846C80.7531 14.1922 79.3683 13.8895 77.8548 14.2608C76.7683 14.5292 75.9581 15.1876 75.4588 16.1644C74.6486 17.7496 74.6266 19.3848 75.3709 20.995C75.9518 22.2495 77.0163 22.8892 78.3823 23.039C79.7012 23.1826 80.8725 22.7519 81.9684 22.0685C82.0626 22.0092 82.1537 21.9468 82.2542 21.8813C82.3138 21.9874 82.2918 22.081 82.2918 22.1684C82.295 22.9579 82.2824 23.7443 82.3013 24.5338C82.3075 24.7678 82.2165 24.8833 82.0186 24.9863C81.3906 25.3108 80.7217 25.5105 80.0278 25.6229C78.8816 25.8101 77.7354 25.8226 76.5987 25.5667C73.9452 24.9707 72.328 23.3199 71.7031 20.7204C71.3169 19.1102 71.4268 17.5031 71.9795 15.9428C72.7425 13.799 74.2373 12.3885 76.4448 11.7643C78.2755 11.2463 80.1 11.3025 81.8962 11.9516C82.2918 12.0951 82.2918 12.1014 82.2918 12.5195C82.2918 13.4182 82.2918 14.3201 82.2918 15.2407Z" fill="#C7C7C7"/>
<path d="M87.9935 14.0161C88.0563 13.8881 88.1128 13.7571 88.1787 13.6291C88.678 12.6524 89.4034 11.9284 90.4993 11.6351C91.1682 11.4572 91.8433 11.4822 92.5153 11.6569C92.6598 11.6944 92.7509 11.7505 92.7509 11.9284C92.7414 12.902 92.7446 13.8788 92.7446 14.8555C92.7446 14.8836 92.7446 14.9179 92.6629 14.9616C92.619 14.9772 92.5593 14.9023 92.4902 14.868C91.8308 14.5341 91.1368 14.3874 90.3957 14.4998C89.6169 14.6184 89.058 15.0584 88.656 15.7074C88.2792 16.3191 88.0814 16.9931 87.9935 17.7015C87.9464 18.0822 87.9432 18.466 87.9432 18.8499C87.9464 20.9251 87.9432 23.0003 87.9432 25.0754C87.9432 25.4655 87.9809 25.4218 87.5884 25.425C86.7311 25.4281 85.8738 25.425 85.0134 25.425C84.7277 25.425 84.7245 25.4218 84.7245 25.1347C84.7245 22.3543 84.7245 19.5739 84.7245 16.7934C84.7245 15.2581 84.7245 13.7228 84.7245 12.1874C84.7245 12.125 84.7308 12.0626 84.7245 12.0002C84.7088 11.8473 84.7591 11.7693 84.9318 11.7817C85.0762 11.7942 85.2238 11.7849 85.3714 11.7849C86.1345 11.7849 86.8975 11.7849 87.6637 11.7849C87.9401 11.7849 87.9401 11.788 87.9432 12.0532C87.9464 12.7054 87.9432 13.3608 87.9432 14.013C87.9589 14.0067 87.9746 14.0098 87.9935 14.0161Z" fill="#C7C7C7"/>
<path d="M69.2794 18.5903C69.2794 20.7279 69.2794 22.8624 69.2794 25C69.2794 25.0624 69.2794 25.1248 69.2794 25.1872C69.2731 25.4088 69.2731 25.4119 69.0533 25.415C68.5414 25.4181 68.0296 25.415 67.5146 25.415C67.0969 25.415 66.6793 25.4088 66.2585 25.4181C66.1015 25.4213 66.0167 25.3838 66.0387 25.2122C66.045 25.1498 66.0387 25.0874 66.0387 25.0249C66.0387 20.7404 66.0387 16.4589 66.0387 12.1744C66.0387 12.1525 66.0387 12.1338 66.0387 12.1119C66.0387 11.7437 66.0167 11.7749 66.3747 11.7749C67.2226 11.7749 68.0673 11.7749 68.9151 11.7749C69.3108 11.7749 69.2731 11.7343 69.2731 12.1182C69.2794 14.2776 69.2794 16.434 69.2794 18.5903Z" fill="#C7C7C7"/>
<path d="M67.7362 9.64399C67.5007 9.65335 67.3248 9.63151 67.149 9.59094C66.2383 9.3881 65.7076 8.69533 65.7484 7.76227C65.8144 6.2051 67.3028 5.72141 68.3831 6.08964C69.4256 6.44538 69.9281 7.46582 69.5418 8.48625C69.2529 9.24456 68.6374 9.55974 67.8681 9.64399C67.8021 9.65023 67.7393 9.64399 67.7362 9.64399Z" fill="#C7C7C7"/>
<path d="M62.9278 25.0642C62.9278 18.951 62.9278 12.8409 62.9278 6.72764C62.9278 6.64339 62.9279 6.56225 62.9216 6.47799C62.9153 6.40622 62.8745 6.36565 62.7991 6.36565C62.7269 6.36253 62.6515 6.36253 62.5793 6.36253C61.2918 6.36253 60.0043 6.36253 58.72 6.36253C58.3652 6.36253 58.4154 6.30948 58.271 6.65899C57.5361 8.4346 56.7951 10.204 56.0728 11.9827C54.9078 14.8474 53.6423 17.6716 52.6249 20.5955C52.6123 20.6361 52.6123 20.6985 52.5495 20.7048C52.4836 20.6673 52.4805 20.6018 52.4585 20.5425C52.2292 19.8872 52.022 19.2225 51.7645 18.5765C50.1693 14.5884 48.5615 10.6034 46.9569 6.6153C46.8281 6.30012 46.8313 6.35941 46.5738 6.35941C45.2235 6.35941 43.8732 6.35941 42.5261 6.35941C42.1273 6.35941 42.1587 6.31884 42.1587 6.73076C42.1587 10.5909 42.1587 14.4511 42.1587 18.3113C42.1587 20.5831 42.1587 22.8549 42.1587 25.1298C42.1587 25.4013 42.1618 25.4044 42.4287 25.4044C43.2671 25.4044 44.1024 25.4044 44.9409 25.4044C45.2737 25.4044 45.2455 25.42 45.2455 25.0986C45.2455 25.0767 45.2455 25.058 45.2455 25.0361C45.2455 20.917 45.2455 16.7978 45.2455 12.6786C45.2455 12.1793 45.2392 11.6831 45.2046 11.187C45.1827 10.878 45.1638 10.5628 45.2078 10.2477C45.2612 10.3382 45.2863 10.4349 45.3177 10.5316C45.4496 10.9467 45.5469 11.3711 45.7165 11.7768C46.7276 14.2015 47.7325 16.6262 48.7405 19.0509C49.5852 21.0824 50.4299 23.1139 51.2652 25.1516C51.3437 25.3451 51.4348 25.42 51.6514 25.4137C52.1853 25.395 52.7191 25.4106 53.2529 25.4075C53.5921 25.4044 53.5418 25.4574 53.68 25.1266C55.2941 21.1885 56.9081 17.2503 58.519 13.3121C58.9178 12.3322 59.3732 11.3742 59.6118 10.335C59.6212 10.2882 59.6244 10.2321 59.684 10.2165C59.7154 10.282 59.706 10.3538 59.7029 10.4255C59.6746 11.1402 59.6244 11.8548 59.6244 12.5725C59.615 16.7635 59.615 20.9575 59.6118 25.1485C59.6118 25.4075 59.615 25.4106 59.8944 25.4106C60.7957 25.4106 61.6938 25.4106 62.595 25.4106C62.953 25.4075 62.9278 25.4356 62.9278 25.0642Z" fill="#C7C7C7"/>
</svg>
