<svg width="80" height="28" viewBox="0 0 80 28" fill="none" xmlns="http://www.w3.org/2000/svg">
<path d="M4.13238 0C4.13027 0.0697348 4.12816 0.141583 4.12816 0.211317C4.12816 5.74995 4.13027 11.2907 4.12605 16.8293C4.12605 17.8373 4.25262 18.822 4.59646 19.773C5.06475 21.0705 5.81149 22.1651 6.94426 22.9702C7.91882 23.6633 9.01361 24.0247 10.2012 24.1219C11.2391 24.2085 12.2537 24.0965 13.224 23.714C15.2723 22.9047 16.5696 21.4022 17.2067 19.3102C17.4535 18.4966 17.5357 17.6556 17.5357 16.8082C17.5357 11.297 17.5357 5.78587 17.5357 0.274713C17.5357 0.183846 17.5421 0.0929797 17.5442 0C18.9069 0 20.2717 0 21.6344 0C21.6322 0.0993192 21.628 0.196525 21.628 0.295844C21.628 9.21133 21.628 18.1268 21.628 27.0423C21.628 27.1395 21.628 27.2346 21.628 27.3403C20.2653 27.3403 18.928 27.3403 17.5737 27.3403C17.5737 27.1226 17.5737 26.9176 17.5737 26.7147C17.5737 26.5098 17.5737 26.3069 17.5737 26.1019C17.5737 25.8906 17.5737 25.6793 17.5737 25.468C17.5737 25.2693 17.5695 25.0707 17.5674 24.8298C17.4703 24.9249 17.4092 24.9819 17.3501 25.039C15.7427 26.6091 13.8126 27.4945 11.5871 27.7502C11.3509 27.7777 11.1146 27.803 10.8784 27.8305C10.5261 27.8305 10.1759 27.8305 9.82364 27.8305C9.76246 27.8199 9.70129 27.8009 9.64011 27.7967C8.95033 27.7629 8.27109 27.6593 7.6024 27.4882C5.58789 26.9683 3.86659 25.9582 2.52288 24.3543C1.0505 22.5898 0.265789 20.5401 0.0780491 18.2536C0.0653925 18.0951 0.0274226 17.9366 0 17.7781C0 11.8528 0 5.92745 0 0C1.37957 0 2.75703 0 4.13238 0Z" fill="#C7C7C7"/>
<path d="M28.6901 0C28.6901 3.29866 28.6901 6.59944 28.6901 9.95094C28.7766 9.87486 28.8314 9.83048 28.8841 9.77977C29.9346 8.78658 31.137 8.03429 32.4976 7.54403C33.5523 7.16366 34.645 7.00095 35.7651 7.00306C40.0515 7.0094 43.7957 9.51985 45.4284 13.4905C46.0486 15.0014 46.2659 16.5715 46.1688 18.1987C45.9558 21.7572 43.5553 25.9857 38.6445 27.4227C37.9273 27.6319 37.1932 27.7544 36.4486 27.7946C36.379 27.7988 36.3115 27.8178 36.2419 27.8284C35.9191 27.8284 35.5943 27.8284 35.2715 27.8284C35.2019 27.8157 35.1344 27.7988 35.0648 27.7946C34.4446 27.7608 33.835 27.6657 33.2359 27.5051C31.5568 27.0592 30.0992 26.216 28.8356 25.0305C28.7871 24.9841 28.7365 24.9418 28.65 24.8678C28.65 25.7194 28.65 26.5224 28.65 27.3402C27.3464 27.3402 26.0638 27.3402 24.756 27.3402C24.756 27.2473 24.756 27.1649 24.756 27.0824C24.756 18.131 24.756 9.17963 24.756 0.230336C24.756 0.154262 24.7623 0.0760743 24.7665 0C26.0765 0 27.3843 0 28.6901 0ZM42.2938 17.1632C42.2938 16.4236 42.0934 15.4684 41.68 14.5577C40.1084 11.0942 36.4591 9.84105 33.3329 10.8554C30.7151 11.7049 28.8441 14.1097 28.6373 16.8589C28.5487 18.0402 28.7217 19.1728 29.1984 20.259C30.4219 23.0484 33.5861 24.9798 37.0477 24.1536C40.2224 23.3971 42.3234 20.4534 42.2938 17.1632Z" fill="#C7C7C7"/>
<path d="M79.9519 10.9437C79.3887 10.9458 78.8276 10.9437 78.2643 10.9521C76.9734 10.9712 75.8828 11.4382 75.0348 12.4292C74.5306 13.0188 74.2185 13.7035 74.0476 14.4579C73.9252 14.9946 73.8809 15.542 73.8809 16.0914C73.8809 19.7514 73.8809 23.4114 73.8809 27.0714C73.8809 27.1602 73.8809 27.251 73.8809 27.3504C72.5647 27.3504 71.2737 27.3504 69.9848 27.3504C69.9384 27.1982 69.9173 7.87748 69.9616 7.47175C70.1114 7.4316 73.4823 7.41892 73.8388 7.45907C73.8409 8.23883 73.8388 9.0207 73.8409 9.80469C73.8535 9.81103 73.8683 9.81737 73.8809 9.82371C73.9231 9.76454 73.9632 9.70748 74.0033 9.64831C74.5939 8.78614 75.3575 8.12894 76.3173 7.71054C77.024 7.40201 77.7728 7.29213 78.5386 7.27945C79.009 7.271 79.4794 7.27311 79.9519 7.271C79.9519 8.49452 79.9519 9.72016 79.9519 10.9437Z" fill="#C7C7C7"/>
<path d="M67.7664 18.6877C62.3725 18.6877 57.004 18.6877 51.6165 18.6877C51.6228 18.7659 51.6228 18.8293 51.6334 18.8884C52.1333 21.5743 54.2575 23.7678 56.9365 24.2263C59.6408 24.6891 61.9169 23.8671 63.6804 21.7243C63.7563 21.6313 63.8301 21.5384 63.9209 21.4221C64.8659 22.1216 65.8046 22.819 66.758 23.5248C66.7243 23.5755 66.699 23.6156 66.6716 23.6537C65.0768 25.7013 63.0349 27.0432 60.4825 27.5672C59.3054 27.8103 58.1136 27.8462 56.9154 27.7194C55.2068 27.5377 53.6205 27.0009 52.1966 26.0394C49.7665 24.3996 48.2604 22.1216 47.7837 19.2266C47.1993 15.6785 48.176 12.5722 50.6778 9.98987C52.1797 8.43881 54.036 7.5069 56.175 7.17935C58.2001 6.86872 60.1703 7.07581 62.0477 7.93376C64.4651 9.04106 66.1041 10.8774 67.0618 13.3435C67.5217 14.529 67.7389 15.7652 67.7727 17.0331C67.7853 17.5255 67.7769 18.0178 67.779 18.5102C67.7748 18.5609 67.7706 18.6095 67.7664 18.6877ZM63.7732 15.5517C63.3218 12.9885 61.0056 10.2963 57.3921 10.4928C53.9601 10.6809 52.0257 13.5421 51.722 15.5517C55.732 15.5517 59.7442 15.5517 63.7732 15.5517Z" fill="#C7C7C7"/>
</svg>
