<svg width="21" height="20" viewBox="0 0 21 20" fill="none" xmlns="http://www.w3.org/2000/svg">
<path d="M0.995728 0C7.66109 0 14.3304 0 20.9957 0C20.9957 6.66536 20.9957 13.3346 20.9957 20C20.9135 19.9961 20.8274 19.9883 20.7452 19.9883C18.8587 19.9883 16.9683 19.9883 15.0818 19.9883C15.0075 19.9883 14.9292 19.9883 14.8431 19.9883C14.8392 19.9022 14.8313 19.8395 14.8313 19.773C14.8313 17.3581 14.8313 14.9432 14.8274 12.5284C14.8274 12.3523 14.8744 12.2896 15.0583 12.2935C15.7472 12.3014 16.44 12.2975 17.1288 12.2975C17.4302 12.2975 17.4223 12.2975 17.4576 12.0039C17.5398 11.3464 17.6298 10.6888 17.7159 10.0352C17.755 9.73386 17.7902 9.43249 17.8294 9.11155C17.7276 9.10763 17.6493 9.0998 17.575 9.0998C16.7413 9.0998 15.9077 9.09198 15.074 9.10372C14.8666 9.10763 14.8235 9.0411 14.8274 8.84932C14.8392 8.25049 14.8313 7.65166 14.8313 7.05284C14.8313 6.92368 14.8313 6.79061 14.8627 6.66536C14.9918 6.14481 15.4145 5.83953 15.9938 5.83562C16.5613 5.8317 17.1249 5.8317 17.6924 5.83953C17.8333 5.83953 17.8842 5.80431 17.8842 5.65558C17.8764 4.82192 17.8803 3.98826 17.8842 3.1546C17.8842 3.00978 17.8411 2.96282 17.6963 2.96282C16.8235 2.96673 15.9507 2.95108 15.0779 2.97065C14.2286 2.9863 13.4732 3.27593 12.8353 3.83953C12.0094 4.56751 11.6337 5.49902 11.6259 6.58708C11.622 7.35421 11.622 8.12524 11.6259 8.89237C11.6259 9.05284 11.5828 9.10763 11.4184 9.10372C10.6944 9.09589 9.9742 9.10372 9.25013 9.09589C9.08183 9.09589 9.02704 9.13503 9.02704 9.31115C9.03487 10.2348 9.03095 11.1585 9.03095 12.0861C9.03095 12.1487 9.03878 12.2114 9.04269 12.2857C9.14054 12.2896 9.22665 12.2975 9.30884 12.2975C9.99377 12.2975 10.6748 12.2975 11.3597 12.2975C11.622 12.2975 11.622 12.2975 11.622 12.5519C11.622 14.955 11.622 17.3581 11.622 19.7573C11.622 19.8317 11.6102 19.9061 11.6063 19.9726C8.06031 19.9726 4.54172 19.9726 1.01138 19.9726C1.01138 19.8748 1.01138 19.7886 1.01138 19.7065C1.01138 13.229 1.01138 6.75147 1.01138 0.273973C1.00747 0.180039 0.999641 0.0900196 0.995728 0Z" fill="white"/>
</svg>
