<svg width="20" height="21" viewBox="0 0 20 21" fill="none" xmlns="http://www.w3.org/2000/svg">
<path d="M19.9957 14.7138C19.9957 11.5694 19.9957 8.42495 19.9957 5.28624C19.9786 5.23498 19.9559 5.18371 19.9445 5.13244C19.5286 2.63742 18.1102 1.01396 15.7234 0.233552C15.3987 0.12532 15.0513 0.074053 14.7152 0C11.5708 0 8.42637 0 5.28767 0C5.2364 0.0170891 5.18513 0.0455711 5.13387 0.0512674C2.23441 0.432925 0.0299072 2.90515 0.0128174 5.8331C-0.00427246 8.60723 -0.00427246 11.3757 0.0128174 14.1498C0.0299072 17.3626 2.64455 19.9772 5.85731 19.9943C8.62005 20.0057 11.3828 20.0057 14.1455 19.9943C16.783 19.9829 19.0786 18.217 19.785 15.6764C19.8647 15.3574 19.9217 15.0328 19.9957 14.7138ZM10.0214 18.1772C8.68841 18.1772 7.34976 18.1772 6.0168 18.1772C3.58445 18.1772 1.82427 16.417 1.81857 13.9903C1.81857 11.3187 1.81857 8.65281 1.81857 5.9812C1.81857 3.58872 3.58445 1.81715 5.97693 1.81715C8.65423 1.81715 11.3315 1.81715 14.0145 1.81715C16.407 1.81715 18.1786 3.58302 18.1843 5.96981C18.1843 8.6585 18.1843 11.3472 18.1843 14.0359C18.1843 16.3885 16.407 18.1715 14.0601 18.1772C12.7044 18.1772 11.36 18.1772 10.0214 18.1772Z" fill="white"/>
<path d="M9.98609 4.54493C6.98979 4.55063 4.53465 7.01147 4.54035 10.0135C4.54605 13.0098 7.01258 15.4592 10.0146 15.4478C12.9995 15.4364 15.4432 12.9813 15.4432 9.99067C15.4489 6.99438 12.9881 4.53924 9.98609 4.54493ZM6.36319 10.0078C6.3575 7.99124 7.96388 6.36777 9.969 6.36208C11.9969 6.35068 13.6261 7.96276 13.6318 9.98498C13.6375 12.0015 12.0311 13.625 10.026 13.6307C7.99805 13.6421 6.36889 12.03 6.36319 10.0078Z" fill="white"/>
<path d="M4.6452 5.45023C5.10091 5.44453 5.46548 5.06857 5.45409 4.60716C5.44269 4.15145 5.06103 3.79258 4.60532 3.80397C4.16101 3.81537 3.80783 4.18563 3.80783 4.62995C3.81353 5.09136 4.18379 5.45592 4.6452 5.45023Z" fill="white"/>
</svg>
